<svg width="337" height="14" viewBox="0 0 337 14" fill="none" xmlns="http://www.w3.org/2000/svg">
<path d="M1.5 13C5.53332 13 1.77292 11.9334 58.5 10.5C115.227 9.06662 229.478 9.80297 285.557 8.32615C341.636 6.84934 337.335 6.84934 334.404 6.74695C331.472 6.64457 330.038 6.4398 284.66 5.92478C239.282 5.40975 150.003 4.59068 103.397 4.27112C56.7902 3.95155 55.5616 4.15632 53.8024 4.26181C46.6572 4.69027 40.8927 4.98781 35.9038 5.50283C29.5073 6.16317 22.476 6.84934 18.3185 7.36436C14.3871 7.85139 9.84236 8.71087 7.14624 9.32828C6.50548 9.47501 5.90833 9.74092 6.20617 9.64164C10.3572 8.25795 14.9802 7.68082 18.9111 7.36747C23.2747 7.01962 27.1856 6.64457 40.3125 6.53908C52.0061 6.63837 73.9163 7.0479 117.864 6.23503C161.812 5.42216 227.133 3.37448 294.433 1.88525" stroke="#BABBBB" stroke-width="2" stroke-linecap="round"/>
</svg>
