<svg width="1440" height="399" viewBox="0 0 1440 399" fill="none" xmlns="http://www.w3.org/2000/svg">
<rect opacity="0.8" x="-80.2021" y="137.779" width="1529.63" height="51.5048" transform="rotate(0.801087 -80.2021 137.779)" fill="#666868"/>
<path d="M-577.825 160.336L-585.218 160.2L-584.815 138.386L-577.274 138.525C-575.108 138.565 -573.256 139.036 -571.717 139.938C-570.17 140.833 -568.993 142.101 -568.185 143.743C-567.377 145.385 -566.994 147.338 -567.036 149.603C-567.078 151.876 -567.537 153.821 -568.412 155.438C-569.28 157.056 -570.514 158.287 -572.113 159.131C-573.706 159.976 -575.61 160.377 -577.825 160.336ZM-581.203 156.854L-577.954 156.914C-576.434 156.942 -575.162 156.688 -574.136 156.153C-573.11 155.611 -572.332 154.79 -571.8 153.692C-571.268 152.587 -570.987 151.2 -570.956 149.531C-570.925 147.862 -571.155 146.473 -571.646 145.363C-572.137 144.245 -572.878 143.404 -573.869 142.839C-574.853 142.267 -576.084 141.967 -577.561 141.94L-580.927 141.878L-581.203 156.854ZM-556.416 161.051C-558.057 161.021 -559.467 160.654 -560.647 159.95C-561.821 159.239 -562.715 158.25 -563.331 156.981C-563.947 155.705 -564.239 154.212 -564.207 152.5C-564.176 150.817 -563.83 149.346 -563.167 148.087C-562.497 146.821 -561.577 145.843 -560.407 145.154C-559.236 144.458 -557.869 144.125 -556.307 144.154C-555.299 144.172 -554.35 144.353 -553.462 144.696C-552.566 145.033 -551.779 145.544 -551.103 146.232C-550.42 146.919 -549.889 147.788 -549.51 148.84C-549.132 149.884 -548.956 151.123 -548.982 152.557L-549.004 153.74L-562.414 153.492L-562.366 150.893L-552.652 151.072C-552.646 150.334 -552.793 149.674 -553.095 149.093C-553.397 148.505 -553.825 148.039 -554.38 147.695C-554.928 147.351 -555.571 147.172 -556.309 147.159C-557.097 147.144 -557.793 147.323 -558.397 147.695C-559 148.061 -559.475 148.549 -559.82 149.161C-560.158 149.766 -560.337 150.434 -560.358 151.165L-560.399 153.434C-560.417 154.385 -560.258 155.205 -559.923 155.893C-559.587 156.574 -559.11 157.101 -558.492 157.475C-557.874 157.842 -557.146 158.033 -556.308 158.048C-555.747 158.059 -555.237 157.99 -554.78 157.842C-554.323 157.687 -553.924 157.456 -553.585 157.15C-553.245 156.844 -552.986 156.461 -552.807 156.003L-549.214 156.474C-549.459 157.422 -549.907 158.244 -550.56 158.943C-551.205 159.634 -552.024 160.166 -553.018 160.538C-554.013 160.903 -555.145 161.074 -556.416 161.051ZM-532.72 149.128L-536.242 149.447C-536.335 149.09 -536.503 148.753 -536.746 148.436C-536.982 148.119 -537.304 147.861 -537.712 147.661C-538.12 147.462 -538.623 147.357 -539.219 147.346C-540.021 147.331 -540.699 147.493 -541.252 147.83C-541.799 148.168 -542.073 148.614 -542.076 149.168C-542.092 149.644 -541.925 150.034 -541.576 150.339C-541.219 150.644 -540.627 150.9 -539.8 151.107L-537.02 151.755C-535.478 152.117 -534.338 152.668 -533.598 153.406C-532.852 154.144 -532.486 155.099 -532.5 156.271C-532.526 157.301 -532.845 158.204 -533.456 158.981C-534.06 159.751 -534.891 160.347 -535.95 160.768C-537.009 161.189 -538.221 161.387 -539.584 161.361C-541.587 161.324 -543.191 160.876 -544.397 160.015C-545.603 159.148 -546.309 157.959 -546.515 156.449L-542.749 156.157C-542.592 156.898 -542.24 157.462 -541.693 157.849C-541.146 158.235 -540.429 158.437 -539.541 158.453C-538.625 158.47 -537.887 158.296 -537.326 157.929C-536.758 157.563 -536.469 157.103 -536.459 156.55C-536.45 156.081 -536.624 155.691 -536.98 155.379C-537.33 155.067 -537.879 154.822 -538.629 154.645L-541.409 154.008C-542.972 153.652 -544.123 153.08 -544.862 152.292C-545.6 151.497 -545.955 150.503 -545.925 149.311C-545.914 148.302 -545.624 147.434 -545.057 146.705C-544.482 145.97 -543.694 145.409 -542.692 145.023C-541.684 144.629 -540.526 144.445 -539.219 144.469C-537.302 144.504 -535.801 144.94 -534.715 145.777C-533.622 146.614 -532.957 147.731 -532.72 149.128ZM-529.411 161.229L-529.11 144.869L-525.254 144.94L-525.555 161.3L-529.411 161.229ZM-527.128 142.582C-527.739 142.571 -528.261 142.359 -528.693 141.946C-529.126 141.526 -529.337 141.028 -529.326 140.453C-529.316 139.871 -529.086 139.381 -528.639 138.985C-528.191 138.581 -527.662 138.385 -527.051 138.396C-526.433 138.408 -525.911 138.623 -525.486 139.043C-525.053 139.456 -524.842 139.953 -524.853 140.536C-524.863 141.111 -525.093 141.6 -525.54 142.004C-525.981 142.401 -526.51 142.594 -527.128 142.582ZM-514.595 167.981C-515.979 167.955 -517.165 167.745 -518.152 167.351C-519.14 166.963 -519.929 166.451 -520.521 165.815C-521.114 165.179 -521.52 164.479 -521.74 163.715L-518.252 162.938C-518.102 163.26 -517.88 163.58 -517.588 163.898C-517.296 164.223 -516.899 164.493 -516.399 164.709C-515.891 164.931 -515.251 165.049 -514.477 165.064C-513.383 165.084 -512.473 164.834 -511.746 164.315C-511.019 163.803 -510.644 162.943 -510.622 161.736L-510.565 158.636L-510.757 158.633C-510.963 159.027 -511.262 159.43 -511.653 159.841C-512.037 160.253 -512.544 160.596 -513.174 160.868C-513.797 161.141 -514.577 161.269 -515.515 161.251C-516.771 161.228 -517.906 160.912 -518.917 160.304C-519.922 159.689 -520.715 158.786 -521.297 157.596C-521.872 156.4 -522.142 154.91 -522.11 153.128C-522.076 151.331 -521.75 149.82 -521.131 148.596C-520.504 147.364 -519.674 146.438 -518.64 145.818C-517.605 145.191 -516.459 144.889 -515.203 144.912C-514.244 144.93 -513.459 145.107 -512.847 145.445C-512.228 145.777 -511.738 146.173 -511.377 146.634C-511.016 147.088 -510.743 147.516 -510.559 147.917L-510.346 147.921L-510.296 145.215L-506.494 145.286L-506.8 161.913C-506.826 163.312 -507.181 164.463 -507.865 165.367C-508.55 166.27 -509.475 166.939 -510.641 167.372C-511.807 167.805 -513.125 168.008 -514.595 167.981ZM-514.383 158.246C-513.566 158.261 -512.867 158.075 -512.284 157.688C-511.702 157.301 -511.255 156.737 -510.943 155.997C-510.631 155.257 -510.465 154.365 -510.446 153.321C-510.427 152.292 -510.559 151.387 -510.843 150.608C-511.12 149.828 -511.542 149.22 -512.109 148.784C-512.669 148.34 -513.365 148.11 -514.196 148.095C-515.055 148.079 -515.776 148.29 -516.36 148.726C-516.943 149.163 -517.388 149.769 -517.693 150.545C-517.999 151.314 -518.16 152.192 -518.179 153.179C-518.197 154.18 -518.068 155.06 -517.791 155.818C-517.506 156.569 -517.08 157.159 -516.513 157.589C-515.938 158.011 -515.228 158.23 -514.383 158.246ZM-498.811 152.204L-498.988 161.79L-502.844 161.719L-502.542 145.359L-498.856 145.426L-498.908 148.207L-498.716 148.21C-498.323 147.301 -497.709 146.584 -496.875 146.06C-496.035 145.535 -495.004 145.284 -493.782 145.307C-492.653 145.328 -491.674 145.587 -490.845 146.086C-490.009 146.584 -489.369 147.296 -488.924 148.22C-488.472 149.145 -488.262 150.26 -488.293 151.567L-488.485 161.984L-492.341 161.913L-492.16 152.092C-492.14 150.999 -492.408 150.138 -492.965 149.51C-493.514 148.881 -494.286 148.558 -495.28 148.54C-495.955 148.527 -496.558 148.665 -497.089 148.954C-497.612 149.236 -498.029 149.651 -498.337 150.199C-498.638 150.747 -498.796 151.416 -498.811 152.204ZM-464.808 146.598C-464.89 145.666 -465.296 144.934 -466.025 144.402C-466.747 143.87 -467.693 143.593 -468.865 143.572C-469.689 143.556 -470.398 143.668 -470.991 143.905C-471.585 144.143 -472.043 144.472 -472.363 144.892C-472.683 145.313 -472.852 145.796 -472.869 146.343C-472.878 146.797 -472.782 147.193 -472.582 147.531C-472.375 147.868 -472.093 148.158 -471.735 148.399C-471.377 148.633 -470.979 148.832 -470.542 148.996C-470.105 149.16 -469.663 149.3 -469.218 149.415L-467.182 149.964C-466.362 150.171 -465.575 150.444 -464.821 150.785C-464.06 151.126 -463.383 151.55 -462.788 152.059C-462.187 152.567 -461.715 153.176 -461.373 153.885C-461.031 154.595 -460.868 155.422 -460.886 156.366C-460.909 157.645 -461.257 158.764 -461.928 159.725C-462.599 160.679 -463.557 161.417 -464.803 161.941C-466.042 162.459 -467.534 162.701 -469.281 162.669C-470.978 162.637 -472.447 162.347 -473.687 161.799C-474.92 161.251 -475.879 160.466 -476.563 159.444C-477.24 158.423 -477.594 157.188 -477.624 155.738L-473.736 155.81C-473.694 156.571 -473.471 157.207 -473.068 157.719C-472.666 158.231 -472.137 158.617 -471.481 158.877C-470.818 159.138 -470.075 159.276 -469.251 159.292C-468.392 159.307 -467.636 159.193 -466.986 158.95C-466.327 158.699 -465.809 158.346 -465.432 157.892C-465.054 157.43 -464.856 156.886 -464.837 156.262C-464.834 155.693 -464.992 155.222 -465.312 154.846C-465.631 154.464 -466.084 154.143 -466.668 153.884C-467.246 153.617 -467.923 153.378 -468.701 153.164L-471.171 152.479C-472.959 151.985 -474.366 151.259 -475.393 150.302C-476.412 149.339 -476.907 148.076 -476.879 146.514C-476.855 145.228 -476.486 144.109 -475.773 143.156C-475.052 142.204 -474.083 141.472 -472.866 140.962C-471.649 140.444 -470.277 140.2 -468.75 140.228C-467.202 140.256 -465.851 140.551 -464.696 141.112C-463.534 141.667 -462.628 142.426 -461.978 143.39C-461.328 144.346 -461.004 145.439 -461.005 146.668L-464.808 146.598ZM-455.363 168.732C-455.888 168.723 -456.374 168.671 -456.82 168.578C-457.258 168.492 -457.608 168.393 -457.869 168.281L-456.919 165.294C-456.361 165.468 -455.862 165.555 -455.421 165.556C-454.981 165.557 -454.591 165.426 -454.253 165.162C-453.907 164.906 -453.611 164.471 -453.365 163.857L-453.019 162.979L-458.644 146.168L-454.554 146.244L-451.011 158.669L-450.84 158.672L-446.831 146.386L-442.73 146.462L-449.619 164.683C-449.941 165.544 -450.359 166.278 -450.875 166.887C-451.39 167.502 -452.017 167.967 -452.754 168.28C-453.485 168.6 -454.354 168.751 -455.363 168.732ZM-427.211 151.074L-430.733 151.393C-430.826 151.036 -430.994 150.699 -431.236 150.382C-431.472 150.065 -431.794 149.807 -432.202 149.607C-432.611 149.408 -433.113 149.303 -433.71 149.292C-434.512 149.277 -435.19 149.439 -435.743 149.776C-436.289 150.114 -436.564 150.56 -436.567 151.114C-436.583 151.59 -436.416 151.98 -436.066 152.285C-435.71 152.59 -435.118 152.846 -434.29 153.053L-431.511 153.701C-429.969 154.063 -428.828 154.614 -428.089 155.352C-427.342 156.09 -426.976 157.045 -426.991 158.217C-427.017 159.246 -427.336 160.15 -427.947 160.927C-428.55 161.697 -429.382 162.293 -430.441 162.714C-431.5 163.135 -432.711 163.333 -434.075 163.307C-436.077 163.27 -437.681 162.822 -438.887 161.961C-440.093 161.094 -440.799 159.905 -441.006 158.395L-437.239 158.103C-437.082 158.844 -436.731 159.408 -436.184 159.795C-435.637 160.181 -434.919 160.383 -434.032 160.399C-433.116 160.416 -432.377 160.242 -431.816 159.875C-431.249 159.509 -430.959 159.049 -430.949 158.496C-430.941 158.027 -431.115 157.637 -431.471 157.325C-431.82 157.013 -432.37 156.768 -433.12 156.591L-435.9 155.954C-437.463 155.598 -438.614 155.026 -439.352 154.238C-440.091 153.443 -440.445 152.449 -440.416 151.257C-440.405 150.248 -440.115 149.38 -439.548 148.651C-438.973 147.916 -438.185 147.355 -437.183 146.969C-436.174 146.575 -435.016 146.391 -433.71 146.415C-431.793 146.45 -430.291 146.886 -429.206 147.723C-428.113 148.56 -427.448 149.677 -427.211 151.074ZM-415.43 146.965L-415.485 149.948L-424.891 149.774L-424.836 146.792L-415.43 146.965ZM-422.441 142.915L-418.585 142.986L-418.869 158.345C-418.878 158.864 -418.808 159.263 -418.656 159.543C-418.498 159.816 -418.288 160.004 -418.028 160.108C-417.767 160.213 -417.476 160.268 -417.157 160.274C-416.915 160.278 -416.695 160.264 -416.495 160.233C-416.289 160.201 -416.132 160.172 -416.025 160.145L-415.431 163.172C-415.638 163.239 -415.934 163.312 -416.319 163.39C-416.697 163.468 -417.16 163.509 -417.707 163.513C-418.673 163.524 -419.54 163.362 -420.308 163.029C-421.076 162.688 -421.681 162.172 -422.123 161.482C-422.558 160.792 -422.762 159.936 -422.736 158.913L-422.441 142.915ZM-405.446 163.835C-407.086 163.805 -408.497 163.438 -409.677 162.734C-410.85 162.024 -411.745 161.034 -412.361 159.765C-412.976 158.49 -413.269 156.996 -413.237 155.285C-413.206 153.602 -412.859 152.131 -412.197 150.871C-411.527 149.605 -410.607 148.628 -409.436 147.939C-408.265 147.243 -406.899 146.909 -405.337 146.938C-404.328 146.957 -403.38 147.138 -402.491 147.481C-401.595 147.817 -400.809 148.329 -400.133 149.016C-399.449 149.704 -398.918 150.573 -398.54 151.624C-398.161 152.668 -397.985 153.907 -398.012 155.342L-398.034 156.524L-411.444 156.277L-411.396 153.678L-401.682 153.857C-401.675 153.118 -401.823 152.458 -402.125 151.878C-402.426 151.289 -402.855 150.823 -403.409 150.479C-403.957 150.135 -404.6 149.957 -405.339 149.943C-406.127 149.928 -406.823 150.107 -407.426 150.48C-408.03 150.845 -408.504 151.334 -408.849 151.945C-409.187 152.55 -409.367 153.218 -409.387 153.949L-409.429 156.218C-409.447 157.17 -409.288 157.989 -408.952 158.678C-408.617 159.359 -408.14 159.886 -407.522 160.26C-406.903 160.626 -406.175 160.817 -405.337 160.833C-404.776 160.843 -404.267 160.774 -403.81 160.626C-403.352 160.471 -402.954 160.241 -402.614 159.935C-402.275 159.628 -402.015 159.246 -401.837 158.787L-398.244 159.259C-398.489 160.206 -398.937 161.029 -399.589 161.727C-400.234 162.418 -401.054 162.95 -402.048 163.323C-403.042 163.688 -404.175 163.859 -405.446 163.835ZM-394.903 163.71L-394.601 147.349L-390.916 147.417L-390.967 150.197L-390.775 150.201C-390.417 149.27 -389.839 148.549 -389.041 148.038C-388.243 147.52 -387.297 147.271 -386.204 147.291C-385.096 147.312 -384.167 147.599 -383.417 148.152C-382.66 148.699 -382.134 149.437 -381.839 150.366L-381.668 150.369C-381.289 149.467 -380.665 148.754 -379.796 148.23C-378.92 147.699 -377.888 147.444 -376.703 147.466C-375.197 147.494 -373.977 147.993 -373.043 148.962C-372.109 149.931 -371.659 151.328 -371.693 153.153L-371.895 164.135L-375.762 164.063L-375.57 153.678C-375.552 152.662 -375.808 151.915 -376.339 151.437C-376.87 150.951 -377.526 150.701 -378.307 150.687C-379.237 150.669 -379.97 150.947 -380.507 151.52C-381.036 152.085 -381.309 152.83 -381.326 153.753L-381.514 163.957L-385.295 163.887L-385.101 153.342C-385.085 152.497 -385.328 151.818 -385.83 151.304C-386.325 150.791 -386.981 150.527 -387.797 150.512C-388.351 150.501 -388.858 150.634 -389.318 150.91C-389.777 151.178 -390.147 151.566 -390.426 152.072C-390.705 152.571 -390.851 153.158 -390.864 153.833L-391.047 163.781L-394.903 163.71ZM-300.9 165.444L-308.292 165.308L-307.89 143.493L-300.348 143.632C-298.183 143.672 -296.33 144.143 -294.791 145.045C-293.245 145.94 -292.068 147.209 -291.26 148.85C-290.452 150.492 -290.069 152.445 -290.111 154.711C-290.153 156.983 -290.611 158.928 -291.486 160.546C-292.354 162.163 -293.588 163.394 -295.188 164.239C-296.78 165.083 -298.684 165.485 -300.9 165.444ZM-304.277 161.961L-301.029 162.021C-299.509 162.049 -298.236 161.796 -297.211 161.261C-296.185 160.718 -295.406 159.898 -294.874 158.8C-294.342 157.694 -294.061 156.307 -294.03 154.638C-294 152.97 -294.23 151.58 -294.721 150.47C-295.212 149.353 -295.953 148.512 -296.944 147.946C-297.928 147.374 -299.158 147.074 -300.635 147.047L-304.001 146.985L-304.277 161.961ZM-279.491 166.158C-281.131 166.128 -282.541 165.761 -283.722 165.058C-284.895 164.347 -285.79 163.357 -286.405 162.088C-287.021 160.813 -287.313 159.319 -287.282 157.608C-287.251 155.925 -286.904 154.454 -286.241 153.194C-285.572 151.928 -284.652 150.951 -283.481 150.262C-282.31 149.566 -280.944 149.232 -279.382 149.261C-278.373 149.28 -277.425 149.461 -276.536 149.804C-275.64 150.14 -274.854 150.652 -274.177 151.339C-273.494 152.027 -272.963 152.896 -272.585 153.947C-272.206 154.991 -272.03 156.23 -272.057 157.665L-272.078 158.847L-285.489 158.6L-285.441 156.001L-275.727 156.18C-275.72 155.441 -275.868 154.782 -276.17 154.201C-276.471 153.613 -276.899 153.146 -277.454 152.802C-278.002 152.458 -278.645 152.28 -279.384 152.266C-280.172 152.251 -280.868 152.43 -281.471 152.803C-282.075 153.168 -282.549 153.657 -282.894 154.268C-283.232 154.873 -283.411 155.541 -283.432 156.272L-283.474 158.541C-283.491 159.493 -283.332 160.312 -282.997 161.001C-282.662 161.682 -282.185 162.209 -281.566 162.583C-280.948 162.949 -280.22 163.14 -279.382 163.156C-278.821 163.166 -278.312 163.097 -277.855 162.949C-277.397 162.794 -276.999 162.564 -276.659 162.258C-276.32 161.951 -276.06 161.569 -275.881 161.111L-272.289 161.582C-272.533 162.529 -272.982 163.352 -273.634 164.05C-274.279 164.742 -275.099 165.273 -276.093 165.646C-277.087 166.011 -278.22 166.182 -279.491 166.158ZM-255.795 154.235L-259.317 154.554C-259.41 154.197 -259.577 153.86 -259.82 153.543C-260.056 153.226 -260.378 152.968 -260.786 152.769C-261.195 152.57 -261.697 152.464 -262.293 152.453C-263.096 152.439 -263.774 152.6 -264.327 152.938C-264.873 153.276 -265.148 153.722 -265.151 154.276C-265.167 154.752 -265 155.142 -264.65 155.447C-264.294 155.752 -263.702 156.008 -262.874 156.215L-260.095 156.863C-258.553 157.225 -257.412 157.775 -256.673 158.513C-255.926 159.252 -255.56 160.207 -255.575 161.378C-255.601 162.408 -255.919 163.311 -256.531 164.089C-257.134 164.859 -257.966 165.454 -259.025 165.875C-260.084 166.296 -261.295 166.494 -262.659 166.469C-264.661 166.432 -266.265 165.983 -267.471 165.123C-268.677 164.255 -269.383 163.067 -269.59 161.557L-265.823 161.264C-265.666 162.006 -265.314 162.57 -264.767 162.956C-264.22 163.343 -263.503 163.544 -262.616 163.561C-261.7 163.578 -260.961 163.403 -260.4 163.037C-259.832 162.671 -259.543 162.211 -259.533 161.657C-259.524 161.188 -259.698 160.798 -260.055 160.486C-260.404 160.174 -260.954 159.93 -261.704 159.752L-264.483 159.115C-266.047 158.76 -267.198 158.188 -267.936 157.4C-268.674 156.605 -269.029 155.611 -269 154.418C-268.988 153.41 -268.699 152.541 -268.131 151.813C-267.557 151.078 -266.768 150.517 -265.767 150.13C-264.758 149.737 -263.6 149.552 -262.294 149.576C-260.376 149.612 -258.875 150.048 -257.789 150.885C-256.697 151.722 -256.032 152.839 -255.795 154.235ZM-252.486 166.337L-252.184 149.976L-248.328 150.047L-248.63 166.408L-252.486 166.337ZM-250.203 147.69C-250.813 147.678 -251.335 147.466 -251.768 147.053C-252.2 146.634 -252.411 146.136 -252.401 145.561C-252.39 144.978 -252.161 144.489 -251.713 144.092C-251.265 143.689 -250.736 143.492 -250.125 143.504C-249.508 143.515 -248.986 143.731 -248.56 144.151C-248.127 144.563 -247.916 145.061 -247.927 145.643C-247.938 146.218 -248.167 146.708 -248.615 147.112C-249.056 147.508 -249.585 147.701 -250.203 147.69ZM-237.669 173.089C-239.054 173.063 -240.24 172.853 -241.227 172.458C-242.214 172.071 -243.004 171.559 -243.596 170.923C-244.188 170.287 -244.594 169.587 -244.814 168.822L-241.327 168.045C-241.176 168.367 -240.955 168.688 -240.662 169.006C-240.37 169.331 -239.974 169.601 -239.473 169.816C-238.966 170.039 -238.325 170.157 -237.551 170.171C-236.458 170.191 -235.547 169.942 -234.82 169.422C-234.093 168.91 -233.719 168.05 -233.697 166.843L-233.639 163.744L-233.831 163.74C-234.037 164.134 -234.336 164.537 -234.727 164.949C-235.111 165.361 -235.618 165.703 -236.248 165.976C-236.872 166.248 -237.652 166.376 -238.589 166.359C-239.846 166.336 -240.98 166.02 -241.992 165.412C-242.996 164.796 -243.789 163.894 -244.371 162.704C-244.946 161.507 -245.217 160.017 -245.184 158.235C-245.151 156.438 -244.825 154.928 -244.205 153.703C-243.579 152.472 -242.748 151.546 -241.714 150.926C-240.68 150.298 -239.534 149.996 -238.277 150.019C-237.318 150.037 -236.533 150.215 -235.921 150.553C-235.302 150.884 -234.812 151.28 -234.452 151.742C-234.091 152.196 -233.818 152.623 -233.633 153.025L-233.42 153.029L-233.371 150.323L-229.568 150.393L-229.875 167.02C-229.9 168.419 -230.256 169.571 -230.94 170.474C-231.624 171.378 -232.549 172.046 -233.715 172.479C-234.881 172.913 -236.199 173.116 -237.669 173.089ZM-237.457 163.354C-236.641 163.369 -235.941 163.183 -235.359 162.796C-234.776 162.409 -234.329 161.845 -234.017 161.105C-233.705 160.365 -233.539 159.473 -233.52 158.429C-233.501 157.399 -233.634 156.495 -233.918 155.715C-234.194 154.936 -234.616 154.328 -235.184 153.891C-235.744 153.447 -236.439 153.218 -237.27 153.203C-238.129 153.187 -238.851 153.397 -239.434 153.834C-240.018 154.271 -240.462 154.877 -240.768 155.653C-241.073 156.421 -241.235 157.299 -241.253 158.286C-241.272 159.287 -241.142 160.167 -240.865 160.925C-240.58 161.676 -240.154 162.267 -239.587 162.696C-239.012 163.119 -238.302 163.338 -237.457 163.354ZM-221.885 157.312L-222.062 166.898L-225.918 166.827L-225.616 150.466L-221.931 150.534L-221.982 153.314L-221.79 153.318C-221.397 152.408 -220.784 151.692 -219.95 151.167C-219.109 150.643 -218.078 150.392 -216.857 150.414C-215.728 150.435 -214.749 150.695 -213.92 151.193C-213.083 151.692 -212.443 152.403 -211.998 153.328C-211.547 154.252 -211.336 155.368 -211.367 156.674L-211.56 167.092L-215.415 167.021L-215.234 157.2C-215.214 156.106 -215.482 155.245 -216.039 154.617C-216.589 153.989 -217.361 153.666 -218.355 153.647C-219.029 153.635 -219.632 153.773 -220.163 154.061C-220.687 154.343 -221.103 154.758 -221.411 155.306C-221.713 155.855 -221.871 156.523 -221.885 157.312ZM-200.647 148.785L-200.586 145.472L-183.181 145.793L-183.242 149.106L-189.984 148.981L-190.326 167.483L-194.245 167.411L-193.904 148.909L-200.647 148.785ZM-176.366 158.151L-176.542 167.738L-180.398 167.666L-179.996 145.852L-176.225 145.921L-176.377 154.155L-176.185 154.159C-175.785 153.243 -175.179 152.526 -174.366 152.008C-173.547 151.483 -172.512 151.232 -171.262 151.255C-170.126 151.276 -169.14 151.532 -168.304 152.024C-167.468 152.515 -166.827 153.223 -166.382 154.148C-165.931 155.072 -165.717 156.195 -165.741 157.516L-165.933 167.933L-169.789 167.862L-169.608 158.041C-169.588 156.941 -169.856 156.08 -170.413 155.459C-170.963 154.83 -171.745 154.507 -172.761 154.488C-173.442 154.476 -174.056 154.614 -174.601 154.902C-175.139 155.183 -175.566 155.598 -175.881 156.146C-176.19 156.695 -176.351 157.363 -176.366 158.151ZM-162.003 168.006L-161.701 151.645L-157.845 151.716L-158.147 168.077L-162.003 168.006ZM-159.72 149.359C-160.331 149.347 -160.852 149.135 -161.285 148.722C-161.718 148.302 -161.929 147.805 -161.918 147.23C-161.907 146.647 -161.678 146.158 -161.23 145.761C-160.783 145.357 -160.253 145.161 -159.643 145.172C-159.025 145.184 -158.503 145.399 -158.078 145.819C-157.645 146.232 -157.434 146.73 -157.445 147.312C-157.455 147.887 -157.684 148.377 -158.132 148.78C-158.573 149.177 -159.102 149.37 -159.72 149.359ZM-150.149 158.635L-150.326 168.221L-154.182 168.15L-153.88 151.789L-150.195 151.857L-150.246 154.637L-150.054 154.641C-149.661 153.732 -149.048 153.015 -148.214 152.49C-147.373 151.966 -146.342 151.715 -145.121 151.738C-143.992 151.758 -143.013 152.018 -142.184 152.516C-141.348 153.015 -140.707 153.726 -140.262 154.651C-139.811 155.575 -139.6 156.691 -139.632 157.997L-139.824 168.415L-143.68 168.344L-143.498 158.523C-143.478 157.429 -143.747 156.568 -144.303 155.94C-144.853 155.312 -145.625 154.989 -146.619 154.97C-147.293 154.958 -147.896 155.096 -148.427 155.385C-148.951 155.666 -149.367 156.081 -149.676 156.63C-149.977 157.178 -150.135 157.846 -150.149 158.635ZM-132.294 163.418L-132.219 158.763L-131.601 158.774L-125.6 152.311L-121.095 152.394L-128.476 160.313L-129.275 160.298L-132.294 163.418ZM-135.904 168.487L-135.502 146.673L-131.646 146.744L-132.048 168.558L-135.904 168.487ZM-125.636 168.676L-130.824 161.133L-128.175 158.465L-121.024 168.761L-125.636 168.676ZM-118.827 168.802L-118.525 152.441L-114.669 152.512L-114.971 168.873L-118.827 168.802ZM-116.544 150.155C-117.154 150.144 -117.676 149.932 -118.109 149.519C-118.542 149.099 -118.753 148.601 -118.742 148.026C-118.731 147.444 -118.502 146.954 -118.054 146.558C-117.606 146.154 -117.077 145.958 -116.466 145.969C-115.849 145.98 -115.327 146.196 -114.901 146.616C-114.469 147.029 -114.258 147.526 -114.268 148.108C-114.279 148.684 -114.508 149.173 -114.956 149.577C-115.397 149.974 -115.926 150.166 -116.544 150.155ZM-106.973 159.431L-107.15 169.017L-111.006 168.946L-110.704 152.585L-107.019 152.653L-107.07 155.433L-106.878 155.437C-106.485 154.528 -105.871 153.811 -105.038 153.287C-104.197 152.762 -103.166 152.511 -101.945 152.534C-100.815 152.555 -99.8364 152.814 -99.0074 153.313C-98.1713 153.811 -97.5309 154.523 -97.0862 155.447C-96.6344 156.372 -96.4242 157.487 -96.4554 158.794L-96.6475 169.211L-100.503 169.14L-100.322 159.319C-100.302 158.226 -100.57 157.365 -101.127 156.736C-101.677 156.108 -102.448 155.785 -103.443 155.767C-104.117 155.754 -104.72 155.892 -105.251 156.181C-105.775 156.462 -106.191 156.877 -106.499 157.426C-106.801 157.974 -106.959 158.643 -106.973 159.431ZM-85.7319 175.891C-87.1166 175.865 -88.3025 175.655 -89.2898 175.26C-90.2771 174.873 -91.0668 174.361 -91.6589 173.725C-92.2509 173.089 -92.6571 172.389 -92.8774 171.625L-89.3895 170.847C-89.2392 171.17 -89.0178 171.49 -88.7253 171.808C-88.4329 172.133 -88.0366 172.403 -87.5362 172.618C-87.0288 172.841 -86.3882 172.959 -85.6141 172.973C-84.5206 172.994 -83.6103 172.744 -82.8832 172.225C-82.1563 171.712 -81.7818 170.853 -81.7595 169.645L-81.7023 166.546L-81.8941 166.542C-82.1002 166.936 -82.3989 167.339 -82.7901 167.751C-83.1742 168.163 -83.6813 168.505 -84.3114 168.778C-84.9344 169.051 -85.7146 169.178 -86.652 169.161C-87.9089 169.138 -89.0431 168.822 -90.0548 168.214C-91.0593 167.599 -91.8524 166.696 -92.4343 165.506C-93.0089 164.309 -93.2798 162.82 -93.2469 161.037C-93.2138 159.241 -92.8876 157.73 -92.2683 156.506C-91.6418 155.274 -90.8113 154.348 -89.777 153.728C-88.7425 153.101 -87.5968 152.798 -86.34 152.822C-85.3813 152.839 -84.5961 153.017 -83.9843 153.355C-83.3653 153.686 -82.8754 154.082 -82.5145 154.544C-82.1535 154.998 -81.8808 155.426 -81.6964 155.827L-81.4834 155.831L-81.4335 153.125L-77.6309 153.195L-77.9375 169.823C-77.9633 171.221 -78.3184 172.373 -79.0028 173.276C-79.6872 174.18 -80.6124 174.849 -81.7782 175.282C-82.9441 175.715 -84.262 175.918 -85.7319 175.891ZM-85.5204 166.156C-84.7037 166.171 -84.0042 165.985 -83.4217 165.598C-82.8391 165.211 -82.3919 164.647 -82.0799 163.907C-81.7679 163.167 -81.6023 162.275 -81.583 161.231C-81.564 160.201 -81.6965 159.297 -81.9805 158.517C-82.2573 157.738 -82.6794 157.13 -83.2468 156.693C-83.8069 156.25 -84.5023 156.02 -85.3331 156.005C-86.1924 155.989 -86.9137 156.199 -87.4971 156.636C-88.0806 157.073 -88.5251 157.679 -88.8306 158.455C-89.136 159.224 -89.2979 160.101 -89.3161 161.089C-89.3345 162.09 -89.2051 162.969 -88.9279 163.728C-88.6434 164.479 -88.2174 165.069 -87.6499 165.499C-87.0753 165.921 -86.3654 166.14 -85.5204 166.156ZM0.543016 171.004L-6.84919 170.867L-6.44686 149.053L1.09448 149.192C3.2603 149.232 5.11273 149.703 6.65175 150.605C8.19801 151.5 9.3751 152.769 10.183 154.41C10.991 156.052 11.374 158.005 11.3323 160.27C11.2904 162.543 10.8318 164.488 9.95668 166.105C9.08863 167.723 7.85478 168.954 6.25513 169.798C4.66259 170.643 2.75855 171.044 0.543016 171.004ZM-2.83439 167.521L0.41435 167.581C1.93398 167.609 3.20663 167.355 4.23229 166.82C5.25809 166.278 6.03685 165.458 6.56855 164.359C7.10039 163.254 7.3817 161.867 7.41248 160.198C7.44326 158.529 7.21316 157.14 6.72218 156.03C6.23134 154.913 5.49033 154.071 4.49916 153.506C3.51523 152.934 2.28475 152.634 0.807731 152.607L-2.55817 152.545L-2.83439 167.521ZM21.9522 171.718C20.3118 171.688 18.9014 171.321 17.721 170.617C16.5479 169.907 15.6533 168.917 15.0374 167.648C14.4216 166.372 14.1295 164.879 14.1611 163.167C14.1921 161.485 14.5389 160.013 15.2014 158.754C15.8712 157.488 16.7914 156.51 17.962 155.822C19.1327 155.126 20.4991 154.792 22.0614 154.821C23.0697 154.84 24.0182 155.02 24.9069 155.364C25.8029 155.7 26.589 156.212 27.2654 156.899C27.9489 157.586 28.4798 158.456 28.8582 159.507C29.2367 160.551 29.4128 161.79 29.3863 163.225L29.3645 164.407L15.9542 164.16L16.0021 161.561L25.7164 161.74C25.7229 161.001 25.5752 160.341 25.2734 159.76C24.9717 159.172 24.5434 158.706 23.9886 158.362C23.4408 158.018 22.7977 157.839 22.0592 157.826C21.271 157.811 20.5751 157.99 19.9715 158.363C19.3681 158.728 18.8938 159.216 18.5487 159.828C18.2108 160.433 18.0315 161.101 18.0109 161.832L17.9691 164.101C17.9515 165.052 18.1104 165.872 18.4458 166.56C18.7813 167.241 19.2582 167.769 19.8764 168.142C20.4948 168.509 21.2229 168.7 22.0608 168.715C22.6218 168.726 23.131 168.657 23.5883 168.509C24.0458 168.354 24.4443 168.124 24.7838 167.817C25.1233 167.511 25.3825 167.129 25.5615 166.67L29.1543 167.141C28.9095 168.089 28.461 168.912 27.8088 169.61C27.1638 170.301 26.3442 170.833 25.35 171.205C24.3559 171.571 23.2233 171.742 21.9522 171.718ZM45.6482 159.795L42.1261 160.114C42.0332 159.757 41.8654 159.42 41.6226 159.103C41.3869 158.786 41.0649 158.528 40.6566 158.329C40.2483 158.129 39.7459 158.024 39.1494 158.013C38.347 157.998 37.6692 158.16 37.116 158.498C36.5699 158.836 36.2953 159.282 36.2921 159.836C36.2763 160.311 36.4431 160.702 36.7927 161.006C37.1493 161.311 37.7413 161.567 38.5686 161.774L41.3483 162.422C42.8902 162.785 44.0308 163.335 44.7701 164.073C45.5166 164.811 45.8826 165.766 45.8681 166.938C45.842 167.968 45.5234 168.871 44.9124 169.648C44.3086 170.419 43.4771 171.014 42.4181 171.435C41.359 171.856 40.1478 172.054 38.7843 172.029C36.7818 171.992 35.1776 171.543 33.9717 170.683C32.7659 169.815 32.0597 168.626 31.8532 167.117L35.6198 166.824C35.7767 167.565 36.1285 168.13 36.6755 168.516C37.2224 168.903 37.9397 169.104 38.8273 169.121C39.7434 169.137 40.4818 168.963 41.0426 168.597C41.6105 168.231 41.8996 167.771 41.9098 167.217C41.9185 166.748 41.7445 166.358 41.388 166.046C41.0386 165.734 40.489 165.489 39.7393 165.312L36.9594 164.675C35.3961 164.319 34.2452 163.747 33.5068 162.96C32.7685 162.165 32.4139 161.171 32.443 159.978C32.4545 158.969 32.744 158.101 33.3115 157.373C33.8862 156.637 34.6744 156.077 35.676 155.69C36.6849 155.297 37.8426 155.112 39.1492 155.136C41.0665 155.171 42.5679 155.608 43.6535 156.445C44.7462 157.282 45.4111 158.398 45.6482 159.795ZM48.9572 171.897L49.2589 155.536L53.1148 155.607L52.8131 171.968L48.9572 171.897ZM51.2404 153.249C50.6297 153.238 50.1079 153.026 49.6751 152.613C49.2425 152.193 49.0314 151.696 49.042 151.12C49.0528 150.538 49.282 150.049 49.7297 149.652C50.1776 149.248 50.7069 149.052 51.3176 149.063C51.9354 149.075 52.457 149.29 52.8826 149.71C53.3154 150.123 53.5264 150.621 53.5157 151.203C53.5051 151.778 53.2759 152.268 52.828 152.671C52.3874 153.068 51.8582 153.261 51.2404 153.249ZM63.774 178.648C62.3892 178.623 61.2033 178.413 60.2161 178.018C59.2287 177.63 58.439 177.118 57.847 176.482C57.2549 175.846 56.8487 175.146 56.6284 174.382L60.1163 173.605C60.2667 173.927 60.4881 174.247 60.7806 174.565C61.0729 174.89 61.4693 175.161 61.9696 175.376C62.477 175.598 63.1177 175.717 63.8917 175.731C64.9853 175.751 65.8956 175.501 66.6226 174.982C67.3495 174.47 67.7241 173.61 67.7463 172.403L67.8035 169.303L67.6118 169.3C67.4056 169.694 67.1069 170.097 66.7157 170.509C66.3317 170.921 65.8246 171.263 65.1944 171.535C64.5714 171.808 63.7912 171.936 62.8539 171.918C61.597 171.895 60.4627 171.58 59.451 170.971C58.4466 170.356 57.6534 169.454 57.0716 168.264C56.4969 167.067 56.2261 165.577 56.2589 163.795C56.2921 161.998 56.6183 160.488 57.2376 159.263C57.8641 158.031 58.6945 157.106 59.7288 156.485C60.7633 155.858 61.909 155.556 63.1659 155.579C64.1245 155.597 64.9097 155.775 65.5215 156.113C66.1405 156.444 66.6304 156.84 66.9913 157.301C67.3523 157.755 67.625 158.183 67.8094 158.584L68.0224 158.588L68.0723 155.883L71.875 155.953L71.5683 172.58C71.5425 173.979 71.1874 175.13 70.503 176.034C69.8186 176.938 68.8935 177.606 67.7276 178.039C66.5618 178.472 65.2439 178.675 63.774 178.648ZM63.9855 168.913C64.8021 168.928 65.5017 168.742 66.0842 168.355C66.6667 167.968 67.114 167.405 67.426 166.665C67.738 165.924 67.9036 165.032 67.9228 163.989C67.9418 162.959 67.8093 162.054 67.5254 161.275C67.2485 160.495 66.8264 159.887 66.2591 159.451C65.699 159.007 65.0035 158.778 64.1727 158.762C63.3135 158.746 62.5921 158.957 62.0087 159.394C61.4252 159.83 60.9808 160.437 60.6752 161.212C60.3698 161.981 60.208 162.859 60.1898 163.846C60.1713 164.847 60.3007 165.727 60.578 166.485C60.8625 167.236 61.2884 167.826 61.8559 168.256C62.4306 168.679 63.1404 168.898 63.9855 168.913ZM79.5576 162.871L79.3808 172.458L75.5249 172.387L75.8267 156.026L79.5121 156.094L79.4609 158.874L79.6526 158.877C80.0459 157.968 80.6593 157.251 81.493 156.727C82.3338 156.203 83.3649 155.952 84.5862 155.974C85.7153 155.995 86.6944 156.255 87.5234 156.753C88.3595 157.251 88.9999 157.963 89.4446 158.887C89.8963 159.812 90.1066 160.928 90.0754 162.234L89.8833 172.651L86.0274 172.58L86.2085 162.759C86.2287 161.666 85.9605 160.805 85.4038 160.177C84.8542 159.549 84.0823 159.225 83.0882 159.207C82.4136 159.195 81.8108 159.333 81.2798 159.621C80.756 159.903 80.3399 160.318 80.0315 160.866C79.7301 161.415 79.5722 162.083 79.5576 162.871ZM101.414 172.864L101.816 151.05L109.996 151.2C111.672 151.231 113.073 151.57 114.197 152.216C115.329 152.862 116.176 153.737 116.738 154.841C117.307 155.938 117.579 157.179 117.554 158.564C117.528 159.963 117.21 161.2 116.601 162.276C115.991 163.351 115.106 164.191 113.944 164.795C112.782 165.391 111.36 165.674 109.677 165.643L104.255 165.543L104.315 162.294L109.204 162.384C110.184 162.403 110.99 162.247 111.621 161.918C112.252 161.588 112.722 161.128 113.031 160.537C113.348 159.946 113.513 159.264 113.527 158.49C113.542 157.716 113.402 157.031 113.107 156.436C112.82 155.841 112.363 155.375 111.737 155.036C111.118 154.691 110.315 154.509 109.328 154.491L105.707 154.424L105.365 172.937L101.414 172.864ZM120.547 173.217L120.848 156.856L124.587 156.925L124.537 159.652L124.707 159.655C125.023 158.716 125.548 157.998 126.281 157.5C127.022 156.995 127.861 156.751 128.799 156.768C129.012 156.772 129.249 156.787 129.512 156.813C129.781 156.833 130.005 156.862 130.181 156.9L130.116 160.447C129.954 160.387 129.696 160.333 129.341 160.284C128.994 160.228 128.657 160.197 128.331 160.191C127.628 160.178 126.993 160.319 126.426 160.614C125.867 160.902 125.423 161.309 125.093 161.836C124.764 162.362 124.593 162.974 124.58 163.67L124.402 173.288L120.547 173.217ZM138.896 173.875C137.298 173.846 135.92 173.468 134.761 172.744C133.603 172.019 132.712 171.019 132.089 169.743C131.473 168.467 131.181 166.984 131.212 165.294C131.243 163.604 131.59 162.13 132.253 160.87C132.922 159.611 133.849 158.641 135.034 157.959C136.219 157.278 137.61 156.952 139.208 156.982C140.805 157.011 142.184 157.388 143.342 158.113C144.501 158.837 145.388 159.841 146.004 161.124C146.627 162.407 146.922 163.893 146.891 165.584C146.86 167.274 146.51 168.745 145.84 169.997C145.178 171.249 144.254 172.216 143.07 172.897C141.885 173.579 140.494 173.904 138.896 173.875ZM138.974 170.786C139.841 170.802 140.569 170.578 141.16 170.113C141.752 169.641 142.197 169.003 142.496 168.198C142.802 167.394 142.964 166.495 142.982 165.501C143.001 164.5 142.872 163.591 142.596 162.777C142.327 161.955 141.906 161.297 141.332 160.803C140.759 160.31 140.039 160.055 139.173 160.039C138.285 160.023 137.542 160.25 136.944 160.722C136.352 161.195 135.904 161.836 135.598 162.647C135.299 163.452 135.14 164.355 135.121 165.356C135.103 166.35 135.228 167.254 135.498 168.069C135.774 168.884 136.199 169.538 136.772 170.032C137.353 170.519 138.087 170.77 138.974 170.786ZM157.145 174.212C155.512 174.181 154.116 173.797 152.957 173.058C151.806 172.319 150.926 171.312 150.317 170.037C149.716 168.754 149.43 167.285 149.461 165.631C149.492 163.969 149.838 162.509 150.501 161.249C151.163 159.983 152.084 159.006 153.261 158.317C154.446 157.621 155.837 157.288 157.435 157.318C158.763 157.342 159.934 157.609 160.947 158.118C161.968 158.62 162.776 159.32 163.37 160.219C163.964 161.111 164.293 162.147 164.357 163.327L160.671 163.259C160.537 162.468 160.194 161.805 159.643 161.269C159.098 160.726 158.361 160.446 157.431 160.429C156.643 160.414 155.947 160.615 155.342 161.03C154.738 161.438 154.262 162.033 153.913 162.815C153.572 163.597 153.392 164.538 153.371 165.639C153.351 166.754 153.496 167.716 153.808 168.524C154.12 169.325 154.567 169.948 155.148 170.392C155.737 170.829 156.432 171.055 157.235 171.07C157.803 171.08 158.313 170.983 158.764 170.778C159.222 170.567 159.608 170.258 159.921 169.852C160.234 169.445 160.453 168.949 160.577 168.361L164.263 168.429C164.149 169.585 163.789 170.605 163.183 171.489C162.578 172.365 161.762 173.047 160.738 173.532C159.713 174.01 158.515 174.237 157.145 174.212ZM174.563 174.533C172.923 174.503 171.512 174.136 170.332 173.432C169.159 172.721 168.264 171.732 167.648 170.463C167.032 169.187 166.74 167.694 166.772 165.982C166.803 164.299 167.15 162.828 167.812 161.569C168.482 160.303 169.402 159.325 170.573 158.636C171.743 157.94 173.11 157.607 174.672 157.636C175.68 157.654 176.629 157.835 177.518 158.178C178.414 158.514 179.2 159.026 179.876 159.714C180.56 160.401 181.091 161.27 181.469 162.321C181.848 163.366 182.024 164.605 181.997 166.039L181.975 167.222L168.565 166.974L168.613 164.375L178.327 164.554C178.334 163.816 178.186 163.156 177.884 162.575C177.582 161.987 177.154 161.521 176.599 161.177C176.052 160.833 175.408 160.654 174.67 160.64C173.882 160.626 173.186 160.805 172.582 161.177C171.979 161.543 171.505 162.031 171.159 162.643C170.822 163.247 170.642 163.915 170.622 164.647L170.58 166.915C170.562 167.867 170.721 168.687 171.057 169.375C171.392 170.056 171.869 170.583 172.487 170.957C173.106 171.324 173.834 171.515 174.672 171.53C175.233 171.54 175.742 171.472 176.199 171.324C176.657 171.169 177.055 170.938 177.395 170.632C177.734 170.326 177.993 169.943 178.172 169.485L181.765 169.956C181.52 170.903 181.072 171.726 180.42 172.425C179.775 173.116 178.955 173.648 177.961 174.02C176.967 174.385 175.834 174.556 174.563 174.533ZM198.259 162.61L194.737 162.928C194.644 162.572 194.476 162.235 194.233 161.918C193.998 161.601 193.676 161.343 193.267 161.143C192.859 160.944 192.357 160.839 191.76 160.828C190.958 160.813 190.28 160.974 189.727 161.312C189.181 161.65 188.906 162.096 188.903 162.65C188.887 163.126 189.054 163.516 189.403 163.821C189.76 164.126 190.352 164.382 191.179 164.589L193.959 165.237C195.501 165.599 196.642 166.149 197.381 166.888C198.127 167.626 198.493 168.581 198.479 169.753C198.453 170.782 198.134 171.686 197.523 172.463C196.919 173.233 196.088 173.829 195.029 174.25C193.97 174.671 192.759 174.868 191.395 174.843C189.393 174.806 187.788 174.358 186.582 173.497C185.377 172.63 184.67 171.441 184.464 169.931L188.231 169.638C188.387 170.38 188.739 170.944 189.286 171.331C189.833 171.717 190.55 171.919 191.438 171.935C192.354 171.952 193.093 171.777 193.653 171.411C194.221 171.045 194.51 170.585 194.521 170.031C194.529 169.563 194.355 169.172 193.999 168.86C193.649 168.549 193.1 168.304 192.35 168.127L189.57 167.489C188.007 167.134 186.856 166.562 186.118 165.774C185.379 164.979 185.025 163.985 185.054 162.792C185.065 161.784 185.355 160.916 185.922 160.187C186.497 159.452 187.285 158.891 188.287 158.505C189.296 158.111 190.453 157.927 191.76 157.951C193.677 157.986 195.179 158.422 196.264 159.259C197.357 160.096 198.022 161.213 198.259 162.61ZM214.721 162.913L211.199 163.232C211.106 162.875 210.938 162.538 210.695 162.221C210.46 161.904 210.138 161.646 209.729 161.447C209.321 161.248 208.819 161.142 208.222 161.131C207.42 161.117 206.742 161.278 206.189 161.616C205.643 161.954 205.368 162.4 205.365 162.954C205.349 163.43 205.516 163.82 205.865 164.125C206.222 164.43 206.814 164.686 207.641 164.893L210.421 165.541C211.963 165.903 213.104 166.453 213.843 167.191C214.589 167.93 214.955 168.885 214.941 170.056C214.915 171.086 214.596 171.989 213.985 172.767C213.381 173.537 212.55 174.132 211.491 174.553C210.432 174.974 209.221 175.172 207.857 175.147C205.855 175.11 204.25 174.661 203.045 173.801C201.839 172.933 201.133 171.745 200.926 170.235L204.693 169.942C204.849 170.684 205.201 171.248 205.748 171.634C206.295 172.021 207.013 172.222 207.9 172.239C208.816 172.256 209.555 172.081 210.115 171.715C210.683 171.349 210.972 170.889 210.983 170.335C210.991 169.866 210.817 169.476 210.461 169.164C210.111 168.852 209.562 168.608 208.812 168.43L206.032 167.793C204.469 167.438 203.318 166.866 202.58 166.078C201.841 165.283 201.487 164.289 201.516 163.096C201.527 162.088 201.817 161.219 202.384 160.491C202.959 159.756 203.747 159.195 204.749 158.808C205.758 158.415 206.915 158.23 208.222 158.254C210.139 158.29 211.641 158.726 212.726 159.563C213.819 160.4 214.484 161.517 214.721 162.913ZM311.541 162.28L307.557 162.207C307.455 161.552 307.257 160.969 306.961 160.459C306.665 159.942 306.293 159.502 305.845 159.139C305.397 158.775 304.883 158.499 304.304 158.311C303.733 158.116 303.113 158.012 302.445 158C301.26 157.978 300.203 158.257 299.276 158.836C298.349 159.409 297.616 160.262 297.077 161.396C296.537 162.522 296.252 163.906 296.222 165.546C296.191 167.215 296.425 168.626 296.922 169.778C297.426 170.924 298.128 171.797 299.026 172.396C299.931 172.988 300.974 173.295 302.152 173.317C302.806 173.329 303.418 173.255 303.989 173.095C304.568 172.928 305.087 172.678 305.548 172.346C306.016 172.013 306.411 171.601 306.732 171.11C307.061 170.619 307.291 170.055 307.424 169.418L311.407 169.513C311.239 170.547 310.898 171.514 310.384 172.413C309.877 173.313 309.22 174.104 308.412 174.785C307.604 175.459 306.664 175.982 305.591 176.353C304.519 176.717 303.333 176.887 302.034 176.863C300.116 176.827 298.413 176.352 296.924 175.436C295.435 174.521 294.273 173.217 293.437 171.526C292.602 169.834 292.206 167.816 292.249 165.473C292.292 163.122 292.766 161.121 293.67 159.468C294.575 157.808 295.788 156.549 297.31 155.689C298.831 154.829 300.544 154.416 302.447 154.452C303.661 154.474 304.787 154.665 305.825 155.025C306.862 155.385 307.783 155.903 308.588 156.579C309.392 157.247 310.049 158.062 310.557 159.023C311.072 159.977 311.4 161.063 311.541 162.28ZM321.853 177.249C320.255 177.22 318.877 176.843 317.719 176.118C316.56 175.394 315.669 174.393 315.046 173.117C314.43 171.842 314.138 170.359 314.169 168.669C314.2 166.979 314.547 165.504 315.21 164.245C315.879 162.986 316.807 162.015 317.991 161.334C319.176 160.652 320.567 160.326 322.165 160.356C323.763 160.385 325.141 160.762 326.299 161.487C327.458 162.212 328.345 163.215 328.961 164.498C329.584 165.781 329.88 167.268 329.848 168.958C329.817 170.648 329.467 172.119 328.797 173.371C328.135 174.623 327.211 175.59 326.027 176.272C324.842 176.953 323.451 177.279 321.853 177.249ZM321.932 174.161C322.798 174.177 323.527 173.952 324.118 173.487C324.709 173.015 325.154 172.377 325.453 171.573C325.759 170.768 325.921 169.869 325.939 168.875C325.958 167.874 325.829 166.966 325.553 166.151C325.284 165.329 324.863 164.671 324.289 164.178C323.716 163.684 322.996 163.429 322.13 163.413C321.242 163.397 320.499 163.625 319.901 164.097C319.31 164.569 318.861 165.211 318.555 166.022C318.256 166.826 318.097 167.729 318.079 168.73C318.06 169.724 318.186 170.629 318.455 171.444C318.731 172.258 319.156 172.913 319.729 173.406C320.31 173.893 321.044 174.144 321.932 174.161ZM332.971 177.135L333.273 160.774L336.959 160.842L336.907 163.622L337.099 163.626C337.457 162.694 338.035 161.973 338.833 161.463C339.631 160.944 340.577 160.696 341.671 160.716C342.778 160.736 343.707 161.023 344.457 161.577C345.214 162.124 345.74 162.861 346.036 163.79L346.206 163.793C346.585 162.891 347.209 162.178 348.078 161.654C348.955 161.124 349.986 160.869 351.172 160.891C352.677 160.919 353.897 161.417 354.831 162.386C355.765 163.355 356.215 164.752 356.181 166.577L355.979 177.559L352.112 177.488L352.304 167.103C352.323 166.087 352.066 165.34 351.535 164.861C351.005 164.376 350.348 164.126 349.567 164.111C348.637 164.094 347.904 164.372 347.368 164.944C346.839 165.51 346.566 166.254 346.549 167.178L346.36 177.382L342.579 177.312L342.774 166.767C342.789 165.922 342.546 165.243 342.044 164.729C341.549 164.215 340.893 163.951 340.077 163.936C339.523 163.926 339.016 164.059 338.556 164.334C338.097 164.603 337.727 164.99 337.448 165.497C337.169 165.996 337.023 166.583 337.011 167.257L336.827 177.206L332.971 177.135ZM359.777 183.767L360.192 161.27L363.984 161.34L363.934 164.046L364.158 164.05C364.364 163.656 364.653 163.239 365.023 162.798C365.394 162.35 365.891 161.972 366.514 161.664C367.138 161.349 367.929 161.2 368.888 161.218C370.152 161.241 371.286 161.585 372.289 162.25C373.3 162.908 374.092 163.871 374.665 165.139C375.246 166.4 375.519 167.939 375.486 169.757C375.453 171.554 375.13 173.075 374.517 174.321C373.905 175.567 373.085 176.511 372.057 177.152C371.029 177.794 369.873 178.103 368.588 178.079C367.65 178.062 366.876 177.892 366.264 177.568C365.652 177.244 365.161 176.858 364.793 176.411C364.432 175.957 364.152 175.529 363.954 175.128L363.794 175.125L363.633 183.838L359.777 183.767ZM363.823 169.521C363.803 170.579 363.935 171.508 364.219 172.309C364.51 173.11 364.935 173.739 365.495 174.197C366.062 174.648 366.754 174.881 367.57 174.896C368.422 174.912 369.14 174.698 369.724 174.254C370.307 173.803 370.752 173.182 371.058 172.392C371.371 171.596 371.537 170.686 371.556 169.663C371.575 168.648 371.446 167.743 371.169 166.95C370.892 166.156 370.471 165.53 369.904 165.072C369.337 164.614 368.624 164.377 367.765 164.362C366.941 164.346 366.237 164.55 365.654 164.973C365.071 165.395 364.623 165.994 364.31 166.77C364.005 167.546 363.842 168.463 363.823 169.521ZM385.875 178.43C384.234 178.4 382.824 178.033 381.644 177.329C380.47 176.619 379.576 175.629 378.96 174.36C378.344 173.084 378.052 171.591 378.084 169.88C378.115 168.197 378.461 166.725 379.124 165.466C379.794 164.2 380.714 163.222 381.884 162.534C383.055 161.838 384.422 161.504 385.984 161.533C386.992 161.552 387.941 161.732 388.829 162.076C389.725 162.412 390.512 162.924 391.188 163.611C391.871 164.298 392.402 165.168 392.781 166.219C393.159 167.263 393.335 168.502 393.309 169.937L393.287 171.119L379.877 170.872L379.925 168.273L389.639 168.452C389.645 167.713 389.498 167.053 389.196 166.472C388.894 165.884 388.466 165.418 387.911 165.074C387.363 164.73 386.72 164.551 385.982 164.538C385.193 164.523 384.498 164.702 383.894 165.075C383.291 165.44 382.816 165.928 382.471 166.54C382.133 167.145 381.954 167.813 381.933 168.544L381.892 170.813C381.874 171.764 382.033 172.584 382.368 173.272C382.704 173.953 383.181 174.481 383.799 174.854C384.417 175.221 385.145 175.412 385.983 175.427C386.544 175.438 387.053 175.369 387.511 175.221C387.968 175.066 388.367 174.836 388.706 174.529C389.046 174.223 389.305 173.841 389.484 173.382L393.077 173.853C392.832 174.801 392.383 175.624 391.731 176.322C391.086 177.013 390.267 177.545 389.272 177.917C388.278 178.283 387.146 178.454 385.875 178.43ZM404.889 162.095L404.834 165.077L395.429 164.904L395.484 161.921L404.889 162.095ZM397.878 158.044L401.734 158.115L401.451 173.475C401.441 173.993 401.512 174.393 401.663 174.672C401.821 174.945 402.031 175.134 402.292 175.238C402.553 175.342 402.843 175.397 403.163 175.403C403.404 175.408 403.625 175.394 403.824 175.362C404.031 175.331 404.187 175.301 404.294 175.275L404.889 178.301C404.681 178.369 404.385 178.441 404 178.519C403.622 178.598 403.16 178.639 402.613 178.643C401.646 178.654 400.779 178.492 400.011 178.158C399.243 177.817 398.638 177.302 398.196 176.612C397.762 175.922 397.557 175.065 397.583 174.043L397.878 158.044ZM407.812 178.515L408.114 162.154L411.97 162.225L411.668 178.586L407.812 178.515ZM410.095 159.868C409.485 159.857 408.963 159.645 408.53 159.232C408.097 158.812 407.886 158.314 407.897 157.739C407.908 157.157 408.137 156.667 408.585 156.271C409.033 155.867 409.562 155.671 410.173 155.682C410.79 155.693 411.312 155.909 411.738 156.329C412.17 156.742 412.381 157.239 412.371 157.822C412.36 158.397 412.131 158.886 411.683 159.29C411.242 159.687 410.713 159.879 410.095 159.868ZM424.105 162.449L424.05 165.432L414.644 165.258L414.699 162.276L424.105 162.449ZM417.094 158.399L420.95 158.47L420.666 173.829C420.657 174.348 420.727 174.747 420.879 175.027C421.037 175.3 421.247 175.488 421.507 175.592C421.768 175.697 422.059 175.752 422.378 175.758C422.62 175.762 422.84 175.748 423.04 175.717C423.246 175.685 423.403 175.656 423.51 175.629L424.104 178.656C423.897 178.723 423.601 178.796 423.216 178.874C422.838 178.952 422.375 178.993 421.828 178.997C420.862 179.008 419.995 178.846 419.227 178.513C418.459 178.172 417.854 177.656 417.412 176.966C416.977 176.276 416.773 175.42 416.799 174.397L417.094 158.399ZM433.983 179.317C432.385 179.288 431.007 178.911 429.848 178.186C428.689 177.462 427.798 176.461 427.176 175.186C426.56 173.91 426.267 172.427 426.299 170.737C426.33 169.047 426.677 167.572 427.339 166.313C428.009 165.054 428.936 164.083 430.121 163.402C431.305 162.721 432.696 162.395 434.294 162.424C435.892 162.453 437.27 162.831 438.429 163.555C439.588 164.28 440.475 165.284 441.09 166.566C441.713 167.849 442.009 169.336 441.978 171.026C441.947 172.716 441.596 174.187 440.927 175.439C440.264 176.691 439.341 177.658 438.156 178.34C436.972 179.021 435.58 179.347 433.983 179.317ZM434.061 176.229C434.927 176.245 435.656 176.02 436.247 175.555C436.838 175.083 437.283 174.445 437.582 173.641C437.888 172.837 438.05 171.937 438.069 170.943C438.087 169.942 437.958 169.034 437.682 168.219C437.413 167.397 436.992 166.739 436.419 166.246C435.845 165.752 435.125 165.497 434.259 165.481C433.371 165.465 432.629 165.693 432.03 166.165C431.439 166.637 430.99 167.279 430.684 168.09C430.385 168.894 430.226 169.797 430.208 170.798C430.19 171.792 430.315 172.697 430.584 173.512C430.86 174.327 431.285 174.981 431.859 175.474C432.439 175.961 433.173 176.213 434.061 176.229ZM445.101 179.203L445.403 162.842L449.141 162.911L449.091 165.638L449.261 165.641C449.577 164.702 450.102 163.984 450.835 163.486C451.576 162.981 452.416 162.737 453.353 162.754C453.566 162.758 453.804 162.773 454.066 162.799C454.336 162.819 454.559 162.848 454.736 162.886L454.67 166.433C454.508 166.373 454.25 166.319 453.895 166.27C453.548 166.214 453.212 166.183 452.885 166.177C452.182 166.164 451.547 166.305 450.98 166.6C450.421 166.888 449.977 167.295 449.647 167.822C449.318 168.348 449.147 168.96 449.134 169.656L448.957 179.274L445.101 179.203ZM469.135 179.976C468.099 179.957 467.168 179.755 466.344 179.371C465.527 178.979 464.884 178.413 464.415 177.673C463.953 176.933 463.731 176.027 463.751 174.954C463.768 174.031 463.953 173.271 464.305 172.674C464.657 172.076 465.131 171.602 465.727 171.251C466.323 170.9 466.992 170.638 467.734 170.467C468.483 170.289 469.256 170.165 470.053 170.095C471.013 170.013 471.792 169.939 472.39 169.871C472.988 169.797 473.424 169.677 473.697 169.512C473.977 169.34 474.121 169.069 474.128 168.699L474.129 168.636C474.144 167.833 473.917 167.207 473.449 166.758C472.982 166.309 472.301 166.076 471.406 166.06C470.461 166.043 469.708 166.235 469.147 166.636C468.593 167.038 468.214 167.518 468.012 168.075L464.421 167.497C464.724 166.509 465.208 165.686 465.873 165.031C466.539 164.368 467.347 163.879 468.298 163.563C469.249 163.239 470.296 163.088 471.439 163.109C472.227 163.124 473.01 163.23 473.788 163.429C474.566 163.629 475.274 163.947 475.912 164.385C476.55 164.816 477.058 165.397 477.435 166.129C477.82 166.86 478.002 167.769 477.982 168.856L477.78 179.806L474.073 179.737L474.115 177.49L473.987 177.487C473.744 177.938 473.406 178.357 472.973 178.747C472.546 179.13 472.012 179.436 471.368 179.666C470.732 179.889 469.987 179.992 469.135 179.976ZM470.189 177.162C470.963 177.176 471.637 177.036 472.21 176.741C472.784 176.439 473.229 176.035 473.543 175.529C473.865 175.024 474.032 174.469 474.043 173.866L474.078 171.938C473.956 172.035 473.748 172.123 473.456 172.203C473.17 172.283 472.849 172.352 472.493 172.409C472.137 172.467 471.784 172.517 471.435 172.56C471.086 172.604 470.784 172.641 470.527 172.671C469.951 172.739 469.434 172.857 468.976 173.026C468.518 173.195 468.155 173.437 467.886 173.752C467.618 174.06 467.479 174.462 467.47 174.959C467.457 175.669 467.706 176.21 468.218 176.582C468.729 176.954 469.386 177.147 470.189 177.162ZM485.69 170.362L485.513 179.948L481.657 179.877L481.959 163.516L485.644 163.584L485.593 166.364L485.785 166.368C486.178 165.459 486.791 164.742 487.625 164.217C488.466 163.693 489.497 163.442 490.718 163.465C491.847 163.486 492.826 163.745 493.655 164.243C494.492 164.742 495.132 165.453 495.577 166.378C496.028 167.303 496.239 168.418 496.208 169.725L496.015 180.142L492.16 180.071L492.341 170.25C492.361 169.156 492.093 168.296 491.536 167.667C490.986 167.039 490.214 166.716 489.22 166.698C488.546 166.685 487.943 166.823 487.412 167.112C486.888 167.393 486.472 167.808 486.164 168.357C485.862 168.905 485.704 169.574 485.69 170.362ZM504.637 180.631C503.6 180.612 502.67 180.41 501.846 180.026C501.029 179.634 500.386 179.068 499.917 178.328C499.454 177.588 499.233 176.681 499.253 175.609C499.27 174.686 499.454 173.926 499.806 173.329C500.158 172.731 500.632 172.257 501.229 171.906C501.825 171.554 502.494 171.293 503.236 171.122C503.985 170.944 504.758 170.82 505.555 170.749C506.515 170.668 507.294 170.593 507.892 170.526C508.49 170.452 508.926 170.332 509.199 170.167C509.479 169.994 509.622 169.723 509.629 169.354L509.63 169.29C509.645 168.488 509.419 167.862 508.951 167.413C508.484 166.964 507.802 166.731 506.908 166.715C505.963 166.697 505.21 166.889 504.649 167.291C504.094 167.693 503.716 168.173 503.514 168.73L499.923 168.152C500.226 167.163 500.71 166.341 501.375 165.686C502.041 165.023 502.849 164.534 503.8 164.217C504.75 163.894 505.797 163.743 506.941 163.764C507.729 163.778 508.512 163.885 509.29 164.084C510.067 164.283 510.775 164.602 511.414 165.04C512.052 165.471 512.56 166.052 512.937 166.783C513.322 167.515 513.504 168.424 513.484 169.511L513.282 180.46L509.575 180.392L509.616 178.145L509.489 178.142C509.246 178.592 508.908 179.012 508.474 179.402C508.048 179.785 507.513 180.091 506.87 180.321C506.233 180.543 505.489 180.647 504.637 180.631ZM505.691 177.816C506.465 177.831 507.139 177.69 507.712 177.395C508.286 177.094 508.73 176.69 509.045 176.184C509.367 175.679 509.534 175.124 509.545 174.52L509.58 172.592C509.458 172.69 509.25 172.778 508.957 172.858C508.672 172.938 508.351 173.007 507.995 173.064C507.638 173.121 507.286 173.172 506.937 173.215C506.588 173.258 506.285 173.295 506.029 173.326C505.453 173.394 504.935 173.512 504.478 173.681C504.02 173.85 503.657 174.092 503.388 174.407C503.12 174.714 502.981 175.117 502.972 175.614C502.958 176.324 503.208 176.865 503.719 177.237C504.231 177.608 504.888 177.802 505.691 177.816ZM521.417 158.789L521.015 180.603L517.159 180.532L517.561 158.717L521.417 158.789ZM527.263 186.856C526.738 186.846 526.252 186.794 525.806 186.701C525.367 186.615 525.018 186.516 524.757 186.405L525.707 183.417C526.265 183.591 526.764 183.678 527.205 183.679C527.645 183.68 528.035 183.549 528.373 183.285C528.719 183.029 529.015 182.594 529.26 181.98L529.607 181.102L523.982 164.291L528.072 164.367L531.615 176.792L531.785 176.795L535.795 164.509L539.896 164.585L533.006 182.806C532.685 183.667 532.267 184.401 531.751 185.01C531.235 185.625 530.609 186.09 529.871 186.403C529.141 186.723 528.272 186.874 527.263 186.856ZM555.415 169.197L551.893 169.516C551.8 169.159 551.632 168.822 551.389 168.505C551.154 168.188 550.832 167.93 550.423 167.73C550.015 167.531 549.513 167.426 548.916 167.415C548.114 167.4 547.436 167.562 546.883 167.9C546.337 168.238 546.062 168.684 546.059 169.238C546.043 169.713 546.21 170.103 546.56 170.408C546.916 170.713 547.508 170.969 548.335 171.176L551.115 171.824C552.657 172.186 553.798 172.737 554.537 173.475C555.283 174.213 555.649 175.168 555.635 176.34C555.609 177.37 555.29 178.273 554.679 179.05C554.075 179.82 553.244 180.416 552.185 180.837C551.126 181.258 549.915 181.456 548.551 181.431C546.549 181.394 544.944 180.945 543.739 180.084C542.533 179.217 541.827 178.028 541.62 176.518L545.387 176.226C545.543 176.967 545.895 177.531 546.442 177.918C546.989 178.305 547.707 178.506 548.594 178.522C549.51 178.539 550.249 178.365 550.809 177.999C551.377 177.633 551.666 177.173 551.677 176.619C551.685 176.15 551.511 175.76 551.155 175.448C550.805 175.136 550.256 174.891 549.506 174.714L546.726 174.077C545.163 173.721 544.012 173.149 543.274 172.361C542.535 171.566 542.181 170.573 542.21 169.38C542.221 168.371 542.511 167.503 543.078 166.775C543.653 166.039 544.441 165.478 545.443 165.092C546.452 164.699 547.609 164.514 548.916 164.538C550.833 164.573 552.335 165.01 553.42 165.846C554.513 166.684 555.178 167.8 555.415 169.197ZM558.724 181.298L559.026 164.938L562.882 165.009L562.58 181.37L558.724 181.298ZM561.007 162.651C560.397 162.64 559.875 162.428 559.442 162.015C559.009 161.595 558.798 161.098 558.809 160.522C558.82 159.94 559.049 159.451 559.497 159.054C559.944 158.65 560.474 158.454 561.084 158.465C561.702 158.477 562.224 158.692 562.649 159.112C563.082 159.525 563.293 160.023 563.283 160.605C563.272 161.18 563.043 161.67 562.595 162.073C562.154 162.47 561.625 162.663 561.007 162.651ZM579.698 169.645L576.176 169.964C576.083 169.607 575.915 169.27 575.672 168.953C575.437 168.636 575.115 168.378 574.706 168.178C574.298 167.979 573.796 167.874 573.199 167.863C572.397 167.848 571.719 168.01 571.166 168.347C570.62 168.685 570.345 169.131 570.342 169.685C570.326 170.161 570.493 170.551 570.842 170.856C571.199 171.161 571.791 171.417 572.618 171.624L575.398 172.272C576.94 172.634 578.081 173.185 578.82 173.923C579.566 174.661 579.932 175.616 579.918 176.788C579.892 177.817 579.573 178.721 578.962 179.498C578.358 180.268 577.527 180.864 576.468 181.285C575.409 181.706 574.198 181.904 572.834 181.878C570.832 181.841 569.227 181.393 568.022 180.532C566.816 179.665 566.11 178.476 565.903 176.966L569.67 176.674C569.826 177.415 570.178 177.979 570.725 178.366C571.272 178.752 571.99 178.954 572.877 178.97C573.793 178.987 574.532 178.813 575.092 178.446C575.66 178.08 575.949 177.62 575.96 177.067C575.968 176.598 575.794 176.208 575.438 175.896C575.088 175.584 574.539 175.339 573.789 175.162L571.009 174.525C569.446 174.169 568.295 173.597 567.557 172.809C566.818 172.014 566.464 171.02 566.493 169.828C566.504 168.819 566.794 167.951 567.361 167.222C567.936 166.487 568.724 165.926 569.726 165.54C570.735 165.146 571.892 164.962 573.199 164.986C575.116 165.021 576.618 165.457 577.703 166.294C578.796 167.131 579.461 168.248 579.698 169.645ZM661.933 161.38L661.531 183.195L657.579 183.122L657.981 161.307L661.933 161.38ZM669.672 173.755L669.495 183.342L665.639 183.27L665.941 166.91L669.627 166.978L669.575 169.758L669.767 169.761C670.16 168.852 670.774 168.135 671.608 167.611C672.448 167.086 673.479 166.835 674.701 166.858C675.83 166.879 676.809 167.138 677.638 167.637C678.474 168.135 679.114 168.847 679.559 169.771C680.011 170.696 680.221 171.811 680.19 173.118L679.998 183.535L676.142 183.464L676.323 173.643C676.343 172.55 676.075 171.689 675.518 171.061C674.969 170.432 674.197 170.109 673.203 170.091C672.528 170.078 671.925 170.216 671.394 170.505C670.871 170.787 670.454 171.202 670.146 171.75C669.845 172.298 669.687 172.967 669.672 173.755ZM692.506 167.399L692.451 170.382L682.78 170.204L682.835 167.221L692.506 167.399ZM684.951 183.627L685.281 165.721C685.301 164.621 685.545 163.709 686.013 162.986C686.488 162.263 687.116 161.727 687.897 161.38C688.678 161.032 689.54 160.866 690.485 160.884C691.152 160.896 691.744 160.96 692.261 161.076C692.777 161.192 693.159 161.295 693.406 161.385L692.584 164.354C692.421 164.301 692.216 164.247 691.969 164.193C691.721 164.132 691.445 164.098 691.139 164.092C690.422 164.079 689.911 164.244 689.607 164.586C689.309 164.922 689.155 165.409 689.143 166.048L688.817 183.698L684.951 183.627ZM701.74 184.256C700.142 184.226 698.764 183.849 697.605 183.125C696.446 182.4 695.556 181.4 694.933 180.124C694.317 178.848 694.025 177.365 694.056 175.675C694.087 173.985 694.434 172.51 695.096 171.251C695.766 169.992 696.693 169.022 697.878 168.34C699.062 167.659 700.454 167.333 702.051 167.362C703.649 167.392 705.027 167.769 706.186 168.494C707.345 169.218 708.232 170.222 708.848 171.505C709.47 172.788 709.766 174.274 709.735 175.964C709.704 177.654 709.353 179.126 708.684 180.378C708.022 181.63 707.098 182.597 705.913 183.278C704.729 183.959 703.338 184.285 701.74 184.256ZM701.818 181.167C702.684 181.183 703.413 180.959 704.004 180.494C704.595 180.022 705.04 179.383 705.339 178.579C705.646 177.775 705.808 176.876 705.826 175.882C705.845 174.88 705.716 173.972 705.439 173.157C705.17 172.336 704.749 171.678 704.176 171.184C703.602 170.691 702.883 170.436 702.016 170.42C701.129 170.403 700.386 170.631 699.787 171.103C699.196 171.575 698.748 172.217 698.441 173.028C698.142 173.833 697.984 174.735 697.965 175.737C697.947 176.731 698.072 177.635 698.341 178.45C698.618 179.265 699.042 179.919 699.616 180.413C700.196 180.899 700.93 181.151 701.818 181.167ZM712.858 184.141L713.16 167.78L716.898 167.849L716.848 170.576L717.019 170.579C717.334 169.64 717.859 168.922 718.593 168.424C719.334 167.919 720.173 167.675 721.11 167.693C721.323 167.697 721.561 167.712 721.823 167.738C722.093 167.757 722.316 167.786 722.493 167.825L722.427 171.372C722.265 171.312 722.007 171.257 721.653 171.208C721.306 171.152 720.969 171.121 720.642 171.115C719.939 171.102 719.304 171.243 718.738 171.538C718.178 171.826 717.734 172.233 717.405 172.76C717.075 173.287 716.904 173.898 716.891 174.594L716.714 184.212L712.858 184.141ZM724.75 184.361L725.052 168L728.738 168.068L728.686 170.848L728.878 170.851C729.236 169.92 729.814 169.199 730.612 168.688C731.41 168.17 732.356 167.921 733.45 167.942C734.557 167.962 735.486 168.249 736.236 168.803C736.993 169.349 737.519 170.087 737.815 171.016L737.985 171.019C738.364 170.117 738.988 169.404 739.857 168.88C740.734 168.349 741.765 168.095 742.951 168.117C744.456 168.145 745.676 168.643 746.61 169.612C747.544 170.581 747.994 171.978 747.96 173.803L747.758 184.785L743.891 184.714L744.083 174.328C744.102 173.313 743.846 172.566 743.314 172.087C742.784 171.601 742.128 171.351 741.346 171.337C740.416 171.32 739.683 171.598 739.147 172.17C738.618 172.736 738.345 173.48 738.328 174.403L738.14 184.608L734.358 184.538L734.553 173.993C734.568 173.148 734.325 172.468 733.823 171.955C733.328 171.441 732.673 171.177 731.856 171.162C731.302 171.152 730.795 171.284 730.336 171.56C729.876 171.829 729.507 172.216 729.227 172.722C728.948 173.222 728.802 173.809 728.79 174.483L728.606 184.432L724.75 184.361ZM756.372 185.274C755.335 185.255 754.405 185.053 753.581 184.669C752.764 184.277 752.121 183.711 751.651 182.971C751.189 182.231 750.968 181.324 750.988 180.252C751.005 179.329 751.189 178.569 751.541 177.971C751.893 177.374 752.367 176.9 752.963 176.549C753.559 176.197 754.228 175.936 754.97 175.765C755.719 175.587 756.492 175.463 757.289 175.392C758.25 175.311 759.029 175.236 759.627 175.169C760.225 175.095 760.66 174.975 760.933 174.81C761.214 174.637 761.357 174.366 761.364 173.997L761.365 173.933C761.38 173.131 761.153 172.505 760.686 172.056C760.218 171.607 759.537 171.374 758.642 171.358C757.698 171.34 756.945 171.532 756.383 171.934C755.829 172.336 755.451 172.815 755.249 173.373L751.658 172.795C751.96 171.806 752.444 170.984 753.11 170.329C753.776 169.666 754.584 169.177 755.534 168.86C756.485 168.537 757.532 168.386 758.675 168.407C759.464 168.421 760.246 168.528 761.024 168.727C761.802 168.926 762.51 169.245 763.148 169.683C763.787 170.114 764.295 170.695 764.672 171.426C765.056 172.158 765.238 173.067 765.218 174.153L765.016 185.103L761.309 185.035L761.351 182.787L761.223 182.785C760.98 183.235 760.642 183.655 760.209 184.045C759.783 184.428 759.248 184.734 758.604 184.964C757.968 185.186 757.224 185.29 756.372 185.274ZM757.425 182.459C758.199 182.474 758.873 182.333 759.447 182.038C760.021 181.736 760.465 181.333 760.78 180.827C761.102 180.321 761.268 179.767 761.279 179.163L761.315 177.235C761.192 177.333 760.985 177.421 760.692 177.501C760.406 177.581 760.085 177.65 759.729 177.707C759.373 177.764 759.02 177.815 758.671 177.858C758.323 177.901 758.02 177.938 757.764 177.969C757.187 178.037 756.67 178.155 756.212 178.324C755.754 178.493 755.391 178.735 755.123 179.05C754.854 179.357 754.715 179.76 754.706 180.257C754.693 180.967 754.942 181.508 755.454 181.88C755.966 182.251 756.623 182.444 757.425 182.459ZM777.365 168.965L777.31 171.947L767.905 171.774L767.96 168.791L777.365 168.965ZM770.354 164.914L774.21 164.985L773.926 180.345C773.917 180.863 773.988 181.262 774.139 181.542C774.297 181.815 774.507 182.004 774.768 182.108C775.029 182.212 775.319 182.267 775.638 182.273C775.88 182.278 776.1 182.264 776.3 182.232C776.506 182.2 776.663 182.171 776.77 182.145L777.364 185.171C777.157 185.238 776.861 185.311 776.476 185.389C776.098 185.467 775.636 185.509 775.088 185.513C774.122 185.523 773.255 185.362 772.487 185.028C771.719 184.687 771.114 184.172 770.672 183.481C770.237 182.791 770.033 181.935 770.059 180.913L770.354 164.914ZM780.288 185.385L780.59 169.024L784.446 169.095L784.144 185.456L780.288 185.385ZM782.571 166.738C781.96 166.727 781.439 166.514 781.006 166.102C780.573 165.682 780.362 165.184 780.373 164.609C780.384 164.027 780.613 163.537 781.06 163.14C781.508 162.737 782.038 162.54 782.648 162.552C783.266 162.563 783.788 162.779 784.213 163.199C784.646 163.611 784.857 164.109 784.846 164.691C784.836 165.266 784.607 165.756 784.159 166.16C783.718 166.556 783.189 166.749 782.571 166.738ZM795.24 185.98C793.642 185.951 792.264 185.574 791.105 184.849C789.946 184.125 789.055 183.124 788.432 181.848C787.817 180.573 787.524 179.09 787.556 177.4C787.587 175.71 787.934 174.235 788.596 172.976C789.266 171.716 790.193 170.746 791.378 170.065C792.562 169.383 793.953 169.057 795.551 169.087C797.149 169.116 798.527 169.493 799.686 170.218C800.845 170.943 801.732 171.946 802.347 173.229C802.97 174.512 803.266 175.999 803.235 177.689C803.204 179.379 802.853 180.85 802.184 182.102C801.521 183.354 800.598 184.321 799.413 185.002C798.228 185.684 796.837 186.01 795.24 185.98ZM795.318 182.892C796.184 182.908 796.913 182.683 797.504 182.218C798.095 181.746 798.54 181.108 798.839 180.304C799.145 179.499 799.307 178.6 799.326 177.606C799.344 176.605 799.215 175.697 798.939 174.882C798.67 174.06 798.249 173.402 797.676 172.909C797.102 172.415 796.382 172.16 795.516 172.144C794.628 172.128 793.885 172.356 793.287 172.828C792.696 173.3 792.247 173.942 791.941 174.753C791.642 175.557 791.483 176.46 791.465 177.461C791.447 178.455 791.572 179.36 791.841 180.174C792.117 180.989 792.542 181.644 793.115 182.137C793.696 182.624 794.43 182.875 795.318 182.892ZM810.39 176.35L810.214 185.937L806.358 185.866L806.659 169.505L810.345 169.573L810.294 172.353L810.485 172.356C810.879 171.447 811.492 170.731 812.326 170.206C813.167 169.682 814.198 169.431 815.419 169.453C816.548 169.474 817.527 169.734 818.356 170.232C819.192 170.731 819.833 171.442 820.277 172.367C820.729 173.291 820.939 174.407 820.908 175.713L820.716 186.131L816.86 186.059L817.041 176.239C817.061 175.145 816.793 174.284 816.237 173.656C815.687 173.028 814.915 172.705 813.921 172.686C813.246 172.674 812.644 172.812 812.113 173.1C811.589 173.382 811.173 173.797 810.864 174.345C810.563 174.894 810.405 175.562 810.39 176.35ZM835.048 186.395L830.83 186.317L838.912 164.644L843.79 164.734L851.078 186.691L846.86 186.613L841.354 169.164L841.183 169.161L835.048 186.395ZM835.344 177.844L846.848 178.056L846.789 181.231L835.285 181.018L835.344 177.844ZM853.781 186.74L854.083 170.38L857.822 170.449L857.771 173.175L857.942 173.178C858.258 172.24 858.782 171.521 859.516 171.023C860.257 170.518 861.096 170.274 862.033 170.292C862.246 170.296 862.484 170.311 862.747 170.337C863.016 170.356 863.239 170.385 863.416 170.424L863.351 173.971C863.189 173.911 862.93 173.856 862.576 173.807C862.229 173.751 861.892 173.72 861.565 173.714C860.862 173.701 860.228 173.842 859.661 174.137C859.102 174.425 858.657 174.833 858.328 175.359C857.999 175.886 857.827 176.497 857.815 177.193L857.637 186.812L853.781 186.74ZM872.131 187.398C870.498 187.368 869.102 186.984 867.943 186.245C866.792 185.506 865.912 184.499 865.303 183.224C864.702 181.941 864.416 180.472 864.447 178.818C864.477 177.156 864.824 175.696 865.487 174.436C866.149 173.17 867.069 172.192 868.247 171.504C869.432 170.808 870.823 170.475 872.421 170.505C873.749 170.529 874.92 170.796 875.933 171.305C876.954 171.807 877.761 172.507 878.356 173.406C878.95 174.298 879.279 175.334 879.343 176.514L875.657 176.446C875.523 175.655 875.18 174.992 874.628 174.456C874.084 173.913 873.347 173.633 872.417 173.616C871.629 173.601 870.932 173.802 870.328 174.217C869.724 174.625 869.248 175.22 868.899 176.002C868.558 176.784 868.377 177.725 868.357 178.826C868.337 179.941 868.482 180.903 868.794 181.711C869.106 182.512 869.553 183.135 870.134 183.579C870.723 184.016 871.418 184.242 872.221 184.257C872.789 184.267 873.298 184.17 873.75 183.965C874.208 183.754 874.594 183.445 874.907 183.038C875.22 182.632 875.439 182.135 875.563 181.548L879.249 181.616C879.135 182.772 878.775 183.792 878.169 184.676C877.563 185.552 876.748 186.233 875.723 186.719C874.699 187.197 873.501 187.424 872.131 187.398ZM886.344 177.751L886.167 187.338L882.312 187.267L882.714 165.452L886.485 165.522L886.333 173.755L886.524 173.759C886.925 172.843 887.531 172.126 888.344 171.608C889.163 171.083 890.198 170.833 891.447 170.856C892.584 170.877 893.57 171.133 894.406 171.624C895.242 172.115 895.883 172.823 896.327 173.748C896.779 174.673 896.993 175.795 896.969 177.116L896.776 187.533L892.921 187.462L893.102 177.641C893.122 176.541 892.854 175.68 892.297 175.059C891.747 174.431 890.965 174.107 889.949 174.088C889.268 174.076 888.654 174.214 888.109 174.502C887.571 174.783 887.144 175.198 886.829 175.746C886.52 176.295 886.359 176.963 886.344 177.751ZM900.707 187.606L901.009 171.245L904.865 171.316L904.563 187.677L900.707 187.606ZM902.99 168.959C902.379 168.947 901.858 168.735 901.425 168.323C900.992 167.903 900.781 167.405 900.792 166.83C900.802 166.247 901.032 165.758 901.479 165.361C901.927 164.958 902.457 164.761 903.067 164.773C903.685 164.784 904.207 165 904.632 165.42C905.065 165.832 905.276 166.33 905.265 166.912C905.255 167.487 905.026 167.977 904.578 168.381C904.137 168.777 903.608 168.97 902.99 168.959ZM916.999 171.54L916.944 174.522L907.539 174.349L907.594 171.366L916.999 171.54ZM909.988 167.49L913.844 167.561L913.561 182.92C913.551 183.439 913.622 183.838 913.773 184.118C913.932 184.39 914.141 184.579 914.402 184.683C914.663 184.787 914.953 184.843 915.273 184.848C915.514 184.853 915.735 184.839 915.934 184.807C916.141 184.776 916.298 184.747 916.405 184.72L916.999 187.747C916.792 187.814 916.495 187.886 916.11 187.965C915.732 188.043 915.27 188.084 914.723 188.088C913.757 188.099 912.889 187.937 912.121 187.603C911.353 187.262 910.748 186.747 910.307 186.057C909.872 185.367 909.667 184.511 909.693 183.488L909.988 167.49ZM926.984 188.41C925.343 188.38 923.933 188.013 922.753 187.309C921.58 186.599 920.685 185.609 920.069 184.34C919.453 183.064 919.161 181.571 919.193 179.86C919.224 178.177 919.571 176.705 920.233 175.446C920.903 174.18 921.823 173.202 922.994 172.514C924.164 171.818 925.531 171.484 927.093 171.513C928.101 171.532 929.05 171.712 929.939 172.056C930.835 172.392 931.621 172.904 932.297 173.591C932.981 174.278 933.511 175.148 933.89 176.199C934.268 177.243 934.444 178.482 934.418 179.917L934.396 181.099L920.986 180.852L921.034 178.253L930.748 178.432C930.755 177.693 930.607 177.033 930.305 176.452C930.003 175.864 929.575 175.398 929.02 175.054C928.473 174.71 927.829 174.531 927.091 174.518C926.303 174.503 925.607 174.682 925.003 175.055C924.4 175.42 923.925 175.908 923.58 176.52C923.242 177.125 923.063 177.793 923.043 178.524L923.001 180.793C922.983 181.744 923.142 182.564 923.477 183.252C923.813 183.933 924.29 184.461 924.908 184.834C925.526 185.201 926.255 185.392 927.092 185.407C927.653 185.418 928.163 185.349 928.62 185.201C929.077 185.046 929.476 184.816 929.815 184.509C930.155 184.203 930.414 183.821 930.593 183.362L934.186 183.833C933.941 184.781 933.493 185.604 932.84 186.302C932.196 186.993 931.376 187.525 930.382 187.897C929.388 188.263 928.255 188.434 926.984 188.41ZM944.657 188.736C943.024 188.706 941.628 188.322 940.47 187.583C939.319 186.844 938.439 185.837 937.83 184.561C937.228 183.279 936.943 181.81 936.974 180.155C937.004 178.494 937.351 177.033 938.013 175.774C938.676 174.508 939.596 173.53 940.774 172.842C941.959 172.146 943.35 171.813 944.948 171.842C946.276 171.867 947.446 172.133 948.46 172.642C949.481 173.144 950.288 173.845 950.882 174.743C951.477 175.635 951.806 176.671 951.869 177.852L948.184 177.784C948.049 176.993 947.706 176.329 947.155 175.793C946.611 175.251 945.874 174.971 944.944 174.954C944.155 174.939 943.459 175.139 942.855 175.554C942.251 175.962 941.774 176.557 941.426 177.339C941.085 178.122 940.904 179.063 940.884 180.164C940.863 181.279 941.009 182.24 941.321 183.049C941.633 183.85 942.079 184.473 942.661 184.917C943.249 185.354 943.945 185.58 944.747 185.595C945.315 185.605 945.825 185.508 946.276 185.303C946.735 185.091 947.121 184.782 947.434 184.376C947.747 183.97 947.965 183.473 948.09 182.886L951.775 182.954C951.662 184.11 951.302 185.129 950.696 186.013C950.09 186.89 949.275 187.571 948.25 188.057C947.226 188.535 946.028 188.761 944.657 188.736ZM963.31 172.394L963.255 175.377L953.849 175.203L953.904 172.221L963.31 172.394ZM956.299 168.344L960.155 168.415L959.871 183.774C959.862 184.293 959.933 184.692 960.084 184.972C960.242 185.245 960.452 185.433 960.713 185.537C960.974 185.642 961.264 185.697 961.583 185.703C961.825 185.707 962.045 185.693 962.245 185.661C962.451 185.63 962.608 185.601 962.715 185.574L963.309 188.601C963.102 188.668 962.806 188.741 962.421 188.819C962.043 188.897 961.58 188.938 961.033 188.942C960.067 188.953 959.2 188.791 958.432 188.457C957.664 188.117 957.059 187.601 956.617 186.911C956.182 186.221 955.978 185.365 956.004 184.342L956.299 168.344ZM976.788 182.126L976.963 172.646L980.818 172.717L980.517 189.078L976.778 189.009L976.832 186.101L976.661 186.098C976.275 187.007 975.654 187.745 974.798 188.312C973.95 188.879 972.911 189.151 971.683 189.128C970.61 189.108 969.667 188.853 968.852 188.362C968.044 187.864 967.418 187.153 966.973 186.228C966.529 185.297 966.318 184.177 966.342 182.871L966.535 172.454L970.391 172.525L970.209 182.345C970.19 183.382 970.459 184.211 971.016 184.832C971.573 185.454 972.313 185.773 973.236 185.79C973.804 185.8 974.357 185.672 974.895 185.405C975.432 185.138 975.877 184.734 976.227 184.193C976.586 183.646 976.772 182.957 976.788 182.126ZM984.482 189.151L984.783 172.79L988.522 172.859L988.472 175.586L988.642 175.589C988.958 174.65 989.483 173.932 990.216 173.434C990.957 172.929 991.797 172.685 992.734 172.702C992.947 172.706 993.185 172.721 993.447 172.747C993.717 172.767 993.94 172.796 994.117 172.834L994.051 176.381C993.889 176.322 993.631 176.267 993.276 176.218C992.929 176.162 992.593 176.131 992.266 176.125C991.563 176.112 990.928 176.253 990.361 176.548C989.802 176.836 989.358 177.243 989.028 177.77C988.699 178.297 988.528 178.908 988.515 179.604L988.338 189.222L984.482 189.151ZM1002.94 189.811C1001.3 189.781 999.887 189.414 998.707 188.71C997.533 187.999 996.639 187.01 996.023 185.741C995.407 184.465 995.115 182.972 995.147 181.26C995.178 179.577 995.524 178.106 996.187 176.847C996.857 175.581 997.777 174.603 998.948 173.914C1000.12 173.219 1001.48 172.885 1003.05 172.914C1004.06 172.932 1005 173.113 1005.89 173.456C1006.79 173.793 1007.57 174.304 1008.25 174.992C1008.93 175.679 1009.47 176.548 1009.84 177.6C1010.22 178.644 1010.4 179.883 1010.37 181.317L1010.35 182.5L996.94 182.252L996.988 179.653L1006.7 179.833C1006.71 179.094 1006.56 178.434 1006.26 177.853C1005.96 177.265 1005.53 176.799 1004.97 176.455C1004.43 176.111 1003.78 175.932 1003.04 175.919C1002.26 175.904 1001.56 176.083 1000.96 176.455C1000.35 176.821 999.879 177.309 999.534 177.921C999.196 178.526 999.017 179.194 998.996 179.925L998.955 182.194C998.937 183.145 999.096 183.965 999.431 184.653C999.767 185.334 1000.24 185.862 1000.86 186.235C1001.48 186.602 1002.21 186.793 1003.05 186.808C1003.61 186.819 1004.12 186.75 1004.57 186.602C1005.03 186.447 1005.43 186.216 1005.77 185.91C1006.11 185.604 1006.37 185.222 1006.55 184.763L1010.14 185.234C1009.9 186.182 1009.45 187.004 1008.79 187.703C1008.15 188.394 1007.33 188.926 1006.34 189.298C1005.34 189.664 1004.21 189.834 1002.94 189.811ZM1088 191.06L1080.61 190.924L1081.01 169.11L1088.56 169.249C1090.72 169.289 1092.57 169.76 1094.11 170.662C1095.66 171.557 1096.84 172.825 1097.64 174.467C1098.45 176.108 1098.84 178.062 1098.79 180.327C1098.75 182.599 1098.29 184.544 1097.42 186.162C1096.55 187.78 1095.32 189.011 1093.72 189.855C1092.12 190.699 1090.22 191.101 1088 191.06ZM1084.63 187.578L1087.88 187.638C1089.4 187.666 1090.67 187.412 1091.69 186.877C1092.72 186.335 1093.5 185.514 1094.03 184.416C1094.56 183.311 1094.84 181.924 1094.87 180.255C1094.9 178.586 1094.67 177.197 1094.18 176.086C1093.69 174.969 1092.95 174.128 1091.96 173.563C1090.98 172.991 1089.75 172.691 1088.27 172.664L1084.9 172.602L1084.63 187.578ZM1109.41 191.775C1107.77 191.745 1106.36 191.378 1105.18 190.674C1104.01 189.963 1103.11 188.974 1102.5 187.705C1101.88 186.429 1101.59 184.936 1101.62 183.224C1101.65 181.541 1102 180.07 1102.66 178.811C1103.33 177.545 1104.25 176.567 1105.42 175.878C1106.59 175.182 1107.96 174.849 1109.52 174.878C1110.53 174.896 1111.48 175.077 1112.37 175.42C1113.26 175.756 1114.05 176.268 1114.73 176.956C1115.41 177.643 1115.94 178.512 1116.32 179.563C1116.7 180.608 1116.87 181.847 1116.85 183.281L1116.83 184.464L1103.42 184.216L1103.46 181.617L1113.18 181.796C1113.18 181.058 1113.04 180.398 1112.73 179.817C1112.43 179.229 1112 178.763 1111.45 178.419C1110.9 178.075 1110.26 177.896 1109.52 177.882C1108.73 177.868 1108.04 178.047 1107.43 178.419C1106.83 178.785 1106.36 179.273 1106.01 179.885C1105.67 180.489 1105.49 181.157 1105.47 181.889L1105.43 184.157C1105.41 185.109 1105.57 185.929 1105.91 186.617C1106.24 187.298 1106.72 187.825 1107.34 188.199C1107.96 188.566 1108.68 188.757 1109.52 188.772C1110.08 188.782 1110.59 188.714 1111.05 188.566C1111.51 188.411 1111.91 188.18 1112.25 187.874C1112.58 187.568 1112.84 187.185 1113.02 186.727L1116.62 187.198C1116.37 188.145 1115.92 188.968 1115.27 189.667C1114.63 190.358 1113.81 190.89 1112.81 191.262C1111.82 191.627 1110.68 191.798 1109.41 191.775ZM1133.11 179.852L1129.59 180.17C1129.49 179.814 1129.33 179.477 1129.08 179.16C1128.85 178.843 1128.53 178.585 1128.12 178.385C1127.71 178.186 1127.21 178.081 1126.61 178.07C1125.81 178.055 1125.13 178.216 1124.58 178.554C1124.03 178.892 1123.76 179.338 1123.75 179.892C1123.74 180.368 1123.9 180.758 1124.25 181.063C1124.61 181.368 1125.2 181.624 1126.03 181.831L1128.81 182.479C1130.35 182.841 1131.49 183.391 1132.23 184.13C1132.98 184.868 1133.34 185.823 1133.33 186.995C1133.3 188.024 1132.99 188.928 1132.37 189.705C1131.77 190.475 1130.94 191.071 1129.88 191.492C1128.82 191.913 1127.61 192.11 1126.25 192.085C1124.24 192.048 1122.64 191.6 1121.43 190.739C1120.23 189.872 1119.52 188.683 1119.31 187.173L1123.08 186.88C1123.24 187.622 1123.59 188.186 1124.14 188.573C1124.68 188.959 1125.4 189.161 1126.29 189.177C1127.2 189.194 1127.94 189.019 1128.5 188.653C1129.07 188.287 1129.36 187.827 1129.37 187.273C1129.38 186.805 1129.21 186.414 1128.85 186.102C1128.5 185.791 1127.95 185.546 1127.2 185.369L1124.42 184.731C1122.86 184.376 1121.71 183.804 1120.97 183.016C1120.23 182.221 1119.88 181.227 1119.9 180.034C1119.92 179.026 1120.21 178.158 1120.77 177.429C1121.35 176.694 1122.14 176.133 1123.14 175.747C1124.15 175.353 1125.3 175.169 1126.61 175.193C1128.53 175.228 1130.03 175.664 1131.12 176.501C1132.21 177.338 1132.87 178.455 1133.11 179.852ZM1136.42 191.953L1136.72 175.592L1140.58 175.664L1140.27 192.024L1136.42 191.953ZM1138.7 173.306C1138.09 173.295 1137.57 173.083 1137.14 172.67C1136.7 172.25 1136.49 171.752 1136.5 171.177C1136.51 170.595 1136.74 170.105 1137.19 169.709C1137.64 169.305 1138.17 169.109 1138.78 169.12C1139.4 169.131 1139.92 169.347 1140.34 169.767C1140.78 170.18 1140.99 170.677 1140.98 171.26C1140.97 171.835 1140.74 172.324 1140.29 172.728C1139.85 173.125 1139.32 173.317 1138.7 173.306ZM1151.24 198.705C1149.85 198.679 1148.66 198.469 1147.68 198.075C1146.69 197.687 1145.9 197.175 1145.31 196.539C1144.72 195.903 1144.31 195.203 1144.09 194.439L1147.58 193.661C1147.73 193.984 1147.95 194.304 1148.24 194.622C1148.53 194.947 1148.93 195.217 1149.43 195.432C1149.94 195.655 1150.58 195.773 1151.35 195.788C1152.45 195.808 1153.36 195.558 1154.08 195.039C1154.81 194.527 1155.19 193.667 1155.21 192.46L1155.27 189.36L1155.07 189.356C1154.87 189.75 1154.57 190.153 1154.18 190.565C1153.79 190.977 1153.29 191.32 1152.66 191.592C1152.03 191.865 1151.25 191.992 1150.32 191.975C1149.06 191.952 1147.92 191.636 1146.91 191.028C1145.91 190.413 1145.11 189.51 1144.53 188.32C1143.96 187.123 1143.69 185.634 1143.72 183.851C1143.75 182.055 1144.08 180.544 1144.7 179.32C1145.33 178.088 1146.16 177.162 1147.19 176.542C1148.22 175.915 1149.37 175.613 1150.63 175.636C1151.59 175.653 1152.37 175.831 1152.98 176.169C1153.6 176.5 1154.09 176.897 1154.45 177.358C1154.81 177.812 1155.09 178.24 1155.27 178.641L1155.48 178.645L1155.53 175.939L1159.34 176.01L1159.03 192.637C1159 194.036 1158.65 195.187 1157.96 196.091C1157.28 196.994 1156.36 197.663 1155.19 198.096C1154.02 198.529 1152.71 198.732 1151.24 198.705ZM1151.45 188.97C1152.26 188.985 1152.96 188.799 1153.55 188.412C1154.13 188.025 1154.58 187.461 1154.89 186.721C1155.2 185.981 1155.37 185.089 1155.38 184.045C1155.4 183.016 1155.27 182.111 1154.99 181.331C1154.71 180.552 1154.29 179.944 1153.72 179.507C1153.16 179.064 1152.47 178.834 1151.63 178.819C1150.78 178.803 1150.05 179.014 1149.47 179.45C1148.89 179.887 1148.44 180.493 1148.14 181.269C1147.83 182.038 1147.67 182.916 1147.65 183.903C1147.63 184.904 1147.76 185.784 1148.04 186.542C1148.32 187.293 1148.75 187.883 1149.32 188.313C1149.89 188.735 1150.6 188.954 1151.45 188.97ZM1167.02 182.928L1166.84 192.514L1162.99 192.443L1163.29 176.082L1166.97 176.15L1166.92 178.93L1167.11 178.934C1167.51 178.025 1168.12 177.308 1168.95 176.784C1169.8 176.259 1170.83 176.008 1172.05 176.031C1173.18 176.052 1174.16 176.311 1174.98 176.81C1175.82 177.308 1176.46 178.02 1176.91 178.944C1177.36 179.869 1177.57 180.984 1177.54 182.291L1177.34 192.708L1173.49 192.637L1173.67 182.816C1173.69 181.723 1173.42 180.862 1172.87 180.233C1172.32 179.605 1171.54 179.282 1170.55 179.264C1169.88 179.251 1169.27 179.389 1168.74 179.678C1168.22 179.959 1167.8 180.374 1167.49 180.923C1167.19 181.471 1167.03 182.14 1167.02 182.928ZM1201.02 177.322C1200.94 176.39 1200.53 175.658 1199.81 175.126C1199.08 174.594 1198.14 174.317 1196.97 174.295C1196.14 174.28 1195.43 174.391 1194.84 174.629C1194.24 174.867 1193.79 175.196 1193.47 175.616C1193.15 176.036 1192.98 176.52 1192.96 177.067C1192.95 177.521 1193.05 177.917 1193.25 178.255C1193.45 178.592 1193.74 178.882 1194.1 179.123C1194.45 179.357 1194.85 179.556 1195.29 179.72C1195.73 179.884 1196.17 180.024 1196.61 180.139L1198.65 180.688C1199.47 180.895 1200.26 181.168 1201.01 181.509C1201.77 181.85 1202.45 182.274 1203.04 182.783C1203.64 183.291 1204.12 183.9 1204.46 184.609C1204.8 185.319 1204.96 186.146 1204.94 187.09C1204.92 188.369 1204.57 189.488 1203.9 190.449C1203.23 191.403 1202.27 192.141 1201.03 192.665C1199.79 193.182 1198.3 193.425 1196.55 193.393C1194.85 193.361 1193.38 193.071 1192.14 192.523C1190.91 191.974 1189.95 191.19 1189.27 190.168C1188.59 189.147 1188.24 187.912 1188.21 186.462L1192.09 186.534C1192.14 187.295 1192.36 187.931 1192.76 188.443C1193.16 188.954 1193.69 189.341 1194.35 189.601C1195.01 189.862 1195.76 190 1196.58 190.015C1197.44 190.031 1198.19 189.917 1198.84 189.674C1199.5 189.423 1200.02 189.07 1200.4 188.615C1200.78 188.154 1200.97 187.61 1200.99 186.986C1201 186.417 1200.84 185.946 1200.52 185.57C1200.2 185.188 1199.75 184.867 1199.16 184.608C1198.58 184.341 1197.91 184.101 1197.13 183.888L1194.66 183.203C1192.87 182.709 1191.46 181.983 1190.44 181.026C1189.42 180.063 1188.92 178.8 1188.95 177.238C1188.98 175.952 1189.34 174.833 1190.06 173.88C1190.78 172.928 1191.75 172.196 1192.96 171.686C1194.18 171.168 1195.55 170.924 1197.08 170.952C1198.63 170.98 1199.98 171.275 1201.13 171.836C1202.3 172.391 1203.2 173.15 1203.85 174.113C1204.5 175.07 1204.83 176.163 1204.82 177.392L1201.02 177.322ZM1210.47 199.456C1209.94 199.447 1209.46 199.395 1209.01 199.302C1208.57 199.215 1208.22 199.117 1207.96 199.005L1208.91 196.018C1209.47 196.192 1209.97 196.279 1210.41 196.28C1210.85 196.281 1211.24 196.15 1211.58 195.886C1211.92 195.63 1212.22 195.195 1212.46 194.581L1212.81 193.703L1207.19 176.892L1211.28 176.967L1214.82 189.393L1214.99 189.396L1219 177.11L1223.1 177.186L1216.21 195.407C1215.89 196.267 1215.47 197.002 1214.96 197.611C1214.44 198.226 1213.81 198.691 1213.08 199.004C1212.35 199.324 1211.48 199.475 1210.47 199.456ZM1238.62 181.798L1235.1 182.116C1235 181.76 1234.84 181.423 1234.59 181.106C1234.36 180.789 1234.04 180.531 1233.63 180.331C1233.22 180.132 1232.72 180.027 1232.12 180.016C1231.32 180.001 1230.64 180.162 1230.09 180.5C1229.54 180.838 1229.27 181.284 1229.26 181.838C1229.25 182.314 1229.41 182.704 1229.76 183.009C1230.12 183.314 1230.71 183.57 1231.54 183.777L1234.32 184.425C1235.86 184.787 1237 185.337 1237.74 186.076C1238.49 186.814 1238.85 187.769 1238.84 188.941C1238.81 189.97 1238.49 190.874 1237.88 191.651C1237.28 192.421 1236.45 193.017 1235.39 193.438C1234.33 193.859 1233.12 194.056 1231.76 194.031C1229.75 193.994 1228.15 193.546 1226.94 192.685C1225.74 191.818 1225.03 190.629 1224.82 189.119L1228.59 188.826C1228.75 189.568 1229.1 190.132 1229.65 190.519C1230.19 190.905 1230.91 191.107 1231.8 191.123C1232.71 191.14 1233.45 190.965 1234.01 190.599C1234.58 190.233 1234.87 189.773 1234.88 189.219C1234.89 188.751 1234.72 188.36 1234.36 188.048C1234.01 187.737 1233.46 187.492 1232.71 187.315L1229.93 186.677C1228.37 186.322 1227.22 185.75 1226.48 184.962C1225.74 184.167 1225.38 183.173 1225.41 181.98C1225.43 180.972 1225.71 180.104 1226.28 179.375C1226.86 178.64 1227.65 178.079 1228.65 177.693C1229.66 177.299 1230.81 177.115 1232.12 177.139C1234.04 177.174 1235.54 177.61 1236.62 178.447C1237.72 179.284 1238.38 180.401 1238.62 181.798ZM1250.4 177.689L1250.34 180.671L1240.94 180.498L1240.99 177.516L1250.4 177.689ZM1243.39 173.639L1247.24 173.71L1246.96 189.069C1246.95 189.588 1247.02 189.987 1247.17 190.267C1247.33 190.539 1247.54 190.728 1247.8 190.832C1248.06 190.937 1248.35 190.992 1248.67 190.998C1248.91 191.002 1249.14 190.988 1249.33 190.956C1249.54 190.925 1249.7 190.896 1249.81 190.869L1250.4 193.896C1250.19 193.963 1249.9 194.036 1249.51 194.114C1249.13 194.192 1248.67 194.233 1248.12 194.237C1247.16 194.248 1246.29 194.086 1245.52 193.752C1244.75 193.411 1244.15 192.896 1243.71 192.206C1243.27 191.516 1243.07 190.66 1243.09 189.637L1243.39 173.639ZM1260.38 194.559C1258.74 194.529 1257.33 194.162 1256.15 193.458C1254.98 192.748 1254.09 191.758 1253.47 190.489C1252.85 189.214 1252.56 187.72 1252.59 186.009C1252.62 184.326 1252.97 182.855 1253.63 181.595C1254.3 180.329 1255.22 179.351 1256.39 178.663C1257.56 177.967 1258.93 177.633 1260.49 177.662C1261.5 177.681 1262.45 177.862 1263.34 178.205C1264.23 178.541 1265.02 179.053 1265.7 179.74C1266.38 180.427 1266.91 181.297 1267.29 182.348C1267.67 183.392 1267.84 184.631 1267.82 186.066L1267.8 187.248L1254.39 187.001L1254.43 184.402L1264.15 184.581C1264.15 183.842 1264.01 183.182 1263.71 182.601C1263.4 182.013 1262.98 181.547 1262.42 181.203C1261.87 180.859 1261.23 180.68 1260.49 180.667C1259.7 180.652 1259.01 180.831 1258.4 181.204C1257.8 181.569 1257.33 182.058 1256.98 182.669C1256.64 183.274 1256.46 183.942 1256.44 184.673L1256.4 186.942C1256.38 187.893 1256.54 188.713 1256.88 189.401C1257.21 190.082 1257.69 190.61 1258.31 190.983C1258.93 191.35 1259.65 191.541 1260.49 191.557C1261.05 191.567 1261.56 191.498 1262.02 191.35C1262.48 191.195 1262.88 190.965 1263.22 190.658C1263.56 190.352 1263.81 189.97 1263.99 189.511L1267.59 189.983C1267.34 190.93 1266.89 191.753 1266.24 192.451C1265.6 193.142 1264.78 193.674 1263.78 194.047C1262.79 194.412 1261.66 194.583 1260.38 194.559ZM1270.93 194.434L1271.23 178.073L1274.91 178.141L1274.86 180.921L1275.05 180.925C1275.41 179.994 1275.99 179.273 1276.79 178.762C1277.59 178.244 1278.53 177.995 1279.63 178.015C1280.73 178.035 1281.66 178.322 1282.41 178.876C1283.17 179.423 1283.7 180.161 1283.99 181.09L1284.16 181.093C1284.54 180.191 1285.16 179.477 1286.03 178.954C1286.91 178.423 1287.94 178.168 1289.13 178.19C1290.63 178.218 1291.85 178.716 1292.79 179.686C1293.72 180.655 1294.17 182.052 1294.14 183.877L1293.93 194.858L1290.07 194.787L1290.26 184.402C1290.28 183.386 1290.02 182.639 1289.49 182.161C1288.96 181.675 1288.3 181.425 1287.52 181.41C1286.59 181.393 1285.86 181.671 1285.32 182.244C1284.79 182.809 1284.52 183.554 1284.5 184.477L1284.32 194.681L1280.53 194.611L1280.73 184.066C1280.74 183.221 1280.5 182.542 1280 182.028C1279.5 181.515 1278.85 181.25 1278.03 181.235C1277.48 181.225 1276.97 181.358 1276.51 181.634C1276.05 181.902 1275.68 182.29 1275.4 182.796C1275.12 183.295 1274.98 183.882 1274.97 184.557L1274.78 194.505L1270.93 194.434ZM1379.81 196.442L1372.42 196.306L1372.82 174.491L1380.36 174.631C1382.53 174.67 1384.38 175.142 1385.92 176.044C1387.47 176.939 1388.64 178.207 1389.45 179.849C1390.26 181.49 1390.64 183.444 1390.6 185.709C1390.56 187.981 1390.1 189.926 1389.22 191.544C1388.36 193.162 1387.12 194.393 1385.52 195.237C1383.93 196.081 1382.03 196.483 1379.81 196.442ZM1376.43 192.96L1379.68 193.02C1381.2 193.048 1382.47 192.794 1383.5 192.259C1384.53 191.717 1385.3 190.896 1385.84 189.798C1386.37 188.693 1386.65 187.305 1386.68 185.637C1386.71 183.968 1386.48 182.579 1385.99 181.468C1385.5 180.351 1384.76 179.51 1383.77 178.945C1382.78 178.373 1381.55 178.073 1380.08 178.046L1376.71 177.984L1376.43 192.96ZM1401.22 197.157C1399.58 197.127 1398.17 196.76 1396.99 196.056C1395.82 195.345 1394.92 194.355 1394.3 193.087C1393.69 191.811 1393.4 190.317 1393.43 188.606C1393.46 186.923 1393.81 185.452 1394.47 184.193C1395.14 182.926 1396.06 181.949 1397.23 181.26C1398.4 180.564 1399.77 180.231 1401.33 180.26C1402.34 180.278 1403.29 180.459 1404.17 180.802C1405.07 181.138 1405.86 181.65 1406.53 182.337C1407.22 183.025 1407.75 183.894 1408.13 184.945C1408.5 185.99 1408.68 187.229 1408.65 188.663L1408.63 189.845L1395.22 189.598L1395.27 186.999L1404.98 187.178C1404.99 186.44 1404.84 185.78 1404.54 185.199C1404.24 184.611 1403.81 184.145 1403.26 183.801C1402.71 183.457 1402.07 183.278 1401.33 183.264C1400.54 183.25 1399.84 183.429 1399.24 183.801C1398.64 184.167 1398.16 184.655 1397.82 185.267C1397.48 185.871 1397.3 186.539 1397.28 187.271L1397.24 189.539C1397.22 190.491 1397.38 191.311 1397.71 191.999C1398.05 192.68 1398.53 193.207 1399.14 193.581C1399.76 193.948 1400.49 194.139 1401.33 194.154C1401.89 194.164 1402.4 194.096 1402.86 193.948C1403.31 193.793 1403.71 193.562 1404.05 193.256C1404.39 192.95 1404.65 192.567 1404.83 192.109L1408.42 192.58C1408.18 193.527 1407.73 194.35 1407.08 195.049C1406.43 195.74 1405.61 196.272 1404.62 196.644C1403.62 197.009 1402.49 197.18 1401.22 197.157ZM1424.92 185.234L1421.39 185.552C1421.3 185.196 1421.13 184.859 1420.89 184.542C1420.65 184.225 1420.33 183.967 1419.92 183.767C1419.52 183.568 1419.01 183.463 1418.42 183.452C1417.61 183.437 1416.94 183.598 1416.38 183.936C1415.84 184.274 1415.56 184.72 1415.56 185.274C1415.54 185.75 1415.71 186.14 1416.06 186.445C1416.42 186.75 1417.01 187.006 1417.84 187.213L1420.62 187.861C1422.16 188.223 1423.3 188.773 1424.04 189.512C1424.78 190.25 1425.15 191.205 1425.14 192.377C1425.11 193.406 1424.79 194.31 1424.18 195.087C1423.58 195.857 1422.74 196.453 1421.69 196.874C1420.63 197.295 1419.42 197.492 1418.05 197.467C1416.05 197.43 1414.45 196.982 1413.24 196.121C1412.03 195.254 1411.33 194.065 1411.12 192.555L1414.89 192.262C1415.04 193.004 1415.4 193.568 1415.94 193.955C1416.49 194.341 1417.21 194.543 1418.09 194.559C1419.01 194.576 1419.75 194.401 1420.31 194.035C1420.88 193.669 1421.17 193.209 1421.18 192.655C1421.19 192.187 1421.01 191.796 1420.66 191.484C1420.31 191.173 1419.76 190.928 1419.01 190.751L1416.23 190.113C1414.66 189.758 1413.51 189.186 1412.77 188.398C1412.04 187.603 1411.68 186.609 1411.71 185.416C1411.72 184.408 1412.01 183.54 1412.58 182.811C1413.15 182.076 1413.94 181.515 1414.94 181.129C1415.95 180.735 1417.11 180.551 1418.42 180.575C1420.33 180.61 1421.84 181.046 1422.92 181.883C1424.01 182.72 1424.68 183.837 1424.92 185.234ZM1428.22 197.335L1428.53 180.974L1432.38 181.045L1432.08 197.406L1428.22 197.335ZM1430.51 178.688C1429.9 178.677 1429.38 178.465 1428.94 178.052C1428.51 177.632 1428.3 177.134 1428.31 176.559C1428.32 175.977 1428.55 175.487 1429 175.091C1429.45 174.687 1429.97 174.491 1430.59 174.502C1431.2 174.513 1431.72 174.729 1432.15 175.149C1432.58 175.562 1432.79 176.059 1432.78 176.642C1432.77 177.217 1432.54 177.706 1432.1 178.11C1431.65 178.507 1431.13 178.699 1430.51 178.688ZM1443.04 204.087C1441.66 204.061 1440.47 203.851 1439.48 203.457C1438.5 203.069 1437.71 202.557 1437.11 201.921C1436.52 201.285 1436.12 200.585 1435.9 199.821L1439.38 199.043C1439.53 199.366 1439.76 199.686 1440.05 200.004C1440.34 200.329 1440.74 200.599 1441.24 200.814C1441.74 201.037 1442.39 201.155 1443.16 201.169C1444.25 201.19 1445.16 200.94 1445.89 200.421C1446.62 199.908 1446.99 199.049 1447.01 197.842L1447.07 194.742L1446.88 194.738C1446.67 195.132 1446.37 195.535 1445.98 195.947C1445.6 196.359 1445.09 196.702 1444.46 196.974C1443.84 197.247 1443.06 197.374 1442.12 197.357C1440.86 197.334 1439.73 197.018 1438.72 196.41C1437.71 195.795 1436.92 194.892 1436.34 193.702C1435.76 192.505 1435.49 191.016 1435.53 189.233C1435.56 187.437 1435.89 185.926 1436.51 184.702C1437.13 183.47 1437.96 182.544 1439 181.924C1440.03 181.297 1441.18 180.995 1442.43 181.018C1443.39 181.035 1444.18 181.213 1444.79 181.551C1445.41 181.882 1445.9 182.279 1446.26 182.74C1446.62 183.194 1446.89 183.622 1447.08 184.023L1447.29 184.027L1447.34 181.321L1451.14 181.391L1450.84 198.019C1450.81 199.418 1450.45 200.569 1449.77 201.473C1449.09 202.376 1448.16 203.045 1447 203.478C1445.83 203.911 1444.51 204.114 1443.04 204.087ZM1443.25 194.352C1444.07 194.367 1444.77 194.181 1445.35 193.794C1445.93 193.407 1446.38 192.843 1446.69 192.103C1447.01 191.363 1447.17 190.471 1447.19 189.427C1447.21 188.398 1447.08 187.493 1446.79 186.713C1446.52 185.934 1446.09 185.326 1445.53 184.889C1444.97 184.446 1444.27 184.216 1443.44 184.201C1442.58 184.185 1441.86 184.396 1441.28 184.832C1440.69 185.269 1440.25 185.875 1439.94 186.651C1439.64 187.42 1439.48 188.298 1439.46 189.285C1439.44 190.286 1439.57 191.165 1439.85 191.924C1440.13 192.675 1440.56 193.265 1441.12 193.695C1441.7 194.117 1442.41 194.336 1443.25 194.352ZM1458.83 188.31L1458.65 197.896L1454.79 197.825L1455.09 181.464L1458.78 181.532L1458.73 184.312L1458.92 184.316C1459.31 183.407 1459.93 182.69 1460.76 182.166C1461.6 181.641 1462.63 181.39 1463.85 181.413C1464.98 181.434 1465.96 181.693 1466.79 182.192C1467.63 182.69 1468.27 183.401 1468.71 184.326C1469.16 185.251 1469.37 186.366 1469.34 187.673L1469.15 198.09L1465.29 198.019L1465.48 188.198C1465.5 187.105 1465.23 186.244 1464.67 185.615C1464.12 184.987 1463.35 184.664 1462.36 184.646C1461.68 184.633 1461.08 184.771 1460.55 185.06C1460.02 185.341 1459.61 185.756 1459.3 186.305C1459 186.853 1458.84 187.522 1458.83 188.31ZM1480.06 179.783L1480.12 176.471L1497.53 176.792L1497.47 180.104L1490.73 179.98L1490.38 198.482L1486.46 198.409L1486.81 179.908L1480.06 179.783ZM1504.34 189.149L1504.17 198.736L1500.31 198.665L1500.71 176.85L1504.48 176.92L1504.33 185.154L1504.52 185.157C1504.93 184.241 1505.53 183.524 1506.34 183.006C1507.16 182.482 1508.2 182.231 1509.45 182.254C1510.58 182.275 1511.57 182.531 1512.41 183.022C1513.24 183.514 1513.88 184.222 1514.33 185.146C1514.78 186.071 1514.99 187.193 1514.97 188.514L1514.78 198.932L1510.92 198.86L1511.1 189.04C1511.12 187.939 1510.85 187.078 1510.3 186.457C1509.75 185.829 1508.97 185.505 1507.95 185.487C1507.27 185.474 1506.65 185.612 1506.11 185.9C1505.57 186.181 1505.14 186.596 1504.83 187.145C1504.52 187.693 1504.36 188.361 1504.34 189.149ZM1518.71 199.004L1519.01 182.643L1522.86 182.714L1522.56 199.075L1518.71 199.004ZM1520.99 180.357C1520.38 180.346 1519.86 180.134 1519.43 179.721C1518.99 179.301 1518.78 178.803 1518.79 178.228C1518.8 177.646 1519.03 177.156 1519.48 176.76C1519.93 176.356 1520.46 176.16 1521.07 176.171C1521.69 176.182 1522.21 176.398 1522.63 176.818C1523.07 177.231 1523.28 177.728 1523.27 178.31C1523.26 178.886 1523.03 179.375 1522.58 179.779C1522.14 180.176 1521.61 180.368 1520.99 180.357ZM1530.56 189.633L1530.38 199.219L1526.53 199.148L1526.83 182.787L1530.52 182.855L1530.46 185.635L1530.66 185.639C1531.05 184.73 1531.66 184.013 1532.5 183.489C1533.34 182.964 1534.37 182.713 1535.59 182.736C1536.72 182.757 1537.7 183.016 1538.53 183.515C1539.36 184.013 1540 184.725 1540.45 185.649C1540.9 186.574 1541.11 187.689 1541.08 188.996L1540.89 199.413L1537.03 199.342L1537.21 189.521C1537.23 188.428 1536.96 187.567 1536.41 186.938C1535.86 186.31 1535.09 185.987 1534.09 185.969C1533.42 185.956 1532.81 186.094 1532.28 186.383C1531.76 186.664 1531.34 187.079 1531.03 187.628C1530.73 188.176 1530.58 188.845 1530.56 189.633ZM1548.42 194.416L1548.49 189.761L1549.11 189.773L1555.11 183.309L1559.62 183.392L1552.23 191.311L1551.44 191.297L1548.42 194.416ZM1544.81 199.485L1545.21 177.671L1549.06 177.742L1548.66 199.557L1544.81 199.485ZM1555.07 199.675L1549.89 192.131L1552.54 189.463L1559.69 199.76L1555.07 199.675ZM1561.88 199.8L1562.19 183.439L1566.04 183.511L1565.74 199.871L1561.88 199.8ZM1564.17 181.153C1563.56 181.142 1563.03 180.93 1562.6 180.517C1562.17 180.097 1561.96 179.599 1561.97 179.024C1561.98 178.442 1562.21 177.952 1562.66 177.556C1563.1 177.152 1563.63 176.956 1564.24 176.967C1564.86 176.979 1565.38 177.194 1565.81 177.614C1566.24 178.027 1566.45 178.524 1566.44 179.107C1566.43 179.682 1566.2 180.171 1565.75 180.575C1565.31 180.972 1564.78 181.165 1564.17 181.153ZM1573.74 190.429L1573.56 200.016L1569.7 199.945L1570.01 183.584L1573.69 183.652L1573.64 186.432L1573.83 186.435C1574.23 185.526 1574.84 184.809 1575.67 184.285C1576.51 183.761 1577.54 183.51 1578.77 183.532C1579.89 183.553 1580.87 183.813 1581.7 184.311C1582.54 184.809 1583.18 185.521 1583.62 186.445C1584.08 187.37 1584.29 188.486 1584.25 189.792L1584.06 200.209L1580.21 200.138L1580.39 190.318C1580.41 189.224 1580.14 188.363 1579.58 187.735C1579.03 187.107 1578.26 186.783 1577.27 186.765C1576.59 186.753 1575.99 186.891 1575.46 187.179C1574.94 187.461 1574.52 187.876 1574.21 188.424C1573.91 188.973 1573.75 189.641 1573.74 190.429ZM1594.98 206.889C1593.59 206.864 1592.41 206.653 1591.42 206.259C1590.43 205.871 1589.64 205.359 1589.05 204.723C1588.46 204.087 1588.05 203.387 1587.83 202.623L1591.32 201.846C1591.47 202.168 1591.69 202.488 1591.99 202.806C1592.28 203.131 1592.67 203.401 1593.17 203.617C1593.68 203.839 1594.32 203.957 1595.1 203.972C1596.19 203.992 1597.1 203.742 1597.83 203.223C1598.55 202.711 1598.93 201.851 1598.95 200.644L1599.01 197.544L1598.82 197.541C1598.61 197.935 1598.31 198.338 1597.92 198.75C1597.54 199.162 1597.03 199.504 1596.4 199.776C1595.78 200.049 1595 200.177 1594.06 200.159C1592.8 200.136 1591.67 199.82 1590.66 199.212C1589.65 198.597 1588.86 197.694 1588.28 196.505C1587.7 195.308 1587.43 193.818 1587.46 192.036C1587.5 190.239 1587.82 188.729 1588.44 187.504C1589.07 186.272 1589.9 185.346 1590.93 184.726C1591.97 184.099 1593.11 183.797 1594.37 183.82C1595.33 183.838 1596.11 184.016 1596.73 184.354C1597.34 184.685 1597.83 185.081 1598.2 185.542C1598.56 185.996 1598.83 186.424 1599.01 186.825L1599.23 186.829L1599.28 184.124L1603.08 184.194L1602.77 200.821C1602.75 202.22 1602.39 203.371 1601.71 204.275C1601.02 205.179 1600.1 205.847 1598.93 206.28C1597.77 206.713 1596.45 206.916 1594.98 206.889ZM1595.19 197.154C1596.01 197.169 1596.71 196.983 1597.29 196.596C1597.87 196.209 1598.32 195.646 1598.63 194.905C1598.94 194.165 1599.11 193.273 1599.13 192.229C1599.15 191.2 1599.01 190.295 1598.73 189.516C1598.45 188.736 1598.03 188.128 1597.46 187.692C1596.9 187.248 1596.21 187.018 1595.38 187.003C1594.52 186.987 1593.8 187.198 1593.21 187.635C1592.63 188.071 1592.19 188.678 1591.88 189.453C1591.57 190.222 1591.41 191.1 1591.39 192.087C1591.38 193.088 1591.51 193.968 1591.78 194.726C1592.07 195.477 1592.49 196.067 1593.06 196.497C1593.64 196.919 1594.34 197.139 1595.19 197.154Z" fill="white"/>
</svg>
