<svg width="424" height="463" viewBox="0 0 424 463" fill="none" xmlns="http://www.w3.org/2000/svg">
<path d="M123.54 31.282C123.821 30.3229 125.179 30.3229 125.46 31.282L131.7 52.6206C131.796 52.948 132.052 53.204 132.379 53.2998L153.718 59.5402C154.677 59.8207 154.677 61.1793 153.718 61.4598L132.379 67.7002C132.052 67.796 131.796 68.052 131.7 68.3794L125.46 89.718C125.179 90.6771 123.821 90.6771 123.54 89.718L117.3 68.3794C117.204 68.052 116.948 67.796 116.621 67.7002L95.282 61.4598C94.3229 61.1793 94.3229 59.8207 95.282 59.5402L116.621 53.2998C116.948 53.204 117.204 52.948 117.3 52.6206L123.54 31.282Z" fill="#454949"/>
<path d="M73.0402 76.282C73.3207 75.3229 74.6793 75.3229 74.9598 76.282L79.7295 92.5914C79.8252 92.9188 80.0812 93.1748 80.4086 93.2705L96.718 98.0402C97.6771 98.3207 97.6771 99.6793 96.718 99.9598L80.4086 104.729C80.0812 104.825 79.8252 105.081 79.7295 105.409L74.9598 121.718C74.6793 122.677 73.3207 122.677 73.0402 121.718L68.2705 105.409C68.1748 105.081 67.9188 104.825 67.5914 104.729L51.282 99.9598C50.3229 99.6793 50.3229 98.3207 51.282 98.0402L67.5914 93.2705C67.9188 93.1748 68.1748 92.9188 68.2705 92.5914L73.0402 76.282Z" fill="#454949"/>
<path d="M322.545 143.081C322.836 142.143 324.164 142.143 324.455 143.081L329.334 158.821C329.435 159.146 329.695 159.398 330.024 159.489L346.506 164.036C347.485 164.306 347.485 165.694 346.506 165.964L330.024 170.511C329.695 170.602 329.435 170.854 329.334 171.179L324.455 186.919C324.164 187.857 322.836 187.857 322.545 186.919L317.666 171.179C317.565 170.854 317.305 170.602 316.976 170.511L300.494 165.964C299.515 165.694 299.515 164.306 300.494 164.036L316.976 159.489C317.305 159.398 317.565 159.146 317.666 158.821L322.545 143.081Z" fill="#454949"/>
<path d="M307.544 74.1001C307.834 73.1596 309.166 73.1596 309.456 74.1001L312.751 84.7912C312.852 85.1169 313.111 85.3691 313.439 85.4602L324.527 88.5364C325.504 88.8074 325.504 90.1926 324.527 90.4636L313.439 93.5398C313.111 93.6309 312.852 93.8831 312.751 94.2088L309.456 104.9C309.166 105.84 307.834 105.84 307.544 104.9L304.249 94.2088C304.148 93.8831 303.889 93.6309 303.561 93.5398L292.473 90.4636C291.496 90.1926 291.496 88.8074 292.473 88.5364L303.561 85.4602C303.889 85.3691 304.148 85.1169 304.249 84.7912L307.544 74.1001Z" fill="#454949"/>
<g clip-path="url(#clip0_173_839)">
<path d="M292.333 184.334C296.14 191.118 334.418 250.427 326.409 308.424L284.76 293.357L265.725 215.175L292.333 184.334Z" fill="#B1ABAB"/>
<path d="M126.007 160.049C126.007 160.049 151.596 114.142 213.903 126.836C276.189 139.53 310.203 228.722 293.29 405.377C293.29 405.377 194.326 366.026 65.6348 397.74C65.6348 397.74 86.8129 226.662 126.007 160.049Z" fill="#454949"/>
<path d="M78.4922 141.487L122.284 185.208C122.284 185.208 234.541 215.549 265.725 215.174C296.91 214.821 309.184 192.013 309.184 192.013C309.184 192.013 282.868 150.331 229.631 131.477C224.638 129.708 219.396 128.127 213.924 126.816C204.729 124.61 195.388 123.34 186.11 122.778C130.98 119.49 78.513 141.466 78.513 141.466L78.4922 141.487Z" fill="#454949"/>
<path d="M78.492 141.487C71.502 149.103 82.2783 157.406 94.386 169.476C106.473 181.546 118.976 188.6 122.284 185.208C125.592 181.816 118.498 169.289 106.39 157.219C94.3028 145.149 81.6958 137.991 78.492 141.487Z" fill="#131F2D"/>
<path d="M116.458 185.396C116.458 185.396 117.103 176.655 106.14 165.522C99.5241 158.8 91.1611 154.41 85.5441 151.996C82.2155 150.56 78.346 152.183 77.0354 155.596L73.5195 164.648L89.8712 175.178L116.458 185.416V185.396Z" fill="#B1ABAB"/>
<path d="M193.828 347.359C193.828 347.359 58.7493 274.129 10.3183 354.018C-25.5265 413.16 28.3551 468.223 228.195 462.625C228.195 462.625 247.938 453.365 243.132 405.377C241.218 386.357 193.807 347.359 193.807 347.359H193.828Z" fill="#454949"/>
<path d="M193.827 347.359C193.827 347.359 373.737 273.63 409.333 319.724C450.253 372.685 411.018 462.625 221.371 430.474L198.258 405.377L193.827 347.359Z" fill="#454949"/>
<path d="M228.424 462.917L227.987 462.292C248.978 447.309 243.32 408.852 242.82 405.627L106.452 355.974L106.702 355.267L243.486 405.065L243.528 405.273C243.611 405.689 250.622 447.059 228.445 462.896L228.424 462.917Z" fill="#020202"/>
<path d="M244.297 418.571C244.297 418.571 277.458 419.923 293.019 427.561C308.601 435.198 300.28 453.844 268.658 453.344C237.037 452.845 239.429 448.142 239.429 448.142C239.429 448.142 245.441 431.764 244.297 418.571Z" fill="#F3F3F3"/>
<path d="M201.858 350.855C212.842 350.855 221.85 348.087 229.173 342.552C242.986 332.126 245.545 315.52 243.548 304.449L230.338 296.77C229.672 293.149 204.188 306.613 204.229 306.613C204.104 306.655 192.059 310.151 150.264 288.779C121.16 273.9 106.493 252.799 105.432 224.248C104.621 202.73 114.212 190.64 116.479 185.395C116.771 184.688 102.416 170.287 102.832 168.831L92.0557 163.358C92.4094 162.13 81.6955 157.906 81.8619 157.552L73.5612 164.627C69.4629 174.116 60.7462 195.904 61.8696 225.912C63.0346 257.086 75.9121 300.121 130.584 328.089C160.396 343.322 183.8 350.876 201.899 350.876L201.858 350.855Z" fill="#B1ABAB"/>
<path d="M210.72 352.603H327.304C329.738 352.603 331.901 351.043 332.692 348.753L356.928 276.377C358.156 272.735 355.41 268.968 351.54 268.968H239.429C234.311 268.968 229.776 272.215 228.174 277.043L205.352 345.195C204.125 348.837 206.871 352.603 210.741 352.603H210.72Z" fill="#131F2D"/>
<path d="M218.043 352.603H334.627C337.061 352.603 339.225 351.043 340.015 348.753L364.252 276.377C365.479 272.735 362.733 268.968 358.863 268.968H246.752C241.635 268.968 237.099 272.215 235.497 277.043L212.676 345.195C211.448 348.837 214.194 352.603 218.043 352.603Z" fill="#131F2D"/>
<path d="M299.718 308.424C299.718 305.677 296.556 304.553 293.789 304.553C291.022 304.553 286.508 307.571 286.528 311.42C286.549 315.582 289.815 316.124 292.561 316.124C295.308 316.124 299.697 311.92 299.697 308.424H299.718Z" fill="#DAEBE8"/>
<path d="M175.187 342.386H334.689V352.603H171.859C169.966 352.603 168.405 351.063 168.405 349.149C168.405 345.403 171.443 342.365 175.187 342.365V342.386Z" fill="#131F2D"/>
<path d="M226.323 305.573L225.595 305.386C225.824 304.491 231.399 283.618 235.144 276.876C238.951 270.03 243.611 268.677 243.798 268.635L244.006 269.364C244.006 269.364 239.45 270.695 235.809 277.251C232.106 283.91 226.385 305.365 226.323 305.594V305.573Z" fill="#131F2D"/>
<path d="M209.098 342.76V342.011C212.926 342.011 213.862 340.429 213.882 340.409L222.932 313.335L223.66 313.585L214.569 340.721C214.507 340.866 213.425 342.781 209.098 342.781V342.76Z" fill="#131F2D"/>
<path d="M181.187 123.711C188.26 120.777 193.42 117.988 195.708 111.579L202.761 91.7469L204.82 85.9618L216.907 52L216.845 86.378L216.803 107.001V113.535C216.782 117.967 219.424 119.029 222.503 123.045C223.752 124.668 231.803 134.532 222.025 138.32C209.855 143.043 189.03 134.699 181 123.732C181.062 123.732 181.146 123.732 181.208 123.69L181.187 123.711Z" fill="#B1ABAB"/>
<path d="M204.375 89.3369C204.375 89.5242 204.396 89.7115 204.417 89.8988C205.353 100.949 217.398 106.068 217.398 106.068L217.461 106.006L218.771 85.4247C215.089 84.1136 209.846 82.7818 206.809 84.2593C205.228 85.0501 204.229 86.59 204.354 89.3369H204.375Z" fill="#131F2D"/>
<path d="M252.348 60.3903C252.161 40.2255 238.576 23.9522 221.995 24.0146C205.415 24.077 192.121 40.4752 192.309 60.6401C192.496 80.8049 206.081 97.0782 222.661 97.0158C239.242 96.9534 252.535 80.5551 252.348 60.3903Z" fill="#B1ABAB"/>
<path d="M192.08 63.1788C194.867 65.5095 198.778 65.3638 200.838 62.8666C202.877 60.3695 202.273 56.4572 199.507 54.1265C196.719 51.7958 192.808 51.9414 190.748 54.4386C188.709 56.9358 189.292 60.8481 192.08 63.1788Z" fill="#FF7955"/>
<path d="M223.223 55.1254C223.389 55.0421 223.514 54.8964 223.555 54.6883C223.618 54.3554 223.41 54.0224 223.077 53.96C222.89 53.9184 218.479 52.5241 215.629 57.0607C215.442 57.352 215.525 57.7266 215.796 57.9139C216.066 58.1012 216.399 57.9763 216.649 57.7474C219.062 55.3959 222.661 55.1254 222.827 55.167C222.952 55.1878 223.098 55.167 223.202 55.1254H223.223Z" fill="#080435"/>
<path d="M250.684 60.7649C250.83 60.7649 250.955 60.6608 251.038 60.4944C251.184 60.2238 251.121 59.8284 250.913 59.6412C250.788 59.5163 248.001 56.5197 244.672 59.5579C244.464 59.7452 244.402 60.1198 244.547 60.4111C244.693 60.7025 244.963 60.7025 245.213 60.5776C247.626 59.3706 250.289 60.5568 250.393 60.64C250.476 60.7233 250.58 60.7441 250.684 60.7441V60.7649Z" fill="#080435"/>
<path d="M244.422 66.3004C244.068 67.7155 244.609 69.0889 245.628 69.3386C246.648 69.6092 247.771 68.6727 248.125 67.2577C248.479 65.8426 247.938 64.4691 246.918 64.2194C245.899 63.9489 244.775 64.8853 244.422 66.3004Z" fill="#080435"/>
<path d="M279.322 190.336L277.543 190.921L284.428 211.855L286.206 211.27L279.322 190.336Z" fill="#131F2D"/>
<path d="M253.805 85.05C251.704 85.6951 249.582 85.5078 247.585 84.4673C241.177 81.1378 237.932 69.8172 240.324 59.2249C241.801 52.7114 245.15 47.6754 249.27 45.7609C251.724 44.6163 254.283 44.6788 256.655 45.9066C263.062 49.2361 266.308 60.5567 263.915 71.149C262.438 77.6625 259.089 82.6985 254.97 84.613C254.595 84.8003 254.2 84.946 253.826 85.05H253.805ZM250.788 46.5309C250.455 46.6349 250.123 46.7598 249.811 46.9054C246.045 48.6535 242.966 53.3565 241.572 59.4954C239.284 69.5466 242.259 80.2429 248.188 83.3228C250.206 84.3633 252.369 84.4049 254.45 83.4477C258.215 81.6996 261.294 76.9966 262.688 70.8577C264.956 60.8065 262.001 50.1102 256.072 47.0303C254.387 46.1563 252.577 45.9898 250.788 46.5309Z" fill="white"/>
<path opacity="0.3" d="M240.116 60.0574C238.68 70.3375 242.633 81.0338 248.936 83.968C255.24 86.9022 261.502 80.9506 262.917 70.6704C264.352 60.3903 260.399 49.694 254.096 46.7598C247.792 43.8256 241.53 49.7773 240.116 60.0574Z" fill="white"/>
<path d="M224.222 78.9736C222.017 79.6604 219.708 79.5771 217.44 78.7031C209.722 75.7689 204.729 64.5107 206.289 53.5855C207.205 47.2177 210.138 42.1401 214.32 39.6637C217.19 37.9573 220.353 37.7075 223.452 38.8729C231.171 41.8071 236.163 53.0653 234.603 63.9905C233.688 70.3583 230.754 75.4359 226.573 77.9123C225.803 78.3701 225.013 78.7239 224.222 78.9736ZM217.024 39.851C216.317 40.0799 215.63 40.3712 214.944 40.7874C211.157 43.0141 208.391 47.8836 207.538 53.7936C206.04 64.1778 210.679 74.8325 217.877 77.5586C220.623 78.5991 223.39 78.3493 225.928 76.8718C229.714 74.6452 232.481 69.7756 233.334 63.8656C234.832 53.4815 230.193 42.8268 222.995 40.1007C220.998 39.3515 218.959 39.2683 217.024 39.8718V39.851Z" fill="white"/>
<path d="M242.029 63.6575C241.696 63.7616 241.301 63.7199 240.989 63.491C240.844 63.387 237.598 61.2019 232.439 62.6586C231.815 62.8459 231.149 62.4713 230.983 61.847C230.795 61.2227 231.149 60.5568 231.794 60.3903C238.077 58.6007 242.175 61.4308 242.341 61.5557C242.882 61.9303 243.007 62.6794 242.612 63.1997C242.466 63.4286 242.237 63.5743 242.009 63.6367L242.029 63.6575Z" fill="white"/>
<path d="M207.121 34.4195C230.587 35.0647 250.642 51.775 256.176 74.6035C256.488 75.9353 256.8 77.288 257.091 78.7031C257.091 78.7031 242.674 85.2166 244.984 100.221C245.712 104.924 260.794 110.022 261.627 109.419C268.013 104.799 282.784 83.8223 271.487 50.6929C260.191 17.5635 241.78 -4.66149 210.345 0.832334C178.911 6.34696 187.42 26.2829 187.42 26.2829C187.42 26.2829 194.763 34.0658 207.1 34.4195H207.121Z" fill="#131F2D"/>
<path d="M211.511 33.5662C211.511 33.5662 211.053 34.0241 210.325 34.8565C207.558 38.1028 200.922 47.1759 201.775 58.4341C202.836 72.6057 217.919 78.4116 216.504 89.8571C215.089 101.303 202.961 91.3346 195.534 94.789C188.107 98.2435 181.616 95.8087 177.83 80.3053C174.044 64.8019 170.049 27.5938 188.523 23.7231L211.511 33.587V33.5662Z" fill="#131F2D"/>
<path d="M267.306 90.3982C267.306 90.3982 267.264 90.3982 267.243 90.3982C267.035 90.419 266.869 90.2733 266.848 90.0861C264.31 67.2784 251.724 47.2801 240.386 37.5826C222.848 22.5787 208.619 27.9893 208.473 28.0517C208.286 28.1141 208.078 28.0517 208.015 27.8436C207.932 27.6563 208.015 27.4482 208.223 27.3858C208.369 27.3233 222.973 21.7463 240.864 37.0416C252.306 46.8222 265.017 67.0079 267.576 90.0028C267.576 90.1693 267.493 90.3358 267.327 90.3774L267.306 90.3982Z" fill="white"/>
<path d="M192.787 82.7819C192.641 82.8235 192.496 82.7819 192.392 82.657C182.281 69.4011 180.534 43.0974 184.819 34.2323C189.188 25.2216 199.652 27.3442 199.756 27.3651C199.943 27.4067 200.068 27.594 200.027 27.7813C199.985 27.9685 199.798 28.0934 199.611 28.0518C199.194 27.9685 189.583 26.0124 185.464 34.5237C181.241 43.243 183.009 69.1306 192.953 82.1992C193.078 82.3657 193.037 82.5738 192.891 82.6986C192.849 82.7195 192.808 82.7403 192.787 82.7611V82.7819Z" fill="white"/>
<path d="M263.437 62.18C263.25 62.2424 263.042 62.1176 263 61.9303C262.896 61.5141 251.537 20.2688 233.459 16.6271C215.339 12.9853 204.854 24.6597 204.75 24.7846C204.625 24.9302 204.396 24.951 204.251 24.8262C204.105 24.7013 204.084 24.4724 204.209 24.3267C204.313 24.2019 215.089 12.2154 233.605 15.9403C252.141 19.6653 263.25 60.0366 263.707 61.743C263.749 61.9303 263.645 62.1176 263.458 62.18H263.437Z" fill="white"/>
<path d="M238.057 85.8827C238.057 85.8827 228.841 85.2167 219.937 81.1172C219.937 81.1172 218.314 90.1279 228.217 91.6678C233.979 92.5626 238.057 85.8827 238.057 85.8827Z" fill="white"/>
<path d="M224.118 60.0783C224.118 60.0783 224.222 60.1615 224.264 60.2031C224.493 60.4737 224.472 60.869 224.201 61.0979C222.932 62.2009 220.977 62.7211 218.376 62.6795C218.043 62.6795 217.669 62.3882 217.669 62.0552C217.669 61.7222 217.835 61.4309 218.189 61.4101H218.397C221.226 61.4517 222.662 60.7442 223.369 60.1407C223.577 59.9534 223.889 59.9326 224.118 60.0783Z" fill="#080435"/>
<path opacity="0.3" d="M207.33 53.8978C205.894 64.1154 210.429 74.6245 217.44 77.3506C224.451 80.0766 231.296 73.9793 232.731 63.7617C234.166 53.544 229.631 43.035 222.62 40.3089C215.61 37.5828 208.765 43.6801 207.33 53.8978Z" fill="white"/>
</g>
<g clip-path="url(#clip1_173_839)">
<path d="M292.333 184.334C296.14 191.118 334.418 250.427 326.409 308.424L284.76 293.357L265.725 215.175L292.333 184.334Z" fill="#B1ABAB"/>
<path d="M126.007 160.049C126.007 160.049 151.596 114.142 213.903 126.836C276.189 139.53 310.203 228.722 293.29 405.377C293.29 405.377 194.326 366.026 65.6348 397.74C65.6348 397.74 86.8129 226.662 126.007 160.049Z" fill="#454949"/>
<path d="M78.4922 141.487L122.284 185.208C122.284 185.208 234.541 215.549 265.725 215.174C296.91 214.821 309.184 192.013 309.184 192.013C309.184 192.013 282.868 150.331 229.631 131.477C224.638 129.708 219.396 128.127 213.924 126.816C204.729 124.61 195.388 123.34 186.11 122.778C130.98 119.49 78.513 141.466 78.513 141.466L78.4922 141.487Z" fill="#454949"/>
<path d="M78.492 141.487C71.502 149.103 82.2783 157.406 94.386 169.476C106.473 181.546 118.976 188.6 122.284 185.208C125.592 181.816 118.498 169.289 106.39 157.219C94.3028 145.149 81.6958 137.991 78.492 141.487Z" fill="#131F2D"/>
<path d="M116.458 185.396C116.458 185.396 117.103 176.655 106.14 165.522C99.5241 158.8 91.1611 154.41 85.5441 151.996C82.2155 150.56 78.346 152.183 77.0354 155.596L73.5195 164.648L89.8712 175.178L116.458 185.416V185.396Z" fill="#B1ABAB"/>
<path d="M193.828 347.359C193.828 347.359 58.7493 274.129 10.3183 354.018C-25.5265 413.16 28.3551 468.223 228.195 462.625C228.195 462.625 247.938 453.365 243.132 405.377C241.218 386.357 193.807 347.359 193.807 347.359H193.828Z" fill="#454949"/>
<path d="M193.827 347.359C193.827 347.359 373.737 273.63 409.333 319.724C450.253 372.685 411.018 462.625 221.371 430.474L198.258 405.377L193.827 347.359Z" fill="#454949"/>
<path d="M228.424 462.917L227.987 462.292C248.978 447.309 243.32 408.852 242.82 405.627L106.452 355.974L106.702 355.267L243.486 405.065L243.528 405.273C243.611 405.689 250.622 447.059 228.445 462.896L228.424 462.917Z" fill="#020202"/>
<path d="M244.297 418.571C244.297 418.571 277.458 419.923 293.019 427.561C308.601 435.198 300.28 453.844 268.658 453.344C237.037 452.845 239.429 448.142 239.429 448.142C239.429 448.142 245.441 431.764 244.297 418.571Z" fill="#F3F3F3"/>
<path d="M201.858 350.855C212.842 350.855 221.85 348.087 229.173 342.552C242.986 332.126 245.545 315.52 243.548 304.449L230.338 296.77C229.672 293.149 204.188 306.613 204.229 306.613C204.104 306.655 192.059 310.151 150.264 288.779C121.16 273.9 106.493 252.799 105.432 224.248C104.621 202.73 114.212 190.64 116.479 185.395C116.771 184.688 102.416 170.287 102.832 168.831L92.0557 163.358C92.4094 162.13 81.6955 157.906 81.8619 157.552L73.5612 164.627C69.4629 174.116 60.7462 195.904 61.8696 225.912C63.0346 257.086 75.9121 300.121 130.584 328.089C160.396 343.322 183.8 350.876 201.899 350.876L201.858 350.855Z" fill="#B1ABAB"/>
<path d="M210.72 352.603H327.304C329.738 352.603 331.901 351.043 332.692 348.753L356.928 276.377C358.156 272.735 355.41 268.968 351.54 268.968H239.429C234.311 268.968 229.776 272.215 228.174 277.043L205.352 345.195C204.125 348.837 206.871 352.603 210.741 352.603H210.72Z" fill="#131F2D"/>
<path d="M218.043 352.603H334.627C337.061 352.603 339.225 351.043 340.015 348.753L364.252 276.377C365.479 272.735 362.733 268.968 358.863 268.968H246.752C241.635 268.968 237.099 272.215 235.497 277.043L212.676 345.195C211.448 348.837 214.194 352.603 218.043 352.603Z" fill="#131F2D"/>
<path d="M299.718 308.424C299.718 305.677 296.556 304.553 293.789 304.553C291.022 304.553 286.508 307.571 286.528 311.42C286.549 315.582 289.815 316.124 292.561 316.124C295.308 316.124 299.697 311.92 299.697 308.424H299.718Z" fill="#DAEBE8"/>
<path d="M175.187 342.386H334.689V352.603H171.859C169.966 352.603 168.405 351.063 168.405 349.149C168.405 345.403 171.443 342.365 175.187 342.365V342.386Z" fill="#131F2D"/>
<path d="M226.323 305.573L225.595 305.386C225.824 304.491 231.399 283.618 235.144 276.876C238.951 270.03 243.611 268.677 243.798 268.635L244.006 269.364C244.006 269.364 239.45 270.695 235.809 277.251C232.106 283.91 226.385 305.365 226.323 305.594V305.573Z" fill="#131F2D"/>
<path d="M209.098 342.76V342.011C212.926 342.011 213.862 340.429 213.882 340.409L222.932 313.335L223.66 313.585L214.569 340.721C214.507 340.866 213.425 342.781 209.098 342.781V342.76Z" fill="#131F2D"/>
<path d="M181.187 123.711C188.26 120.777 193.42 117.988 195.708 111.579L202.761 91.7469L204.82 85.9618L216.907 52L216.845 86.378L216.803 107.001V113.535C216.782 117.967 219.424 119.029 222.503 123.045C223.752 124.668 231.803 134.532 222.025 138.32C209.855 143.043 189.03 134.699 181 123.732C181.062 123.732 181.146 123.732 181.208 123.69L181.187 123.711Z" fill="#B1ABAB"/>
<path d="M204.375 89.3369C204.375 89.5242 204.396 89.7115 204.417 89.8988C205.353 100.949 217.398 106.068 217.398 106.068L217.461 106.006L218.771 85.4247C215.089 84.1136 209.846 82.7818 206.809 84.2593C205.228 85.0501 204.229 86.59 204.354 89.3369H204.375Z" fill="#131F2D"/>
<path d="M252.348 60.3903C252.161 40.2255 238.576 23.9522 221.995 24.0146C205.415 24.077 192.121 40.4752 192.309 60.6401C192.496 80.8049 206.081 97.0782 222.661 97.0158C239.242 96.9534 252.535 80.5551 252.348 60.3903Z" fill="#B1ABAB"/>
<path d="M192.08 63.1788C194.867 65.5095 198.778 65.3638 200.838 62.8666C202.877 60.3695 202.273 56.4572 199.507 54.1265C196.719 51.7958 192.808 51.9414 190.748 54.4386C188.709 56.9358 189.292 60.8481 192.08 63.1788Z" fill="#FF7955"/>
<path d="M223.223 55.1254C223.389 55.0421 223.514 54.8964 223.555 54.6883C223.618 54.3554 223.41 54.0224 223.077 53.96C222.89 53.9184 218.479 52.5241 215.629 57.0607C215.442 57.352 215.525 57.7266 215.796 57.9139C216.066 58.1012 216.399 57.9763 216.649 57.7474C219.062 55.3959 222.661 55.1254 222.827 55.167C222.952 55.1878 223.098 55.167 223.202 55.1254H223.223Z" fill="#080435"/>
<path d="M250.684 60.7649C250.83 60.7649 250.955 60.6608 251.038 60.4944C251.184 60.2238 251.121 59.8284 250.913 59.6412C250.788 59.5163 248.001 56.5197 244.672 59.5579C244.464 59.7452 244.402 60.1198 244.547 60.4111C244.693 60.7025 244.963 60.7025 245.213 60.5776C247.626 59.3706 250.289 60.5568 250.393 60.64C250.476 60.7233 250.58 60.7441 250.684 60.7441V60.7649Z" fill="#080435"/>
<path d="M244.422 66.3004C244.068 67.7155 244.609 69.0889 245.628 69.3386C246.648 69.6092 247.771 68.6727 248.125 67.2577C248.479 65.8426 247.938 64.4691 246.918 64.2194C245.899 63.9489 244.775 64.8853 244.422 66.3004Z" fill="#080435"/>
<path d="M279.322 190.336L277.543 190.921L284.428 211.855L286.206 211.27L279.322 190.336Z" fill="#131F2D"/>
<path d="M253.805 85.05C251.704 85.6951 249.582 85.5078 247.585 84.4673C241.177 81.1378 237.932 69.8172 240.324 59.2249C241.801 52.7114 245.15 47.6754 249.27 45.7609C251.724 44.6163 254.283 44.6788 256.655 45.9066C263.062 49.2361 266.308 60.5567 263.915 71.149C262.438 77.6625 259.089 82.6985 254.97 84.613C254.595 84.8003 254.2 84.946 253.826 85.05H253.805ZM250.788 46.5309C250.455 46.6349 250.123 46.7598 249.811 46.9054C246.045 48.6535 242.966 53.3565 241.572 59.4954C239.284 69.5466 242.259 80.2429 248.188 83.3228C250.206 84.3633 252.369 84.4049 254.45 83.4477C258.215 81.6996 261.294 76.9966 262.688 70.8577C264.956 60.8065 262.001 50.1102 256.072 47.0303C254.387 46.1563 252.577 45.9898 250.788 46.5309Z" fill="white"/>
<path opacity="0.3" d="M240.116 60.0574C238.68 70.3375 242.633 81.0338 248.936 83.968C255.24 86.9022 261.502 80.9506 262.917 70.6704C264.352 60.3903 260.399 49.694 254.096 46.7598C247.792 43.8256 241.53 49.7773 240.116 60.0574Z" fill="white"/>
<path d="M224.222 78.9736C222.017 79.6604 219.708 79.5771 217.44 78.7031C209.722 75.7689 204.729 64.5107 206.289 53.5855C207.205 47.2177 210.138 42.1401 214.32 39.6637C217.19 37.9573 220.353 37.7075 223.452 38.8729C231.171 41.8071 236.163 53.0653 234.603 63.9905C233.688 70.3583 230.754 75.4359 226.573 77.9123C225.803 78.3701 225.013 78.7239 224.222 78.9736ZM217.024 39.851C216.317 40.0799 215.63 40.3712 214.944 40.7874C211.157 43.0141 208.391 47.8836 207.538 53.7936C206.04 64.1778 210.679 74.8325 217.877 77.5586C220.623 78.5991 223.39 78.3493 225.928 76.8718C229.714 74.6452 232.481 69.7756 233.334 63.8656C234.832 53.4815 230.193 42.8268 222.995 40.1007C220.998 39.3515 218.959 39.2683 217.024 39.8718V39.851Z" fill="white"/>
<path d="M242.029 63.6575C241.696 63.7616 241.301 63.7199 240.989 63.491C240.844 63.387 237.598 61.2019 232.439 62.6586C231.815 62.8459 231.149 62.4713 230.983 61.847C230.795 61.2227 231.149 60.5568 231.794 60.3903C238.077 58.6007 242.175 61.4308 242.341 61.5557C242.882 61.9303 243.007 62.6794 242.612 63.1997C242.466 63.4286 242.237 63.5743 242.009 63.6367L242.029 63.6575Z" fill="white"/>
<path d="M207.121 34.4195C230.587 35.0647 250.642 51.775 256.176 74.6035C256.488 75.9353 256.8 77.288 257.091 78.7031C257.091 78.7031 242.674 85.2166 244.984 100.221C245.712 104.924 260.794 110.022 261.627 109.419C268.013 104.799 282.784 83.8223 271.487 50.6929C260.191 17.5635 241.78 -4.66149 210.345 0.832334C178.911 6.34696 187.42 26.2829 187.42 26.2829C187.42 26.2829 194.763 34.0658 207.1 34.4195H207.121Z" fill="#131F2D"/>
<path d="M211.511 33.5662C211.511 33.5662 211.053 34.0241 210.325 34.8565C207.558 38.1028 200.922 47.1759 201.775 58.4341C202.836 72.6057 217.919 78.4116 216.504 89.8571C215.089 101.303 202.961 91.3346 195.534 94.789C188.107 98.2435 181.616 95.8087 177.83 80.3053C174.044 64.8019 170.049 27.5938 188.523 23.7231L211.511 33.587V33.5662Z" fill="#131F2D"/>
<path d="M267.306 90.3982C267.306 90.3982 267.264 90.3982 267.243 90.3982C267.035 90.419 266.869 90.2733 266.848 90.0861C264.31 67.2784 251.724 47.2801 240.386 37.5826C222.848 22.5787 208.619 27.9893 208.473 28.0517C208.286 28.1141 208.078 28.0517 208.015 27.8436C207.932 27.6563 208.015 27.4482 208.223 27.3858C208.369 27.3233 222.973 21.7463 240.864 37.0416C252.306 46.8222 265.017 67.0079 267.576 90.0028C267.576 90.1693 267.493 90.3358 267.327 90.3774L267.306 90.3982Z" fill="white"/>
<path d="M192.787 82.7819C192.641 82.8235 192.496 82.7819 192.392 82.657C182.281 69.4011 180.534 43.0974 184.819 34.2323C189.188 25.2216 199.652 27.3442 199.756 27.3651C199.943 27.4067 200.068 27.594 200.027 27.7813C199.985 27.9685 199.798 28.0934 199.611 28.0518C199.194 27.9685 189.583 26.0124 185.464 34.5237C181.241 43.243 183.009 69.1306 192.953 82.1992C193.078 82.3657 193.037 82.5738 192.891 82.6986C192.849 82.7195 192.808 82.7403 192.787 82.7611V82.7819Z" fill="white"/>
<path d="M263.437 62.18C263.25 62.2424 263.042 62.1176 263 61.9303C262.896 61.5141 251.537 20.2688 233.459 16.6271C215.339 12.9853 204.854 24.6597 204.75 24.7846C204.625 24.9302 204.396 24.951 204.251 24.8262C204.105 24.7013 204.084 24.4724 204.209 24.3267C204.313 24.2019 215.089 12.2154 233.605 15.9403C252.141 19.6653 263.25 60.0366 263.707 61.743C263.749 61.9303 263.645 62.1176 263.458 62.18H263.437Z" fill="white"/>
<path d="M238.057 85.8827C238.057 85.8827 228.841 85.2167 219.937 81.1172C219.937 81.1172 218.314 90.1279 228.217 91.6678C233.979 92.5626 238.057 85.8827 238.057 85.8827Z" fill="white"/>
<path d="M224.118 60.0783C224.118 60.0783 224.222 60.1615 224.264 60.2031C224.493 60.4737 224.472 60.869 224.201 61.0979C222.932 62.2009 220.977 62.7211 218.376 62.6795C218.043 62.6795 217.669 62.3882 217.669 62.0552C217.669 61.7222 217.835 61.4309 218.189 61.4101H218.397C221.226 61.4517 222.662 60.7442 223.369 60.1407C223.577 59.9534 223.889 59.9326 224.118 60.0783Z" fill="#080435"/>
<path opacity="0.3" d="M207.33 53.8978C205.894 64.1154 210.429 74.6245 217.44 77.3506C224.451 80.0766 231.296 73.9793 232.731 63.7617C234.166 53.544 229.631 43.035 222.62 40.3089C215.61 37.5828 208.765 43.6801 207.33 53.8978Z" fill="white"/>
</g>
<defs>
<clipPath id="clip0_173_839">
<rect width="424" height="463" fill="white"/>
</clipPath>
<clipPath id="clip1_173_839">
<rect width="424" height="463" fill="white"/>
</clipPath>
</defs>
</svg>
