<svg width="528" height="220" viewBox="0 0 528 220" fill="none" xmlns="http://www.w3.org/2000/svg">
<g filter="url(#filter0_d_2237_370)">
<rect x="43.4238" y="59" width="418" height="63" rx="31.5" fill="#41CFC5"/>
<rect x="44.4238" y="60" width="416" height="61" rx="30.5" stroke="#F3F0CA" stroke-width="2"/>
</g>
<g filter="url(#filter1_d_2237_370)">
<rect x="121" y="150" width="270" height="55" rx="27.5" fill="#039BFF"/>
<rect x="122" y="151" width="268" height="53" rx="26.5" stroke="#F3F0CA" stroke-width="2"/>
</g>
<path d="M183.856 73.9091H190.006V92.8011C190.006 94.9223 189.499 96.7784 188.486 98.3693C187.482 99.9602 186.076 101.201 184.267 102.091C182.459 102.972 180.352 103.412 177.946 103.412C175.532 103.412 173.42 102.972 171.611 102.091C169.802 101.201 168.396 99.9602 167.392 98.3693C166.389 96.7784 165.887 94.9223 165.887 92.8011V73.9091H172.037V92.2756C172.037 93.3835 172.279 94.3684 172.762 95.2301C173.254 96.0919 173.945 96.7689 174.836 97.2614C175.726 97.7538 176.763 98 177.946 98C179.14 98 180.177 97.7538 181.057 97.2614C181.947 96.7689 182.634 96.0919 183.117 95.2301C183.609 94.3684 183.856 93.3835 183.856 92.2756V73.9091ZM200.457 73.9091V103H194.306V73.9091H200.457ZM223.568 103H213.255V73.9091H223.653C226.579 73.9091 229.098 74.4915 231.21 75.6562C233.321 76.8116 234.946 78.4735 236.082 80.642C237.228 82.8106 237.801 85.4053 237.801 88.4261C237.801 91.4564 237.228 94.0606 236.082 96.2386C234.946 98.4167 233.312 100.088 231.181 101.253C229.06 102.418 226.522 103 223.568 103ZM219.406 97.7301H223.312C225.13 97.7301 226.66 97.4081 227.9 96.7642C229.15 96.1108 230.088 95.1023 230.713 93.7386C231.347 92.3655 231.664 90.5947 231.664 88.4261C231.664 86.2765 231.347 84.5199 230.713 83.1562C230.088 81.7926 229.155 80.7888 227.914 80.1449C226.674 79.5009 225.144 79.179 223.326 79.179H219.406V97.7301ZM251.426 103.426C249.182 103.426 247.25 102.972 245.631 102.062C244.021 101.144 242.78 99.8466 241.909 98.1705C241.038 96.4848 240.602 94.4915 240.602 92.1903C240.602 89.946 241.038 87.9763 241.909 86.2812C242.78 84.5862 244.007 83.2652 245.588 82.3182C247.179 81.3712 249.045 80.8977 251.185 80.8977C252.624 80.8977 253.964 81.1297 255.205 81.5938C256.455 82.0483 257.544 82.7348 258.472 83.6534C259.409 84.572 260.138 85.7273 260.659 87.1193C261.18 88.5019 261.441 90.1212 261.441 91.9773V93.6392H243.017V89.8892H255.744C255.744 89.018 255.555 88.2462 255.176 87.5739C254.798 86.9015 254.272 86.3759 253.6 85.9972C252.937 85.6089 252.165 85.4148 251.284 85.4148C250.366 85.4148 249.551 85.6278 248.841 86.054C248.14 86.4706 247.591 87.0341 247.193 87.7443C246.796 88.4451 246.592 89.2263 246.583 90.0881V93.6534C246.583 94.733 246.781 95.6657 247.179 96.4517C247.586 97.2377 248.159 97.8438 248.898 98.2699C249.637 98.696 250.512 98.9091 251.526 98.9091C252.198 98.9091 252.814 98.8144 253.372 98.625C253.931 98.4356 254.409 98.1515 254.807 97.7727C255.205 97.3939 255.508 96.9299 255.716 96.3807L261.313 96.75C261.029 98.0947 260.446 99.2689 259.566 100.273C258.694 101.267 257.567 102.044 256.185 102.602C254.812 103.152 253.226 103.426 251.426 103.426ZM282.783 87.4034L277.243 87.7443C277.148 87.2708 276.945 86.8447 276.632 86.4659C276.32 86.0777 275.908 85.7699 275.396 85.5426C274.895 85.3059 274.293 85.1875 273.592 85.1875C272.655 85.1875 271.864 85.3864 271.22 85.7841C270.576 86.1723 270.254 86.6932 270.254 87.3466C270.254 87.8674 270.463 88.3078 270.879 88.6676C271.296 89.0275 272.011 89.3163 273.024 89.5341L276.973 90.3295C279.094 90.7652 280.676 91.4659 281.717 92.4318C282.759 93.3977 283.28 94.6667 283.28 96.2386C283.28 97.6686 282.859 98.9233 282.016 100.003C281.182 101.082 280.037 101.925 278.578 102.531C277.129 103.128 275.458 103.426 273.564 103.426C270.676 103.426 268.375 102.825 266.661 101.622C264.956 100.41 263.957 98.7623 263.663 96.679L269.615 96.3665C269.795 97.2472 270.231 97.9195 270.922 98.3835C271.613 98.8381 272.499 99.0653 273.578 99.0653C274.639 99.0653 275.491 98.8617 276.135 98.4545C276.788 98.0379 277.12 97.5028 277.129 96.8494C277.12 96.3002 276.888 95.8504 276.433 95.5C275.979 95.1402 275.278 94.8655 274.331 94.6761L270.553 93.9233C268.422 93.4972 266.836 92.7585 265.794 91.7074C264.762 90.6562 264.246 89.3163 264.246 87.6875C264.246 86.286 264.625 85.0786 265.382 84.0653C266.149 83.0521 267.224 82.2708 268.607 81.7216C269.999 81.1723 271.627 80.8977 273.493 80.8977C276.249 80.8977 278.417 81.4801 279.999 82.6449C281.59 83.8097 282.518 85.3958 282.783 87.4034ZM286.33 103V81.1818H292.381V103H286.33ZM289.37 78.3693C288.47 78.3693 287.699 78.071 287.055 77.4744C286.42 76.8684 286.103 76.1439 286.103 75.3011C286.103 74.4678 286.42 73.7528 287.055 73.1562C287.699 72.5502 288.47 72.2472 289.37 72.2472C290.27 72.2472 291.037 72.5502 291.671 73.1562C292.315 73.7528 292.637 74.4678 292.637 75.3011C292.637 76.1439 292.315 76.8684 291.671 77.4744C291.037 78.071 290.27 78.3693 289.37 78.3693ZM306.298 111.636C304.338 111.636 302.657 111.366 301.256 110.827C299.864 110.296 298.756 109.572 297.932 108.653C297.108 107.735 296.573 106.703 296.327 105.557L301.923 104.804C302.094 105.24 302.364 105.647 302.733 106.026C303.102 106.404 303.59 106.707 304.196 106.935C304.812 107.171 305.56 107.29 306.44 107.29C307.757 107.29 308.841 106.968 309.693 106.324C310.555 105.689 310.986 104.624 310.986 103.128V99.1364H310.73C310.465 99.7424 310.067 100.315 309.537 100.855C309.007 101.395 308.325 101.835 307.491 102.176C306.658 102.517 305.664 102.688 304.509 102.688C302.87 102.688 301.379 102.309 300.034 101.551C298.699 100.784 297.634 99.6146 296.838 98.0426C296.052 96.4612 295.659 94.4631 295.659 92.0483C295.659 89.5767 296.062 87.5123 296.866 85.8551C297.671 84.1979 298.741 82.9574 300.077 82.1335C301.421 81.3097 302.894 80.8977 304.494 80.8977C305.716 80.8977 306.739 81.1061 307.563 81.5227C308.386 81.9299 309.049 82.4413 309.551 83.0568C310.063 83.6629 310.456 84.2595 310.73 84.8466H310.957V81.1818H316.966V103.213C316.966 105.069 316.511 106.622 315.602 107.872C314.693 109.122 313.434 110.06 311.824 110.685C310.223 111.319 308.382 111.636 306.298 111.636ZM306.426 98.142C307.402 98.142 308.225 97.9006 308.898 97.4176C309.58 96.9252 310.1 96.2244 310.46 95.3153C310.83 94.3968 311.014 93.2983 311.014 92.0199C311.014 90.7415 310.834 89.6335 310.474 88.696C310.115 87.7491 309.594 87.0152 308.912 86.4943C308.23 85.9735 307.402 85.7131 306.426 85.7131C305.432 85.7131 304.594 85.983 303.912 86.5227C303.23 87.053 302.714 87.7917 302.364 88.7386C302.013 89.6856 301.838 90.7794 301.838 92.0199C301.838 93.2794 302.013 94.3684 302.364 95.2869C302.723 96.196 303.24 96.9015 303.912 97.4034C304.594 97.8958 305.432 98.142 306.426 98.142ZM327.072 90.3864V103H321.021V81.1818H326.788V85.0312H327.044C327.527 83.7623 328.337 82.7585 329.473 82.0199C330.609 81.2718 331.987 80.8977 333.606 80.8977C335.122 80.8977 336.443 81.2292 337.57 81.892C338.696 82.5549 339.572 83.5019 340.197 84.733C340.822 85.9545 341.135 87.4129 341.135 89.108V103H335.084V90.1875C335.093 88.8523 334.752 87.8106 334.061 87.0625C333.37 86.3049 332.418 85.9261 331.206 85.9261C330.392 85.9261 329.672 86.1013 329.047 86.4517C328.431 86.8021 327.948 87.3134 327.598 87.9858C327.257 88.6487 327.082 89.4489 327.072 90.3864Z" fill="white"/>
<path d="M197.796 163.909H205.381L213.392 183.455H213.733L221.744 163.909H229.33V193H223.364V174.065H223.122L215.594 192.858H211.531L204.003 173.994H203.762V193H197.796V163.909ZM243.381 193.426C241.175 193.426 239.267 192.957 237.657 192.02C236.057 191.073 234.821 189.757 233.95 188.071C233.078 186.376 232.643 184.411 232.643 182.176C232.643 179.922 233.078 177.953 233.95 176.267C234.821 174.572 236.057 173.256 237.657 172.318C239.267 171.371 241.175 170.898 243.381 170.898C245.588 170.898 247.491 171.371 249.092 172.318C250.702 173.256 251.942 174.572 252.813 176.267C253.685 177.953 254.12 179.922 254.12 182.176C254.12 184.411 253.685 186.376 252.813 188.071C251.942 189.757 250.702 191.073 249.092 192.02C247.491 192.957 245.588 193.426 243.381 193.426ZM243.41 188.739C244.414 188.739 245.252 188.455 245.924 187.886C246.596 187.309 247.103 186.523 247.444 185.528C247.794 184.534 247.97 183.402 247.97 182.134C247.97 180.865 247.794 179.733 247.444 178.739C247.103 177.744 246.596 176.958 245.924 176.381C245.252 175.803 244.414 175.514 243.41 175.514C242.397 175.514 241.544 175.803 240.853 176.381C240.171 176.958 239.655 177.744 239.305 178.739C238.964 179.733 238.793 180.865 238.793 182.134C238.793 183.402 238.964 184.534 239.305 185.528C239.655 186.523 240.171 187.309 240.853 187.886C241.544 188.455 242.397 188.739 243.41 188.739ZM257.408 193V163.909H263.46V174.847H263.644C263.909 174.259 264.293 173.663 264.795 173.057C265.306 172.441 265.969 171.93 266.783 171.523C267.607 171.106 268.63 170.898 269.852 170.898C271.443 170.898 272.91 171.314 274.255 172.148C275.6 172.972 276.675 174.217 277.479 175.884C278.284 177.541 278.687 179.619 278.687 182.119C278.687 184.553 278.294 186.608 277.508 188.284C276.731 189.951 275.671 191.215 274.326 192.077C272.991 192.929 271.495 193.355 269.837 193.355C268.663 193.355 267.664 193.161 266.84 192.773C266.026 192.384 265.358 191.897 264.837 191.31C264.317 190.713 263.919 190.112 263.644 189.506H263.374V193H257.408ZM263.332 182.091C263.332 183.388 263.512 184.52 263.871 185.486C264.231 186.452 264.752 187.205 265.434 187.744C266.116 188.275 266.944 188.54 267.92 188.54C268.905 188.54 269.738 188.27 270.42 187.73C271.102 187.181 271.618 186.423 271.968 185.457C272.328 184.482 272.508 183.36 272.508 182.091C272.508 180.831 272.333 179.723 271.982 178.767C271.632 177.811 271.116 177.062 270.434 176.523C269.752 175.983 268.914 175.713 267.92 175.713C266.935 175.713 266.102 175.973 265.42 176.494C264.747 177.015 264.231 177.754 263.871 178.71C263.512 179.667 263.332 180.794 263.332 182.091ZM281.964 193V171.182H288.016V193H281.964ZM285.004 168.369C284.105 168.369 283.333 168.071 282.689 167.474C282.054 166.868 281.737 166.144 281.737 165.301C281.737 164.468 282.054 163.753 282.689 163.156C283.333 162.55 284.105 162.247 285.004 162.247C285.904 162.247 286.671 162.55 287.305 163.156C287.949 163.753 288.271 164.468 288.271 165.301C288.271 166.144 287.949 166.868 287.305 167.474C286.671 168.071 285.904 168.369 285.004 168.369ZM298.154 163.909V193H292.103V163.909H298.154ZM312.185 193.426C309.94 193.426 308.008 192.972 306.389 192.062C304.779 191.144 303.539 189.847 302.667 188.17C301.796 186.485 301.361 184.491 301.361 182.19C301.361 179.946 301.796 177.976 302.667 176.281C303.539 174.586 304.765 173.265 306.346 172.318C307.937 171.371 309.803 170.898 311.943 170.898C313.382 170.898 314.722 171.13 315.963 171.594C317.213 172.048 318.302 172.735 319.23 173.653C320.167 174.572 320.897 175.727 321.417 177.119C321.938 178.502 322.199 180.121 322.199 181.977V183.639H303.775V179.889H316.503C316.503 179.018 316.313 178.246 315.935 177.574C315.556 176.902 315.03 176.376 314.358 175.997C313.695 175.609 312.923 175.415 312.042 175.415C311.124 175.415 310.31 175.628 309.599 176.054C308.899 176.471 308.349 177.034 307.952 177.744C307.554 178.445 307.35 179.226 307.341 180.088V183.653C307.341 184.733 307.54 185.666 307.937 186.452C308.345 187.238 308.917 187.844 309.656 188.27C310.395 188.696 311.271 188.909 312.284 188.909C312.956 188.909 313.572 188.814 314.131 188.625C314.689 188.436 315.167 188.152 315.565 187.773C315.963 187.394 316.266 186.93 316.474 186.381L322.071 186.75C321.787 188.095 321.204 189.269 320.324 190.273C319.453 191.267 318.326 192.044 316.943 192.602C315.57 193.152 313.984 193.426 312.185 193.426Z" fill="white"/>
<path d="M492.383 50.0476C490.453 51.307 488.522 52.563 486.596 53.8274C485.962 54.2439 485.289 54.5662 484.522 54.6743C483.231 54.856 482.055 54.5968 481.032 53.7998C479.553 52.6477 479.115 50.7323 479.849 49.0678C480.205 48.2591 480.768 47.6138 481.524 47.1202C484.885 44.9255 488.247 42.7316 491.609 40.5375C492.247 40.1206 492.882 39.6974 493.526 39.2882C494.599 38.6068 495.779 38.358 497.036 38.6291C498.696 38.9871 499.783 39.9735 500.249 41.538C500.513 42.4237 500.417 43.3077 500.052 44.1622C499.691 45.0067 499.098 45.6654 498.312 46.1768C496.334 47.4646 494.358 48.7564 492.382 50.0465L492.383 50.0476ZM490.166 46.4887L490.165 46.4892C490.844 47.4384 491.525 48.3864 492.2 49.3386C492.275 49.4452 492.321 49.4615 492.438 49.3846C494.298 48.1651 496.159 46.9494 498.023 45.7363C498.746 45.2656 499.267 44.6491 499.589 43.8682C500.277 42.1958 499.562 40.284 497.886 39.4714C496.506 38.8022 495.144 38.9202 493.846 39.7093C493.331 40.0228 492.835 40.3654 492.33 40.6949C490.942 41.6012 489.554 42.5088 488.163 43.4118C488.056 43.4811 488.041 43.5261 488.117 43.6312C488.804 44.5813 489.484 45.5356 490.166 46.4887Z" fill="#2B3990"/>
<path d="M491.944 41.6733C491.909 41.6087 491.898 41.5311 491.963 41.4584C491.985 41.4345 492.011 41.4131 492.038 41.3956C492.752 40.938 493.437 40.4383 494.179 40.0227C495.069 39.524 496.026 39.3467 497.043 39.5915C497.42 39.6822 497.769 39.8406 498.093 40.048C498.146 40.082 498.207 40.1176 498.171 40.1876C498.132 40.2634 498.065 40.2381 497.998 40.2142C496.872 39.8123 495.778 39.9112 494.72 40.4292C494.089 40.7377 493.537 41.165 492.947 41.5355C492.706 41.6874 492.446 41.7754 492.154 41.7691C492.075 41.7673 492.001 41.757 491.944 41.6733Z" fill="#E1AA74"/>
<path d="M487.26 35.9099C487.26 39.4573 487.254 43.0047 487.264 46.5521C487.268 47.7204 487.107 48.8529 486.568 49.911C485.66 51.692 484.249 52.9332 482.237 53.5007C479.327 54.3212 476.303 53.1532 474.674 50.7408C473.883 49.5687 473.501 48.2842 473.501 46.8942C473.5 40.7134 473.501 34.5327 473.501 28.3519C473.501 27.1773 473.488 26.0026 473.504 24.8281C473.53 22.8722 474.246 21.1706 475.746 19.8378C477.727 18.0784 480.057 17.6006 482.624 18.4198C484.077 18.8836 485.206 19.7963 486.053 21.0199C486.889 22.2292 487.262 23.5642 487.26 25.0074C487.255 28.6416 487.258 32.2759 487.258 35.9101H487.261L487.26 35.9099ZM480.383 35.4969V35.4982C482.296 35.4982 484.209 35.4948 486.123 35.5029C486.337 35.5039 486.4 35.4613 486.4 35.245C486.392 31.8214 486.391 28.3979 486.396 24.9742C486.397 23.6456 486.018 22.4397 485.233 21.3366C483.553 18.9742 480.285 18.1558 477.666 19.5275C475.509 20.6568 474.449 22.4706 474.37 24.8041C474.338 25.7311 474.364 26.66 474.364 27.588C474.364 30.1412 474.366 32.6943 474.36 35.2475C474.359 35.4433 474.407 35.5024 474.62 35.5015C476.541 35.4935 478.462 35.4967 480.383 35.4967L480.383 35.4969Z" fill="#2B3990"/>
<path d="M475.363 28.9488C475.243 28.9349 475.127 28.8785 475.085 28.7319C475.072 28.6837 475.066 28.6319 475.066 28.5819C475.078 27.2768 475.006 25.9695 475.1 24.6672C475.213 23.1044 475.828 21.7463 477.076 20.6915C477.539 20.3003 478.069 20.0047 478.645 19.7852C478.739 19.7492 478.843 19.7036 478.907 19.8115C478.976 19.9283 478.881 19.9898 478.788 20.0524C477.226 21.104 476.381 22.5629 476.143 24.3546C476.002 25.4218 476.094 26.4965 476.074 27.5679C476.066 28.007 475.954 28.412 475.683 28.7721C475.61 28.8692 475.529 28.9532 475.364 28.9493L475.363 28.9488Z" fill="#E1AA74"/>
<path d="M487.824 49.7844C487.824 53.1579 484.809 55.8927 481.089 55.8927C477.37 55.8927 473.496 53.1579 473.496 49.7844C473.496 38.5245 477.37 43.6762 481.089 43.6762C484.809 43.6762 487.824 46.411 487.824 49.7844Z" fill="#2B3990"/>
<path d="M514.271 25.1408C512.623 21.4197 510.345 18.0322 507.487 15.0508L507.365 15.167C510.351 18.2052 512.72 21.682 514.418 25.5158C514.59 25.9021 514.753 26.2908 514.909 26.6813C514.709 26.1638 514.497 25.6506 514.271 25.1408Z" fill="#3876BF"/>
<path d="M517.369 24.3255C515.355 19.7774 512.472 15.6933 508.801 12.1861C505.128 8.6794 500.853 5.92554 496.091 4.00181C491.159 2.00976 485.923 1 480.525 1C475.128 1 467.319 2.44468 459.733 6.5597C453.848 9.75176 449.11 13.8576 446.138 19.6857C445.213 21.1711 444.393 22.7192 443.682 24.3255C441.596 29.0348 440.539 34.0369 440.539 39.1919C440.539 44.3469 441.596 49.3489 443.682 54.0589C444.523 55.9581 445.515 57.7764 446.653 59.5055C449.7 65.0976 454.245 69.3476 460.231 72.1104C461.747 72.9639 463.325 73.7222 464.96 74.3828C469.891 76.3749 475.128 77.3846 480.525 77.3846C485.922 77.3846 491.159 76.3749 496.091 74.3828C500.853 72.4591 505.129 69.7052 508.801 66.1985C512.472 62.6912 515.355 58.6072 517.369 54.0591C519.455 49.3491 520.512 44.3476 520.512 39.1921C520.512 34.0366 519.455 29.035 517.369 24.3257V24.3255ZM513.534 40.4927H517.145C517.049 42.5997 516.76 44.6744 516.281 46.7059C515.801 48.7375 515.132 50.7253 514.277 52.6592C512.629 56.3803 510.351 59.7683 507.492 62.7492L504.939 60.3109C504.288 59.6887 503.232 59.6887 502.581 60.3109C501.93 60.9327 501.93 61.9406 502.581 62.5629L505.134 65.0011C503.574 66.3654 501.907 67.592 500.143 68.6744C498.38 69.7565 496.519 70.6945 494.571 71.4809C490.521 73.1171 486.244 74.0358 481.832 74.2203V70.7718C481.832 69.8927 481.086 69.1792 480.165 69.1792C479.243 69.1792 478.497 69.8925 478.497 70.7718V74.2203C476.645 74.143 474.817 73.9358 473.02 73.6004C473.006 73.5979 472.993 73.595 472.98 73.5925C470.665 73.132 468.402 72.4565 466.206 71.5694C462.192 69.9476 458.552 67.6842 455.371 64.8328L457.748 62.5629C458.399 61.9406 458.399 60.9327 457.748 60.3103C457.097 59.6886 456.041 59.6886 455.39 60.3103L453.043 62.5527C450.356 59.6761 448.203 56.4264 446.627 52.8689C444.885 48.9351 443.923 44.7774 443.761 40.4927H446.795C447.717 40.4927 448.463 39.7795 448.463 38.9001C448.463 38.0208 447.717 37.3076 446.795 37.3076H443.789C444.012 33.229 444.964 29.2707 446.627 25.5154C448.258 21.8309 450.51 18.4769 453.333 15.5243L455.39 17.4893C455.716 17.8002 456.142 17.956 456.569 17.956C456.995 17.956 457.422 17.8002 457.748 17.4893C458.399 16.8676 458.399 15.8592 457.748 15.2374L455.689 13.27C458.793 10.551 462.325 8.38292 466.206 6.81484C470.121 5.23368 474.246 4.3251 478.497 4.10657V7.02879C478.497 7.90795 479.244 8.62138 480.165 8.62138C481.085 8.62138 481.832 7.90811 481.832 7.02879V4.07617C486.338 4.22474 490.709 5.14461 494.845 6.815C498.569 8.32015 501.971 10.3774 504.984 12.9432L502.581 15.2376C501.93 15.8593 501.93 16.8678 502.581 17.4895C502.907 17.8004 503.334 17.9561 503.76 17.9561C504.187 17.9561 504.614 17.8004 504.939 17.4895L507.492 15.0508C510.351 18.0321 512.629 21.4197 514.277 25.1408C514.502 25.6504 514.715 26.1638 514.914 26.6813C516.229 30.0873 516.977 33.6497 517.145 37.3079H513.534C512.613 37.3079 511.867 38.0207 511.867 38.9005C511.867 39.7803 512.613 40.4931 513.534 40.4931V40.4927Z" fill="#3876BF"/>
<path d="M480.501 77.3552C502.568 77.3552 520.457 60.2691 520.457 39.1922C520.457 18.1154 502.568 1.0293 480.501 1.0293C458.434 1.0293 440.545 18.1154 440.545 39.1922C440.545 60.2691 458.434 77.3552 480.501 77.3552Z" stroke="#3876BF" stroke-width="2" stroke-miterlimit="10"/>
<path d="M508.116 117.708C506.861 118.528 505.604 119.345 504.351 120.168C503.939 120.439 503.501 120.648 503.002 120.719C502.162 120.837 501.397 120.668 500.731 120.15C499.769 119.4 499.484 118.154 499.961 117.071C500.193 116.545 500.56 116.125 501.051 115.804C503.238 114.376 505.426 112.948 507.613 111.521C508.028 111.249 508.441 110.974 508.86 110.708C509.558 110.264 510.326 110.103 511.144 110.279C512.224 110.512 512.931 111.154 513.234 112.172C513.406 112.748 513.344 113.323 513.106 113.879C512.872 114.429 512.485 114.857 511.974 115.19C510.687 116.028 509.402 116.868 508.116 117.708L508.116 117.708ZM506.674 115.393L506.673 115.393C507.115 116.011 507.559 116.628 507.997 117.247C508.047 117.316 508.076 117.327 508.153 117.277C509.362 116.484 510.574 115.693 511.786 114.903C512.257 114.597 512.596 114.196 512.805 113.688C513.253 112.6 512.788 111.356 511.697 110.827C510.799 110.392 509.913 110.468 509.069 110.982C508.733 111.186 508.411 111.409 508.082 111.623C507.179 112.213 506.276 112.803 505.371 113.391C505.301 113.436 505.292 113.465 505.341 113.534C505.788 114.152 506.23 114.773 506.674 115.393Z" fill="#2B3990"/>
<path d="M507.831 112.259C507.808 112.217 507.801 112.167 507.843 112.12C507.857 112.104 507.874 112.09 507.892 112.079C508.356 111.781 508.802 111.456 509.285 111.185C509.864 110.861 510.487 110.746 511.148 110.905C511.393 110.964 511.621 111.067 511.831 111.202C511.866 111.224 511.906 111.247 511.883 111.293C511.857 111.342 511.814 111.326 511.77 111.31C511.037 111.049 510.325 111.113 509.637 111.45C509.226 111.651 508.867 111.929 508.484 112.17C508.326 112.269 508.157 112.326 507.967 112.322C507.916 112.321 507.868 112.314 507.831 112.259Z" fill="#E1AA74"/>
<path d="M504.786 108.514C504.786 110.822 504.782 113.13 504.788 115.438C504.79 116.198 504.686 116.935 504.335 117.623C503.744 118.782 502.826 119.59 501.517 119.959C499.624 120.493 497.656 119.733 496.597 118.163C496.082 117.401 495.833 116.565 495.833 115.66C495.833 111.639 495.833 107.617 495.833 103.596C495.833 102.832 495.825 102.067 495.835 101.303C495.852 100.031 496.318 98.9234 497.294 98.0563C498.583 96.9115 500.099 96.6007 501.769 97.1337C502.715 97.4355 503.449 98.0293 504 98.8254C504.544 99.6122 504.787 100.481 504.785 101.42C504.782 103.784 504.784 106.149 504.784 108.514H504.786L504.786 108.514ZM500.311 108.245V108.246C501.556 108.246 502.801 108.243 504.045 108.249C504.185 108.249 504.226 108.222 504.226 108.081C504.221 105.853 504.22 103.626 504.223 101.398C504.224 100.534 503.977 99.7492 503.467 99.0315C502.373 97.4944 500.247 96.9619 498.543 97.8544C497.14 98.5892 496.45 99.7693 496.399 101.288C496.378 101.891 496.395 102.495 496.395 103.099C496.395 104.76 496.396 106.421 496.392 108.082C496.392 108.21 496.423 108.248 496.561 108.248C497.811 108.243 499.061 108.245 500.311 108.245L500.311 108.245Z" fill="#2B3990"/>
<path d="M497.045 103.983C496.967 103.974 496.891 103.937 496.864 103.842C496.855 103.811 496.852 103.777 496.852 103.744C496.859 102.895 496.813 102.045 496.874 101.197C496.948 100.18 497.347 99.2968 498.159 98.6105C498.46 98.356 498.806 98.1636 499.18 98.0208C499.241 97.9974 499.309 97.9678 499.351 98.0379C499.396 98.114 499.334 98.154 499.274 98.1947C498.257 98.8789 497.707 99.8281 497.553 100.994C497.461 101.688 497.52 102.388 497.508 103.085C497.502 103.37 497.429 103.634 497.253 103.868C497.206 103.931 497.153 103.986 497.045 103.983L497.045 103.983Z" fill="#E1AA74"/>
<path d="M505.153 117.538C505.153 119.733 503.191 121.513 500.771 121.513C498.35 121.513 495.83 119.733 495.83 117.538C495.83 110.212 498.35 113.564 500.771 113.564C503.191 113.564 505.153 115.343 505.153 117.538Z" fill="#2B3990"/>
<path d="M522.36 101.504C521.288 99.0833 519.806 96.8793 517.946 94.9395L517.867 95.0151C519.81 96.9919 521.351 99.254 522.456 101.748C522.568 102 522.674 102.253 522.775 102.507C522.646 102.17 522.507 101.836 522.36 101.504Z" fill="#3876BF"/>
<path d="M524.38 100.975C523.069 98.0162 521.193 95.3589 518.805 93.077C516.415 90.7954 513.633 89.0036 510.535 87.7519C507.326 86.4558 503.919 85.7988 500.407 85.7988C496.895 85.7988 491.815 86.7388 486.879 89.4162C483.05 91.4931 479.967 94.1646 478.033 97.9566C477.431 98.923 476.898 99.9303 476.435 100.975C475.078 104.04 474.391 107.294 474.391 110.648C474.391 114.002 475.078 117.257 476.435 120.321C476.983 121.557 477.628 122.74 478.369 123.865C480.351 127.504 483.308 130.269 487.203 132.066C488.19 132.622 489.216 133.115 490.28 133.545C493.488 134.841 496.896 135.498 500.407 135.498C503.919 135.498 507.326 134.841 510.535 133.545C513.633 132.293 516.415 130.501 518.805 128.22C521.193 125.938 523.069 123.281 524.38 120.321C525.737 117.257 526.425 114.003 526.425 110.648C526.425 107.294 525.737 104.04 524.38 100.976V100.975ZM521.884 111.495H524.234C524.171 112.865 523.983 114.215 523.671 115.537C523.36 116.859 522.924 118.152 522.367 119.411C521.295 121.832 519.813 124.036 517.953 125.976L516.292 124.389C515.869 123.984 515.182 123.984 514.758 124.389C514.335 124.794 514.335 125.449 514.758 125.854L516.419 127.441C515.404 128.328 514.32 129.127 513.172 129.831C512.025 130.535 510.814 131.145 509.546 131.657C506.911 132.721 504.128 133.319 501.258 133.439V131.195C501.258 130.623 500.772 130.159 500.173 130.159C499.573 130.159 499.088 130.623 499.088 131.195V133.439C497.883 133.389 496.694 133.254 495.524 133.036C495.515 133.034 495.506 133.032 495.498 133.031C493.992 132.731 492.52 132.292 491.091 131.714C488.479 130.659 486.111 129.186 484.041 127.331L485.588 125.854C486.011 125.449 486.011 124.794 485.587 124.389C485.164 123.984 484.477 123.984 484.053 124.389L482.526 125.848C480.778 123.976 479.377 121.862 478.352 119.547C477.218 116.988 476.592 114.282 476.487 111.495H478.461C479.061 111.495 479.546 111.03 479.546 110.458C479.546 109.886 479.061 109.422 478.461 109.422H476.505C476.65 106.768 477.27 104.193 478.352 101.75C479.413 99.3523 480.878 97.17 482.715 95.2489L484.053 96.5275C484.265 96.7298 484.543 96.8311 484.82 96.8311C485.098 96.8311 485.376 96.7298 485.587 96.5275C486.011 96.123 486.011 95.4668 485.588 95.0623L484.248 93.7823C486.267 92.0131 488.565 90.6025 491.091 89.5822C493.638 88.5534 496.322 87.9623 499.088 87.8201V89.7214C499.088 90.2934 499.574 90.7576 500.173 90.7576C500.772 90.7576 501.258 90.2935 501.258 89.7214V87.8003C504.189 87.897 507.034 88.4955 509.724 89.5823C512.148 90.5616 514.361 91.9002 516.321 93.5696L514.758 95.0624C514.335 95.467 514.335 96.1231 514.758 96.5276C514.97 96.7299 515.248 96.8312 515.525 96.8312C515.803 96.8312 516.08 96.7299 516.292 96.5276L517.953 94.9409C519.813 96.8807 521.295 99.0848 522.367 101.506C522.514 101.837 522.653 102.171 522.782 102.508C523.638 104.724 524.125 107.042 524.234 109.422H521.884C521.285 109.422 520.8 109.886 520.8 110.459C520.8 111.031 521.285 111.495 521.884 111.495V111.495Z" fill="#3876BF"/>
<path d="M500.39 135.477C514.747 135.477 526.387 124.36 526.387 110.647C526.387 96.9334 514.747 85.8164 500.39 85.8164C486.032 85.8164 474.393 96.9334 474.393 110.647C474.393 124.36 486.032 135.477 500.39 135.477Z" stroke="#3876BF" stroke-width="2" stroke-miterlimit="10"/>
<path d="M448.657 149.511C447.402 150.331 446.145 151.148 444.892 151.97C444.48 152.241 444.042 152.451 443.543 152.521C442.703 152.64 441.938 152.471 441.272 151.952C440.31 151.203 440.025 149.957 440.502 148.874C440.734 148.347 441.101 147.928 441.592 147.606C443.779 146.178 445.967 144.751 448.154 143.323C448.569 143.052 448.982 142.777 449.401 142.511C450.099 142.067 450.867 141.905 451.685 142.082C452.765 142.315 453.472 142.956 453.775 143.974C453.947 144.551 453.885 145.126 453.647 145.682C453.413 146.231 453.026 146.66 452.515 146.993C451.228 147.83 449.943 148.671 448.657 149.51L448.657 149.511ZM447.215 147.196L447.214 147.196C447.656 147.813 448.1 148.43 448.539 149.05C448.588 149.119 448.617 149.13 448.694 149.08C449.903 148.286 451.115 147.495 452.327 146.706C452.798 146.4 453.137 145.999 453.346 145.491C453.794 144.402 453.329 143.158 452.238 142.63C451.34 142.194 450.454 142.271 449.61 142.785C449.274 142.989 448.952 143.211 448.623 143.426C447.72 144.016 446.817 144.606 445.912 145.194C445.842 145.239 445.833 145.268 445.882 145.336C446.329 145.954 446.771 146.575 447.215 147.196Z" fill="#2B3990"/>
<path d="M448.372 144.064C448.349 144.022 448.342 143.972 448.384 143.924C448.398 143.909 448.415 143.895 448.433 143.883C448.897 143.586 449.343 143.261 449.826 142.99C450.405 142.666 451.028 142.55 451.689 142.71C451.934 142.769 452.162 142.872 452.372 143.007C452.407 143.029 452.447 143.052 452.424 143.097C452.398 143.147 452.355 143.13 452.311 143.115C451.578 142.853 450.866 142.918 450.178 143.255C449.767 143.455 449.408 143.733 449.025 143.975C448.867 144.073 448.698 144.131 448.508 144.126C448.457 144.125 448.409 144.119 448.372 144.064Z" fill="#E1AA74"/>
<path d="M445.325 140.312C445.325 142.62 445.321 144.928 445.327 147.237C445.33 147.997 445.225 148.734 444.874 149.422C444.283 150.581 443.365 151.388 442.056 151.758C440.163 152.292 438.195 151.532 437.136 149.962C436.621 149.199 436.372 148.364 436.372 147.459C436.372 143.438 436.372 139.416 436.372 135.395C436.372 134.63 436.364 133.866 436.374 133.102C436.391 131.829 436.857 130.722 437.833 129.855C439.122 128.71 440.638 128.399 442.308 128.932C443.254 129.234 443.988 129.828 444.539 130.624C445.083 131.411 445.326 132.28 445.325 133.219C445.321 135.583 445.324 137.948 445.324 140.312H445.325L445.325 140.312ZM440.85 140.044V140.044C442.095 140.044 443.34 140.042 444.585 140.048C444.724 140.048 444.765 140.02 444.765 139.88C444.76 137.652 444.759 135.425 444.762 133.197C444.763 132.333 444.516 131.548 444.006 130.83C442.912 129.293 440.786 128.761 439.082 129.653C437.679 130.388 436.989 131.568 436.938 133.086C436.917 133.69 436.934 134.294 436.934 134.898C436.934 136.559 436.935 138.22 436.931 139.881C436.931 140.009 436.962 140.047 437.1 140.047C438.35 140.041 439.6 140.043 440.85 140.043L440.85 140.044Z" fill="#2B3990"/>
<path d="M437.584 135.784C437.506 135.775 437.43 135.738 437.403 135.643C437.394 135.611 437.391 135.578 437.391 135.545C437.398 134.696 437.352 133.845 437.413 132.998C437.487 131.981 437.886 131.098 438.698 130.411C439 130.157 439.345 129.964 439.719 129.822C439.78 129.798 439.848 129.769 439.89 129.839C439.935 129.915 439.873 129.955 439.813 129.995C438.796 130.68 438.246 131.629 438.092 132.795C438 133.489 438.059 134.188 438.047 134.885C438.041 135.171 437.968 135.435 437.792 135.669C437.745 135.732 437.692 135.787 437.584 135.784L437.584 135.784Z" fill="#E1AA74"/>
<path d="M445.692 149.337C445.692 151.532 443.73 153.312 441.31 153.312C438.89 153.312 436.369 151.532 436.369 149.337C436.369 142.011 438.889 145.363 441.31 145.363C443.73 145.363 445.692 147.142 445.692 149.337Z" fill="#2B3990"/>
<path d="M462.896 133.307C461.823 130.886 460.341 128.682 458.482 126.742L458.402 126.818C460.345 128.795 461.887 131.057 462.991 133.551C463.103 133.803 463.209 134.055 463.311 134.309C463.181 133.973 463.042 133.639 462.896 133.307Z" fill="#3876BF"/>
<path d="M464.913 132.774C463.602 129.815 461.727 127.158 459.338 124.876C456.948 122.594 454.166 120.802 451.068 119.551C447.86 118.255 444.453 117.598 440.941 117.598C437.429 117.598 432.348 118.538 427.412 121.215C423.583 123.292 420.501 125.963 418.566 129.755C417.965 130.722 417.431 131.729 416.969 132.774C415.612 135.838 414.924 139.093 414.924 142.447C414.924 145.801 415.612 149.056 416.969 152.12C417.516 153.356 418.162 154.539 418.902 155.664C420.884 159.302 423.842 162.068 427.736 163.865C428.723 164.421 429.749 164.914 430.813 165.344C434.021 166.64 437.429 167.297 440.941 167.297C444.452 167.297 447.86 166.64 451.068 165.344C454.166 164.092 456.949 162.3 459.338 160.019C461.727 157.737 463.602 155.079 464.913 152.12C466.27 149.056 466.958 145.801 466.958 142.447C466.958 139.093 466.27 135.838 464.913 132.774V132.774ZM462.417 143.293H464.767C464.704 144.664 464.516 146.014 464.205 147.336C463.893 148.658 463.458 149.951 462.901 151.209C461.828 153.63 460.346 155.835 458.487 157.774L456.825 156.188C456.402 155.783 455.715 155.783 455.291 156.188C454.868 156.592 454.868 157.248 455.291 157.653L456.952 159.24C455.937 160.127 454.853 160.925 453.705 161.63C452.558 162.334 451.347 162.944 450.08 163.456C447.444 164.52 444.661 165.118 441.791 165.238V162.994C441.791 162.422 441.305 161.958 440.706 161.958C440.107 161.958 439.621 162.422 439.621 162.994V165.238C438.416 165.188 437.227 165.053 436.058 164.835C436.049 164.833 436.04 164.831 436.031 164.83C434.525 164.53 433.053 164.09 431.624 163.513C429.012 162.458 426.644 160.985 424.574 159.13L426.121 157.653C426.544 157.248 426.544 156.592 426.12 156.188C425.697 155.783 425.01 155.783 424.586 156.188L423.059 157.647C421.311 155.775 419.91 153.66 418.885 151.346C417.751 148.786 417.125 146.081 417.02 143.293H418.995C419.594 143.293 420.079 142.829 420.079 142.257C420.079 141.685 419.594 141.221 418.995 141.221H417.038C417.183 138.567 417.803 135.992 418.885 133.548C419.946 131.151 421.411 128.969 423.248 127.048L424.586 128.326C424.799 128.529 425.076 128.63 425.353 128.63C425.631 128.63 425.909 128.529 426.12 128.326C426.544 127.922 426.544 127.266 426.121 126.861L424.781 125.581C426.801 123.812 429.098 122.401 431.624 121.381C434.171 120.352 436.855 119.761 439.621 119.619V121.52C439.621 122.092 440.107 122.556 440.706 122.556C441.305 122.556 441.791 122.092 441.791 121.52V119.599C444.723 119.696 447.567 120.294 450.258 121.381C452.681 122.36 454.894 123.699 456.854 125.368L455.291 126.861C454.868 127.266 454.868 127.922 455.291 128.326C455.503 128.529 455.781 128.63 456.058 128.63C456.336 128.63 456.614 128.529 456.825 128.326L458.487 126.74C460.346 128.68 461.828 130.884 462.901 133.305C463.048 133.636 463.186 133.97 463.316 134.307C464.171 136.523 464.658 138.841 464.767 141.221H462.417C461.818 141.221 461.333 141.685 461.333 142.257C461.333 142.83 461.818 143.294 462.417 143.294V143.293Z" fill="#3876BF"/>
<path d="M440.927 167.276C455.285 167.276 466.924 156.159 466.924 142.446C466.924 128.732 455.285 117.615 440.927 117.615C426.569 117.615 414.93 128.732 414.93 142.446C414.93 156.159 426.569 167.276 440.927 167.276Z" stroke="#3876BF" stroke-width="2" stroke-miterlimit="10"/>
<path d="M50.882 81.0951C49.6268 81.9145 48.37 82.7318 47.1171 83.5544C46.7045 83.8254 46.2666 84.0351 45.7676 84.1054C44.9277 84.2237 44.1626 84.055 43.4971 83.5365C42.5347 82.7868 42.2494 81.5406 42.7268 80.4576C42.9588 79.9314 43.3252 79.5116 43.8171 79.1904C46.0039 77.7624 48.1912 76.335 50.3783 74.9074C50.794 74.6361 51.2068 74.3608 51.626 74.0945C52.3241 73.6512 53.0917 73.4893 53.9098 73.6658C54.9898 73.8986 55.697 74.5404 56.0001 75.5584C56.1717 76.1346 56.1094 76.7098 55.8721 77.2658C55.6374 77.8153 55.251 78.2438 54.7398 78.5766C53.4528 79.4145 52.1675 80.255 50.8815 81.0944L50.882 81.0951ZM49.4395 78.7795L49.4391 78.7798C49.881 79.3975 50.3242 80.0143 50.7631 80.6338C50.8122 80.7031 50.8421 80.7138 50.9183 80.6637C52.1279 79.8703 53.3392 79.0793 54.5518 78.29C55.0223 77.9837 55.3615 77.5826 55.5705 77.0745C56.0184 75.9864 55.5532 74.7425 54.4628 74.2137C53.565 73.7784 52.6784 73.8552 51.8344 74.3686C51.4991 74.5725 51.1764 74.7954 50.848 75.0098C49.9444 75.5995 49.0416 76.19 48.1365 76.7776C48.067 76.8227 48.0573 76.8519 48.1068 76.9203C48.5534 77.5385 48.9958 78.1594 49.4395 78.7795Z" fill="#2B3990"/>
<path d="M50.5963 75.6462C50.5735 75.6042 50.5666 75.5537 50.6089 75.5063C50.6228 75.4908 50.6397 75.4769 50.6575 75.4655C51.1219 75.1677 51.568 74.8426 52.0506 74.5722C52.6297 74.2478 53.2522 74.1324 53.9138 74.2917C54.1591 74.3507 54.3862 74.4538 54.5969 74.5887C54.6314 74.6108 54.6716 74.634 54.6482 74.6795C54.6228 74.7289 54.5792 74.7124 54.5355 74.6969C53.8024 74.4354 53.0911 74.4997 52.4022 74.8367C51.9918 75.0375 51.6328 75.3155 51.2492 75.5565C51.092 75.6553 50.9226 75.7126 50.7328 75.7085C50.6816 75.7073 50.6332 75.7006 50.5963 75.6462Z" fill="#E1AA74"/>
<path d="M47.5495 71.8983C47.5495 74.2063 47.5452 76.5144 47.5519 78.8225C47.5541 79.5827 47.4496 80.3195 47.0986 81.008C46.5079 82.1668 45.59 82.9744 44.2809 83.3436C42.3879 83.8775 40.4198 83.1175 39.3602 81.5479C38.8454 80.7853 38.5971 79.9495 38.597 79.0451C38.5963 75.0236 38.5967 71.0022 38.5967 66.9807C38.5967 66.2164 38.5887 65.4521 38.599 64.688C38.6159 63.4153 39.082 62.3082 40.058 61.4411C41.3465 60.2963 42.8624 59.9854 44.5327 60.5184C45.4784 60.8202 46.2128 61.4141 46.7636 62.2101C47.308 62.997 47.5503 63.8656 47.5491 64.8046C47.546 67.1692 47.5481 69.5338 47.5481 71.8984H47.5497L47.5495 71.8983ZM43.0745 71.6295V71.6304C44.3194 71.6304 45.5643 71.6282 46.8092 71.6335C46.9484 71.6341 46.9898 71.6064 46.9894 71.4657C46.9842 69.2381 46.9836 67.0106 46.9867 64.783C46.988 63.9186 46.741 63.134 46.2304 62.4162C45.1369 60.8791 43.011 60.3467 41.3066 61.2391C39.9032 61.974 39.2137 63.1541 39.1622 64.6723C39.1419 65.2755 39.1586 65.8799 39.1586 66.4837C39.1586 68.1449 39.16 69.8061 39.1555 71.4673C39.1552 71.5947 39.1866 71.6332 39.3249 71.6325C40.5747 71.6273 41.8246 71.6294 43.0744 71.6294L43.0745 71.6295Z" fill="#2B3990"/>
<path d="M39.8088 67.3718C39.7306 67.3627 39.655 67.326 39.628 67.2306C39.6191 67.1993 39.6152 67.1656 39.6155 67.133C39.6229 66.2839 39.5763 65.4333 39.6377 64.586C39.7113 63.5691 40.111 62.6855 40.9231 61.9992C41.2241 61.7447 41.5694 61.5523 41.9437 61.4095C42.005 61.3861 42.073 61.3564 42.1145 61.4266C42.1595 61.5027 42.0977 61.5426 42.0373 61.5834C41.0206 62.2676 40.471 63.2168 40.3164 64.3825C40.2242 65.077 40.2841 65.7762 40.2713 66.4733C40.2661 66.759 40.1929 67.0225 40.017 67.2568C39.9696 67.32 39.9168 67.3746 39.809 67.3721L39.8088 67.3718Z" fill="#E1AA74"/>
<path d="M47.9162 80.9232C47.9162 83.1181 45.9543 84.8974 43.5342 84.8974C41.1141 84.8974 38.5938 83.1181 38.5938 80.9232C38.5938 73.5969 41.114 76.9489 43.5342 76.9489C45.9544 76.9489 47.9162 78.7282 47.9162 80.9232Z" fill="#2B3990"/>
<path d="M65.1241 64.8912C64.0519 62.4701 62.5696 60.266 60.71 58.3262L60.6309 58.4018C62.5733 60.3786 64.1151 62.6407 65.22 65.1351C65.3313 65.3865 65.4378 65.6394 65.5391 65.8935C65.4093 65.5568 65.2709 65.2229 65.1241 64.8912Z" fill="#3876BF"/>
<path d="M67.1414 64.3622C65.831 61.4029 63.955 58.7456 61.5662 56.4637C59.177 54.1821 56.3949 52.3903 53.2967 51.1387C50.0882 49.8425 46.6811 49.1855 43.1691 49.1855C39.6571 49.1855 34.5764 50.1255 29.6405 52.8029C25.8118 54.8798 22.7291 57.5513 20.7949 61.3433C20.1931 62.3097 19.6599 63.317 19.1972 64.3622C17.8402 67.4262 17.1523 70.6808 17.1523 74.0349C17.1523 77.3889 17.8402 80.6435 19.1972 83.708C19.7443 84.9437 20.3902 86.1268 21.1306 87.2518C23.1127 90.8902 26.0702 93.6555 29.9649 95.4531C30.9513 96.0084 31.9779 96.5018 33.042 96.9316C36.25 98.2277 39.6576 98.8847 43.1691 98.8847C46.6807 98.8847 50.0882 98.2277 53.2967 96.9316C56.3949 95.6799 59.1771 93.8882 61.5662 91.6066C63.955 89.3245 65.831 86.6673 67.1414 83.7081C68.4985 80.6436 69.1863 77.3894 69.1863 74.035C69.1863 70.6806 68.4985 67.4264 67.1414 64.3623V64.3622ZM64.6458 74.8813H66.9954C66.9329 76.2521 66.7449 77.6021 66.4331 78.9238C66.1214 80.2457 65.686 81.539 65.1292 82.7973C64.057 85.2184 62.5747 87.4228 60.7151 89.3623L59.0538 87.7758C58.6303 87.371 57.9433 87.371 57.5198 87.7758C57.0963 88.1804 57.0963 88.8362 57.5198 89.241L59.1808 90.8275C58.1657 91.7151 57.0812 92.5132 55.9335 93.2175C54.7863 93.9216 53.5754 94.5319 52.3081 95.0435C49.6729 96.1081 46.89 96.7058 44.0193 96.8259V94.5822C44.0193 94.0101 43.5337 93.5459 42.9344 93.5459C42.3351 93.5459 41.8495 94.01 41.8495 94.5822V96.8259C40.6447 96.7756 39.4554 96.6408 38.2861 96.4225C38.2771 96.4209 38.2682 96.419 38.2596 96.4174C36.7537 96.1178 35.2812 95.6782 33.8524 95.1011C31.2405 94.0459 28.8725 92.5732 26.8027 90.7179L28.3495 89.241C28.773 88.8362 28.773 88.1804 28.349 87.7754C27.9255 87.3709 27.2388 87.3709 26.815 87.7754L25.2878 89.2345C23.5396 87.3628 22.1386 85.2484 21.1133 82.9337C19.9798 80.3742 19.354 77.6691 19.2488 74.8813H21.223C21.8224 74.8813 22.3079 74.4172 22.3079 73.845C22.3079 73.2729 21.8224 72.8088 21.223 72.8088H19.2667C19.412 70.1551 20.0317 67.5797 21.1133 65.1363C22.1749 62.739 23.6399 60.5568 25.4763 58.6357L26.815 59.9142C27.0271 60.1165 27.3045 60.2178 27.582 60.2178C27.8594 60.2178 28.1372 60.1165 28.349 59.9142C28.7729 59.5097 28.7729 58.8536 28.3495 58.449L27.0093 57.169C29.0292 55.3998 31.327 53.9892 33.8525 52.9689C36.3997 51.9402 39.0838 51.349 41.8496 51.2068V53.1081C41.8496 53.6802 42.3355 54.1444 42.9345 54.1444C43.5335 54.1444 44.0194 53.6803 44.0194 53.1081V51.187C46.9512 51.2837 49.7954 51.8822 52.486 52.969C54.9094 53.9484 57.1229 55.2869 59.0828 56.9563L57.5198 58.4491C57.0963 58.8537 57.0963 59.5098 57.5198 59.9143C57.7316 60.1166 58.0094 60.218 58.2868 60.218C58.5643 60.218 58.8421 60.1166 59.0538 59.9143L60.7151 58.3276C62.5747 60.2674 64.057 62.4715 65.1292 64.8926C65.2761 65.2242 65.4143 65.5582 65.5442 65.8949C66.3997 68.111 66.8865 70.4289 66.9954 72.809H64.6458C64.0469 72.809 63.5613 73.2728 63.5613 73.8453C63.5613 74.4177 64.0469 74.8815 64.6458 74.8815V74.8813Z" fill="#3876BF"/>
<path d="M43.1533 98.8622C57.5111 98.8622 69.1504 87.7452 69.1504 74.0317C69.1504 60.3182 57.5111 49.2012 43.1533 49.2012C28.7955 49.2012 17.1562 60.3182 17.1562 74.0317C17.1562 87.7452 28.7955 98.8622 43.1533 98.8622Z" stroke="#3876BF" stroke-width="2" stroke-miterlimit="10"/>
<path d="M39.8607 139.986C38.4144 140.93 36.9664 141.872 35.5228 142.82C35.0474 143.132 34.5429 143.374 33.968 143.455C33.0003 143.591 32.1187 143.397 31.3519 142.799C30.2431 141.936 29.9144 140.5 30.4645 139.252C30.7317 138.646 31.1539 138.162 31.7206 137.792C34.2402 136.147 36.7604 134.502 39.2804 132.857C39.7592 132.544 40.2349 132.227 40.7179 131.92C41.5222 131.41 42.4066 131.223 43.3492 131.426C44.5936 131.695 45.4084 132.434 45.7576 133.607C45.9553 134.271 45.8836 134.934 45.6101 135.574C45.3397 136.207 44.8945 136.701 44.3056 137.085C42.8226 138.05 41.3417 139.018 39.8601 139.986L39.8607 139.986ZM38.1987 137.318L38.1982 137.319C38.7073 138.03 39.218 138.741 39.7237 139.455C39.7803 139.535 39.8147 139.547 39.9025 139.489C41.2962 138.575 42.6918 137.664 44.0889 136.754C44.631 136.401 45.0218 135.939 45.2627 135.354C45.7787 134.1 45.2427 132.667 43.9864 132.058C42.9519 131.556 41.9304 131.645 40.958 132.236C40.5717 132.471 40.1999 132.728 39.8215 132.975C38.7804 133.654 37.7402 134.335 36.6974 135.012C36.6173 135.064 36.6062 135.097 36.6631 135.176C37.1777 135.888 37.6875 136.604 38.1987 137.318Z" fill="#2B3990"/>
<path d="M39.5346 133.709C39.5083 133.66 39.5004 133.602 39.5491 133.548C39.5652 133.53 39.5846 133.514 39.6052 133.501C40.1402 133.158 40.6541 132.783 41.2103 132.471C41.8775 132.098 42.5947 131.965 43.3569 132.148C43.6396 132.216 43.9013 132.335 44.144 132.49C44.1837 132.516 44.23 132.543 44.2031 132.595C44.1739 132.652 44.1236 132.633 44.0733 132.615C43.2287 132.314 42.4091 132.388 41.6154 132.776C41.1425 133.007 40.7288 133.328 40.2869 133.606C40.1057 133.719 39.9106 133.785 39.6919 133.781C39.6329 133.779 39.5771 133.772 39.5346 133.709Z" fill="#E1AA74"/>
<path d="M36.0236 129.385C36.0236 132.045 36.0188 134.704 36.0265 137.363C36.029 138.239 35.9086 139.088 35.5042 139.881C34.8235 141.216 33.766 142.147 32.2576 142.572C30.0766 143.187 27.809 142.312 26.5882 140.503C25.995 139.625 25.7089 138.662 25.7088 137.62C25.708 132.986 25.7085 128.353 25.7085 123.719C25.7085 122.839 25.6993 121.958 25.7111 121.078C25.7306 119.611 26.2676 118.336 27.3921 117.337C28.8767 116.018 30.6233 115.66 32.5478 116.274C33.6374 116.621 34.4836 117.306 35.1182 118.223C35.7454 119.129 36.0247 120.13 36.0232 121.212C36.0197 123.937 36.0221 126.661 36.0221 129.385H36.0239L36.0236 129.385ZM30.8677 129.076V129.077C32.302 129.077 33.7363 129.074 35.1707 129.08C35.3312 129.081 35.3788 129.049 35.3784 128.887C35.3723 126.32 35.3717 123.754 35.3753 121.187C35.3767 120.191 35.0922 119.287 34.5039 118.46C33.244 116.689 30.7946 116.076 28.8308 117.104C27.2138 117.951 26.4193 119.31 26.3601 121.06C26.3366 121.755 26.3558 122.451 26.3558 123.147C26.3558 125.061 26.3575 126.975 26.3524 128.889C26.352 129.035 26.3882 129.08 26.5475 129.079C27.9875 129.073 29.4276 129.076 30.8676 129.076L30.8677 129.076Z" fill="#2B3990"/>
<path d="M27.1054 124.168C27.0153 124.157 26.9282 124.115 26.897 124.005C26.8868 123.969 26.8823 123.93 26.8827 123.893C26.8911 122.914 26.8375 121.934 26.9082 120.958C26.993 119.787 27.4535 118.769 28.3892 117.978C28.7361 117.685 29.1339 117.463 29.5652 117.298C29.6358 117.271 29.7141 117.237 29.762 117.318C29.8138 117.406 29.7426 117.452 29.673 117.499C28.5016 118.287 27.8684 119.381 27.6902 120.724C27.584 121.524 27.653 122.33 27.6383 123.133C27.6322 123.462 27.5479 123.766 27.3453 124.035C27.2906 124.108 27.2298 124.171 27.1056 124.168L27.1054 124.168Z" fill="#E1AA74"/>
<path d="M36.4462 139.787C36.4462 142.316 34.1857 144.366 31.3974 144.366C28.609 144.366 25.7051 142.316 25.7051 139.787C25.7051 131.346 28.6089 135.208 31.3974 135.208C34.1859 135.208 36.4462 137.258 36.4462 139.787Z" fill="#2B3990"/>
<path d="M56.2747 121.314C55.0393 118.524 53.3315 115.985 51.1889 113.75L51.0977 113.837C53.3357 116.115 55.1121 118.721 56.3851 121.595C56.5134 121.885 56.6362 122.176 56.7528 122.469C56.6033 122.081 56.4439 121.696 56.2747 121.314Z" fill="#3876BF"/>
<path d="M58.5963 120.703C57.0864 117.293 54.925 114.232 52.1726 111.603C49.4198 108.974 46.2144 106.909 42.6447 105.467C38.9479 103.974 35.0224 103.217 30.9759 103.217C26.9295 103.217 21.0755 104.3 15.3886 107.385C10.9772 109.778 7.42544 112.856 5.19691 117.225C4.50354 118.338 3.88919 119.499 3.35605 120.703C1.79253 124.233 1 127.983 1 131.848C1 135.712 1.79253 139.462 3.35605 142.993C3.98643 144.417 4.7306 145.78 5.58368 147.076C7.86738 151.268 11.275 154.454 15.7623 156.525C16.8989 157.165 18.0817 157.733 19.3077 158.229C23.0039 159.722 26.93 160.479 30.9759 160.479C35.0218 160.479 38.9479 159.722 42.6447 158.229C46.2144 156.787 49.42 154.722 52.1726 152.093C54.925 149.464 57.0864 146.402 58.5963 142.993C60.1598 139.462 60.9523 135.713 60.9523 131.848C60.9523 127.983 60.1598 124.233 58.5963 120.703V120.703ZM55.7208 132.823H58.428C58.356 134.402 58.1394 135.958 57.7802 137.481C57.421 139.004 56.9194 140.494 56.2778 141.943C55.0425 144.733 53.3346 147.273 51.1921 149.507L49.2779 147.68C48.79 147.213 47.9984 147.213 47.5105 147.68C47.0225 148.146 47.0225 148.901 47.5105 149.368L49.4242 151.196C48.2546 152.218 47.0051 153.138 45.6828 153.949C44.361 154.761 42.9658 155.464 41.5057 156.053C38.4694 157.28 35.263 157.969 31.9555 158.107V155.522C31.9555 154.863 31.396 154.328 30.7055 154.328C30.0149 154.328 29.4555 154.863 29.4555 155.522V158.107C28.0674 158.049 26.697 157.894 25.3498 157.642C25.3394 157.64 25.3292 157.638 25.3193 157.636C23.5842 157.291 21.8877 156.785 20.2414 156.12C17.232 154.904 14.5037 153.207 12.1189 151.069L13.901 149.368C14.389 148.901 14.389 148.146 13.9005 147.679C13.4125 147.213 12.6214 147.213 12.1331 147.679L10.3735 149.36C8.35922 147.204 6.74503 144.768 5.56367 142.101C4.25775 139.152 3.53667 136.035 3.41544 132.823H5.69016C6.38071 132.823 6.94015 132.288 6.94015 131.629C6.94015 130.97 6.38071 130.435 5.69016 130.435H3.4361C3.60351 127.377 4.31753 124.41 5.56367 121.595C6.78685 118.833 8.4748 116.318 10.5907 114.105L12.1331 115.578C12.3774 115.811 12.6971 115.928 13.0168 115.928C13.3365 115.928 13.6565 115.811 13.9005 115.578C14.3889 115.112 14.3889 114.356 13.901 113.89L12.3569 112.415C14.6842 110.377 17.3317 108.751 20.2416 107.576C23.1763 106.391 26.269 105.709 29.4556 105.546V107.736C29.4556 108.395 30.0155 108.93 30.7056 108.93C31.3958 108.93 31.9556 108.396 31.9556 107.736V105.523C35.3336 105.634 38.6106 106.324 41.7106 107.576C44.5029 108.704 47.0531 110.247 49.3113 112.17L47.5105 113.89C47.0225 114.356 47.0225 115.112 47.5105 115.578C47.7545 115.811 48.0745 115.928 48.3942 115.928C48.7139 115.928 49.0339 115.811 49.2779 115.578L51.1921 113.75C53.3346 115.985 55.0425 118.525 56.2778 121.314C56.447 121.696 56.6064 122.081 56.7559 122.469C57.7417 125.022 58.3025 127.693 58.428 130.435H55.7208C55.0308 130.435 54.4714 130.97 54.4714 131.629C54.4714 132.289 55.0308 132.823 55.7208 132.823V132.823Z" fill="#3876BF"/>
<path d="M30.9571 160.455C47.4998 160.455 60.9103 147.646 60.9103 131.845C60.9103 116.045 47.4998 103.236 30.9571 103.236C14.4144 103.236 1.00391 116.045 1.00391 131.845C1.00391 147.646 14.4144 160.455 30.9571 160.455Z" stroke="#3876BF" stroke-width="2" stroke-miterlimit="10"/>
<path d="M90.5952 138.163C89.8024 138.68 89.0085 139.197 88.2171 139.716C87.9565 139.887 87.6799 140.02 87.3648 140.064C86.8342 140.139 86.3509 140.032 85.9306 139.705C85.3227 139.231 85.1425 138.444 85.4441 137.76C85.5906 137.428 85.822 137.163 86.1327 136.96C87.514 136.058 88.8956 135.156 90.2771 134.254C90.5396 134.083 90.8004 133.909 91.0652 133.741C91.5061 133.461 91.991 133.359 92.5077 133.47C93.1899 133.617 93.6366 134.023 93.828 134.665C93.9364 135.029 93.8971 135.393 93.7472 135.744C93.5989 136.091 93.3549 136.362 93.032 136.572C92.219 137.101 91.4072 137.632 90.5949 138.162L90.5952 138.163ZM89.6841 136.7L89.6838 136.7C89.9629 137.09 90.2429 137.48 90.5201 137.871C90.5511 137.915 90.57 137.922 90.6182 137.89C91.3822 137.389 92.1473 136.889 92.9132 136.391C93.2104 136.197 93.4246 135.944 93.5567 135.623C93.8396 134.936 93.5457 134.15 92.857 133.816C92.2899 133.541 91.7299 133.59 91.1968 133.914C90.985 134.043 90.7812 134.184 90.5737 134.319C90.003 134.691 89.4327 135.064 88.861 135.436C88.8172 135.464 88.811 135.483 88.8423 135.526C89.1244 135.916 89.4038 136.308 89.6841 136.7Z" fill="#2B3990"/>
<path d="M90.4158 134.721C90.4014 134.694 90.397 134.662 90.4237 134.632C90.4325 134.623 90.4432 134.614 90.4545 134.607C90.7478 134.419 91.0295 134.213 91.3344 134.042C91.7002 133.837 92.0934 133.765 92.5112 133.865C92.6662 133.902 92.8096 133.968 92.9427 134.053C92.9645 134.067 92.9899 134.081 92.9751 134.11C92.9591 134.141 92.9315 134.131 92.904 134.121C92.4409 133.956 91.9916 133.997 91.5565 134.209C91.2973 134.336 91.0705 134.512 90.8282 134.664C90.7289 134.726 90.6219 134.763 90.502 134.76C90.4697 134.759 90.4391 134.755 90.4158 134.721Z" fill="#E1AA74"/>
<path d="M88.4947 132.35C88.4947 133.808 88.492 135.265 88.4963 136.723C88.4977 137.203 88.4316 137.669 88.21 138.104C87.8368 138.836 87.257 139.346 86.4301 139.579C85.2344 139.916 83.9913 139.436 83.322 138.445C82.9968 137.963 82.84 137.435 82.8399 136.864C82.8395 134.324 82.8398 131.784 82.8398 129.244C82.8398 128.761 82.8347 128.278 82.8412 127.795C82.8519 126.991 83.1463 126.292 83.7627 125.744C84.5766 125.021 85.5341 124.825 86.5892 125.162C87.1866 125.352 87.6504 125.727 87.9983 126.23C88.3422 126.727 88.4953 127.276 88.4945 127.869C88.4925 129.363 88.4939 130.856 88.4939 132.35H88.4948L88.4947 132.35ZM85.6681 132.18V132.18C86.4544 132.18 87.2408 132.179 88.0271 132.182C88.1151 132.183 88.1412 132.165 88.141 132.076C88.1377 130.669 88.1373 129.262 88.1393 127.855C88.14 127.309 87.9841 126.814 87.6615 126.36C86.9709 125.389 85.628 125.053 84.5515 125.617C83.665 126.081 83.2295 126.826 83.197 127.785C83.1841 128.166 83.1946 128.548 83.1946 128.93C83.1946 129.979 83.1956 131.028 83.1927 132.077C83.1925 132.158 83.2124 132.182 83.2997 132.182C84.0891 132.178 84.8786 132.18 85.6681 132.18L85.6681 132.18Z" fill="#2B3990"/>
<path d="M83.6069 129.49C83.5576 129.484 83.5098 129.461 83.4927 129.401C83.4871 129.381 83.4846 129.36 83.4849 129.339C83.4895 128.803 83.4601 128.266 83.4989 127.73C83.5453 127.088 83.7978 126.53 84.3108 126.096C84.5009 125.936 84.719 125.814 84.9555 125.724C84.9942 125.709 85.0371 125.69 85.0634 125.735C85.0918 125.783 85.0527 125.808 85.0145 125.834C84.3724 126.266 84.0253 126.865 83.9276 127.602C83.8693 128.04 83.9072 128.482 83.8991 128.922C83.8958 129.103 83.8496 129.269 83.7385 129.417C83.7085 129.457 83.6752 129.492 83.6071 129.49L83.6069 129.49Z" fill="#E1AA74"/>
<path d="M88.7244 138.054C88.7244 139.441 87.4852 140.565 85.9566 140.565C84.4279 140.565 82.8359 139.441 82.8359 138.054C82.8359 133.427 84.4279 135.544 85.9566 135.544C87.4853 135.544 88.7244 136.668 88.7244 138.054Z" fill="#2B3990"/>
<path d="M99.5901 127.924C98.9128 126.395 97.9766 125.003 96.802 123.777L96.752 123.825C97.9789 125.074 98.9528 126.503 99.6506 128.078C99.721 128.237 99.7883 128.397 99.8522 128.557C99.7703 128.345 99.6828 128.134 99.5901 127.924Z" fill="#3876BF"/>
<path d="M100.864 127.592C100.037 125.723 98.8517 124.044 97.3428 122.603C95.8337 121.162 94.0764 120.03 92.1194 119.24C90.0928 118.421 87.9407 118.006 85.7224 118.006C83.5041 118.006 80.2948 118.6 77.1772 120.291C74.7588 121.603 72.8116 123.29 71.5899 125.685C71.2098 126.296 70.873 126.932 70.5807 127.592C69.7235 129.527 69.2891 131.583 69.2891 133.702C69.2891 135.82 69.7235 137.876 70.5807 139.812C70.9263 140.592 71.3342 141.34 71.8019 142.05C73.0539 144.348 74.922 146.095 77.382 147.23C78.0051 147.581 78.6535 147.893 79.3257 148.164C81.352 148.983 83.5043 149.398 85.7224 149.398C87.9404 149.398 90.0928 148.983 92.1194 148.164C94.0764 147.374 95.8337 146.242 97.3428 144.801C98.8517 143.359 100.037 141.681 100.864 139.812C101.722 137.876 102.156 135.821 102.156 133.702C102.156 131.583 101.722 129.528 100.864 127.592V127.592ZM99.288 134.236H100.772C100.733 135.102 100.614 135.955 100.417 136.79C100.22 137.625 99.9451 138.442 99.5934 139.236C98.9161 140.766 97.9798 142.158 96.8052 143.383L95.7559 142.381C95.4884 142.125 95.0545 142.125 94.7869 142.381C94.5194 142.637 94.5194 143.051 94.7869 143.307L95.8361 144.309C95.1949 144.869 94.5099 145.374 93.785 145.818C93.0603 146.263 92.2954 146.649 91.495 146.972C89.8305 147.644 88.0727 148.022 86.2594 148.098V146.68C86.2594 146.319 85.9527 146.026 85.5741 146.026C85.1956 146.026 84.8889 146.319 84.8889 146.68V148.098C84.1279 148.066 83.3766 147.981 82.6381 147.843C82.6324 147.842 82.6267 147.841 82.6213 147.84C81.6701 147.65 80.7401 147.373 79.8376 147.008C78.1878 146.342 76.692 145.411 75.3847 144.24L76.3616 143.307C76.6292 143.051 76.6292 142.637 76.3614 142.381C76.0938 142.125 75.6601 142.125 75.3924 142.381L74.4278 143.303C73.3235 142.12 72.4386 140.785 71.7909 139.323C71.075 137.706 70.6797 135.997 70.6133 134.236H71.8603C72.2389 134.236 72.5456 133.943 72.5456 133.582C72.5456 133.22 72.2389 132.927 71.8603 132.927H70.6246C70.7164 131.251 71.1078 129.624 71.7909 128.081C72.4615 126.567 73.3869 125.188 74.5469 123.975L75.3924 124.783C75.5264 124.91 75.7016 124.974 75.8769 124.974C76.0521 124.974 76.2276 124.91 76.3614 124.783C76.6291 124.527 76.6291 124.113 76.3616 123.857L75.5151 123.049C76.791 121.931 78.2424 121.04 79.8376 120.396C81.4465 119.746 83.142 119.372 84.8889 119.283V120.484C84.8889 120.845 85.1959 121.138 85.5742 121.138C85.9526 121.138 86.2595 120.845 86.2595 120.484V119.27C88.1113 119.331 89.9078 119.709 91.6074 120.396C93.1381 121.014 94.5362 121.86 95.7742 122.914L94.7869 123.857C94.5194 124.113 94.5194 124.527 94.7869 124.783C94.9207 124.91 95.0962 124.974 95.2714 124.974C95.4467 124.974 95.6221 124.91 95.7559 124.783L96.8052 123.78C97.9798 125.006 98.9161 126.398 99.5934 127.927C99.6861 128.137 99.7735 128.348 99.8555 128.56C100.396 129.96 100.703 131.424 100.772 132.927H99.288C98.9097 132.927 98.603 133.22 98.603 133.582C98.603 133.944 98.9097 134.237 99.288 134.237V134.236Z" fill="#3876BF"/>
<path d="M85.7139 149.386C94.7829 149.386 102.135 142.364 102.135 133.702C102.135 125.04 94.7829 118.018 85.7139 118.018C76.6448 118.018 69.293 125.04 69.293 133.702C69.293 142.364 76.6448 149.386 85.7139 149.386Z" stroke="#3876BF" stroke-width="2" stroke-miterlimit="10"/>
<defs>
<filter id="filter0_d_2237_370" x="31.3238" y="46.9" width="444.2" height="89.2" filterUnits="userSpaceOnUse" color-interpolation-filters="sRGB">
<feFlood flood-opacity="0" result="BackgroundImageFix"/>
<feColorMatrix in="SourceAlpha" type="matrix" values="0 0 0 0 0 0 0 0 0 0 0 0 0 0 0 0 0 0 127 0" result="hardAlpha"/>
<feOffset dx="1" dy="1"/>
<feGaussianBlur stdDeviation="6.55"/>
<feComposite in2="hardAlpha" operator="out"/>
<feColorMatrix type="matrix" values="0 0 0 0 0.176471 0 0 0 0 0.380392 0 0 0 0 0.788235 0 0 0 1 0"/>
<feBlend mode="normal" in2="BackgroundImageFix" result="effect1_dropShadow_2237_370"/>
<feBlend mode="normal" in="SourceGraphic" in2="effect1_dropShadow_2237_370" result="shape"/>
</filter>
<filter id="filter1_d_2237_370" x="108.9" y="137.9" width="296.2" height="81.2" filterUnits="userSpaceOnUse" color-interpolation-filters="sRGB">
<feFlood flood-opacity="0" result="BackgroundImageFix"/>
<feColorMatrix in="SourceAlpha" type="matrix" values="0 0 0 0 0 0 0 0 0 0 0 0 0 0 0 0 0 0 127 0" result="hardAlpha"/>
<feOffset dx="1" dy="1"/>
<feGaussianBlur stdDeviation="6.55"/>
<feComposite in2="hardAlpha" operator="out"/>
<feColorMatrix type="matrix" values="0 0 0 0 0.176471 0 0 0 0 0.380392 0 0 0 0 0.788235 0 0 0 1 0"/>
<feBlend mode="normal" in2="BackgroundImageFix" result="effect1_dropShadow_2237_370"/>
<feBlend mode="normal" in="SourceGraphic" in2="effect1_dropShadow_2237_370" result="shape"/>
</filter>
</defs>
</svg>
