<svg width="280" height="244" viewBox="0 0 280 244" fill="none" xmlns="http://www.w3.org/2000/svg">
<path d="M242.042 44.4203H164.335C153.726 44.4203 144.701 51.2011 141.35 60.6709C140.584 62.8273 140.273 63.9185 139.961 63.9185C139.649 63.9185 139.338 62.8403 138.571 60.6709C135.221 51.2011 126.196 44.4203 115.587 44.4203H37.8794C17.2968 44.4203 0.623047 27.741 0.623047 7.15168V0.124023H279.312V7.15168C279.312 27.741 262.625 44.4203 242.042 44.4203Z" fill="#56BCC7"/>
<path d="M139.961 100.654C140.623 100.654 141.182 99.7712 141.182 98.693V79.7144C141.182 78.6363 140.623 77.7529 139.961 77.7529C139.299 77.7529 138.74 78.6363 138.74 79.7144V98.693C138.74 99.7712 139.286 100.654 139.961 100.654Z" fill="#56BCC7"/>
<path style="mix-blend-mode:multiply" d="M204.695 179.232C204.695 214.994 175.711 243.988 139.961 243.988C104.211 243.988 75.2266 214.994 75.2266 179.232C75.2266 143.47 104.211 114.476 139.961 114.476C175.711 114.476 204.695 143.47 204.695 179.232Z" fill="url(#paint0_radial_2162_268)"/>
<path d="M201.501 179.232C201.501 213.227 173.946 240.792 139.962 240.792C105.978 240.792 78.4219 213.227 78.4219 179.232C78.4219 145.237 105.978 117.672 139.962 117.672C173.946 117.672 201.501 145.237 201.501 179.232Z" fill="#F8F8F8"/>
<path d="M193.891 179.232C193.891 209.031 169.738 233.18 139.961 233.18C110.185 233.18 86.0312 209.018 86.0312 179.232C86.0312 149.445 110.172 125.284 139.961 125.284C169.751 125.284 193.891 149.445 193.891 179.232Z" fill="#56BCC7"/>
<path style="mix-blend-mode:multiply" d="M190.722 179.232C190.722 207.264 167.997 230.01 139.961 230.01C111.924 230.01 89.1992 207.277 89.1992 179.232C89.1992 151.186 111.924 128.466 139.961 128.466C167.997 128.466 190.722 151.199 190.722 179.232Z" fill="url(#paint1_radial_2162_268)"/>
<path d="M186.463 179.232C186.463 204.926 165.647 225.75 139.961 225.75C114.275 225.75 93.459 204.926 93.459 179.232C93.459 153.538 114.275 132.714 139.961 132.714C165.647 132.714 186.463 153.538 186.463 179.232Z" fill="#F8F8F8"/>
<g clip-path="url(#clip0_2162_268)">
<path d="M116.834 192.673V161.158C116.834 160.882 117.062 160.654 117.338 160.654C117.614 160.654 117.842 160.882 117.842 161.158V192.673C117.842 192.949 117.614 193.177 117.338 193.177C117.062 193.177 116.834 192.949 116.834 192.673Z" fill="#4D4D4D"/>
<path d="M115.503 161.662C115.335 161.662 115.179 161.578 115.083 161.446C114.987 161.314 114.963 161.134 115.023 160.978L116.858 156.179C116.93 155.987 117.122 155.855 117.338 155.855C117.542 155.855 117.734 155.975 117.806 156.179L119.641 160.978C119.701 161.134 119.677 161.302 119.581 161.446C119.485 161.578 119.329 161.662 119.161 161.662H115.503ZM116.234 160.654H118.43L117.338 157.787L116.234 160.654Z" fill="#4D4D4D"/>
<path d="M117.338 193.177C117.05 193.177 116.834 192.949 116.834 192.673C116.834 192.397 117.062 192.169 117.338 192.169H161.697C161.985 192.169 162.201 192.397 162.201 192.673C162.201 192.949 161.985 193.177 161.697 193.177H117.338Z" fill="#4D4D4D"/>
<path d="M166.663 192.193C166.855 192.265 166.987 192.457 166.987 192.661C166.987 192.865 166.855 193.057 166.663 193.129L161.877 194.952C161.817 194.976 161.757 194.988 161.697 194.988C161.601 194.988 161.493 194.964 161.421 194.904C161.277 194.808 161.205 194.652 161.205 194.484V190.825C161.205 190.669 161.289 190.501 161.421 190.417C161.553 190.322 161.733 190.31 161.889 190.357L166.675 192.181L166.663 192.193ZM162.201 193.765L165.08 192.673L162.201 191.581V193.765Z" fill="#4D4D4D"/>
<path d="M119.57 189.398C119.57 189.11 119.786 188.894 120.074 188.894H122.773V175.158C122.773 175.026 122.821 174.894 122.917 174.798C123.013 174.702 123.145 174.642 123.277 174.642H126.935C127.067 174.642 127.199 174.69 127.295 174.798C127.391 174.882 127.439 175.014 127.439 175.158V188.894H130.006V177.989C130.006 177.857 130.066 177.725 130.162 177.629C130.258 177.533 130.39 177.485 130.522 177.485H134.169C134.313 177.485 134.433 177.533 134.529 177.629C134.625 177.725 134.673 177.857 134.673 177.989V188.894H137.24V172.075C137.24 171.943 137.299 171.811 137.383 171.715C137.479 171.619 137.611 171.571 137.743 171.571H141.402C141.534 171.571 141.666 171.631 141.762 171.715C141.858 171.811 141.906 171.943 141.906 172.075V188.894H144.473V168.08C144.473 167.948 144.533 167.816 144.617 167.72C144.713 167.636 144.845 167.576 144.965 167.576H148.623C148.755 167.576 148.887 167.624 148.983 167.72C149.079 167.816 149.127 167.948 149.127 168.08V188.882H151.694V163.221C151.694 163.089 151.754 162.957 151.838 162.861C151.934 162.777 152.066 162.717 152.198 162.717H155.856C155.988 162.717 156.12 162.777 156.216 162.861C156.312 162.957 156.372 163.089 156.372 163.221V188.894H159.059C159.335 188.894 159.563 189.122 159.563 189.398C159.563 189.674 159.335 189.902 159.059 189.902H155.856C155.724 189.902 155.592 189.854 155.496 189.746C155.401 189.65 155.353 189.53 155.353 189.398V163.725H152.714V189.398C152.714 189.53 152.666 189.662 152.57 189.746C152.474 189.854 152.342 189.902 152.21 189.902H148.635C148.503 189.902 148.383 189.854 148.287 189.746C148.191 189.65 148.131 189.53 148.131 189.398V168.584H145.492V189.398C145.492 189.53 145.432 189.662 145.336 189.746C145.24 189.842 145.12 189.902 144.977 189.902H141.402C141.27 189.902 141.138 189.854 141.042 189.746C140.946 189.65 140.898 189.53 140.898 189.398V172.566H138.247V189.398C138.247 189.53 138.199 189.662 138.091 189.746C137.995 189.854 137.875 189.902 137.731 189.902H134.157C134.025 189.902 133.905 189.854 133.809 189.746C133.713 189.65 133.665 189.53 133.665 189.398V178.481H131.026V189.398C131.026 189.53 130.966 189.662 130.882 189.746C130.786 189.842 130.654 189.902 130.522 189.902H126.947C126.816 189.902 126.684 189.854 126.588 189.746C126.492 189.65 126.444 189.53 126.444 189.398V175.65H123.805V189.398C123.805 189.53 123.745 189.662 123.661 189.746C123.565 189.842 123.433 189.902 123.301 189.902H120.11C119.834 189.902 119.606 189.674 119.606 189.398H119.57Z" fill="#4D4D4D"/>
<path d="M154.464 158.939L151.417 156.923C151.285 156.839 151.189 156.683 151.189 156.515C151.189 156.347 151.261 156.191 151.405 156.095L155.544 153.096C155.712 152.976 155.94 152.964 156.12 153.084C156.299 153.204 156.371 153.42 156.323 153.612L155.232 158.627C155.196 158.783 155.076 158.927 154.92 158.987C154.872 159.011 154.8 159.023 154.74 159.023C154.644 159.023 154.548 158.999 154.464 158.939ZM152.569 156.491L154.392 157.691L155.064 154.692L152.569 156.491Z" fill="#4D4D4D"/>
<path d="M122.772 170.168C122.76 169.892 122.976 169.652 123.252 169.652C123.252 169.652 123.852 169.628 124.871 169.568C125.879 169.496 127.306 169.388 128.914 169.196C132.14 168.8 136.135 168.092 139.17 166.868C145.323 164.397 150.889 160.246 152.796 157.271C152.952 157.031 153.264 156.971 153.492 157.127C153.732 157.271 153.792 157.583 153.648 157.823C151.513 161.11 145.863 165.249 139.554 167.816C133.184 170.371 123.312 170.683 123.288 170.683C123 170.683 122.772 170.467 122.772 170.192V170.168Z" fill="#4D4D4D"/>
</g>
<defs>
<radialGradient id="paint0_radial_2162_268" cx="0" cy="0" r="1" gradientUnits="userSpaceOnUse" gradientTransform="translate(139.961 179.232) scale(64.7343 64.7557)">
<stop offset="0.92" stop-color="#D1D1D1"/>
<stop offset="1" stop-color="white"/>
</radialGradient>
<radialGradient id="paint1_radial_2162_268" cx="0" cy="0" r="1" gradientUnits="userSpaceOnUse" gradientTransform="translate(139.961 179.245) scale(50.7616 50.7784)">
<stop offset="0.92" stop-color="#D1D1D1"/>
<stop offset="1" stop-color="white"/>
</radialGradient>
<clipPath id="clip0_2162_268">
<rect width="52" height="42" fill="white" transform="translate(115 153)"/>
</clipPath>
</defs>
</svg>
