<svg width="407" height="280" viewBox="0 0 407 280" fill="none" xmlns="http://www.w3.org/2000/svg">
<circle cx="279" cy="81" r="13" fill="#00A0FF"/>
<circle cx="279" cy="117" r="13" fill="#3876BF"/>
<circle cx="279" cy="153" r="12.75" fill="#B6E7E3" stroke="#16110D" stroke-width="0.5"/>
<circle cx="279" cy="189" r="12.75" fill="#F3F0CA" stroke="#16110D" stroke-width="0.5"/>
<path d="M306.264 84.864V75.936L304.056 76.728C303.864 76.792 303.768 76.728 303.768 76.536V74.832C303.768 74.624 303.872 74.472 304.08 74.376L305.448 73.896C305.64 73.832 305.84 73.776 306.048 73.728C306.256 73.68 306.464 73.656 306.672 73.656H307.152C307.632 73.656 307.992 73.792 308.232 74.064C308.472 74.32 308.592 74.68 308.592 75.144V84.864H309.84C310.784 84.864 311.256 85.304 311.256 86.184V86.664C311.256 86.888 311.144 87 310.92 87H304.008C303.832 87 303.744 86.912 303.744 86.736V85.128C303.744 84.952 303.832 84.864 304.008 84.864H306.264ZM312.775 83.208C312.599 83.208 312.511 83.12 312.511 82.944V81.288C312.511 81.112 312.599 81.024 312.775 81.024H317.815C317.991 81.024 318.079 81.112 318.079 81.288V82.944C318.079 83.12 317.991 83.208 317.815 83.208H312.775ZM326.26 80.016C326.98 80.224 327.564 80.584 328.012 81.096C328.46 81.592 328.684 82.264 328.684 83.112C328.684 84.312 328.252 85.304 327.388 86.088C326.524 86.856 325.356 87.24 323.884 87.24C322.844 87.24 321.988 87.064 321.316 86.712C320.644 86.344 320.148 85.904 319.828 85.392C319.508 84.88 319.348 84.408 319.348 83.976C319.348 83.592 319.476 83.4 319.732 83.4C319.812 83.4 319.876 83.416 319.924 83.448C319.988 83.464 320.06 83.52 320.14 83.616C320.556 84.032 321.044 84.392 321.604 84.696C322.164 85 322.86 85.152 323.692 85.152C324.508 85.152 325.156 84.968 325.636 84.6C326.116 84.216 326.356 83.696 326.356 83.04C326.356 82.384 326.124 81.912 325.66 81.624C325.212 81.336 324.66 81.192 324.004 81.192H322.564C322.116 81.192 321.78 81.112 321.556 80.952C321.348 80.776 321.244 80.48 321.244 80.064V79.464C321.244 79.224 321.356 79.104 321.58 79.104H323.812C324.548 79.104 325.076 78.936 325.396 78.6C325.732 78.264 325.9 77.808 325.9 77.232C325.9 76.64 325.7 76.2 325.3 75.912C324.916 75.608 324.388 75.456 323.716 75.456C323.076 75.456 322.5 75.544 321.988 75.72C321.492 75.88 321.012 76.096 320.548 76.368C320.436 76.464 320.324 76.512 320.212 76.512C320.116 76.512 320.044 76.44 319.996 76.296L319.804 75.792C319.516 74.944 319.836 74.344 320.764 73.992C321.18 73.816 321.644 73.68 322.156 73.584C322.684 73.472 323.252 73.416 323.86 73.416C324.692 73.416 325.436 73.552 326.092 73.824C326.764 74.08 327.292 74.472 327.676 75C328.076 75.528 328.276 76.192 328.276 76.992C328.276 77.664 328.092 78.272 327.724 78.816C327.356 79.344 326.868 79.744 326.26 80.016ZM309.624 120.168H303.576C303.4 120.168 303.312 120.08 303.312 119.904V118.632C303.312 118.472 303.328 118.352 303.36 118.272C303.392 118.176 303.456 118.048 303.552 117.888L308.52 110.208C308.616 110.048 308.736 109.92 308.88 109.824C309.024 109.712 309.224 109.656 309.48 109.656H310.512C311.456 109.656 311.928 110.128 311.928 111.072V118.032H312.696C313.608 118.032 314.064 118.48 314.064 119.376V119.832C314.064 120.056 313.96 120.168 313.752 120.168H311.928V122.736C311.928 122.912 311.848 123 311.688 123H309.864C309.704 123 309.624 122.912 309.624 122.736V120.168ZM305.808 118.032H309.624V112.248L305.808 118.032ZM315.611 119.208C315.435 119.208 315.347 119.12 315.347 118.944V117.288C315.347 117.112 315.435 117.024 315.611 117.024H320.651C320.827 117.024 320.915 117.112 320.915 117.288V118.944C320.915 119.12 320.827 119.208 320.651 119.208H315.611ZM326.84 114.192C327.016 114.144 327.184 114.104 327.344 114.072C327.504 114.04 327.696 114.024 327.92 114.024C328.832 114.024 329.616 114.232 330.272 114.648C330.928 115.064 331.432 115.608 331.784 116.28C332.152 116.936 332.336 117.64 332.336 118.392C332.336 119.336 332.136 120.176 331.736 120.912C331.336 121.648 330.776 122.224 330.056 122.64C329.336 123.04 328.496 123.24 327.536 123.24C326.576 123.24 325.72 123.048 324.968 122.664C324.216 122.264 323.624 121.72 323.192 121.032C322.776 120.344 322.568 119.56 322.568 118.68C322.568 117.992 322.704 117.32 322.976 116.664C323.248 116.008 323.656 115.216 324.2 114.288L327.032 109.656C327.144 109.496 327.28 109.416 327.44 109.416C327.968 109.416 328.328 109.672 328.52 110.184C328.728 110.68 328.64 111.256 328.256 111.912L326.84 114.192ZM324.896 118.608C324.896 119.36 325.128 119.976 325.592 120.456C326.072 120.92 326.712 121.152 327.512 121.152C328.264 121.152 328.872 120.912 329.336 120.432C329.8 119.952 330.032 119.344 330.032 118.608C330.032 117.856 329.792 117.232 329.312 116.736C328.848 116.24 328.232 115.992 327.464 115.992C326.712 115.992 326.096 116.24 325.616 116.736C325.136 117.232 324.896 117.856 324.896 118.608ZM309.84 147.792H303.816C303.64 147.792 303.552 147.712 303.552 147.552V145.944C303.552 145.752 303.64 145.656 303.816 145.656H310.896C311.824 145.656 312.288 146.112 312.288 147.024V147.312C312.288 147.552 312.264 147.752 312.216 147.912C312.184 148.072 312.112 148.272 312 148.512L307.392 158.712C307.312 158.904 307.168 159 306.96 159H305.04C304.976 159 304.928 158.976 304.896 158.928C304.88 158.864 304.88 158.8 304.896 158.736L309.84 147.792ZM314.158 155.208C313.982 155.208 313.894 155.12 313.894 154.944V153.288C313.894 153.112 313.982 153.024 314.158 153.024H319.198C319.374 153.024 319.462 153.112 319.462 153.288V154.944C319.462 155.12 319.374 155.208 319.198 155.208H314.158ZM326.515 154.416C326.307 154.48 326.107 154.536 325.915 154.584C325.739 154.632 325.547 154.656 325.339 154.656C324.443 154.656 323.667 154.456 323.011 154.056C322.355 153.64 321.851 153.104 321.499 152.448C321.147 151.776 320.971 151.064 320.971 150.312C320.971 149.336 321.179 148.488 321.595 147.768C322.011 147.032 322.587 146.456 323.323 146.04C324.075 145.624 324.923 145.416 325.867 145.416C326.827 145.416 327.667 145.608 328.387 145.992C329.123 146.376 329.699 146.912 330.115 147.6C330.531 148.288 330.739 149.08 330.739 149.976C330.739 150.664 330.611 151.336 330.355 151.992C330.099 152.632 329.675 153.424 329.083 154.368L326.323 158.952C326.211 159.144 326.059 159.24 325.867 159.24C325.499 159.24 325.211 159.12 325.003 158.88C324.795 158.64 324.691 158.336 324.691 157.968C324.691 157.584 324.819 157.192 325.075 156.792L326.515 154.416ZM325.843 152.664C326.595 152.664 327.203 152.424 327.667 151.944C328.147 151.448 328.387 150.816 328.387 150.048C328.387 149.296 328.155 148.688 327.691 148.224C327.243 147.76 326.627 147.528 325.843 147.528C325.075 147.528 324.451 147.768 323.971 148.248C323.507 148.712 323.275 149.312 323.275 150.048C323.275 150.832 323.507 151.464 323.971 151.944C324.435 152.424 325.059 152.664 325.843 152.664ZM321.504 192.672H322.344V195H321.576C320.856 195 320.256 194.896 319.776 194.688C319.296 194.464 318.92 194.216 318.648 193.944C317.912 194.648 316.936 195 315.72 195H308.64C307.328 195 306.248 194.672 305.4 194.016C304.568 193.36 304.152 192.432 304.152 191.232C304.152 190.496 304.36 189.808 304.776 189.168C305.192 188.512 305.752 188.032 306.456 187.728C306.616 187.648 306.736 187.608 306.816 187.608C307.024 187.608 307.128 187.704 307.128 187.896C307.128 187.992 307.112 188.072 307.08 188.136C307.048 188.2 307.016 188.256 306.984 188.304C306.776 188.608 306.592 188.936 306.432 189.288C306.272 189.624 306.192 190.016 306.192 190.464C306.192 191.248 306.432 191.816 306.912 192.168C307.408 192.504 308.016 192.672 308.736 192.672H315.768C316.344 192.672 316.768 192.496 317.04 192.144C317.328 191.776 317.472 191.288 317.472 190.68V183.624C317.472 182.312 318.096 181.656 319.344 181.656H319.56C319.736 181.656 319.824 181.736 319.824 181.896V190.728C319.824 191.448 320 191.952 320.352 192.24C320.704 192.528 321.088 192.672 321.504 192.672ZM309.912 188.688C309.848 188.688 309.8 188.648 309.768 188.568C309.704 188.28 309.76 188.024 309.936 187.8C310.112 187.576 310.36 187.424 310.68 187.344C310.424 186.992 310.296 186.608 310.296 186.192C310.296 185.504 310.512 184.976 310.944 184.608C311.376 184.24 311.848 184.056 312.36 184.056C312.856 184.04 313.256 184.152 313.56 184.392C313.88 184.632 314.048 184.92 314.064 185.256C314.064 185.48 314.008 185.584 313.896 185.568C313.848 185.568 313.792 185.552 313.728 185.52C313.68 185.488 313.616 185.456 313.536 185.424C313.248 185.28 312.936 185.208 312.6 185.208C311.88 185.208 311.52 185.536 311.52 186.192C311.52 186.432 311.616 186.672 311.808 186.912C312 187.136 312.28 187.248 312.648 187.248H313.608C313.928 187.248 314.168 187.328 314.328 187.488C314.488 187.648 314.568 187.856 314.568 188.112V188.208C314.568 188.352 314.504 188.424 314.376 188.424H311.352C311.112 188.424 310.888 188.44 310.68 188.472C310.488 188.488 310.304 188.536 310.128 188.616C310.032 188.664 309.96 188.688 309.912 188.688ZM322.773 195H322.077V192.672H322.821C323.397 192.672 323.821 192.496 324.093 192.144C324.381 191.776 324.525 191.288 324.525 190.68V183.624C324.525 182.312 325.149 181.656 326.397 181.656H326.613C326.789 181.656 326.877 181.736 326.877 181.896V190.728C326.877 192.04 326.517 193.08 325.797 193.848C325.077 194.616 324.069 195 322.773 195ZM331.891 181.824C332.243 181.824 332.539 181.944 332.779 182.184C333.019 182.424 333.139 182.728 333.139 183.096C333.139 183.448 333.019 183.752 332.779 184.008C332.539 184.264 332.243 184.392 331.891 184.392C331.539 184.392 331.235 184.264 330.979 184.008C330.739 183.752 330.619 183.448 330.619 183.096C330.619 182.728 330.739 182.424 330.979 182.184C331.235 181.944 331.539 181.824 331.891 181.824ZM333.043 195H329.707C329.531 195 329.411 194.976 329.347 194.928C329.283 194.88 329.251 194.768 329.251 194.592V194.376C329.251 193.88 329.427 193.472 329.779 193.152C330.147 192.832 330.643 192.672 331.267 192.672H332.995C333.379 192.672 333.707 192.56 333.979 192.336C334.251 192.112 334.459 191.824 334.603 191.472C334.763 191.12 334.843 190.768 334.843 190.416C334.843 189.68 334.667 189.096 334.315 188.664C333.963 188.216 333.467 187.984 332.827 187.968C332.507 187.968 332.235 188 332.011 188.064C331.803 188.112 331.579 188.184 331.339 188.28C331.243 188.312 331.171 188.344 331.123 188.376C331.075 188.408 331.011 188.416 330.931 188.4C330.803 188.384 330.715 188.312 330.667 188.184C330.619 188.056 330.603 187.904 330.619 187.728C330.667 187.232 330.931 186.792 331.411 186.408C331.955 185.96 332.611 185.752 333.379 185.784C334.563 185.8 335.499 186.248 336.187 187.128C336.891 187.992 337.243 189.12 337.243 190.512C337.243 191.392 337.051 192.176 336.667 192.864C336.283 193.536 335.771 194.064 335.131 194.448C334.507 194.816 333.811 195 333.043 195ZM349.533 187.128C349.181 187.128 348.877 187 348.621 186.744C348.381 186.488 348.261 186.184 348.261 185.832C348.261 185.464 348.381 185.16 348.621 184.92C348.877 184.664 349.181 184.536 349.533 184.536C349.885 184.536 350.181 184.664 350.421 184.92C350.661 185.16 350.781 185.464 350.781 185.832C350.781 186.184 350.661 186.488 350.421 186.744C350.181 187 349.885 187.128 349.533 187.128ZM357.357 192.672H358.101V195H357.405C357.037 195 356.701 194.968 356.397 194.904C356.093 194.84 355.821 194.76 355.581 194.664C355.341 196.392 354.661 197.736 353.541 198.696C352.421 199.656 351.053 200.136 349.437 200.136C348.269 200.136 347.221 199.88 346.293 199.368C345.365 198.856 344.629 198.136 344.085 197.208C343.557 196.28 343.293 195.192 343.293 193.944C343.309 192.856 343.573 191.896 344.085 191.064C344.613 190.232 345.277 189.648 346.077 189.312C346.141 189.28 346.197 189.256 346.245 189.24C346.309 189.224 346.365 189.216 346.413 189.216C346.509 189.216 346.589 189.248 346.653 189.312C346.733 189.36 346.765 189.432 346.749 189.528C346.749 189.64 346.709 189.736 346.629 189.816C346.325 190.328 346.069 190.896 345.861 191.52C345.653 192.128 345.549 192.776 345.549 193.464C345.533 194.472 345.701 195.304 346.053 195.96C346.405 196.616 346.877 197.104 347.469 197.424C348.077 197.76 348.733 197.928 349.437 197.928C350.141 197.928 350.781 197.76 351.357 197.424C351.949 197.104 352.421 196.616 352.773 195.96C353.141 195.304 353.325 194.472 353.325 193.464V188.184C353.325 186.872 353.949 186.216 355.197 186.216H355.389C355.565 186.216 355.653 186.296 355.653 186.456V190.728C355.653 191.448 355.829 191.952 356.181 192.24C356.533 192.528 356.925 192.672 357.357 192.672ZM365.019 185.784C365.787 185.784 366.435 185.944 366.963 186.264C367.507 186.568 367.939 186.976 368.259 187.488C368.595 187.984 368.835 188.536 368.979 189.144C369.123 189.736 369.195 190.312 369.195 190.872C369.195 192.296 368.827 193.384 368.091 194.136C367.355 194.872 366.347 195.24 365.067 195.24C364.331 195.24 363.635 195.152 362.979 194.976C362.339 194.8 361.667 194.528 360.963 194.16C360.579 194.512 360.155 194.744 359.691 194.856C359.227 194.968 358.723 195.024 358.179 195.024H357.843V192.672H358.107C358.523 192.672 358.851 192.616 359.091 192.504C359.347 192.392 359.571 192.176 359.763 191.856C359.955 191.536 360.187 191.08 360.459 190.488C360.875 189.64 361.283 188.864 361.683 188.16C362.083 187.44 362.547 186.864 363.075 186.432C363.603 186 364.251 185.784 365.019 185.784ZM365.163 192.984C365.627 192.952 366.011 192.792 366.315 192.504C366.619 192.216 366.771 191.664 366.771 190.848C366.771 189.872 366.611 189.152 366.291 188.688C365.987 188.208 365.595 187.968 365.115 187.968C364.683 187.968 364.283 188.288 363.915 188.928C363.547 189.552 363.179 190.288 362.811 191.136C362.699 191.376 362.595 191.584 362.499 191.76C362.419 191.92 362.339 192.064 362.259 192.192C362.899 192.528 363.459 192.752 363.939 192.864C364.435 192.96 364.843 193 365.163 192.984ZM380.878 192.672H381.718V195H380.926C380.574 195 380.254 194.976 379.966 194.928C379.678 194.864 379.414 194.784 379.174 194.688C379.142 196.416 378.79 197.76 378.118 198.72C377.446 199.68 376.438 200.152 375.094 200.136C374.678 200.136 374.286 200.064 373.918 199.92C373.55 199.792 373.206 199.616 372.886 199.392C372.662 199.2 372.47 198.976 372.31 198.72C372.15 198.464 372.046 198.184 371.998 197.88C371.982 197.768 372.006 197.672 372.07 197.592C372.134 197.512 372.222 197.472 372.334 197.472C372.398 197.472 372.462 197.48 372.526 197.496C372.59 197.528 372.646 197.552 372.694 197.568C373.062 197.696 373.398 197.792 373.702 197.856C373.99 197.92 374.302 197.944 374.638 197.928C375.422 197.896 375.982 197.624 376.318 197.112C376.654 196.616 376.822 195.888 376.822 194.928V188.184C376.822 186.872 377.446 186.216 378.694 186.216H378.91C379.086 186.216 379.174 186.296 379.174 186.456V190.728C379.174 191.448 379.35 191.952 379.702 192.24C380.054 192.528 380.446 192.672 380.878 192.672ZM384.997 182.136C384.693 182.136 384.429 182.024 384.205 181.8C383.997 181.576 383.893 181.312 383.893 181.008C383.893 180.688 383.997 180.424 384.205 180.216C384.429 179.992 384.693 179.88 384.997 179.88C385.301 179.88 385.557 179.992 385.765 180.216C385.989 180.424 386.101 180.688 386.101 181.008C386.101 181.312 385.989 181.576 385.765 181.8C385.557 182.024 385.301 182.136 384.997 182.136ZM383.533 184.752C383.213 184.752 382.933 184.64 382.693 184.416C382.469 184.176 382.357 183.88 382.357 183.528C382.357 183.176 382.469 182.888 382.693 182.664C382.933 182.424 383.213 182.304 383.533 182.304C383.869 182.304 384.157 182.424 384.397 182.664C384.637 182.888 384.757 183.176 384.757 183.528C384.757 183.88 384.637 184.176 384.397 184.416C384.157 184.64 383.869 184.752 383.533 184.752ZM385.237 183.528C385.237 183.176 385.349 182.888 385.573 182.664C385.813 182.424 386.101 182.304 386.437 182.304C386.773 182.304 387.053 182.424 387.277 182.664C387.517 182.888 387.637 183.176 387.637 183.528C387.637 183.88 387.517 184.176 387.277 184.416C387.053 184.64 386.773 184.752 386.437 184.752C386.101 184.752 385.813 184.64 385.573 184.416C385.349 184.176 385.237 183.88 385.237 183.528ZM387.925 192.672H388.765V195H387.973C387.253 195 386.653 194.896 386.173 194.688C385.693 194.464 385.317 194.216 385.045 193.944C384.693 194.28 384.269 194.544 383.773 194.736C383.293 194.912 382.741 195 382.117 195H381.421V192.672H382.165C382.741 192.672 383.165 192.496 383.437 192.144C383.725 191.776 383.869 191.288 383.869 190.68V188.184C383.869 186.872 384.493 186.216 385.741 186.216H385.957C386.133 186.216 386.221 186.296 386.221 186.456V190.728C386.221 191.448 386.397 191.952 386.749 192.24C387.101 192.528 387.493 192.672 387.925 192.672ZM393.467 186.216H396.635C397.371 186.216 398.051 186.392 398.675 186.744C399.315 187.096 399.827 187.608 400.211 188.28C400.611 188.936 400.811 189.744 400.811 190.704C400.811 191.584 400.611 192.352 400.211 193.008C399.827 193.648 399.315 194.144 398.675 194.496C398.051 194.832 397.371 195 396.635 195H388.475V192.672H396.563C397.139 192.672 397.587 192.464 397.907 192.048C398.243 191.632 398.411 191.128 398.411 190.536C398.411 189.88 398.227 189.368 397.859 189C397.491 188.616 397.059 188.424 396.563 188.424H391.979C390.971 188.424 390.467 188.024 390.467 187.224V186.696C390.467 186.456 390.499 186.24 390.563 186.048C390.627 185.84 390.779 185.656 391.019 185.496L396.803 181.728C396.851 181.696 396.891 181.672 396.923 181.656C396.955 181.64 396.995 181.648 397.043 181.68C397.219 181.808 397.363 182 397.475 182.256C397.859 182.944 397.691 183.504 396.971 183.936L393.467 186.216ZM403.777 195H403.585C403.409 195 403.321 194.92 403.321 194.76V183.624C403.321 182.312 403.945 181.656 405.193 181.656H405.385C405.561 181.656 405.649 181.736 405.649 181.896V193.032C405.649 194.344 405.025 195 403.777 195Z" fill="black"/>
<path d="M201.96 62.0677C185.658 45.7498 164.309 35.4358 141.394 32.8075C118.479 30.1792 95.349 35.3915 75.7761 47.5947C56.2033 59.7979 41.3419 78.272 33.6152 100.005C25.8885 121.737 25.7523 145.447 33.2288 167.267C40.7053 189.087 55.3535 207.731 74.7848 220.158C94.2162 232.585 117.285 238.063 140.228 235.698C163.172 233.333 184.638 223.265 201.126 207.135C217.614 191.006 228.151 169.766 231.02 146.88L129.766 134.189L201.96 62.0677Z" fill="#00A0FF"/>
<path d="M229.156 110.662C224.832 92.555 215.459 76.0471 202.124 63.0572L133.502 133.5L229.156 110.662Z" fill="#3876BF"/>
<path d="M232.091 130.937C231.904 124.484 231.082 118.066 229.637 111.775L133.79 133.79L232.091 130.937Z" fill="#B6E7E3"/>
<path d="M231.238 143.881C231.601 140.15 231.751 136.402 231.686 132.654L133.358 134.358L231.238 143.881Z" fill="#F3F0CA"/>
</svg>
