<svg width="355" height="261" viewBox="0 0 355 261" fill="none" xmlns="http://www.w3.org/2000/svg">
<circle cx="300" cy="110.001" r="13" fill="#00A0FF"/>
<circle cx="300" cy="146.001" r="13" fill="#3876BF"/>
<path d="M334.12 113.673H334.96V116.001H334.192C333.568 116.001 333.024 115.913 332.56 115.737C332.096 115.561 331.704 115.337 331.384 115.065C330.648 115.849 329.616 116.241 328.288 116.241C327.552 116.241 326.848 116.145 326.176 115.953C325.52 115.761 324.856 115.489 324.184 115.137H323.824C322.8 115.185 322.288 115.841 322.288 117.105V120.969C322.288 121.625 322.12 122.113 321.784 122.433C321.464 122.753 321.008 122.913 320.416 122.913H320.2C320.024 122.913 319.936 122.833 319.936 122.673V117.057C319.936 115.857 320.2 114.905 320.728 114.201C321.256 113.481 322.008 113.041 322.984 112.881C323.112 112.721 323.224 112.529 323.32 112.305C323.432 112.065 323.56 111.793 323.704 111.489C324.12 110.641 324.52 109.865 324.904 109.161C325.304 108.441 325.768 107.865 326.296 107.433C326.824 107.001 327.48 106.785 328.264 106.785C329.032 106.785 329.68 106.937 330.208 107.241C330.752 107.545 331.184 107.953 331.504 108.465C331.824 108.961 332.056 109.505 332.2 110.097C332.344 110.673 332.424 111.241 332.44 111.801V111.849C332.472 112.553 332.664 113.033 333.016 113.289C333.384 113.545 333.752 113.673 334.12 113.673ZM328.408 113.985C328.872 113.953 329.256 113.793 329.56 113.505C329.864 113.217 330.016 112.665 330.016 111.849C330.016 110.873 329.864 110.153 329.56 109.689C329.256 109.209 328.864 108.969 328.384 108.969C327.952 108.969 327.552 109.289 327.184 109.929C326.816 110.553 326.432 111.289 326.032 112.137C325.824 112.601 325.648 112.953 325.504 113.193C326.144 113.529 326.712 113.753 327.208 113.865C327.704 113.961 328.104 114.001 328.408 113.985ZM340.054 116.001H334.702V113.673H339.118L337.366 111.369C337.158 111.129 337.022 110.889 336.958 110.649C336.91 110.393 336.886 110.153 336.886 109.929C336.87 109.305 337.102 108.761 337.582 108.297C338.078 107.817 338.702 107.449 339.454 107.193C340.222 106.921 341.014 106.785 341.83 106.785C342.646 106.769 343.43 106.897 344.182 107.169C344.95 107.441 345.582 107.817 346.078 108.297C346.574 108.761 346.814 109.305 346.798 109.929C346.782 110.153 346.742 110.385 346.678 110.625C346.614 110.865 346.486 111.113 346.294 111.369L344.542 113.673H349.126V116.001H343.606C343.206 116.001 342.862 115.969 342.574 115.905C342.302 115.825 342.054 115.713 341.83 115.569C341.382 115.857 340.79 116.001 340.054 116.001ZM339.934 111.009L341.71 113.313C341.79 113.425 341.87 113.425 341.95 113.313L343.726 111.009C343.806 110.913 343.878 110.801 343.942 110.673C344.006 110.545 344.038 110.417 344.038 110.289C344.038 110.001 343.854 109.713 343.486 109.425C343.134 109.121 342.582 108.969 341.83 108.969C341.094 108.969 340.542 109.121 340.174 109.425C339.806 109.713 339.622 110.001 339.622 110.289C339.622 110.417 339.654 110.545 339.718 110.673C339.798 110.801 339.87 110.913 339.934 111.009ZM352.554 103.209C352.906 103.209 353.202 103.337 353.442 103.593C353.682 103.833 353.802 104.137 353.802 104.505C353.802 104.857 353.682 105.161 353.442 105.417C353.202 105.657 352.906 105.777 352.554 105.777C352.202 105.777 351.898 105.657 351.642 105.417C351.402 105.161 351.282 104.857 351.282 104.505C351.282 104.137 351.402 103.833 351.642 103.593C351.898 103.337 352.202 103.209 352.554 103.209ZM349.554 116.001H348.858V113.673H349.602C350.178 113.673 350.602 113.497 350.874 113.145C351.162 112.777 351.306 112.289 351.306 111.681V109.185C351.306 107.873 351.93 107.217 353.178 107.217H353.394C353.57 107.217 353.658 107.297 353.658 107.457V111.729C353.658 113.041 353.298 114.081 352.578 114.849C351.858 115.617 350.85 116.001 349.554 116.001Z" fill="black"/>
<path d="M350.207 138.657H350.423C350.599 138.657 350.687 138.737 350.687 138.897V147.729C350.687 149.041 350.327 150.081 349.607 150.849C348.903 151.617 347.895 152.001 346.583 152.001H341.207C341.031 152.001 340.911 151.977 340.847 151.929C340.783 151.865 340.751 151.753 340.751 151.593V151.377C340.751 150.881 340.927 150.473 341.279 150.153C341.631 149.833 342.079 149.673 342.623 149.673H344.039L342.095 143.697C341.775 142.737 341.919 142.049 342.527 141.633C342.639 141.553 342.751 141.489 342.863 141.441C342.991 141.377 343.159 141.313 343.367 141.249L343.535 141.177C343.663 141.129 343.759 141.193 343.823 141.369L346.559 149.673H346.799C347.295 149.673 347.671 149.489 347.927 149.121C348.199 148.737 348.335 148.257 348.335 147.681V140.625C348.335 140.177 348.415 139.801 348.575 139.497C348.735 139.177 348.975 138.961 349.295 138.849C349.439 138.785 349.567 138.737 349.679 138.705C349.791 138.673 349.967 138.657 350.207 138.657Z" fill="black"/>
<path d="M70.1119 50.3139C56.154 59.6306 44.7093 72.2459 36.7915 87.0422C28.8736 101.839 24.7271 118.359 24.7191 135.141C24.7112 151.923 28.8421 168.447 36.7458 183.251C44.6496 198.055 56.0824 210.681 70.0314 220.011C83.9804 229.341 100.015 235.087 116.715 236.74C133.415 238.392 150.265 235.901 165.772 229.486C181.28 223.072 194.966 212.932 205.618 199.964C216.27 186.997 223.56 171.603 226.842 155.145L126.766 135.189L70.1119 50.3139Z" fill="#00A0FF"/>
<path d="M226.936 149.772C230.748 130.699 228.818 110.924 221.391 92.9473C213.963 74.9709 201.372 59.6007 185.21 48.7802C169.047 37.9597 150.038 32.1751 130.588 32.1577C111.138 32.1403 92.1192 37.891 75.9372 48.6826L130.5 130.5L226.936 149.772Z" fill="#3876BF"/>
<path d="M169.993 84.18C170.593 84.3533 171.079 84.6533 171.453 85.08C171.826 85.4933 172.013 86.0533 172.013 86.76C172.013 87.76 171.653 88.5867 170.933 89.24C170.213 89.88 169.239 90.2 168.013 90.2C167.146 90.2 166.433 90.0533 165.873 89.76C165.313 89.4533 164.899 89.0867 164.633 88.66C164.366 88.2333 164.233 87.84 164.233 87.48C164.233 87.16 164.339 87 164.553 87C164.619 87 164.673 87.0133 164.713 87.04C164.766 87.0533 164.826 87.1 164.893 87.18C165.239 87.5267 165.646 87.8267 166.113 88.08C166.579 88.3333 167.159 88.46 167.853 88.46C168.533 88.46 169.073 88.3067 169.473 88C169.873 87.68 170.073 87.2467 170.073 86.7C170.073 86.1533 169.879 85.76 169.493 85.52C169.119 85.28 168.659 85.16 168.113 85.16H166.913C166.539 85.16 166.259 85.0933 166.073 84.96C165.899 84.8133 165.813 84.5667 165.813 84.22V83.72C165.813 83.52 165.906 83.42 166.093 83.42H167.953C168.566 83.42 169.006 83.28 169.273 83C169.553 82.72 169.692 82.34 169.692 81.86C169.692 81.3667 169.526 81 169.193 80.76C168.873 80.5067 168.433 80.38 167.873 80.38C167.339 80.38 166.859 80.4533 166.433 80.6C166.019 80.7333 165.619 80.9133 165.233 81.14C165.139 81.22 165.046 81.26 164.953 81.26C164.873 81.26 164.813 81.2 164.773 81.08L164.613 80.66C164.373 79.9533 164.639 79.4533 165.413 79.16C165.759 79.0133 166.146 78.9 166.573 78.82C167.013 78.7267 167.486 78.68 167.993 78.68C168.686 78.68 169.306 78.7933 169.853 79.02C170.413 79.2333 170.853 79.56 171.173 80C171.506 80.44 171.673 80.9933 171.673 81.66C171.673 82.22 171.519 82.7267 171.213 83.18C170.906 83.62 170.499 83.9533 169.993 84.18ZM175.478 88.22V80.78L173.638 81.44C173.478 81.4933 173.398 81.44 173.398 81.28V79.86C173.398 79.6867 173.484 79.56 173.658 79.48L174.798 79.08C174.958 79.0267 175.124 78.98 175.298 78.94C175.471 78.9 175.644 78.88 175.818 78.88H176.218C176.618 78.88 176.918 78.9933 177.118 79.22C177.318 79.4333 177.418 79.7333 177.418 80.12V88.22H178.458C179.244 88.22 179.638 88.5867 179.638 89.32V89.72C179.638 89.9067 179.544 90 179.358 90H173.598C173.451 90 173.378 89.9267 173.378 89.78V88.44C173.378 88.2933 173.451 88.22 173.598 88.22H175.478ZM181.943 87.76C182.277 87.76 182.563 87.8867 182.803 88.14C183.043 88.38 183.163 88.6733 183.163 89.02C183.163 89.3533 183.043 89.6467 182.803 89.9C182.563 90.14 182.277 90.26 181.943 90.26C181.61 90.26 181.323 90.14 181.083 89.9C180.843 89.6467 180.723 89.3533 180.723 89.02C180.723 88.6733 180.843 88.38 181.083 88.14C181.323 87.8867 181.61 87.76 181.943 87.76ZM189.571 80.66H184.551C184.404 80.66 184.331 80.5933 184.331 80.46V79.12C184.331 78.96 184.404 78.88 184.551 78.88H190.451C191.224 78.88 191.611 79.26 191.611 80.02V80.26C191.611 80.46 191.591 80.6267 191.551 80.76C191.524 80.8933 191.464 81.06 191.371 81.26L187.531 89.76C187.464 89.92 187.344 90 187.171 90H185.571C185.518 90 185.478 89.98 185.451 89.94C185.438 89.8867 185.438 89.8333 185.451 89.78L189.571 80.66ZM194.126 90H192.646C192.593 90 192.539 89.9867 192.486 89.96C192.446 89.92 192.446 89.86 192.486 89.78L198.006 79.72C198.299 79.1733 198.659 78.8933 199.086 78.88H200.066C200.186 78.88 200.246 78.9133 200.246 78.98C200.246 79.0467 200.233 79.1133 200.206 79.18L194.346 89.86C194.293 89.9533 194.219 90 194.126 90ZM194.586 81.8C194.279 81.8 194.013 81.6933 193.786 81.48C193.573 81.2533 193.466 80.98 193.466 80.66C193.466 80.34 193.573 80.0733 193.786 79.86C194.013 79.6467 194.279 79.54 194.586 79.54C194.893 79.54 195.153 79.6467 195.366 79.86C195.579 80.0733 195.686 80.34 195.686 80.66C195.686 80.98 195.579 81.2533 195.366 81.48C195.153 81.6933 194.893 81.8 194.586 81.8ZM197.726 90.16C197.406 90.16 197.133 90.0533 196.906 89.84C196.693 89.6133 196.586 89.34 196.586 89.02C196.586 88.7 196.693 88.4333 196.906 88.22C197.133 88.0067 197.406 87.9 197.726 87.9C198.033 87.9 198.293 88.0067 198.506 88.22C198.719 88.4333 198.826 88.7 198.826 89.02C198.826 89.34 198.719 89.6133 198.506 89.84C198.293 90.0533 198.033 90.16 197.726 90.16Z" fill="white"/>
</svg>
