<svg width="437" height="266" viewBox="0 0 437 266" fill="none" xmlns="http://www.w3.org/2000/svg">
<circle cx="279" cy="80.0596" r="13" fill="#00A0FF"/>
<circle cx="279" cy="116.06" r="13" fill="#3876BF"/>
<circle cx="279" cy="152.06" r="12.75" fill="#B6E7E3" stroke="#16110D" stroke-width="0.5"/>
<circle cx="279" cy="188.06" r="12.75" fill="#F3F0CA" stroke="#16110D" stroke-width="0.5"/>
<path d="M310.296 91.1956C309.128 91.1956 308.08 90.9396 307.152 90.4276C306.224 89.9156 305.488 89.1956 304.944 88.2676C304.416 87.3396 304.152 86.2516 304.152 85.0036C304.168 83.9156 304.432 82.9556 304.944 82.1236C305.472 81.2916 306.136 80.7076 306.936 80.3716C307 80.3396 307.056 80.3156 307.104 80.2996C307.168 80.2836 307.224 80.2756 307.272 80.2756C307.368 80.2756 307.448 80.3076 307.512 80.3716C307.592 80.4196 307.624 80.4916 307.608 80.5876C307.608 80.6996 307.568 80.7956 307.488 80.8756C307.184 81.3876 306.928 81.9556 306.72 82.5796C306.512 83.1876 306.408 83.8356 306.408 84.5236C306.392 85.5316 306.56 86.3636 306.912 87.0196C307.264 87.6756 307.736 88.1636 308.328 88.4836C308.936 88.8196 309.592 88.9876 310.296 88.9876C311 88.9876 311.64 88.8196 312.216 88.4836C312.808 88.1636 313.28 87.6756 313.632 87.0196C314 86.3636 314.184 85.5316 314.184 84.5236V74.6836C314.184 73.3716 314.808 72.7156 316.056 72.7156H316.248C316.424 72.7156 316.512 72.7956 316.512 72.9556V84.4516C316.512 85.8596 316.24 87.0676 315.696 88.0756C315.168 89.0836 314.44 89.8516 313.512 90.3796C312.584 90.9236 311.512 91.1956 310.296 91.1956ZM319.659 86.0596H319.467C319.291 86.0596 319.203 85.9796 319.203 85.8196V74.6836C319.203 73.3716 319.827 72.7156 321.075 72.7156H321.267C321.443 72.7156 321.531 72.7956 321.531 72.9556V84.0916C321.531 85.4036 320.907 86.0596 319.659 86.0596ZM332.62 83.7316H335.116V86.0596H332.5C332.436 86.5716 332.34 87.0676 332.212 87.5476C332.1 88.0276 331.932 88.4756 331.708 88.8916C331.356 89.6276 330.844 90.1956 330.172 90.5956C329.5 91.0116 328.756 91.2116 327.94 91.1956C327.444 91.1956 326.988 91.1236 326.572 90.9796C326.172 90.8516 325.82 90.6756 325.516 90.4516C325.26 90.2596 325.044 90.0356 324.868 89.7796C324.708 89.5396 324.588 89.2676 324.508 88.9636C324.476 88.8356 324.492 88.7316 324.556 88.6516C324.62 88.5716 324.708 88.5316 324.82 88.5316C324.884 88.5316 324.948 88.5396 325.012 88.5556C325.076 88.5876 325.132 88.6116 325.18 88.6276C325.532 88.7396 325.86 88.8276 326.164 88.8916C326.484 88.9716 326.94 89.0036 327.532 88.9876C328.332 88.9716 328.948 88.6916 329.38 88.1476C329.828 87.6196 330.1 86.9236 330.196 86.0596H328.276C327.46 86.0596 326.732 85.8676 326.092 85.4836C325.452 85.0996 324.94 84.5716 324.556 83.8996C324.188 83.2276 324.004 82.4676 324.004 81.6196C324.004 80.5956 324.188 79.7316 324.556 79.0276C324.94 78.3076 325.452 77.7636 326.092 77.3956C326.748 77.0276 327.468 76.8436 328.252 76.8436C329.228 76.8436 330.028 77.0676 330.652 77.5156C331.292 77.9636 331.764 78.5796 332.068 79.3636C332.244 79.7956 332.372 80.2996 332.452 80.8756C332.548 81.4516 332.604 82.0436 332.62 82.6516V83.7316ZM328.276 83.7316H330.196C330.228 83.0916 330.228 82.4596 330.196 81.8356C330.18 81.1956 330.068 80.6516 329.86 80.2036C329.716 79.8516 329.508 79.5716 329.236 79.3636C328.964 79.1396 328.636 79.0276 328.252 79.0276C327.66 79.0276 327.204 79.2756 326.884 79.7716C326.58 80.2516 326.428 80.8196 326.428 81.4756C326.428 81.8116 326.492 82.1556 326.62 82.5076C326.764 82.8596 326.972 83.1556 327.244 83.3956C327.516 83.6196 327.86 83.7316 328.276 83.7316ZM347.762 83.7316H348.266V86.0596H347.738C347.146 86.0596 346.618 85.9796 346.154 85.8196C345.69 85.6436 345.33 85.4516 345.074 85.2436C344.674 85.4996 344.242 85.6996 343.778 85.8436C343.314 85.9876 342.666 86.0596 341.834 86.0596H334.874L334.85 83.7316H342.074C342.522 83.7316 342.866 83.6996 343.106 83.6356C343.362 83.5556 343.602 83.4356 343.826 83.2756C343.698 83.0356 343.57 82.7556 343.442 82.4356C343.33 82.0996 343.194 81.6996 343.034 81.2356C342.778 80.5636 342.434 80.0276 342.002 79.6276C341.586 79.2276 341.026 79.0276 340.322 79.0276C339.778 79.0276 339.258 79.1476 338.762 79.3876C338.282 79.6276 337.85 79.9156 337.466 80.2516C337.322 80.3956 337.178 80.4596 337.034 80.4436C336.826 80.4436 336.722 80.3396 336.722 80.1316C336.722 79.6996 336.866 79.2436 337.154 78.7636C337.442 78.2836 337.762 77.9156 338.114 77.6596C338.466 77.3876 338.842 77.1876 339.242 77.0596C339.658 76.9156 340.138 76.8436 340.682 76.8436C341.898 76.8436 342.89 77.1956 343.658 77.8996C344.426 78.6036 345.034 79.6036 345.482 80.8996C345.706 81.5716 345.898 82.1236 346.058 82.5556C346.234 82.9716 346.466 83.2756 346.754 83.4676C347.01 83.6436 347.346 83.7316 347.762 83.7316ZM340.466 87.6196C340.818 87.6196 341.114 87.7396 341.354 87.9796C341.61 88.2196 341.738 88.5236 341.738 88.8916C341.738 89.2436 341.61 89.5476 341.354 89.8036C341.114 90.0596 340.818 90.1876 340.466 90.1876C340.114 90.1876 339.818 90.0596 339.578 89.8036C339.338 89.5476 339.218 89.2436 339.218 88.8916C339.218 88.5236 339.338 88.2196 339.578 87.9796C339.818 87.7396 340.114 87.6196 340.466 87.6196ZM348.695 86.0596H347.999V83.7316H348.743C349.319 83.7316 349.743 83.5556 350.015 83.2036C350.303 82.8356 350.447 82.3476 350.447 81.7396V74.6836C350.447 73.3716 351.071 72.7156 352.319 72.7156H352.535C352.711 72.7156 352.799 72.7956 352.799 72.9556V81.7876C352.799 83.0996 352.439 84.1396 351.719 84.9076C350.999 85.6756 349.991 86.0596 348.695 86.0596ZM355.941 86.0596H355.749C355.573 86.0596 355.485 85.9796 355.485 85.8196V74.6836C355.485 73.3716 356.109 72.7156 357.357 72.7156H357.549C357.725 72.7156 357.813 72.7956 357.813 72.9556V84.0916C357.813 85.4036 357.189 86.0596 355.941 86.0596ZM367.131 74.6116C366.811 74.6116 366.531 74.4996 366.291 74.2756C366.051 74.0356 365.931 73.7396 365.931 73.3876C365.931 73.0356 366.051 72.7476 366.291 72.5236C366.531 72.2836 366.811 72.1636 367.131 72.1636C367.467 72.1636 367.747 72.2836 367.971 72.5236C368.211 72.7476 368.331 73.0356 368.331 73.3876C368.331 73.7396 368.211 74.0356 367.971 74.2756C367.747 74.4996 367.467 74.6116 367.131 74.6116ZM370.035 74.6116C369.699 74.6116 369.411 74.4996 369.171 74.2756C368.947 74.0356 368.835 73.7396 368.835 73.3876C368.835 73.0356 368.947 72.7476 369.171 72.5236C369.411 72.2836 369.699 72.1636 370.035 72.1636C370.371 72.1636 370.651 72.2836 370.875 72.5236C371.115 72.7476 371.235 73.0356 371.235 73.3876C371.235 73.7396 371.115 74.0356 370.875 74.2756C370.651 74.4996 370.371 74.6116 370.035 74.6116ZM374.235 83.7316H375.075V86.0596H374.307C373.075 86.0596 372.099 85.7236 371.379 85.0516C371.011 85.4516 370.563 85.7636 370.035 85.9876C369.523 86.1956 368.947 86.2996 368.307 86.2996C367.523 86.2996 366.803 86.1236 366.147 85.7716C365.507 85.4196 364.995 84.9076 364.611 84.2356C364.227 83.5636 364.035 82.7476 364.035 81.7876C364.035 80.8276 364.227 80.0116 364.611 79.3396C364.995 78.6676 365.507 78.1556 366.147 77.8036C366.803 77.4516 367.523 77.2756 368.307 77.2756H370.203V77.1556C370.203 76.6436 370.371 76.2516 370.707 75.9796C371.059 75.6916 371.507 75.5476 372.051 75.5476H372.267C372.443 75.5476 372.531 75.6276 372.531 75.7876V81.7396C372.531 82.3476 372.675 82.8356 372.963 83.2036C373.251 83.5556 373.675 83.7316 374.235 83.7316ZM368.307 84.0916C368.963 84.0916 369.435 83.8676 369.723 83.4196C370.027 82.9556 370.187 82.4116 370.203 81.7876V79.4836H368.331C367.691 79.4836 367.219 79.7156 366.915 80.1796C366.611 80.6276 366.451 81.1636 366.435 81.7876C366.451 82.4116 366.611 82.9556 366.915 83.4196C367.219 83.8676 367.683 84.0916 368.307 84.0916ZM381.315 83.7316H382.155V86.0596H381.363C380.643 86.0596 380.043 85.9556 379.563 85.7476C379.083 85.5236 378.707 85.2756 378.435 85.0036C378.083 85.3396 377.659 85.6036 377.163 85.7956C376.683 85.9716 376.131 86.0596 375.507 86.0596H374.811V83.7316H375.555C376.131 83.7316 376.555 83.5556 376.827 83.2036C377.115 82.8356 377.259 82.3476 377.259 81.7396V79.2436C377.259 77.9316 377.883 77.2756 379.131 77.2756H379.347C379.523 77.2756 379.611 77.3556 379.611 77.5156V81.7876C379.611 82.5076 379.787 83.0116 380.139 83.2996C380.491 83.5876 380.883 83.7316 381.315 83.7316ZM378.507 87.5716C378.859 87.5716 379.155 87.6916 379.395 87.9316C379.651 88.1876 379.779 88.4996 379.779 88.8676C379.779 89.2196 379.651 89.5236 379.395 89.7796C379.155 90.0356 378.859 90.1636 378.507 90.1636C378.155 90.1636 377.859 90.0356 377.619 89.7796C377.379 89.5236 377.259 89.2196 377.259 88.8676C377.259 88.4996 377.379 88.1876 377.619 87.9316C377.859 87.6916 378.155 87.5716 378.507 87.5716ZM385.562 75.8356C385.21 75.8356 384.906 75.7156 384.65 75.4756C384.41 75.2196 384.29 74.9156 384.29 74.5636C384.29 74.1956 384.41 73.8916 384.65 73.6516C384.906 73.3956 385.21 73.2676 385.562 73.2676C385.914 73.2676 386.21 73.3956 386.45 73.6516C386.69 73.8916 386.81 74.1956 386.81 74.5636C386.81 74.9156 386.69 75.2196 386.45 75.4756C386.21 75.7156 385.914 75.8356 385.562 75.8356ZM388.37 83.7316H389.21V86.0596H388.418C387.698 86.0596 387.098 85.9556 386.618 85.7476C386.138 85.5236 385.762 85.2756 385.49 85.0036C385.138 85.3396 384.714 85.6036 384.218 85.7956C383.738 85.9716 383.186 86.0596 382.562 86.0596H381.866V83.7316H382.61C383.186 83.7316 383.61 83.5556 383.882 83.2036C384.17 82.8356 384.314 82.3476 384.314 81.7396V79.2436C384.314 77.9316 384.938 77.2756 386.186 77.2756H386.402C386.578 77.2756 386.666 77.3556 386.666 77.5156V81.7876C386.666 82.5076 386.842 83.0116 387.194 83.2996C387.546 83.5876 387.938 83.7316 388.37 83.7316ZM396.097 76.8436C396.865 76.8436 397.513 77.0036 398.041 77.3236C398.585 77.6276 399.017 78.0356 399.337 78.5476C399.673 79.0436 399.913 79.5956 400.057 80.2036C400.201 80.7956 400.273 81.3716 400.273 81.9316C400.273 83.3556 399.905 84.4436 399.169 85.1956C398.433 85.9316 397.425 86.2996 396.145 86.2996C395.409 86.2996 394.713 86.2116 394.057 86.0356C393.417 85.8596 392.745 85.5876 392.041 85.2196C391.657 85.5716 391.233 85.8036 390.769 85.9156C390.305 86.0276 389.801 86.0836 389.257 86.0836H388.921V83.7316H389.185C389.601 83.7316 389.929 83.6756 390.169 83.5636C390.425 83.4516 390.649 83.2356 390.841 82.9156C391.033 82.5956 391.265 82.1396 391.537 81.5476C391.953 80.6996 392.361 79.9236 392.761 79.2196C393.161 78.4996 393.625 77.9236 394.153 77.4916C394.681 77.0596 395.329 76.8436 396.097 76.8436ZM396.241 84.0436C396.705 84.0116 397.089 83.8516 397.393 83.5636C397.697 83.2756 397.849 82.7236 397.849 81.9076C397.849 80.9316 397.689 80.2116 397.369 79.7476C397.065 79.2676 396.673 79.0276 396.193 79.0276C395.761 79.0276 395.361 79.3476 394.993 79.9876C394.625 80.6116 394.257 81.3476 393.889 82.1956C393.777 82.4356 393.673 82.6436 393.577 82.8196C393.497 82.9796 393.417 83.1236 393.337 83.2516C393.977 83.5876 394.537 83.8116 395.017 83.9236C395.513 84.0196 395.921 84.0596 396.241 84.0436ZM326.736 112.844C327.744 112.844 328.608 113.052 329.328 113.468C330.064 113.868 330.632 114.428 331.032 115.148C331.432 115.852 331.632 116.668 331.632 117.596C331.632 118.524 331.44 119.324 331.056 119.996C330.672 120.668 330.16 121.18 329.52 121.532C328.88 121.884 328.176 122.06 327.408 122.06H318.456C318.104 122.06 317.768 122.028 317.448 121.964C317.144 121.9 316.872 121.82 316.632 121.724C316.392 123.468 315.712 124.812 314.592 125.756C313.472 126.716 312.104 127.196 310.488 127.196C309.32 127.196 308.272 126.94 307.344 126.428C306.416 125.916 305.68 125.196 305.136 124.268C304.608 123.34 304.344 122.252 304.344 121.004C304.36 119.916 304.624 118.956 305.136 118.124C305.664 117.292 306.328 116.708 307.128 116.372C307.192 116.34 307.248 116.316 307.296 116.3C307.36 116.284 307.416 116.276 307.464 116.276C307.56 116.276 307.64 116.308 307.704 116.372C307.784 116.42 307.816 116.492 307.8 116.588C307.8 116.7 307.76 116.796 307.68 116.876C307.376 117.388 307.12 117.956 306.912 118.58C306.704 119.188 306.6 119.836 306.6 120.524C306.584 121.532 306.752 122.364 307.104 123.02C307.456 123.676 307.928 124.164 308.52 124.484C309.128 124.82 309.784 124.988 310.488 124.988C311.192 124.988 311.832 124.82 312.408 124.484C313 124.164 313.472 123.676 313.824 123.02C314.192 122.364 314.376 121.532 314.376 120.524V115.244C314.376 113.932 315 113.276 316.248 113.276H316.44C316.616 113.276 316.704 113.356 316.704 113.516V117.788C316.72 118.508 316.896 119.012 317.232 119.3C317.584 119.588 317.976 119.732 318.408 119.732C318.824 118.452 319.424 117.292 320.208 116.252C320.992 115.212 321.928 114.388 323.016 113.78C324.12 113.156 325.36 112.844 326.736 112.844ZM320.976 119.732H327.264C327.92 119.732 328.416 119.5 328.752 119.036C329.088 118.572 329.256 118.052 329.256 117.476C329.24 116.628 328.96 116.012 328.416 115.628C327.888 115.228 327.28 115.028 326.592 115.028C325.328 115.028 324.2 115.468 323.208 116.348C322.232 117.212 321.488 118.34 320.976 119.732ZM339.029 122.06H338.261C336.949 122.06 335.933 121.676 335.213 120.908C334.509 120.14 334.157 119.1 334.157 117.788V110.684C334.157 109.372 334.781 108.716 336.029 108.716H336.221C336.397 108.716 336.485 108.796 336.485 108.956V117.74C336.485 118.348 336.629 118.836 336.917 119.204C337.205 119.556 337.629 119.732 338.189 119.732H339.029V122.06ZM344.573 108.812C344.925 108.812 345.221 108.94 345.461 109.196C345.701 109.436 345.821 109.74 345.821 110.108C345.821 110.46 345.701 110.764 345.461 111.02C345.221 111.276 344.925 111.404 344.573 111.404C344.221 111.404 343.917 111.276 343.661 111.02C343.421 110.764 343.301 110.46 343.301 110.108C343.301 109.74 343.421 109.436 343.661 109.196C343.917 108.94 344.221 108.812 344.573 108.812ZM349.349 122.06H338.765L338.741 119.732H348.029C347.821 119.524 347.645 119.252 347.501 118.916C347.373 118.564 347.197 118.06 346.973 117.404C346.685 116.652 346.325 116.068 345.893 115.652C345.461 115.236 344.893 115.028 344.189 115.028C343.645 115.028 343.125 115.148 342.629 115.388C342.149 115.628 341.717 115.916 341.333 116.252C341.189 116.396 341.037 116.46 340.877 116.444C340.685 116.444 340.589 116.34 340.589 116.132C340.589 115.7 340.733 115.244 341.021 114.764C341.309 114.284 341.629 113.916 341.981 113.66C342.333 113.388 342.709 113.188 343.109 113.06C343.525 112.916 344.005 112.844 344.549 112.844C345.765 112.844 346.765 113.204 347.549 113.924C348.349 114.644 348.965 115.668 349.397 116.996C349.605 117.684 349.773 118.188 349.901 118.508C350.045 118.828 350.229 119.116 350.453 119.372C350.645 119.58 350.901 119.7 351.221 119.732C351.333 119.748 351.405 119.764 351.437 119.78C351.485 119.796 351.509 119.868 351.509 119.996C351.509 120.588 351.325 121.084 350.957 121.484C350.589 121.868 350.053 122.06 349.349 122.06ZM365.706 111.428C365.37 111.428 365.082 111.316 364.842 111.092C364.618 110.852 364.506 110.556 364.506 110.204C364.506 109.868 364.618 109.588 364.842 109.364C365.082 109.124 365.37 109.004 365.706 109.004C366.026 109.004 366.306 109.124 366.546 109.364C366.786 109.588 366.906 109.868 366.906 110.204C366.906 110.556 366.786 110.852 366.546 111.092C366.306 111.316 366.026 111.428 365.706 111.428ZM368.586 111.428C368.25 111.428 367.962 111.316 367.722 111.092C367.498 110.852 367.386 110.556 367.386 110.204C367.386 109.868 367.498 109.588 367.722 109.364C367.962 109.124 368.25 109.004 368.586 109.004C368.922 109.004 369.202 109.124 369.426 109.364C369.666 109.588 369.786 109.868 369.786 110.204C369.786 110.556 369.666 110.852 369.426 111.092C369.202 111.316 368.922 111.428 368.586 111.428ZM364.434 127.196C362.946 127.196 361.674 126.9 360.618 126.308C359.578 125.716 358.786 124.94 358.242 123.98C357.698 123.036 357.434 122.028 357.45 120.956C357.466 119.884 357.73 118.932 358.242 118.1C358.77 117.268 359.402 116.668 360.138 116.3C360.266 116.236 360.378 116.204 360.474 116.204C360.698 116.204 360.802 116.308 360.786 116.516C360.786 116.628 360.746 116.74 360.666 116.852C360.33 117.428 360.082 118.036 359.922 118.676C359.762 119.3 359.69 119.916 359.706 120.524C359.722 121.932 360.162 123.028 361.026 123.812C361.906 124.596 363.042 124.988 364.434 124.988C365.57 124.988 366.514 124.732 367.266 124.22C368.018 123.708 368.53 122.988 368.802 122.06H367.122C366.306 122.06 365.57 121.868 364.914 121.484C364.274 121.1 363.77 120.572 363.402 119.9C363.034 119.228 362.85 118.468 362.85 117.62C362.85 116.596 363.042 115.732 363.426 115.028C363.81 114.308 364.322 113.764 364.962 113.396C365.618 113.028 366.338 112.844 367.122 112.844C368.098 112.844 368.89 113.068 369.498 113.516C370.122 113.964 370.586 114.58 370.89 115.364C371.114 115.908 371.274 116.58 371.37 117.38C371.466 118.18 371.498 118.964 371.466 119.732H373.938V122.06H371.226C370.826 123.724 370.042 124.996 368.874 125.876C367.722 126.772 366.242 127.212 364.434 127.196ZM367.146 119.732H369.018C369.034 119.668 369.042 119.604 369.042 119.54C369.042 119.476 369.05 119.404 369.066 119.324C369.082 118.812 369.066 118.26 369.018 117.668C368.97 117.06 368.874 116.58 368.73 116.228C368.602 115.876 368.41 115.588 368.154 115.364C367.898 115.14 367.562 115.028 367.146 115.028C366.522 115.028 366.05 115.284 365.73 115.796C365.41 116.292 365.25 116.868 365.25 117.524C365.25 117.86 365.314 118.196 365.442 118.532C365.586 118.868 365.802 119.156 366.09 119.396C366.378 119.62 366.73 119.732 367.146 119.732ZM380.12 119.732H380.96V122.06H380.192C379.456 122.06 378.848 121.956 378.368 121.748C377.904 121.524 377.536 121.276 377.264 121.004C376.528 121.708 375.544 122.06 374.312 122.06H373.615V119.732H374.384C374.944 119.732 375.368 119.556 375.656 119.204C375.944 118.836 376.088 118.348 376.088 117.74V115.244C376.088 113.932 376.704 113.276 377.936 113.276H378.152C378.328 113.276 378.416 113.356 378.416 113.516V117.788C378.416 118.508 378.592 119.012 378.944 119.3C379.296 119.588 379.688 119.732 380.12 119.732ZM374.72 123.644C375.056 123.644 375.336 123.756 375.56 123.98C375.8 124.22 375.92 124.516 375.92 124.868C375.92 125.22 375.8 125.508 375.56 125.732C375.336 125.972 375.056 126.092 374.72 126.092C374.384 126.092 374.096 125.972 373.856 125.732C373.631 125.508 373.519 125.22 373.519 124.868C373.519 124.516 373.631 124.22 373.856 123.98C374.096 123.756 374.384 123.644 374.72 123.644ZM377.624 123.644C377.944 123.644 378.216 123.756 378.44 123.98C378.68 124.22 378.8 124.516 378.8 124.868C378.8 125.22 378.68 125.508 378.44 125.732C378.216 125.972 377.944 126.092 377.624 126.092C377.288 126.092 377 125.972 376.76 125.732C376.52 125.508 376.4 125.22 376.4 124.868C376.4 124.516 376.52 124.22 376.76 123.98C377 123.756 377.288 123.644 377.624 123.644ZM387.198 119.732H388.038V122.06H387.246C386.526 122.06 385.926 121.956 385.446 121.748C384.966 121.524 384.59 121.276 384.318 121.004C383.966 121.34 383.542 121.604 383.046 121.796C382.566 121.972 382.014 122.06 381.39 122.06H380.694V119.732H381.438C382.014 119.732 382.438 119.556 382.71 119.204C382.998 118.836 383.142 118.348 383.142 117.74V115.244C383.142 113.932 383.766 113.276 385.014 113.276H385.23C385.406 113.276 385.494 113.356 385.494 113.516V117.788C385.494 118.508 385.67 119.012 386.022 119.3C386.374 119.588 386.766 119.732 387.198 119.732ZM384.39 123.572C384.742 123.572 385.038 123.692 385.278 123.932C385.534 124.188 385.662 124.5 385.662 124.868C385.662 125.22 385.534 125.524 385.278 125.78C385.038 126.036 384.742 126.164 384.39 126.164C384.038 126.164 383.742 126.036 383.502 125.78C383.262 125.524 383.142 125.22 383.142 124.868C383.142 124.5 383.262 124.188 383.502 123.932C383.742 123.692 384.038 123.572 384.39 123.572ZM404.885 119.732H405.725V122.06H404.957C404.237 122.06 403.629 121.948 403.133 121.724C402.637 121.5 402.229 121.228 401.909 120.908C401.109 121.676 400.125 122.06 398.957 122.06H387.749V119.732H390.197V110.684C390.197 109.372 390.821 108.716 392.069 108.716H392.261C392.437 108.716 392.525 108.796 392.525 108.956V115.508C393.245 114.708 394.093 114.068 395.069 113.588C396.045 113.092 397.117 112.844 398.285 112.844C399.277 112.844 400.141 113.044 400.877 113.444C401.613 113.844 402.181 114.404 402.581 115.124C402.981 115.828 403.181 116.644 403.181 117.572V117.836C403.197 118.524 403.373 119.012 403.709 119.3C404.061 119.588 404.453 119.732 404.885 119.732ZM392.525 119.732H398.813C399.469 119.732 399.965 119.5 400.301 119.036C400.637 118.572 400.805 118.052 400.805 117.476C400.789 116.628 400.517 116.012 399.989 115.628C399.461 115.228 398.845 115.028 398.141 115.028C396.877 115.028 395.749 115.468 394.757 116.348C393.781 117.212 393.037 118.34 392.525 119.732ZM407.58 111.812C407.26 111.812 406.98 111.7 406.74 111.476C406.5 111.236 406.38 110.94 406.38 110.588C406.38 110.236 406.5 109.948 406.74 109.724C406.98 109.484 407.26 109.364 407.58 109.364C407.916 109.364 408.196 109.484 408.42 109.724C408.66 109.948 408.78 110.236 408.78 110.588C408.78 110.94 408.66 111.236 408.42 111.476C408.196 111.7 407.916 111.812 407.58 111.812ZM410.484 111.812C410.148 111.812 409.86 111.7 409.62 111.476C409.396 111.236 409.284 110.94 409.284 110.588C409.284 110.236 409.396 109.948 409.62 109.724C409.86 109.484 410.148 109.364 410.484 109.364C410.82 109.364 411.1 109.484 411.324 109.724C411.564 109.948 411.684 110.236 411.684 110.588C411.684 110.94 411.564 111.236 411.324 111.476C411.1 111.7 410.82 111.812 410.484 111.812ZM406.164 122.06H405.468V119.732H406.212C406.788 119.732 407.212 119.556 407.484 119.204C407.772 118.836 407.916 118.348 407.916 117.74V115.244C407.916 113.932 408.54 113.276 409.788 113.276H410.004C410.18 113.276 410.268 113.356 410.268 113.516V117.788C410.268 119.1 409.908 120.14 409.188 120.908C408.468 121.676 407.46 122.06 406.164 122.06ZM307.248 146.612C306.928 146.612 306.648 146.5 306.408 146.276C306.168 146.036 306.048 145.74 306.048 145.388C306.048 145.036 306.168 144.748 306.408 144.524C306.648 144.284 306.928 144.164 307.248 144.164C307.584 144.164 307.864 144.284 308.088 144.524C308.328 144.748 308.448 145.036 308.448 145.388C308.448 145.74 308.328 146.036 308.088 146.276C307.864 146.5 307.584 146.612 307.248 146.612ZM310.152 146.612C309.816 146.612 309.528 146.5 309.288 146.276C309.064 146.036 308.952 145.74 308.952 145.388C308.952 145.036 309.064 144.748 309.288 144.524C309.528 144.284 309.816 144.164 310.152 144.164C310.488 144.164 310.768 144.284 310.992 144.524C311.232 144.748 311.352 145.036 311.352 145.388C311.352 145.74 311.232 146.036 310.992 146.276C310.768 146.5 310.488 146.612 310.152 146.612ZM314.352 155.732H315.192V158.06H314.424C313.192 158.06 312.216 157.724 311.496 157.052C311.128 157.452 310.68 157.764 310.152 157.988C309.64 158.196 309.064 158.3 308.424 158.3C307.64 158.3 306.92 158.124 306.264 157.772C305.624 157.42 305.112 156.908 304.728 156.236C304.344 155.564 304.152 154.748 304.152 153.788C304.152 152.828 304.344 152.012 304.728 151.34C305.112 150.668 305.624 150.156 306.264 149.804C306.92 149.452 307.64 149.276 308.424 149.276H310.32V149.156C310.32 148.644 310.488 148.252 310.824 147.98C311.176 147.692 311.624 147.548 312.168 147.548H312.384C312.56 147.548 312.648 147.628 312.648 147.788V153.74C312.648 154.348 312.792 154.836 313.08 155.204C313.368 155.556 313.792 155.732 314.352 155.732ZM308.424 156.092C309.08 156.092 309.552 155.868 309.84 155.42C310.144 154.956 310.304 154.412 310.32 153.788V151.484H308.448C307.808 151.484 307.336 151.716 307.032 152.18C306.728 152.628 306.568 153.164 306.552 153.788C306.568 154.412 306.728 154.956 307.032 155.42C307.336 155.868 307.8 156.092 308.424 156.092ZM321.433 155.732H322.273V158.06H321.481C320.761 158.06 320.161 157.956 319.681 157.748C319.201 157.524 318.825 157.276 318.553 157.004C318.201 157.34 317.777 157.604 317.281 157.796C316.801 157.972 316.249 158.06 315.625 158.06H314.929V155.732H315.673C316.249 155.732 316.673 155.556 316.945 155.204C317.233 154.836 317.377 154.348 317.377 153.74V146.684C317.377 145.372 318.001 144.716 319.249 144.716H319.465C319.641 144.716 319.729 144.796 319.729 144.956V153.788C319.729 154.508 319.905 155.012 320.257 155.3C320.609 155.588 321.001 155.732 321.433 155.732ZM325.991 146.348H326.855C327.143 146.348 327.359 146.428 327.503 146.588C327.663 146.732 327.743 146.916 327.743 147.14V147.26C327.743 147.372 327.679 147.428 327.551 147.428H324.839C324.583 147.428 324.375 147.452 324.215 147.5C324.071 147.548 323.935 147.596 323.807 147.644C323.711 147.692 323.655 147.716 323.639 147.716C323.623 147.716 323.591 147.676 323.543 147.596C323.495 147.516 323.471 147.412 323.471 147.284C323.487 147.06 323.567 146.876 323.711 146.732C323.855 146.588 324.031 146.484 324.239 146.42C324.063 146.1 323.975 145.772 323.975 145.436C323.975 144.908 324.143 144.468 324.479 144.116C324.831 143.748 325.263 143.556 325.775 143.54C326.207 143.524 326.559 143.636 326.831 143.876C327.103 144.116 327.239 144.396 327.239 144.716C327.239 144.876 327.199 144.956 327.119 144.956C327.103 144.956 326.999 144.908 326.807 144.812C326.663 144.732 326.535 144.676 326.423 144.644C326.311 144.612 326.175 144.596 326.015 144.596C325.727 144.596 325.503 144.676 325.343 144.836C325.183 144.996 325.103 145.196 325.103 145.436C325.103 145.692 325.183 145.908 325.343 146.084C325.519 146.26 325.735 146.348 325.991 146.348ZM326.303 149.276H326.519C326.695 149.276 326.783 149.356 326.783 149.516V153.788C326.783 155.1 326.423 156.14 325.703 156.908C324.983 157.676 323.975 158.06 322.679 158.06H321.983V155.732H322.727C323.303 155.732 323.727 155.556 323.999 155.204C324.287 154.836 324.431 154.348 324.431 153.74V151.244C324.431 149.932 325.055 149.276 326.303 149.276ZM334.622 158.06H333.854C332.542 158.06 331.526 157.676 330.806 156.908C330.102 156.14 329.75 155.1 329.75 153.788V146.684C329.75 145.372 330.374 144.716 331.622 144.716H331.814C331.99 144.716 332.078 144.796 332.078 144.956V153.74C332.078 154.348 332.222 154.836 332.51 155.204C332.798 155.556 333.222 155.732 333.782 155.732H334.622V158.06ZM339.687 158.06H334.335V155.732H338.751L336.999 153.428C336.791 153.188 336.655 152.948 336.591 152.708C336.543 152.452 336.519 152.212 336.519 151.988C336.503 151.364 336.735 150.82 337.215 150.356C337.711 149.876 338.335 149.508 339.087 149.252C339.855 148.98 340.647 148.844 341.463 148.844C342.279 148.828 343.063 148.956 343.815 149.228C344.583 149.5 345.215 149.876 345.711 150.356C346.207 150.82 346.447 151.364 346.431 151.988C346.415 152.212 346.375 152.444 346.311 152.684C346.247 152.924 346.119 153.172 345.927 153.428L344.175 155.732H348.759V158.06H343.239C342.839 158.06 342.495 158.028 342.207 157.964C341.935 157.884 341.687 157.772 341.463 157.628C341.015 157.916 340.423 158.06 339.687 158.06ZM339.567 153.068L341.343 155.372C341.423 155.484 341.503 155.484 341.583 155.372L343.359 153.068C343.439 152.972 343.511 152.86 343.575 152.732C343.639 152.604 343.671 152.476 343.671 152.348C343.671 152.06 343.487 151.772 343.119 151.484C342.767 151.18 342.215 151.028 341.463 151.028C340.727 151.028 340.175 151.18 339.807 151.484C339.439 151.772 339.255 152.06 339.255 152.348C339.255 152.476 339.287 152.604 339.351 152.732C339.431 152.86 339.503 152.972 339.567 153.068ZM349.187 158.06H348.491V155.732H349.235C349.811 155.732 350.235 155.556 350.507 155.204C350.795 154.836 350.939 154.348 350.939 153.74V146.684C350.939 145.372 351.563 144.716 352.811 144.716H353.027C353.203 144.716 353.291 144.796 353.291 144.956V153.788C353.291 155.1 352.931 156.14 352.211 156.908C351.491 157.676 350.483 158.06 349.187 158.06ZM356.433 158.06H356.241C356.065 158.06 355.977 157.98 355.977 157.82V146.684C355.977 145.372 356.601 144.716 357.849 144.716H358.041C358.217 144.716 358.305 144.796 358.305 144.956V156.092C358.305 157.404 357.681 158.06 356.433 158.06ZM368.199 158.06H364.863C364.687 158.06 364.567 158.036 364.503 157.988C364.439 157.94 364.407 157.828 364.407 157.652V157.436C364.407 156.94 364.583 156.532 364.935 156.212C365.303 155.892 365.799 155.732 366.423 155.732H368.151C368.535 155.732 368.863 155.62 369.135 155.396C369.407 155.172 369.615 154.884 369.759 154.532C369.919 154.18 369.999 153.828 369.999 153.476C369.999 152.74 369.823 152.156 369.471 151.724C369.119 151.276 368.623 151.044 367.983 151.028C367.663 151.028 367.391 151.06 367.167 151.124C366.959 151.172 366.735 151.244 366.495 151.34C366.399 151.372 366.327 151.404 366.279 151.436C366.231 151.468 366.167 151.476 366.087 151.46C365.959 151.444 365.871 151.372 365.823 151.244C365.775 151.116 365.759 150.964 365.775 150.788C365.823 150.292 366.087 149.852 366.567 149.468C367.111 149.02 367.767 148.812 368.535 148.844C369.719 148.86 370.655 149.308 371.343 150.188C372.047 151.052 372.399 152.18 372.399 153.572C372.399 154.452 372.207 155.236 371.823 155.924C371.439 156.596 370.927 157.124 370.287 157.508C369.663 157.876 368.967 158.06 368.199 158.06ZM375.347 158.06H375.155C374.979 158.06 374.891 157.98 374.891 157.82V146.684C374.891 145.372 375.515 144.716 376.763 144.716H376.955C377.131 144.716 377.219 144.796 377.219 144.956V156.092C377.219 157.404 376.595 158.06 375.347 158.06ZM385.331 155.732H386.171V158.06H385.379C385.027 158.06 384.707 158.036 384.419 157.988C384.131 157.924 383.867 157.844 383.627 157.748C383.595 159.476 383.243 160.82 382.571 161.78C381.899 162.74 380.891 163.212 379.547 163.196C379.131 163.196 378.739 163.124 378.371 162.98C378.003 162.852 377.659 162.676 377.339 162.452C377.115 162.26 376.923 162.036 376.763 161.78C376.603 161.524 376.499 161.244 376.451 160.94C376.435 160.828 376.459 160.732 376.523 160.652C376.587 160.572 376.675 160.532 376.787 160.532C376.851 160.532 376.915 160.54 376.979 160.556C377.043 160.588 377.099 160.612 377.147 160.628C377.515 160.756 377.851 160.852 378.155 160.916C378.443 160.98 378.755 161.004 379.091 160.988C379.875 160.956 380.435 160.684 380.771 160.172C381.107 159.676 381.275 158.948 381.275 157.988V151.244C381.275 149.932 381.899 149.276 383.147 149.276H383.363C383.539 149.276 383.627 149.356 383.627 149.516V153.788C383.627 154.508 383.803 155.012 384.155 155.3C384.507 155.588 384.899 155.732 385.331 155.732ZM392.354 147.404C392.002 147.404 391.698 147.276 391.442 147.02C391.202 146.764 391.082 146.46 391.082 146.108C391.082 145.74 391.202 145.436 391.442 145.196C391.698 144.94 392.002 144.812 392.354 144.812C392.706 144.812 393.002 144.94 393.242 145.196C393.482 145.436 393.602 145.74 393.602 146.108C393.602 146.46 393.482 146.764 393.242 147.02C393.002 147.276 392.706 147.404 392.354 147.404ZM392.306 148.844C393.122 148.844 393.85 149.036 394.49 149.42C395.13 149.804 395.634 150.34 396.002 151.028C396.386 151.716 396.578 152.524 396.578 153.452C396.578 154.364 396.394 155.164 396.026 155.852C395.658 156.54 395.154 157.076 394.514 157.46C393.89 157.844 393.178 158.044 392.378 158.06H385.874V155.732H388.61C388.418 155.412 388.274 155.052 388.178 154.652C388.098 154.252 388.05 153.852 388.034 153.452C388.034 152.524 388.218 151.716 388.586 151.028C388.97 150.34 389.482 149.804 390.122 149.42C390.778 149.036 391.506 148.844 392.306 148.844ZM392.306 155.732C392.754 155.732 393.114 155.612 393.386 155.372C393.658 155.116 393.858 154.804 393.986 154.436C394.114 154.068 394.178 153.724 394.178 153.404C394.178 153.068 394.114 152.716 393.986 152.348C393.858 151.98 393.658 151.668 393.386 151.412C393.114 151.156 392.754 151.028 392.306 151.028C391.874 151.028 391.514 151.156 391.226 151.412C390.954 151.668 390.754 151.98 390.626 152.348C390.498 152.716 390.434 153.068 390.434 153.404C390.434 153.724 390.498 154.068 390.626 154.436C390.754 154.804 390.954 155.116 391.226 155.372C391.514 155.612 391.874 155.732 392.306 155.732ZM399.534 158.06H399.342C399.166 158.06 399.078 157.98 399.078 157.82V146.684C399.078 145.372 399.702 144.716 400.95 144.716H401.142C401.318 144.716 401.406 144.796 401.406 144.956V156.092C401.406 157.404 400.782 158.06 399.534 158.06ZM417.205 155.732H418.045V158.06H417.277C416.541 158.06 415.917 157.948 415.405 157.724C414.909 157.484 414.509 157.204 414.205 156.884C413.389 157.668 412.421 158.06 411.301 158.06H407.965C407.789 158.06 407.669 158.036 407.605 157.988C407.541 157.94 407.509 157.828 407.509 157.652V157.436C407.509 156.94 407.685 156.532 408.037 156.212C408.405 155.892 408.901 155.732 409.525 155.732H411.253C411.637 155.732 411.965 155.62 412.237 155.396C412.509 155.172 412.717 154.884 412.861 154.532C413.021 154.18 413.101 153.828 413.101 153.476C413.101 152.74 412.925 152.156 412.573 151.724C412.221 151.276 411.725 151.044 411.085 151.028C410.765 151.028 410.493 151.06 410.269 151.124C410.061 151.172 409.837 151.244 409.597 151.34C409.501 151.372 409.429 151.404 409.381 151.436C409.333 151.468 409.269 151.476 409.189 151.46C409.061 151.444 408.973 151.372 408.925 151.244C408.877 151.116 408.861 150.964 408.877 150.788C408.925 150.292 409.189 149.852 409.669 149.468C410.213 149.02 410.869 148.812 411.637 148.844C412.821 148.86 413.757 149.308 414.445 150.188C415.149 151.052 415.501 152.18 415.501 153.572V153.836C415.517 154.524 415.693 155.012 416.029 155.3C416.381 155.588 416.773 155.732 417.205 155.732ZM423.604 144.812C423.956 144.812 424.252 144.94 424.492 145.196C424.732 145.436 424.852 145.74 424.852 146.108C424.852 146.46 424.732 146.764 424.492 147.02C424.252 147.276 423.956 147.404 423.604 147.404C423.252 147.404 422.948 147.276 422.692 147.02C422.452 146.764 422.332 146.46 422.332 146.108C422.332 145.74 422.452 145.436 422.692 145.196C422.948 144.94 423.252 144.812 423.604 144.812ZM428.38 158.06H417.796L417.772 155.732H427.06C426.852 155.524 426.676 155.252 426.532 154.916C426.404 154.564 426.228 154.06 426.004 153.404C425.716 152.652 425.356 152.068 424.924 151.652C424.492 151.236 423.924 151.028 423.22 151.028C422.676 151.028 422.156 151.148 421.66 151.388C421.18 151.628 420.748 151.916 420.364 152.252C420.22 152.396 420.068 152.46 419.908 152.444C419.716 152.444 419.62 152.34 419.62 152.132C419.62 151.7 419.764 151.244 420.052 150.764C420.34 150.284 420.66 149.916 421.012 149.66C421.364 149.388 421.74 149.188 422.14 149.06C422.556 148.916 423.036 148.844 423.58 148.844C424.796 148.844 425.796 149.204 426.58 149.924C427.38 150.644 427.996 151.668 428.428 152.996C428.636 153.684 428.804 154.188 428.932 154.508C429.076 154.828 429.26 155.116 429.484 155.372C429.676 155.58 429.932 155.7 430.252 155.732C430.364 155.748 430.436 155.764 430.468 155.78C430.516 155.796 430.54 155.868 430.54 155.996C430.54 156.588 430.356 157.084 429.988 157.484C429.62 157.868 429.084 158.06 428.38 158.06ZM433.425 158.06H433.233C433.057 158.06 432.969 157.98 432.969 157.82V146.684C432.969 145.372 433.593 144.716 434.841 144.716H435.033C435.209 144.716 435.297 144.796 435.297 144.956V156.092C435.297 157.404 434.673 158.06 433.425 158.06ZM314.52 191.732H318.672L318.648 193.916L318.048 194.012C317.904 194.94 317.544 195.796 316.968 196.58C316.392 197.364 315.616 197.996 314.64 198.476C313.664 198.956 312.504 199.196 311.16 199.196C309.672 199.196 308.4 198.9 307.344 198.308C306.304 197.716 305.512 196.94 304.968 195.98C304.44 195.036 304.184 194.028 304.2 192.956C304.216 191.884 304.48 190.932 304.992 190.1C305.52 189.268 306.152 188.668 306.888 188.3C307.016 188.236 307.128 188.204 307.224 188.204C307.448 188.204 307.552 188.308 307.536 188.516C307.536 188.628 307.496 188.74 307.416 188.852C307.08 189.428 306.832 190.036 306.672 190.676C306.512 191.3 306.44 191.916 306.456 192.524C306.472 193.932 306.912 195.028 307.776 195.812C308.656 196.596 309.784 196.988 311.16 196.988C312.28 196.988 313.232 196.732 314.016 196.22C314.8 195.708 315.344 194.988 315.648 194.06H312.96C312.8 194.06 312.688 194.036 312.624 193.988C312.56 193.94 312.528 193.828 312.528 193.652V193.46C312.528 192.948 312.704 192.532 313.056 192.212C313.424 191.892 313.912 191.732 314.52 191.732ZM309.696 200.564C310.032 200.564 310.312 200.676 310.536 200.9C310.776 201.14 310.896 201.436 310.896 201.788C310.896 202.14 310.776 202.428 310.536 202.652C310.312 202.892 310.032 203.012 309.696 203.012C309.36 203.012 309.072 202.892 308.832 202.652C308.608 202.428 308.496 202.14 308.496 201.788C308.496 201.436 308.608 201.14 308.832 200.9C309.072 200.676 309.36 200.564 309.696 200.564ZM312.6 200.564C312.92 200.564 313.192 200.676 313.416 200.9C313.656 201.14 313.776 201.436 313.776 201.788C313.776 202.14 313.656 202.428 313.416 202.652C313.192 202.892 312.92 203.012 312.6 203.012C312.264 203.012 311.976 202.892 311.736 202.652C311.496 202.428 311.376 202.14 311.376 201.788C311.376 201.436 311.496 201.14 311.736 200.9C311.976 200.676 312.264 200.564 312.6 200.564ZM322.311 183.428C321.975 183.428 321.687 183.316 321.447 183.092C321.223 182.852 321.111 182.556 321.111 182.204C321.111 181.868 321.223 181.588 321.447 181.364C321.687 181.124 321.975 181.004 322.311 181.004C322.647 181.004 322.927 181.124 323.151 181.364C323.391 181.588 323.511 181.868 323.511 182.204C323.511 182.556 323.391 182.852 323.151 183.092C322.927 183.316 322.647 183.428 322.311 183.428ZM325.191 183.428C324.871 183.428 324.591 183.316 324.351 183.092C324.111 182.852 323.991 182.556 323.991 182.204C323.991 181.868 324.111 181.588 324.351 181.364C324.591 181.124 324.871 181.004 325.191 181.004C325.527 181.004 325.807 181.124 326.031 181.364C326.271 181.588 326.391 181.868 326.391 182.204C326.391 182.556 326.271 182.852 326.031 183.092C325.807 183.316 325.527 183.428 325.191 183.428ZM323.751 184.844C324.567 184.844 325.295 185.036 325.935 185.42C326.575 185.804 327.079 186.34 327.447 187.028C327.831 187.716 328.023 188.524 328.023 189.452C328.023 190.364 327.839 191.164 327.471 191.852C327.103 192.54 326.599 193.076 325.959 193.46C325.335 193.844 324.623 194.044 323.823 194.06H317.319V191.732H320.055C319.863 191.412 319.719 191.052 319.623 190.652C319.543 190.252 319.495 189.852 319.479 189.452C319.479 188.524 319.663 187.716 320.031 187.028C320.415 186.34 320.927 185.804 321.567 185.42C322.223 185.036 322.951 184.844 323.751 184.844ZM323.751 191.732C324.199 191.732 324.559 191.612 324.831 191.372C325.103 191.116 325.303 190.804 325.431 190.436C325.559 190.068 325.623 189.724 325.623 189.404C325.623 189.068 325.559 188.716 325.431 188.348C325.303 187.98 325.103 187.668 324.831 187.412C324.559 187.156 324.199 187.028 323.751 187.028C323.319 187.028 322.959 187.156 322.671 187.412C322.399 187.668 322.199 187.98 322.071 188.348C321.943 188.716 321.879 189.068 321.879 189.404C321.879 189.724 321.943 190.068 322.071 190.436C322.199 190.804 322.399 191.116 322.671 191.372C322.959 191.612 323.319 191.732 323.751 191.732ZM329.732 196.988C330.516 196.956 331.076 196.684 331.412 196.172C331.748 195.676 331.916 194.948 331.916 193.988V187.244C331.916 185.932 332.54 185.276 333.788 185.276H334.004C334.18 185.276 334.268 185.356 334.268 185.516V193.484C334.268 195.292 333.932 196.7 333.26 197.708C332.588 198.716 331.564 199.212 330.188 199.196C329.772 199.196 329.38 199.124 329.012 198.98C328.644 198.852 328.3 198.676 327.98 198.452C327.756 198.26 327.564 198.036 327.404 197.78C327.244 197.524 327.14 197.244 327.092 196.94C327.076 196.828 327.1 196.732 327.164 196.652C327.228 196.572 327.316 196.532 327.428 196.532C327.492 196.532 327.556 196.54 327.62 196.556C327.684 196.588 327.74 196.612 327.788 196.628C328.156 196.756 328.492 196.852 328.796 196.916C329.084 196.98 329.396 197.004 329.732 196.988ZM344.794 187.364C344.986 187.844 345.122 188.412 345.202 189.068C345.298 189.724 345.346 190.404 345.346 191.108C345.346 192.148 345.298 193.172 345.202 194.18C345.122 195.188 344.866 196.092 344.434 196.892C344.082 197.628 343.57 198.196 342.898 198.596C342.226 199.012 341.482 199.212 340.666 199.196C340.09 199.196 339.578 199.116 339.13 198.956C338.698 198.796 338.322 198.588 338.002 198.332C337.794 198.14 337.618 197.924 337.474 197.684C337.346 197.46 337.258 197.22 337.21 196.964C337.162 196.676 337.274 196.532 337.546 196.532C337.61 196.532 337.674 196.54 337.738 196.556C337.802 196.588 337.858 196.612 337.906 196.628C338.258 196.74 338.586 196.828 338.89 196.892C339.21 196.972 339.666 197.004 340.258 196.988C341.106 196.972 341.746 196.668 342.178 196.076C342.626 195.484 342.882 194.724 342.946 193.796C342.546 193.988 342.17 194.116 341.818 194.18C341.482 194.26 341.162 194.3 340.858 194.3C340.042 194.284 339.322 194.076 338.698 193.676C338.074 193.26 337.586 192.7 337.234 191.996C336.898 191.292 336.73 190.5 336.73 189.62C336.73 188.596 336.914 187.732 337.282 187.028C337.666 186.308 338.178 185.764 338.818 185.396C339.474 185.028 340.202 184.844 341.002 184.844C341.978 184.844 342.77 185.068 343.378 185.516C344.002 185.964 344.474 186.58 344.794 187.364ZM342.946 190.964C342.946 190.516 342.922 190.028 342.874 189.5C342.842 188.956 342.762 188.532 342.634 188.228C342.474 187.876 342.266 187.588 342.01 187.364C341.754 187.14 341.418 187.028 341.002 187.028C340.41 187.028 339.954 187.284 339.634 187.796C339.314 188.292 339.154 188.868 339.154 189.524C339.154 190.308 339.322 190.924 339.658 191.372C340.01 191.82 340.482 192.044 341.074 192.044C341.426 192.044 341.762 191.996 342.082 191.9C342.402 191.804 342.682 191.66 342.922 191.468C342.922 191.388 342.922 191.308 342.922 191.228C342.938 191.148 342.946 191.06 342.946 190.964ZM357.569 199.196C356.401 199.196 355.353 198.94 354.425 198.428C353.497 197.916 352.761 197.196 352.217 196.268C351.689 195.34 351.425 194.252 351.425 193.004C351.441 191.916 351.705 190.956 352.217 190.124C352.745 189.292 353.409 188.708 354.209 188.372C354.273 188.34 354.329 188.316 354.377 188.3C354.441 188.284 354.497 188.276 354.545 188.276C354.641 188.276 354.721 188.308 354.785 188.372C354.865 188.42 354.897 188.492 354.881 188.588C354.881 188.7 354.841 188.796 354.761 188.876C354.457 189.388 354.201 189.956 353.993 190.58C353.785 191.188 353.681 191.836 353.681 192.524C353.665 193.532 353.833 194.364 354.185 195.02C354.537 195.676 355.009 196.164 355.601 196.484C356.209 196.82 356.865 196.988 357.569 196.988C358.273 196.988 358.913 196.82 359.489 196.484C360.081 196.164 360.553 195.676 360.905 195.02C361.273 194.364 361.457 193.532 361.457 192.524V182.684C361.457 181.372 362.081 180.716 363.329 180.716H363.521C363.697 180.716 363.785 180.796 363.785 180.956V192.452C363.785 193.86 363.513 195.068 362.969 196.076C362.441 197.084 361.713 197.852 360.785 198.38C359.857 198.924 358.785 199.196 357.569 199.196ZM374.349 187.364C374.541 187.844 374.677 188.412 374.757 189.068C374.853 189.724 374.901 190.404 374.901 191.108C374.901 192.148 374.853 193.172 374.757 194.18C374.677 195.188 374.421 196.092 373.989 196.892C373.637 197.628 373.125 198.196 372.453 198.596C371.781 199.012 371.037 199.212 370.221 199.196C369.645 199.196 369.133 199.116 368.685 198.956C368.253 198.796 367.877 198.588 367.557 198.332C367.349 198.14 367.173 197.924 367.029 197.684C366.901 197.46 366.813 197.22 366.765 196.964C366.717 196.676 366.829 196.532 367.101 196.532C367.165 196.532 367.229 196.54 367.293 196.556C367.357 196.588 367.413 196.612 367.461 196.628C367.813 196.74 368.141 196.828 368.445 196.892C368.765 196.972 369.221 197.004 369.813 196.988C370.661 196.972 371.301 196.668 371.733 196.076C372.181 195.484 372.437 194.724 372.501 193.796C372.101 193.988 371.725 194.116 371.373 194.18C371.037 194.26 370.717 194.3 370.413 194.3C369.597 194.284 368.877 194.076 368.253 193.676C367.629 193.26 367.141 192.7 366.789 191.996C366.453 191.292 366.285 190.5 366.285 189.62C366.285 188.596 366.469 187.732 366.837 187.028C367.221 186.308 367.733 185.764 368.373 185.396C369.029 185.028 369.757 184.844 370.557 184.844C371.533 184.844 372.325 185.068 372.933 185.516C373.557 185.964 374.029 186.58 374.349 187.364ZM372.501 190.964C372.501 190.516 372.477 190.028 372.429 189.5C372.397 188.956 372.317 188.532 372.189 188.228C372.029 187.876 371.821 187.588 371.565 187.364C371.309 187.14 370.973 187.028 370.557 187.028C369.965 187.028 369.509 187.284 369.189 187.796C368.869 188.292 368.709 188.868 368.709 189.524C368.709 190.308 368.877 190.924 369.213 191.372C369.565 191.82 370.037 192.044 370.629 192.044C370.981 192.044 371.317 191.996 371.637 191.9C371.957 191.804 372.237 191.66 372.477 191.468C372.477 191.388 372.477 191.308 372.477 191.228C372.493 191.148 372.501 191.06 372.501 190.964ZM387.111 191.732H387.951V194.06H387.183C386.447 194.06 385.823 193.948 385.311 193.724C384.815 193.484 384.415 193.204 384.111 192.884C383.295 193.668 382.327 194.06 381.207 194.06H377.871C377.695 194.06 377.575 194.036 377.511 193.988C377.447 193.94 377.415 193.828 377.415 193.652V193.436C377.415 192.94 377.591 192.532 377.943 192.212C378.311 191.892 378.807 191.732 379.431 191.732H381.159C381.543 191.732 381.871 191.62 382.143 191.396C382.415 191.172 382.623 190.884 382.767 190.532C382.927 190.18 383.007 189.828 383.007 189.476C383.007 188.74 382.831 188.156 382.479 187.724C382.127 187.276 381.631 187.044 380.991 187.028C380.671 187.028 380.399 187.06 380.175 187.124C379.967 187.172 379.743 187.244 379.503 187.34C379.407 187.372 379.335 187.404 379.287 187.436C379.239 187.468 379.175 187.476 379.095 187.46C378.967 187.444 378.879 187.372 378.831 187.244C378.783 187.116 378.767 186.964 378.783 186.788C378.831 186.292 379.095 185.852 379.575 185.468C380.119 185.02 380.775 184.812 381.543 184.844C382.727 184.86 383.663 185.308 384.351 186.188C385.055 187.052 385.407 188.18 385.407 189.572V189.836C385.423 190.524 385.599 191.012 385.935 191.3C386.287 191.588 386.679 191.732 387.111 191.732ZM398.287 194.06H387.703L387.679 191.732H396.967C396.759 191.524 396.583 191.252 396.439 190.916C396.311 190.564 396.135 190.06 395.911 189.404C395.623 188.652 395.263 188.068 394.831 187.652C394.399 187.236 393.831 187.028 393.127 187.028C392.583 187.028 392.063 187.148 391.567 187.388C391.087 187.628 390.655 187.916 390.271 188.252C390.127 188.396 389.975 188.46 389.815 188.444C389.623 188.444 389.527 188.34 389.527 188.132C389.527 187.7 389.671 187.244 389.959 186.764C390.247 186.284 390.567 185.916 390.919 185.66C391.271 185.388 391.647 185.188 392.047 185.06C392.463 184.916 392.943 184.844 393.487 184.844C394.703 184.844 395.703 185.204 396.487 185.924C397.287 186.644 397.903 187.668 398.335 188.996C398.543 189.684 398.711 190.188 398.839 190.508C398.983 190.828 399.167 191.116 399.391 191.372C399.583 191.58 399.839 191.7 400.159 191.732C400.271 191.748 400.343 191.764 400.375 191.78C400.423 191.796 400.447 191.868 400.447 191.996C400.447 192.588 400.263 193.084 399.895 193.484C399.527 193.868 398.991 194.06 398.287 194.06ZM393.295 195.62C393.647 195.62 393.943 195.74 394.183 195.98C394.439 196.22 394.567 196.524 394.567 196.892C394.567 197.244 394.439 197.548 394.183 197.804C393.943 198.06 393.647 198.188 393.295 198.188C392.943 198.188 392.647 198.06 392.407 197.804C392.167 197.548 392.047 197.244 392.047 196.892C392.047 196.524 392.167 196.22 392.407 195.98C392.647 195.74 392.943 195.62 393.295 195.62Z" fill="black"/>
<path d="M201.96 61.1263C185.658 44.8084 164.309 34.4944 141.394 31.8661C118.479 29.2378 95.349 34.4501 75.7761 46.6533C56.2033 58.8565 41.3419 77.3306 33.6152 99.0633C25.8885 120.796 25.7523 144.505 33.2288 166.326C40.7053 188.146 55.3535 206.789 74.7848 219.216C94.2162 231.644 117.285 237.121 140.228 234.757C163.172 232.392 184.638 222.324 201.126 206.194C217.614 190.065 228.151 168.825 231.02 145.939L129.766 133.248L201.96 61.1263Z" fill="#00A0FF"/>
<path d="M224.099 94.3047C219.585 83.615 213.215 73.8084 205.283 65.3388L133.502 132.56L224.099 94.3047Z" fill="#3876BF"/>
<path d="M232.091 129.996C231.779 119.252 229.708 108.632 225.96 98.5586L133.79 132.849L232.091 129.996Z" fill="#B6E7E3"/>
<path d="M231.238 142.94C231.601 139.21 231.751 135.461 231.686 131.713L133.358 133.417L231.238 142.94Z" fill="#F3F0CA"/>
<path d="M81.1669 178.16C80.6869 177.933 80.2802 177.62 79.9469 177.22C79.6269 176.807 79.4669 176.273 79.4669 175.62C79.4669 174.7 79.8269 173.98 80.5469 173.46C81.2802 172.94 82.2069 172.68 83.3269 172.68C84.0602 172.68 84.7135 172.8 85.2869 173.04C85.8602 173.267 86.3135 173.6 86.6469 174.04C86.9802 174.48 87.1469 175.007 87.1469 175.62C87.1469 176.273 86.9802 176.807 86.6469 177.22C86.3269 177.62 85.9202 177.933 85.4269 178.16C86.1335 178.4 86.6469 178.767 86.9669 179.26C87.2869 179.74 87.4469 180.273 87.4469 180.86C87.4469 181.807 87.0869 182.6 86.3669 183.24C85.6469 183.88 84.6335 184.2 83.3269 184.2C81.9935 184.2 80.9669 183.88 80.2469 183.24C79.5269 182.6 79.1669 181.807 79.1669 180.86C79.1669 180.273 79.3269 179.74 79.6469 179.26C79.9669 178.767 80.4735 178.4 81.1669 178.16ZM81.3469 175.84C81.3469 176.293 81.5135 176.673 81.8469 176.98C82.1935 177.273 82.6869 177.42 83.3269 177.42C83.9269 177.42 84.3935 177.273 84.7269 176.98C85.0735 176.673 85.2469 176.293 85.2469 175.84C85.2469 175.347 85.0735 174.96 84.7269 174.68C84.3802 174.4 83.9135 174.26 83.3269 174.26C82.7269 174.26 82.2469 174.4 81.8869 174.68C81.5269 174.96 81.3469 175.347 81.3469 175.84ZM81.1069 180.84C81.1069 181.347 81.3002 181.767 81.6869 182.1C82.0869 182.433 82.6335 182.6 83.3269 182.6C84.0069 182.6 84.5402 182.433 84.9269 182.1C85.3135 181.767 85.5069 181.347 85.5069 180.84C85.5069 180.253 85.3002 179.8 84.8869 179.48C84.4869 179.16 83.9669 179 83.3269 179C82.6735 179 82.1402 179.16 81.7269 179.48C81.3135 179.8 81.1069 180.253 81.1069 180.84ZM90.7786 182.22V174.78L88.9386 175.44C88.7786 175.493 88.6986 175.44 88.6986 175.28V173.86C88.6986 173.687 88.7853 173.56 88.9586 173.48L90.0986 173.08C90.2586 173.027 90.4253 172.98 90.5986 172.94C90.7719 172.9 90.9453 172.88 91.1186 172.88H91.5186C91.9186 172.88 92.2186 172.993 92.4186 173.22C92.6186 173.433 92.7186 173.733 92.7186 174.12V182.22H93.7586C94.5453 182.22 94.9386 182.587 94.9386 183.32V183.72C94.9386 183.907 94.8453 184 94.6586 184H88.8986C88.7519 184 88.6786 183.927 88.6786 183.78V182.44C88.6786 182.293 88.7519 182.22 88.8986 182.22H90.7786ZM97.0294 181.76C97.3627 181.76 97.6494 181.887 97.8894 182.14C98.1294 182.38 98.2494 182.673 98.2494 183.02C98.2494 183.353 98.1294 183.647 97.8894 183.9C97.6494 184.14 97.3627 184.26 97.0294 184.26C96.696 184.26 96.4094 184.14 96.1694 183.9C95.9294 183.647 95.8094 183.353 95.8094 183.02C95.8094 182.673 95.9294 182.38 96.1694 182.14C96.4094 181.887 96.696 181.76 97.0294 181.76ZM104.477 181.64H99.437C99.2904 181.64 99.217 181.567 99.217 181.42V180.36C99.217 180.227 99.2304 180.127 99.257 180.06C99.2837 179.98 99.337 179.873 99.417 179.74L103.557 173.34C103.637 173.207 103.737 173.1 103.857 173.02C103.977 172.927 104.144 172.88 104.357 172.88H105.217C106.004 172.88 106.397 173.273 106.397 174.06V179.86H107.037C107.797 179.86 108.177 180.233 108.177 180.98V181.36C108.177 181.547 108.09 181.64 107.917 181.64H106.397V183.78C106.397 183.927 106.33 184 106.197 184H104.677C104.544 184 104.477 183.927 104.477 183.78V181.64ZM101.297 179.86H104.477V175.04L101.297 179.86ZM111.126 184H109.646C109.593 184 109.539 183.987 109.486 183.96C109.446 183.92 109.446 183.86 109.486 183.78L115.006 173.72C115.299 173.173 115.659 172.893 116.086 172.88H117.066C117.186 172.88 117.246 172.913 117.246 172.98C117.246 173.047 117.233 173.113 117.206 173.18L111.346 183.86C111.293 183.953 111.219 184 111.126 184ZM111.586 175.8C111.279 175.8 111.013 175.693 110.786 175.48C110.573 175.253 110.466 174.98 110.466 174.66C110.466 174.34 110.573 174.073 110.786 173.86C111.013 173.647 111.279 173.54 111.586 173.54C111.893 173.54 112.153 173.647 112.366 173.86C112.579 174.073 112.686 174.34 112.686 174.66C112.686 174.98 112.579 175.253 112.366 175.48C112.153 175.693 111.893 175.8 111.586 175.8ZM114.726 184.16C114.406 184.16 114.133 184.053 113.906 183.84C113.693 183.613 113.586 183.34 113.586 183.02C113.586 182.7 113.693 182.433 113.906 182.22C114.133 182.007 114.406 181.9 114.726 181.9C115.033 181.9 115.293 182.007 115.506 182.22C115.719 182.433 115.826 182.7 115.826 183.02C115.826 183.34 115.719 183.613 115.506 183.84C115.293 184.053 115.033 184.16 114.726 184.16Z" fill="white"/>
</svg>
