<svg width="355" height="261" viewBox="0 0 355 261" fill="none" xmlns="http://www.w3.org/2000/svg">
<circle cx="300" cy="109.001" r="13" fill="#00A0FF"/>
<circle cx="300" cy="145.001" r="13" fill="#3876BF"/>
<path d="M334.12 112.673H334.96V115.001H334.192C333.568 115.001 333.024 114.913 332.56 114.737C332.096 114.561 331.704 114.337 331.384 114.065C330.648 114.849 329.616 115.241 328.288 115.241C327.552 115.241 326.848 115.145 326.176 114.953C325.52 114.761 324.856 114.489 324.184 114.137H323.824C322.8 114.185 322.288 114.841 322.288 116.105V119.969C322.288 120.625 322.12 121.113 321.784 121.433C321.464 121.753 321.008 121.913 320.416 121.913H320.2C320.024 121.913 319.936 121.833 319.936 121.673V116.057C319.936 114.857 320.2 113.905 320.728 113.201C321.256 112.481 322.008 112.041 322.984 111.881C323.112 111.721 323.224 111.529 323.32 111.305C323.432 111.065 323.56 110.793 323.704 110.489C324.12 109.641 324.52 108.865 324.904 108.161C325.304 107.441 325.768 106.865 326.296 106.433C326.824 106.001 327.48 105.785 328.264 105.785C329.032 105.785 329.68 105.937 330.208 106.241C330.752 106.545 331.184 106.953 331.504 107.465C331.824 107.961 332.056 108.505 332.2 109.097C332.344 109.673 332.424 110.241 332.44 110.801V110.849C332.472 111.553 332.664 112.033 333.016 112.289C333.384 112.545 333.752 112.673 334.12 112.673ZM328.408 112.985C328.872 112.953 329.256 112.793 329.56 112.505C329.864 112.217 330.016 111.665 330.016 110.849C330.016 109.873 329.864 109.153 329.56 108.689C329.256 108.209 328.864 107.969 328.384 107.969C327.952 107.969 327.552 108.289 327.184 108.929C326.816 109.553 326.432 110.289 326.032 111.137C325.824 111.601 325.648 111.953 325.504 112.193C326.144 112.529 326.712 112.753 327.208 112.865C327.704 112.961 328.104 113.001 328.408 112.985ZM340.054 115.001H334.702V112.673H339.118L337.366 110.369C337.158 110.129 337.022 109.889 336.958 109.649C336.91 109.393 336.886 109.153 336.886 108.929C336.87 108.305 337.102 107.761 337.582 107.297C338.078 106.817 338.702 106.449 339.454 106.193C340.222 105.921 341.014 105.785 341.83 105.785C342.646 105.769 343.43 105.897 344.182 106.169C344.95 106.441 345.582 106.817 346.078 107.297C346.574 107.761 346.814 108.305 346.798 108.929C346.782 109.153 346.742 109.385 346.678 109.625C346.614 109.865 346.486 110.113 346.294 110.369L344.542 112.673H349.126V115.001H343.606C343.206 115.001 342.862 114.969 342.574 114.905C342.302 114.825 342.054 114.713 341.83 114.569C341.382 114.857 340.79 115.001 340.054 115.001ZM339.934 110.009L341.71 112.313C341.79 112.425 341.87 112.425 341.95 112.313L343.726 110.009C343.806 109.913 343.878 109.801 343.942 109.673C344.006 109.545 344.038 109.417 344.038 109.289C344.038 109.001 343.854 108.713 343.486 108.425C343.134 108.121 342.582 107.969 341.83 107.969C341.094 107.969 340.542 108.121 340.174 108.425C339.806 108.713 339.622 109.001 339.622 109.289C339.622 109.417 339.654 109.545 339.718 109.673C339.798 109.801 339.87 109.913 339.934 110.009ZM352.554 102.209C352.906 102.209 353.202 102.337 353.442 102.593C353.682 102.833 353.802 103.137 353.802 103.505C353.802 103.857 353.682 104.161 353.442 104.417C353.202 104.657 352.906 104.777 352.554 104.777C352.202 104.777 351.898 104.657 351.642 104.417C351.402 104.161 351.282 103.857 351.282 103.505C351.282 103.137 351.402 102.833 351.642 102.593C351.898 102.337 352.202 102.209 352.554 102.209ZM349.554 115.001H348.858V112.673H349.602C350.178 112.673 350.602 112.497 350.874 112.145C351.162 111.777 351.306 111.289 351.306 110.681V108.185C351.306 106.873 351.93 106.217 353.178 106.217H353.394C353.57 106.217 353.658 106.297 353.658 106.457V110.729C353.658 112.041 353.298 113.081 352.578 113.849C351.858 114.617 350.85 115.001 349.554 115.001Z" fill="black"/>
<path d="M326.529 151.001H325.761C324.449 151.001 323.433 150.617 322.713 149.849C322.009 149.081 321.657 148.041 321.657 146.729V139.625C321.657 138.313 322.281 137.657 323.529 137.657H323.721C323.897 137.657 323.985 137.737 323.985 137.897V146.681C323.985 147.289 324.129 147.777 324.417 148.145C324.705 148.497 325.129 148.673 325.689 148.673H326.529V151.001ZM339.273 148.673H340.113V151.001H339.345C338.721 151.001 338.177 150.913 337.713 150.737C337.249 150.561 336.857 150.337 336.537 150.065C335.801 150.849 334.777 151.241 333.465 151.241C332.729 151.241 332.033 151.153 331.377 150.977C330.737 150.801 330.065 150.529 329.361 150.161C328.977 150.513 328.553 150.745 328.089 150.857C327.625 150.969 327.121 151.025 326.577 151.025H326.241V148.673H326.505C326.921 148.673 327.249 148.617 327.489 148.505C327.745 148.393 327.969 148.177 328.161 147.857C328.353 147.537 328.585 147.081 328.857 146.489C329.273 145.641 329.681 144.865 330.081 144.161C330.481 143.441 330.945 142.865 331.473 142.433C332.001 142.001 332.649 141.785 333.417 141.785C334.185 141.785 334.833 141.937 335.361 142.241C335.889 142.545 336.313 142.953 336.633 143.465C336.969 143.961 337.209 144.505 337.353 145.097C337.513 145.673 337.593 146.241 337.593 146.801V146.849C337.625 147.553 337.817 148.033 338.169 148.289C338.537 148.545 338.905 148.673 339.273 148.673ZM333.561 148.985C334.025 148.953 334.409 148.793 334.713 148.505C335.017 148.217 335.169 147.665 335.169 146.849C335.169 145.873 335.009 145.153 334.689 144.689C334.385 144.209 333.993 143.969 333.513 143.969C333.081 143.969 332.681 144.289 332.313 144.929C331.945 145.553 331.577 146.289 331.209 147.137C331.097 147.377 330.993 147.585 330.897 147.761C330.817 147.921 330.737 148.065 330.657 148.193C331.297 148.529 331.857 148.753 332.337 148.865C332.833 148.961 333.241 149.001 333.561 148.985ZM340.554 151.001H339.858V148.673H340.602C341.178 148.673 341.602 148.497 341.874 148.145C342.162 147.777 342.306 147.289 342.306 146.681V144.185C342.306 142.873 342.93 142.217 344.178 142.217H344.394C344.57 142.217 344.658 142.297 344.658 142.457V146.729C344.658 148.041 344.298 149.081 343.578 149.849C342.858 150.617 341.85 151.001 340.554 151.001ZM340.818 152.513C341.186 152.513 341.49 152.633 341.73 152.873C341.97 153.129 342.09 153.441 342.09 153.809C342.09 154.161 341.97 154.465 341.73 154.721C341.49 154.977 341.186 155.105 340.818 155.105C340.466 155.105 340.17 154.977 339.93 154.721C339.69 154.465 339.57 154.161 339.57 153.809C339.57 153.441 339.69 153.129 339.93 152.873C340.17 152.633 340.466 152.513 340.818 152.513ZM346.154 153.929C346.938 153.897 347.498 153.625 347.834 153.113C348.17 152.617 348.338 151.889 348.338 150.929V144.185C348.338 142.873 348.962 142.217 350.21 142.217H350.426C350.602 142.217 350.69 142.297 350.69 142.457V150.425C350.69 152.233 350.354 153.641 349.682 154.649C349.01 155.657 347.986 156.153 346.61 156.137C346.194 156.137 345.802 156.065 345.434 155.921C345.066 155.793 344.722 155.617 344.402 155.393C344.178 155.201 343.986 154.977 343.826 154.721C343.666 154.465 343.562 154.185 343.514 153.881C343.498 153.769 343.522 153.673 343.586 153.593C343.65 153.513 343.738 153.473 343.85 153.473C343.914 153.473 343.978 153.481 344.042 153.497C344.106 153.529 344.162 153.553 344.21 153.569C344.578 153.697 344.914 153.793 345.218 153.857C345.506 153.921 345.818 153.945 346.154 153.929Z" fill="black"/>
<path d="M126.817 32.1428C106.634 32.1327 86.9013 38.1077 70.1142 49.3123C53.3271 60.5169 40.2396 76.4478 32.5065 95.0905C24.7735 113.733 22.7424 134.25 26.67 154.047C30.5975 173.844 40.3074 192.032 54.5717 206.311C68.836 220.589 87.014 230.318 106.807 234.265C126.6 238.212 147.119 236.202 165.77 228.487C184.42 220.773 200.364 207.702 211.586 190.926C222.807 174.15 228.802 154.423 228.812 134.24L126.766 134.189L126.817 32.1428Z" fill="#00A0FF"/>
<path d="M228.843 130.474C228.839 117.56 226.292 104.772 221.347 92.8422C216.402 80.9121 209.155 70.0728 200.021 60.9432C190.886 51.8137 180.043 44.5727 168.11 39.6336C156.178 34.6946 143.389 32.1543 130.474 32.1577L130.5 130.5L228.843 130.474Z" fill="#3876BF"/>
<path d="M162.457 87.22H166.557C167.33 87.22 167.717 87.58 167.717 88.3V88.72C167.717 88.9067 167.63 89 167.457 89H160.317C160.17 89 160.097 88.9267 160.097 88.78C160.097 87.9133 160.23 87.1867 160.497 86.6C160.764 86 161.104 85.5 161.517 85.1C161.944 84.6867 162.39 84.3333 162.857 84.04C163.337 83.7333 163.784 83.44 164.197 83.16C164.624 82.88 164.97 82.5667 165.237 82.22C165.504 81.8733 165.637 81.4467 165.637 80.94C165.637 80.4467 165.47 80.0733 165.137 79.82C164.804 79.5533 164.344 79.42 163.757 79.42C163.264 79.42 162.797 79.4933 162.357 79.64C161.93 79.7733 161.504 79.9533 161.077 80.18C160.984 80.2333 160.904 80.26 160.837 80.26C160.73 80.26 160.67 80.2133 160.657 80.12L160.477 79.66C160.384 79.3 160.39 79 160.497 78.76C160.617 78.5067 160.877 78.3067 161.277 78.16C161.664 78.0133 162.07 77.9 162.497 77.82C162.924 77.7267 163.404 77.68 163.937 77.68C165.004 77.68 165.884 77.9467 166.577 78.48C167.27 79 167.617 79.7867 167.617 80.84C167.617 81.4533 167.497 81.9933 167.257 82.46C167.03 82.9133 166.724 83.32 166.337 83.68C165.964 84.0267 165.564 84.3467 165.137 84.64C164.71 84.92 164.304 85.1933 163.917 85.46C163.53 85.7267 163.204 86 162.937 86.28C162.67 86.56 162.51 86.8733 162.457 87.22ZM174.098 86.64H169.058C168.911 86.64 168.838 86.5667 168.838 86.42V85.36C168.838 85.2267 168.851 85.1267 168.878 85.06C168.905 84.98 168.958 84.8733 169.038 84.74L173.178 78.34C173.258 78.2067 173.358 78.1 173.478 78.02C173.598 77.9267 173.765 77.88 173.978 77.88H174.838C175.625 77.88 176.018 78.2733 176.018 79.06V84.86H176.658C177.418 84.86 177.798 85.2333 177.798 85.98V86.36C177.798 86.5467 177.711 86.64 177.538 86.64H176.018V88.78C176.018 88.9267 175.951 89 175.818 89H174.298C174.165 89 174.098 88.9267 174.098 88.78V86.64ZM170.918 84.86H174.098V80.04L170.918 84.86ZM180.029 86.76C180.363 86.76 180.649 86.8867 180.889 87.14C181.129 87.38 181.249 87.6733 181.249 88.02C181.249 88.3533 181.129 88.6467 180.889 88.9C180.649 89.14 180.363 89.26 180.029 89.26C179.696 89.26 179.409 89.14 179.169 88.9C178.929 88.6467 178.809 88.3533 178.809 88.02C178.809 87.6733 178.929 87.38 179.169 87.14C179.409 86.8867 179.696 86.76 180.029 86.76ZM187.477 86.64H182.437C182.29 86.64 182.217 86.5667 182.217 86.42V85.36C182.217 85.2267 182.23 85.1267 182.257 85.06C182.284 84.98 182.337 84.8733 182.417 84.74L186.557 78.34C186.637 78.2067 186.737 78.1 186.857 78.02C186.977 77.9267 187.144 77.88 187.357 77.88H188.217C189.004 77.88 189.397 78.2733 189.397 79.06V84.86H190.037C190.797 84.86 191.177 85.2333 191.177 85.98V86.36C191.177 86.5467 191.09 86.64 190.917 86.64H189.397V88.78C189.397 88.9267 189.33 89 189.197 89H187.677C187.544 89 187.477 88.9267 187.477 88.78V86.64ZM184.297 84.86H187.477V80.04L184.297 84.86ZM194.126 89H192.646C192.593 89 192.539 88.9867 192.486 88.96C192.446 88.92 192.446 88.86 192.486 88.78L198.006 78.72C198.299 78.1733 198.659 77.8933 199.086 77.88H200.066C200.186 77.88 200.246 77.9133 200.246 77.98C200.246 78.0467 200.233 78.1133 200.206 78.18L194.346 88.86C194.293 88.9533 194.219 89 194.126 89ZM194.586 80.8C194.279 80.8 194.013 80.6933 193.786 80.48C193.573 80.2533 193.466 79.98 193.466 79.66C193.466 79.34 193.573 79.0733 193.786 78.86C194.013 78.6467 194.279 78.54 194.586 78.54C194.893 78.54 195.153 78.6467 195.366 78.86C195.579 79.0733 195.686 79.34 195.686 79.66C195.686 79.98 195.579 80.2533 195.366 80.48C195.153 80.6933 194.893 80.8 194.586 80.8ZM197.726 89.16C197.406 89.16 197.133 89.0533 196.906 88.84C196.693 88.6133 196.586 88.34 196.586 88.02C196.586 87.7 196.693 87.4333 196.906 87.22C197.133 87.0067 197.406 86.9 197.726 86.9C198.033 86.9 198.293 87.0067 198.506 87.22C198.719 87.4333 198.826 87.7 198.826 88.02C198.826 88.34 198.719 88.6133 198.506 88.84C198.293 89.0533 198.033 89.16 197.726 89.16Z" fill="white"/>
<path d="M82.8367 182.661H77.8167C77.6701 182.661 77.5967 182.594 77.5967 182.461V181.121C77.5967 180.961 77.6701 180.881 77.8167 180.881H83.7167C84.4901 180.881 84.8767 181.261 84.8767 182.021V182.261C84.8767 182.461 84.8567 182.628 84.8167 182.761C84.7901 182.894 84.7301 183.061 84.6367 183.261L80.7967 191.761C80.7301 191.921 80.6101 192.001 80.4367 192.001H78.8367C78.7834 192.001 78.7434 191.981 78.7167 191.941C78.7034 191.888 78.7034 191.834 78.7167 191.781L82.8367 182.661ZM88.4347 182.661V185.021C88.648 184.968 88.8947 184.914 89.1747 184.861C89.468 184.808 89.808 184.781 90.1947 184.781C91.368 184.781 92.2814 185.101 92.9347 185.741C93.6014 186.368 93.9347 187.221 93.9347 188.301C93.9347 189.101 93.748 189.794 93.3747 190.381C93.0147 190.954 92.528 191.401 91.9147 191.721C91.3014 192.041 90.6147 192.201 89.8547 192.201C89.068 192.201 88.388 192.068 87.8147 191.801C87.2547 191.534 86.8214 191.201 86.5147 190.801C86.2214 190.388 86.0747 189.968 86.0747 189.541C86.0747 189.208 86.1814 189.041 86.3947 189.041C86.5014 189.041 86.6147 189.108 86.7347 189.241C87.068 189.574 87.468 189.861 87.9347 190.101C88.4147 190.341 88.988 190.461 89.6547 190.461C90.4014 190.461 90.9747 190.281 91.3747 189.921C91.788 189.548 91.9947 189.034 91.9947 188.381C91.9947 187.754 91.788 187.281 91.3747 186.961C90.9614 186.641 90.4147 186.481 89.7347 186.481C89.148 186.481 88.608 186.534 88.1147 186.641C87.6347 186.734 87.2147 186.841 86.8547 186.961C86.668 187.028 86.5747 186.968 86.5747 186.781V181.121C86.5747 180.961 86.6414 180.881 86.7747 180.881H92.1347C92.9214 180.881 93.3147 181.261 93.3147 182.021V182.381C93.3147 182.568 93.2147 182.661 93.0147 182.661H88.4347ZM96.3614 189.761C96.6947 189.761 96.9814 189.888 97.2214 190.141C97.4614 190.381 97.5814 190.674 97.5814 191.021C97.5814 191.354 97.4614 191.648 97.2214 191.901C96.9814 192.141 96.6947 192.261 96.3614 192.261C96.0281 192.261 95.7414 192.141 95.5014 191.901C95.2614 191.648 95.1414 191.354 95.1414 191.021C95.1414 190.674 95.2614 190.381 95.5014 190.141C95.7414 189.888 96.0281 189.761 96.3614 189.761ZM102.589 184.661C102.736 184.621 102.876 184.588 103.009 184.561C103.142 184.534 103.302 184.521 103.489 184.521C104.249 184.521 104.902 184.694 105.449 185.041C105.996 185.388 106.416 185.841 106.709 186.401C107.016 186.948 107.169 187.534 107.169 188.161C107.169 188.948 107.002 189.648 106.669 190.261C106.336 190.874 105.869 191.354 105.269 191.701C104.669 192.034 103.969 192.201 103.169 192.201C102.369 192.201 101.656 192.041 101.029 191.721C100.402 191.388 99.9091 190.934 99.5491 190.361C99.2024 189.788 99.0291 189.134 99.0291 188.401C99.0291 187.828 99.1424 187.268 99.3691 186.721C99.5957 186.174 99.9357 185.514 100.389 184.741L102.749 180.881C102.842 180.748 102.956 180.681 103.089 180.681C103.529 180.681 103.829 180.894 103.989 181.321C104.162 181.734 104.089 182.214 103.769 182.761L102.589 184.661ZM100.969 188.341C100.969 188.968 101.162 189.481 101.549 189.881C101.949 190.268 102.482 190.461 103.149 190.461C103.776 190.461 104.282 190.261 104.669 189.861C105.056 189.461 105.249 188.954 105.249 188.341C105.249 187.714 105.049 187.194 104.649 186.781C104.262 186.368 103.749 186.161 103.109 186.161C102.482 186.161 101.969 186.368 101.569 186.781C101.169 187.194 100.969 187.714 100.969 188.341ZM110.126 192.001H108.646C108.593 192.001 108.539 191.988 108.486 191.961C108.446 191.921 108.446 191.861 108.486 191.781L114.006 181.721C114.299 181.174 114.659 180.894 115.086 180.881H116.066C116.186 180.881 116.246 180.914 116.246 180.981C116.246 181.048 116.233 181.114 116.206 181.181L110.346 191.861C110.293 191.954 110.219 192.001 110.126 192.001ZM110.586 183.801C110.279 183.801 110.013 183.694 109.786 183.481C109.573 183.254 109.466 182.981 109.466 182.661C109.466 182.341 109.573 182.074 109.786 181.861C110.013 181.648 110.279 181.541 110.586 181.541C110.893 181.541 111.153 181.648 111.366 181.861C111.579 182.074 111.686 182.341 111.686 182.661C111.686 182.981 111.579 183.254 111.366 183.481C111.153 183.694 110.893 183.801 110.586 183.801ZM113.726 192.161C113.406 192.161 113.133 192.054 112.906 191.841C112.693 191.614 112.586 191.341 112.586 191.021C112.586 190.701 112.693 190.434 112.906 190.221C113.133 190.008 113.406 189.901 113.726 189.901C114.033 189.901 114.293 190.008 114.506 190.221C114.719 190.434 114.826 190.701 114.826 191.021C114.826 191.341 114.719 191.614 114.506 191.841C114.293 192.054 114.033 192.161 113.726 192.161Z" fill="white"/>
</svg>
