<svg width="363" height="266" viewBox="0 0 363 266" fill="none" xmlns="http://www.w3.org/2000/svg">
<circle cx="308" cy="131" r="13" fill="#00A0FF"/>
<circle cx="308" cy="167" r="13" fill="#3876BF"/>
<path d="M342.12 134.672H342.96V137H342.192C341.568 137 341.024 136.912 340.56 136.736C340.096 136.56 339.704 136.336 339.384 136.064C338.648 136.848 337.616 137.24 336.288 137.24C335.552 137.24 334.848 137.144 334.176 136.952C333.52 136.76 332.856 136.488 332.184 136.136H331.824C330.8 136.184 330.288 136.84 330.288 138.104V141.968C330.288 142.624 330.12 143.112 329.784 143.432C329.464 143.752 329.008 143.912 328.416 143.912H328.2C328.024 143.912 327.936 143.832 327.936 143.672V138.056C327.936 136.856 328.2 135.904 328.728 135.2C329.256 134.48 330.008 134.04 330.984 133.88C331.112 133.72 331.224 133.528 331.32 133.304C331.432 133.064 331.56 132.792 331.704 132.488C332.12 131.64 332.52 130.864 332.904 130.16C333.304 129.44 333.768 128.864 334.296 128.432C334.824 128 335.48 127.784 336.264 127.784C337.032 127.784 337.68 127.936 338.208 128.24C338.752 128.544 339.184 128.952 339.504 129.464C339.824 129.96 340.056 130.504 340.2 131.096C340.344 131.672 340.424 132.24 340.44 132.8V132.848C340.472 133.552 340.664 134.032 341.016 134.288C341.384 134.544 341.752 134.672 342.12 134.672ZM336.408 134.984C336.872 134.952 337.256 134.792 337.56 134.504C337.864 134.216 338.016 133.664 338.016 132.848C338.016 131.872 337.864 131.152 337.56 130.688C337.256 130.208 336.864 129.968 336.384 129.968C335.952 129.968 335.552 130.288 335.184 130.928C334.816 131.552 334.432 132.288 334.032 133.136C333.824 133.6 333.648 133.952 333.504 134.192C334.144 134.528 334.712 134.752 335.208 134.864C335.704 134.96 336.104 135 336.408 134.984ZM348.054 137H342.702V134.672H347.118L345.366 132.368C345.158 132.128 345.022 131.888 344.958 131.648C344.91 131.392 344.886 131.152 344.886 130.928C344.87 130.304 345.102 129.76 345.582 129.296C346.078 128.816 346.702 128.448 347.454 128.192C348.222 127.92 349.014 127.784 349.83 127.784C350.646 127.768 351.43 127.896 352.182 128.168C352.95 128.44 353.582 128.816 354.078 129.296C354.574 129.76 354.814 130.304 354.798 130.928C354.782 131.152 354.742 131.384 354.678 131.624C354.614 131.864 354.486 132.112 354.294 132.368L352.542 134.672H357.126V137H351.606C351.206 137 350.862 136.968 350.574 136.904C350.302 136.824 350.054 136.712 349.83 136.568C349.382 136.856 348.79 137 348.054 137ZM347.934 132.008L349.71 134.312C349.79 134.424 349.87 134.424 349.95 134.312L351.726 132.008C351.806 131.912 351.878 131.8 351.942 131.672C352.006 131.544 352.038 131.416 352.038 131.288C352.038 131 351.854 130.712 351.486 130.424C351.134 130.12 350.582 129.968 349.83 129.968C349.094 129.968 348.542 130.12 348.174 130.424C347.806 130.712 347.622 131 347.622 131.288C347.622 131.416 347.654 131.544 347.718 131.672C347.798 131.8 347.87 131.912 347.934 132.008ZM360.554 124.208C360.906 124.208 361.202 124.336 361.442 124.592C361.682 124.832 361.802 125.136 361.802 125.504C361.802 125.856 361.682 126.16 361.442 126.416C361.202 126.656 360.906 126.776 360.554 126.776C360.202 126.776 359.898 126.656 359.642 126.416C359.402 126.16 359.282 125.856 359.282 125.504C359.282 125.136 359.402 124.832 359.642 124.592C359.898 124.336 360.202 124.208 360.554 124.208ZM357.554 137H356.858V134.672H357.602C358.178 134.672 358.602 134.496 358.874 134.144C359.162 133.776 359.306 133.288 359.306 132.68V130.184C359.306 128.872 359.93 128.216 361.178 128.216H361.394C361.57 128.216 361.658 128.296 361.658 128.456V132.728C361.658 134.04 361.298 135.08 360.578 135.848C359.858 136.616 358.85 137 357.554 137Z" fill="black"/>
<path d="M334.529 173H333.761C332.449 173 331.433 172.616 330.713 171.848C330.009 171.08 329.657 170.04 329.657 168.728V161.624C329.657 160.312 330.281 159.656 331.529 159.656H331.721C331.897 159.656 331.985 159.736 331.985 159.896V168.68C331.985 169.288 332.129 169.776 332.417 170.144C332.705 170.496 333.129 170.672 333.689 170.672H334.529V173ZM347.273 170.672H348.113V173H347.345C346.721 173 346.177 172.912 345.713 172.736C345.249 172.56 344.857 172.336 344.537 172.064C343.801 172.848 342.777 173.24 341.465 173.24C340.729 173.24 340.033 173.152 339.377 172.976C338.737 172.8 338.065 172.528 337.361 172.16C336.977 172.512 336.553 172.744 336.089 172.856C335.625 172.968 335.121 173.024 334.577 173.024H334.241V170.672H334.505C334.921 170.672 335.249 170.616 335.489 170.504C335.745 170.392 335.969 170.176 336.161 169.856C336.353 169.536 336.585 169.08 336.857 168.488C337.273 167.64 337.681 166.864 338.081 166.16C338.481 165.44 338.945 164.864 339.473 164.432C340.001 164 340.649 163.784 341.417 163.784C342.185 163.784 342.833 163.936 343.361 164.24C343.889 164.544 344.313 164.952 344.633 165.464C344.969 165.96 345.209 166.504 345.353 167.096C345.513 167.672 345.593 168.24 345.593 168.8V168.848C345.625 169.552 345.817 170.032 346.169 170.288C346.537 170.544 346.905 170.672 347.273 170.672ZM341.561 170.984C342.025 170.952 342.409 170.792 342.713 170.504C343.017 170.216 343.169 169.664 343.169 168.848C343.169 167.872 343.009 167.152 342.689 166.688C342.385 166.208 341.993 165.968 341.513 165.968C341.081 165.968 340.681 166.288 340.313 166.928C339.945 167.552 339.577 168.288 339.209 169.136C339.097 169.376 338.993 169.584 338.897 169.76C338.817 169.92 338.737 170.064 338.657 170.192C339.297 170.528 339.857 170.752 340.337 170.864C340.833 170.96 341.241 171 341.561 170.984ZM348.554 173H347.858V170.672H348.602C349.178 170.672 349.602 170.496 349.874 170.144C350.162 169.776 350.306 169.288 350.306 168.68V166.184C350.306 164.872 350.93 164.216 352.178 164.216H352.394C352.57 164.216 352.658 164.296 352.658 164.456V168.728C352.658 170.04 352.298 171.08 351.578 171.848C350.858 172.616 349.85 173 348.554 173ZM348.818 174.512C349.186 174.512 349.49 174.632 349.73 174.872C349.97 175.128 350.09 175.44 350.09 175.808C350.09 176.16 349.97 176.464 349.73 176.72C349.49 176.976 349.186 177.104 348.818 177.104C348.466 177.104 348.17 176.976 347.93 176.72C347.69 176.464 347.57 176.16 347.57 175.808C347.57 175.44 347.69 175.128 347.93 174.872C348.17 174.632 348.466 174.512 348.818 174.512ZM354.154 175.928C354.938 175.896 355.498 175.624 355.834 175.112C356.17 174.616 356.338 173.888 356.338 172.928V166.184C356.338 164.872 356.962 164.216 358.21 164.216H358.426C358.602 164.216 358.69 164.296 358.69 164.456V172.424C358.69 174.232 358.354 175.64 357.682 176.648C357.01 177.656 355.986 178.152 354.61 178.136C354.194 178.136 353.802 178.064 353.434 177.92C353.066 177.792 352.722 177.616 352.402 177.392C352.178 177.2 351.986 176.976 351.826 176.72C351.666 176.464 351.562 176.184 351.514 175.88C351.498 175.768 351.522 175.672 351.586 175.592C351.65 175.512 351.738 175.472 351.85 175.472C351.914 175.472 351.978 175.48 352.042 175.496C352.106 175.528 352.162 175.552 352.21 175.568C352.578 175.696 352.914 175.792 353.218 175.856C353.506 175.92 353.818 175.944 354.154 175.928Z" fill="black"/>
<path d="M201.018 61.1263C183.819 43.9103 161.035 33.4072 136.774 31.5115C112.513 29.6158 88.373 36.4524 68.7089 50.788C49.0448 65.1236 35.151 86.0145 29.5337 109.692C23.9164 133.37 26.9454 158.275 38.0744 179.916C49.2034 201.557 67.6996 218.509 90.2266 227.713C112.754 236.918 137.828 237.769 160.928 230.113C184.027 222.457 203.63 206.799 216.201 185.962C228.772 165.126 233.482 140.483 229.483 116.479L128.824 133.248L201.018 61.1263Z" fill="#00A0FF"/>
<path d="M210.391 72.4456C207.666 68.9176 204.704 65.579 201.526 62.4528L132.56 132.56L210.391 72.4456Z" fill="#3876BF"/>
<path d="M229.269 113.504C226.389 99.1484 220.34 85.6172 211.563 73.898L132.849 132.849L229.269 113.504Z" fill="#F3F0CA"/>
<path d="M94.6033 180.179C94.4299 180.232 94.2633 180.279 94.1033 180.319C93.9566 180.359 93.7966 180.379 93.6233 180.379C92.8766 180.379 92.2299 180.212 91.6833 179.879C91.1366 179.532 90.7166 179.086 90.4233 178.539C90.1299 177.979 89.9833 177.386 89.9833 176.759C89.9833 175.946 90.1566 175.239 90.5033 174.639C90.8499 174.026 91.3299 173.546 91.9433 173.199C92.5699 172.852 93.2766 172.679 94.0633 172.679C94.8633 172.679 95.5633 172.839 96.1633 173.159C96.7766 173.479 97.2566 173.926 97.6033 174.499C97.9499 175.072 98.1233 175.732 98.1233 176.479C98.1233 177.052 98.0166 177.612 97.8033 178.159C97.5899 178.692 97.2366 179.352 96.7433 180.139L94.4433 183.959C94.3499 184.119 94.2233 184.199 94.0633 184.199C93.7566 184.199 93.5166 184.099 93.3433 183.899C93.1699 183.699 93.0833 183.446 93.0833 183.139C93.0833 182.819 93.1899 182.492 93.4033 182.159L94.6033 180.179ZM94.0433 178.719C94.6699 178.719 95.1766 178.519 95.5633 178.119C95.9633 177.706 96.1633 177.179 96.1633 176.539C96.1633 175.912 95.9699 175.406 95.5833 175.019C95.2099 174.632 94.6966 174.439 94.0433 174.439C93.4033 174.439 92.8833 174.639 92.4833 175.039C92.0966 175.426 91.9033 175.926 91.9033 176.539C91.9033 177.192 92.0966 177.719 92.4833 178.119C92.8699 178.519 93.3899 178.719 94.0433 178.719ZM101.716 174.659V177.019C101.929 176.966 102.176 176.912 102.456 176.859C102.749 176.806 103.089 176.779 103.476 176.779C104.649 176.779 105.563 177.099 106.216 177.739C106.883 178.366 107.216 179.219 107.216 180.299C107.216 181.099 107.029 181.792 106.656 182.379C106.296 182.952 105.809 183.399 105.196 183.719C104.583 184.039 103.896 184.199 103.136 184.199C102.349 184.199 101.669 184.066 101.096 183.799C100.536 183.532 100.103 183.199 99.7959 182.799C99.5026 182.386 99.3559 181.966 99.3559 181.539C99.3559 181.206 99.4626 181.039 99.6759 181.039C99.7826 181.039 99.8959 181.106 100.016 181.239C100.349 181.572 100.749 181.859 101.216 182.099C101.696 182.339 102.269 182.459 102.936 182.459C103.683 182.459 104.256 182.279 104.656 181.919C105.069 181.546 105.276 181.032 105.276 180.379C105.276 179.752 105.069 179.279 104.656 178.959C104.243 178.639 103.696 178.479 103.016 178.479C102.429 178.479 101.889 178.532 101.396 178.639C100.916 178.732 100.496 178.839 100.136 178.959C99.9493 179.026 99.8559 178.966 99.8559 178.779V173.119C99.8559 172.959 99.9226 172.879 100.056 172.879H105.416C106.203 172.879 106.596 173.259 106.596 174.019V174.379C106.596 174.566 106.496 174.659 106.296 174.659H101.716ZM110.185 183.999H108.705C108.651 183.999 108.598 183.986 108.545 183.959C108.505 183.919 108.505 183.859 108.545 183.779L114.065 173.719C114.358 173.172 114.718 172.892 115.145 172.879H116.125C116.245 172.879 116.305 172.912 116.305 172.979C116.305 173.046 116.291 173.112 116.265 173.179L110.405 183.859C110.351 183.952 110.278 183.999 110.185 183.999ZM110.645 175.799C110.338 175.799 110.071 175.692 109.845 175.479C109.631 175.252 109.525 174.979 109.525 174.659C109.525 174.339 109.631 174.072 109.845 173.859C110.071 173.646 110.338 173.539 110.645 173.539C110.951 173.539 111.211 173.646 111.425 173.859C111.638 174.072 111.745 174.339 111.745 174.659C111.745 174.979 111.638 175.252 111.425 175.479C111.211 175.692 110.951 175.799 110.645 175.799ZM113.785 184.159C113.465 184.159 113.191 184.052 112.965 183.839C112.751 183.612 112.645 183.339 112.645 183.019C112.645 182.699 112.751 182.432 112.965 182.219C113.191 182.006 113.465 181.899 113.785 181.899C114.091 181.899 114.351 182.006 114.565 182.219C114.778 182.432 114.885 182.699 114.885 183.019C114.885 183.339 114.778 183.612 114.565 183.839C114.351 184.052 114.091 184.159 113.785 184.159Z" fill="white"/>
</svg>
