<svg width="93" height="194" viewBox="0 0 93 194" fill="none" xmlns="http://www.w3.org/2000/svg">
<g clip-path="url(#clip0_153_133)">
<path d="M16.9611 172.448C16.9611 172.448 15.7687 180.262 12.6039 184.247C10.5144 186.87 4.75313 192.072 8.85402 193.804C12.1247 195.188 18.4265 189.028 20.4714 187.492C22.5162 185.962 25.603 183.059 24.9177 180.587C23.5025 175.464 23.9649 169.029 23.9649 169.029L16.9611 172.448Z" fill="#F3F3F3"/>
<path d="M39.883 166.389C39.883 166.389 41.4654 174.13 39.8719 178.973C38.8188 182.162 35.2138 189.057 39.6546 189.247C43.1983 189.398 46.9816 181.422 48.369 179.27C49.7563 177.118 51.6452 173.317 50.152 171.243C47.054 166.939 45.2654 160.739 45.2654 160.739L39.883 166.395V166.389Z" fill="#F3F3F3"/>
<path d="M37.6661 171.86C-4.80826 143.357 -2.71324 118.386 3.17622 108.622C10.0129 97.283 20.839 88.3148 37.4265 84.3127C41.8505 83.2477 46.0573 82.6312 49.5787 82.2724C54.6714 81.7568 59.062 85.8485 58.9227 90.9997L58.5438 105.539H58.5773C51.4899 105.394 29.988 107.563 24.3549 119.093C23.1848 121.486 51.774 155.268 50.7098 161.333C49.5007 168.188 41.8227 174.64 37.6716 171.854L37.6661 171.86Z" fill="#454949"/>
<path d="M21.1952 176.125C16.3087 176.147 12.4139 172.022 12.7037 167.118C13.3444 156.21 15.3559 137.651 21.6688 123.627C25.2515 115.673 30.9404 108.443 38.585 102.137C44.3518 97.3782 51.2498 93.1295 59.095 89.5029C72.1387 83.4662 81.5329 84.3126 81.5329 84.3126L88.6593 94.8895C88.5646 94.9063 90.6596 105.556 75.5877 115.051C67.2745 120.292 50.5533 123.493 43.6777 137.029C38.7688 146.692 36.8911 159.511 36.2671 168.468C35.9662 172.751 32.4336 176.075 28.16 176.097L21.184 176.131L21.1952 176.125Z" fill="#454949"/>
<path d="M30.896 46.8257C30.896 46.8257 22.137 60.3846 18.9945 80.4846C16.9161 93.7857 40.981 78.2986 40.981 78.2986L42.0508 50.5139L30.896 46.8257Z" fill="#B1ABAB"/>
<path d="M74.6911 39.1634C74.6911 39.1634 68.016 27.6896 52.6376 31.2097C37.2537 34.7297 30.9854 50.5362 29.8877 88.4887C29.8877 88.4887 39.1258 104.934 81.1489 101.728C85.8069 101.375 92.4765 100.753 90.2031 93.1578C85.9741 79.0384 81.8788 50.8782 74.6966 39.1634H74.6911Z" fill="#454949"/>
<path d="M91.6124 42.5095L75.7883 45.5027C75.7883 45.5027 48.1184 53.7366 40.3735 53.7983C32.6286 53.8656 29.4248 48.1651 29.4248 48.1651C29.4248 48.1651 35.6709 37.4985 48.7647 32.4651C49.9961 31.9886 51.2832 31.5682 52.6316 31.2095C54.8994 30.6042 57.2061 30.0773 59.5129 30.0492C85.6282 29.7466 91.6124 42.5095 91.6124 42.5095Z" fill="#454949"/>
<path d="M91.6124 42.5096C91.9522 43.7651 88.637 45.8558 84.2018 47.1843C79.7666 48.5127 75.8941 48.5743 75.5542 47.3188C75.2144 46.0632 78.5296 43.9725 82.9648 42.6441C87.4 41.3157 91.2725 41.254 91.6124 42.5096Z" fill="#131F2D"/>
<path d="M88.8773 77.8555C82.1186 88.5053 68.735 95.3099 54.666 94.8615L56.1648 83.5055C67.0746 81.5044 75.4324 74.3635 76.9925 68.3435C78.9482 60.7822 78.2796 53.4114 77.3435 47.8735C77.2544 47.3466 77.4605 46.8197 77.884 46.4946C79.2769 45.4184 82.8931 43.238 89.3509 43.1091C89.9248 43.0979 90.4318 43.4847 90.5823 44.0452C93.2846 54.2802 94.9172 68.3491 88.8828 77.8499L88.8773 77.8555Z" fill="#B1ABAB"/>
<path d="M81.7618 81.2241C82.0125 81.2241 82.2688 81.1736 82.5252 81.0671C83.2662 80.7645 83.9293 80.0582 84.297 79.1726C84.9433 77.6368 84.5589 75.9945 83.4334 75.5124C82.9988 75.3275 82.5029 75.3331 82.0014 75.5349C81.2603 75.8375 80.5973 76.5438 80.2295 77.4294C79.5832 78.9652 79.9677 80.6075 81.0932 81.0896C81.3049 81.1792 81.5278 81.2241 81.7562 81.2241H81.7618ZM82.7759 75.647C82.9709 75.647 83.1603 75.6862 83.3331 75.7591C84.3193 76.1794 84.6369 77.6648 84.0518 79.0661C83.7064 79.8845 83.0991 80.5403 82.4249 80.8149C81.9958 80.9887 81.5724 80.9999 81.2046 80.8373C80.2184 80.4169 79.9008 78.9316 80.4858 77.5359C80.8313 76.7175 81.4386 76.0617 82.1128 75.7871C82.3357 75.6974 82.5642 75.647 82.7759 75.647Z" fill="#B1ABAB"/>
<path d="M56.1641 83.5111C56.1641 83.5111 46.0623 80.2769 42.8474 81.8071C39.638 83.3373 36.6849 87.7318 38.8746 87.2105C41.0644 86.6892 43.6831 85.2431 43.6831 85.2431C43.6831 85.2431 38.2394 88.595 39.5711 89.5366C40.9028 90.4783 45.611 87.5188 45.611 87.5188C45.611 87.5188 39.4485 92.0253 40.9919 92.5073C42.5353 92.9894 47.1934 89.531 47.1934 89.531C47.1934 89.531 41.6271 93.9535 43.4324 94.4692C45.2377 94.9848 48.0069 90.781 49.3386 91.7226C50.6703 92.6643 54.0635 96.9859 57.1169 93.5835L56.1697 83.5111H56.1641Z" fill="#B1ABAB"/>
<path opacity="0.9" d="M43.7668 85.344C43.7668 85.344 45.1319 84.2118 46.1237 84.4864L46.1961 84.2342C45.0706 83.9091 43.6609 85.0918 43.5996 85.1422L43.7668 85.344Z" fill="#454949"/>
<path opacity="0.9" d="M45.6942 87.614C45.6942 87.614 47.0259 86.4706 48.5526 86.5939L48.5749 86.3305C46.9312 86.2071 45.5772 87.3674 45.5215 87.4123L45.6942 87.6084V87.614Z" fill="#454949"/>
<path opacity="0.9" d="M47.2765 89.6265C47.2765 89.6265 48.8979 88.27 49.9232 88.6624L50.0179 88.4157C48.8478 87.9729 47.1818 89.3686 47.1094 89.4247L47.2765 89.6265Z" fill="#454949"/>
<path d="M43.7557 99.3232H11.3219C10.6421 99.3232 10.0404 98.8916 9.82305 98.247L3.0811 78.0012C2.74121 76.981 3.49898 75.9272 4.57993 75.9272H35.7712C37.1921 75.9272 38.4569 76.8353 38.9026 78.1861L45.249 97.2549C45.5889 98.275 44.8311 99.3288 43.7501 99.3288L43.7557 99.3232Z" fill="#131F2D"/>
<path d="M41.7218 99.3234H9.28802C8.60825 99.3234 8.00649 98.8918 7.78918 98.2472L1.0528 77.9958C0.712916 76.9756 1.47069 75.9219 2.54606 75.9219H33.7374C35.1582 75.9219 36.423 76.8299 36.8687 78.1808L43.2151 97.2495C43.555 98.2696 42.7972 99.3234 41.7218 99.3234Z" fill="#131F2D"/>
<path d="M18.9939 86.9583C18.9939 86.1903 19.8742 85.8765 20.6431 85.8765C21.412 85.8765 22.6713 86.7228 22.6601 87.799C22.649 88.9593 21.7464 89.1106 20.9774 89.1106C20.2085 89.1106 18.9883 87.9392 18.9883 86.9583H18.9939Z" fill="#DAEBE8"/>
<path d="M53.6458 96.459H9.27148V99.3176H54.5707C55.1001 99.3176 55.5291 98.886 55.5291 98.3535C55.5291 97.3054 54.6822 96.459 53.6458 96.459Z" fill="#131F2D"/>
<path d="M39.4154 86.1623L39.6215 86.1063C39.5547 85.8596 38.0057 80.0191 36.9637 78.1301C35.9051 76.2132 34.6124 75.8376 34.5567 75.8208L34.501 76.0226C34.501 76.0226 35.7714 76.3981 36.7799 78.231C37.8107 80.0975 39.3986 86.1007 39.4154 86.1567V86.1623Z" fill="#366F90"/>
<path d="M44.2073 96.5653V96.3523C43.1431 96.3523 42.8812 95.9095 42.8812 95.9039L40.3627 88.3257L40.1621 88.3929L42.6917 95.9879C42.7085 96.0272 43.0093 96.5597 44.2129 96.5597L44.2073 96.5653Z" fill="#366F90"/>
<path d="M14.3143 152.079C14.3199 151.984 14.9941 142.242 17.9862 131.234C20.7443 121.083 26.0932 107.748 35.8942 101.846L35.7604 101.622C25.8815 107.569 20.4991 120.976 17.7299 131.172C14.7322 142.209 14.0524 151.967 14.0469 152.068L14.3088 152.085L14.3143 152.079Z" fill="#020202"/>
<path d="M35.9663 170.615C36.0721 155.487 40.9921 143.806 41.0422 143.694L40.8026 143.587C40.7525 143.705 35.8158 155.425 35.71 170.615H35.9718H35.9663Z" fill="#020202"/>
<path d="M46.1799 31.972C46.1799 31.972 49.7737 30.1111 50.1637 27.9644C50.5538 25.812 52.0025 26.3277 52.7547 25.7111C53.5069 25.1001 50.7265 19.6183 50.7265 19.6183L42.7197 17.5107L44.4582 27.4207L46.1799 31.972Z" fill="#131F2D"/>
<path d="M62.3549 30.0716C60.6833 30.0492 59.1455 29.1411 58.3431 27.667L55.8247 23.0427L55.0947 21.7031L50.7988 13.811L52.2141 22.2748L53.061 27.3587L53.3006 28.8048C53.4956 29.9875 52.7713 31.1198 51.6235 31.4392H51.6012C51.0719 32.5266 50.4032 34.6958 53.0666 35.2732C56.198 35.957 60.8839 33.0816 62.3772 30.066C62.366 30.066 62.3604 30.066 62.3493 30.066L62.3549 30.0716Z" fill="#B1ABAB"/>
<path d="M55.8186 22.9029C55.8186 22.9477 55.8186 22.9982 55.8186 23.043C55.8743 25.812 53.0716 27.3702 53.0716 27.3702L53.0549 27.359L52.208 22.2751C53.0716 21.8603 54.3086 21.4007 55.0887 21.6978C55.4954 21.8547 55.7796 22.2134 55.813 22.8973L55.8186 22.9029Z" fill="#B1ABAB"/>
<path d="M51.475 25.0931C55.8712 24.6743 59.0185 19.9102 58.5047 14.4522C57.9908 8.99428 54.0105 4.90925 49.6143 5.32808C45.2181 5.7469 42.0708 10.511 42.5847 15.9689C43.0985 21.4269 47.0788 25.5119 51.475 25.0931Z" fill="#B1ABAB"/>
<path d="M46.8594 22.0114C46.8594 22.0114 49.584 21.8152 52.2139 20.5933C52.2139 20.5933 52.6931 23.2669 49.7679 23.7265C48.0629 23.9956 46.8649 22.0058 46.8649 22.0058L46.8594 22.0114Z" fill="white"/>
<path d="M49.7842 15.3806C49.7285 15.3694 49.6784 15.3358 49.6505 15.2853C49.6059 15.1956 49.6394 15.0835 49.7285 15.0387C49.7787 15.0107 50.9432 14.2652 52.1244 15.3414C52.1969 15.4086 52.208 15.5207 52.1411 15.5992C52.0743 15.6777 51.974 15.6665 51.8848 15.616C50.9989 15.134 49.9403 15.3414 49.8957 15.3638C49.8567 15.3806 49.8177 15.3862 49.7842 15.3806Z" fill="#080435"/>
<path d="M51.7796 17.1179C51.8354 17.5495 51.6236 17.9363 51.3116 17.9755C50.9996 18.0148 50.7043 17.6953 50.6486 17.2637C50.5928 16.8321 50.8046 16.4453 51.1166 16.4061C51.4286 16.3669 51.7239 16.6864 51.7796 17.1179Z" fill="#080435"/>
<path d="M46.6587 17.9533C46.7422 18.3849 46.5584 18.7773 46.2463 18.8389C45.9343 18.9006 45.6223 18.5979 45.5387 18.1719C45.4551 17.7459 45.639 17.348 45.951 17.2863C46.2631 17.2246 46.5751 17.5273 46.6587 17.9533Z" fill="#080435"/>
<path d="M53.8135 8.51973C47.8627 10.5656 44.0571 16.4622 44.4583 22.7792C44.4806 23.1436 44.5084 23.5247 44.5475 23.9059C44.5475 23.9059 48.7486 24.4328 49.3504 28.4741C49.5398 29.7409 46.0853 32.2576 45.8234 32.1679C43.8231 31.4897 38.3794 27.2746 38.6357 17.8467C38.892 8.41884 41.8395 1.23303 50.3199 0.134423C58.8003 -0.958582 58.2041 4.85396 58.2041 4.85396C58.2041 4.85396 56.9393 7.44354 53.819 8.51413L53.8135 8.51973Z" fill="#131F2D"/>
<path d="M52.6205 8.64867C52.6205 8.64867 52.771 8.72714 53.0217 8.88969C53.9856 9.50626 56.4038 11.3055 57.078 14.2706C57.9305 18.0037 54.5372 20.6997 55.8021 23.5304C57.0724 26.361 59.3848 22.8297 61.5578 23.1268C63.7308 23.4239 65.1962 22.2748 64.9343 17.9869C64.6725 13.6933 62.739 3.80581 57.7076 4.28225L52.6094 8.65427L52.6205 8.64867Z" fill="#131F2D"/>
<path d="M58.4994 15.9578C57.6803 16.9107 56.4266 17.1181 55.7023 16.423C54.9779 15.728 55.0559 14.394 55.875 13.4411C56.6941 12.4882 57.9477 12.2808 58.6721 12.9759C59.3964 13.6709 59.3184 15.0049 58.4994 15.9578Z" fill="#B1ABAB"/>
<path d="M42.8588 27.7233C42.8588 27.7233 42.87 27.7233 42.8755 27.7233C42.9257 27.7121 42.9647 27.6616 42.9536 27.6112C41.7946 21.5408 43.4272 15.3919 45.5556 11.9896C48.8486 6.73196 52.9216 6.98419 52.9606 6.98419C53.0108 6.98419 53.0609 6.95056 53.0665 6.89451C53.0665 6.83846 53.0331 6.79362 52.9773 6.78801C52.9383 6.78801 48.7594 6.51336 45.394 11.8831C43.2433 15.3135 41.594 21.5184 42.7641 27.6392C42.7753 27.684 42.8143 27.7177 42.8588 27.7177V27.7233Z" fill="white"/>
<path d="M61.3127 19.8141C61.3517 19.8141 61.3907 19.7917 61.4019 19.7525C62.9341 15.5318 61.296 8.62622 59.4963 6.68684C57.6631 4.71382 55.1558 6.0983 55.1279 6.11511C55.0834 6.14314 55.0666 6.19919 55.0889 6.24963C55.1112 6.30008 55.1725 6.31129 55.2227 6.28887C55.3229 6.23282 57.6241 4.96605 59.3514 6.82697C61.1233 8.73272 62.728 15.5318 61.218 19.6908C61.2013 19.7412 61.2236 19.7973 61.2737 19.8141C61.2848 19.8141 61.296 19.8197 61.3071 19.8197L61.3127 19.8141Z" fill="white"/>
<path d="M41.6053 20.1563C41.6611 20.1563 41.7001 20.1115 41.7001 20.0554C41.7001 19.9377 41.3212 8.42472 45.6617 6.04253C50.0077 3.66034 53.6183 5.82393 53.6517 5.84635C53.6963 5.87438 53.7576 5.85756 53.7854 5.81272C53.8133 5.76788 53.7966 5.70622 53.752 5.6782C53.713 5.65578 50.0133 3.43614 45.5669 5.86877C41.1206 8.30702 41.4883 19.579 41.5051 20.0554C41.5051 20.1059 41.5496 20.1507 41.5998 20.1507L41.6053 20.1563Z" fill="white"/>
<path d="M79.5402 6.28195C79.8207 5.32287 81.1793 5.32287 81.4598 6.28195L82.4959 9.82495C82.5917 10.1523 82.8477 10.4083 83.175 10.5041L86.718 11.5402C87.6771 11.8207 87.6771 13.1793 86.7181 13.4598L83.175 14.4959C82.8477 14.5917 82.5917 14.8477 82.4959 15.175L81.4598 18.718C81.1793 19.6771 79.8207 19.6771 79.5402 18.7181L78.5041 15.175C78.4083 14.8477 78.1523 14.5917 77.825 14.4959L74.282 13.4598C73.3229 13.1793 73.3229 11.8207 74.282 11.5402L77.825 10.5041C78.1523 10.4083 78.4083 10.1523 78.5041 9.82495L79.5402 6.28195Z" fill="#454949"/>
</g>
<defs>
<clipPath id="clip0_153_133">
<rect width="93" height="194" fill="white"/>
</clipPath>
</defs>
</svg>
