<svg width="125" height="132" viewBox="0 0 125 132" fill="none" xmlns="http://www.w3.org/2000/svg">
<g clip-path="url(#clip0_153_43)">
<path d="M86.1832 49.5938C87.3056 51.5999 98.5906 69.1384 96.2293 86.2891L83.9507 81.8338L78.3389 58.7138L86.1832 49.5938Z" fill="#B1ABAB"/>
<path d="M37.149 42.406C37.149 42.406 44.6928 28.8306 63.0616 32.5845C81.4243 36.3383 91.452 62.7137 86.4658 114.954C86.4658 114.954 57.2903 103.317 19.3506 112.695C19.3506 112.695 25.5941 62.1045 37.149 42.406Z" fill="#454949"/>
<path d="M23.1406 36.923L36.0509 49.8522C36.0509 49.8522 69.1455 58.8245 78.3391 58.7137C87.5327 58.6091 91.1513 51.8645 91.1513 51.8645C91.1513 51.8645 83.3928 39.5384 67.6981 33.963C66.2261 33.4399 64.6805 32.9722 63.0675 32.5845C60.3567 31.9322 57.6029 31.5568 54.8675 31.3907C38.6146 30.4184 23.1468 36.9168 23.1468 36.9168L23.1406 36.923Z" fill="#454949"/>
<path d="M23.1404 36.9231C21.0797 39.1754 24.2567 41.6308 27.8262 45.2C31.3895 48.7693 35.0756 50.8554 36.0507 49.8523C37.0259 48.8493 34.9345 45.1447 31.365 41.5754C27.8016 38.0062 24.0849 35.8893 23.1404 36.9231Z" fill="#131F2D"/>
<path d="M34.3337 49.9018C34.3337 49.9018 34.5238 47.3172 31.2916 44.0248C29.3413 42.0372 26.8757 40.7387 25.2198 40.0248C24.2385 39.6002 23.0977 40.0802 22.7113 41.0895L21.6748 43.7664L26.4955 46.8802L34.3337 49.9079V49.9018Z" fill="#B1ABAB"/>
<path d="M57.1428 97.7971C57.1428 97.7971 17.3202 76.1417 3.04219 99.7663C-7.52525 117.256 8.35964 133.539 67.2748 131.883C67.2748 131.883 73.0952 129.145 71.6784 114.954C71.1142 109.329 57.1367 97.7971 57.1367 97.7971H57.1428Z" fill="#454949"/>
<path d="M57.1426 97.797C57.1426 97.797 110.182 75.994 120.676 89.6247C132.74 105.286 121.173 131.883 65.2629 122.376L58.4489 114.954L57.1426 97.797Z" fill="#454949"/>
<path d="M67.3425 131.975L67.2137 131.791C73.4021 127.36 71.7339 115.988 71.5867 115.034L31.3838 100.351L31.4574 100.142L71.7829 114.868L71.7952 114.929C71.8197 115.052 73.8866 127.286 67.3487 131.969L67.3425 131.975Z" fill="#020202"/>
<path d="M72.0216 118.855C72.0216 118.855 81.7978 119.255 86.3854 121.514C90.9792 123.772 88.5259 129.286 79.2035 129.139C69.8811 128.991 70.5864 127.6 70.5864 127.6C70.5864 127.6 72.3589 122.757 72.0216 118.855Z" fill="#F3F3F3"/>
<path d="M59.5102 98.8369C62.7485 98.8369 65.4042 98.0184 67.563 96.3815C71.6355 93.2984 72.3898 88.3877 71.8011 85.1138L67.9065 82.8431C67.7102 81.7723 60.1971 85.7538 60.2094 85.7538C60.1726 85.7661 56.6215 86.8 44.3 80.48C35.7197 76.08 31.3958 69.84 31.083 61.3969C30.8438 55.0338 33.6712 51.4584 34.3397 49.9077C34.4256 49.6984 30.1937 45.44 30.3163 45.0092L27.1394 43.3908C27.2436 43.0277 24.085 41.7784 24.1341 41.6738L21.687 43.7661C20.4787 46.5723 17.909 53.0154 18.2401 61.8892C18.5836 71.1077 22.38 83.8338 38.498 92.1046C47.2868 96.6092 54.1866 98.8431 59.5225 98.8431L59.5102 98.8369Z" fill="#B1ABAB"/>
<path d="M62.1237 99.3539H96.4939C97.2115 99.3539 97.8493 98.8924 98.0824 98.2154L105.228 76.8123C105.589 75.7354 104.78 74.6216 103.639 74.6216H70.5874C69.0787 74.6216 67.7417 75.5816 67.2694 77.0093L60.5413 97.1631C60.1795 98.24 60.989 99.3539 62.1298 99.3539H62.1237Z" fill="#131F2D"/>
<path d="M64.2819 99.3539H98.6522C99.3697 99.3539 100.008 98.8924 100.241 98.2154L107.386 76.8123C107.748 75.7354 106.938 74.6216 105.797 74.6216H72.7457C71.2369 74.6216 69.8999 75.5816 69.4276 77.0093L62.6996 97.1631C62.3377 98.24 63.1473 99.3539 64.2819 99.3539Z" fill="#131F2D"/>
<path d="M88.3611 86.2896C88.3611 85.4773 87.4289 85.145 86.6132 85.145C85.7974 85.145 84.4665 86.0373 84.4727 87.1758C84.4788 88.4066 85.4417 88.5666 86.2513 88.5666C87.0609 88.5666 88.355 87.3235 88.355 86.2896H88.3611Z" fill="#DAEBE8"/>
<path d="M51.6479 96.3323H98.6708V99.3539H50.6665C50.1084 99.3539 49.6484 98.8985 49.6484 98.3323C49.6484 97.2246 50.5439 96.3262 51.6479 96.3262V96.3323Z" fill="#131F2D"/>
<path d="M66.7234 85.4402L66.5088 85.3848C66.5763 85.1202 68.2199 78.9479 69.3239 76.954C70.4463 74.9294 71.8201 74.5294 71.8753 74.5171L71.9366 74.7325C71.9366 74.7325 70.5935 75.1263 69.5202 77.0648C68.4285 79.034 66.7418 85.3786 66.7234 85.4463V85.4402Z" fill="#131F2D"/>
<path d="M61.6445 96.4432V96.2217C62.773 96.2217 63.049 95.754 63.0552 95.7478L65.7231 87.7417L65.9377 87.8155L63.2576 95.8402C63.2392 95.8832 62.9202 96.4494 61.6445 96.4494V96.4432Z" fill="#131F2D"/>
<path d="M28.6114 80.283C28.4888 80.283 28.36 80.2645 28.2312 80.2276C27.489 80.0307 26.6795 79.2861 26.1091 78.2892C25.2382 76.763 25.2136 75.1815 26.0539 74.6892C26.3176 74.5353 26.6427 74.5045 26.9923 74.5968C27.7344 74.7938 28.5439 75.5384 29.1143 76.5353C29.9852 78.0615 30.0098 79.643 29.1695 80.1353C29.0039 80.2338 28.8199 80.2768 28.6175 80.2768L28.6114 80.283ZM26.4955 78.0676C26.9984 78.9538 27.7282 79.6307 28.3477 79.7968C28.5869 79.8584 28.7831 79.8461 28.9426 79.7538C29.5498 79.3968 29.4517 78.0307 28.7279 76.763C28.225 75.8768 27.4952 75.1999 26.8757 75.0338C26.6427 74.9722 26.4403 74.9845 26.2808 75.0768C25.6736 75.4338 25.7718 76.7999 26.4955 78.0676Z" fill="#B1ABAB"/>
<path d="M54.5731 31.3598C56.8301 31.2921 58.5412 31.0582 59.8414 29.5259L63.8587 24.7813L65.0301 23.4029L71.9115 15.2798L68.2991 24.7752L66.1279 30.4736L65.441 32.2767C64.9749 33.5013 65.5882 34.0736 66.0237 35.5075C66.2015 36.0859 67.3852 39.6613 64.2941 39.6798C60.4486 39.7106 55.5789 35.2182 54.5117 31.3413C54.5301 31.3413 54.5485 31.3536 54.5731 31.3536V31.3598Z" fill="#B1ABAB"/>
<path d="M63.9018 24.6217C63.8895 24.6771 63.8773 24.7325 63.865 24.7879C63.1597 27.994 66.1036 30.4925 66.1036 30.4925L66.1281 30.4802L68.2993 24.7817C67.3793 24.0863 66.0177 23.2494 65.0303 23.4033C64.5151 23.4833 64.0981 23.834 63.8957 24.6217H63.9018Z" fill="#131F2D"/>
<path d="M79.9397 20.6521C81.6508 14.9413 79.2466 9.15057 74.5732 7.71672C69.8997 6.28287 64.7233 9.74749 63.0183 15.4521C61.3071 21.1629 63.7113 26.9536 68.3848 28.3875C73.0583 29.8213 78.2347 26.3567 79.9397 20.6521Z" fill="#B1ABAB"/>
<path d="M62.7242 16.154C63.3069 17.0525 64.4231 17.3602 65.2143 16.831C66.0116 16.3017 66.1833 15.1448 65.6007 14.2464C65.018 13.3479 63.9018 13.0402 63.1106 13.5694C62.3133 14.0987 62.1416 15.2556 62.7242 16.154Z" fill="#FF7955"/>
<path d="M73.1743 18.3323C73.2295 18.3262 73.2785 18.2954 73.3092 18.24C73.3583 18.1539 73.3276 18.0431 73.2418 17.9939C73.1927 17.9631 72.0703 17.1877 70.8743 18.2154C70.8008 18.2831 70.7885 18.3939 70.8498 18.4739C70.9111 18.5539 71.0154 18.5477 71.1013 18.4985C71.9906 18.0493 73.0271 18.2893 73.07 18.3139C73.1068 18.3323 73.1436 18.3385 73.1804 18.3323H73.1743Z" fill="#080435"/>
<path d="M71.5191 20.1294C71.4517 20.5601 71.6479 20.9417 71.9546 20.9971C72.2613 21.0463 72.5618 20.7386 72.6292 20.314C72.6967 19.8832 72.5004 19.5017 72.1938 19.4463C71.8871 19.3909 71.5866 19.7047 71.5191 20.1294Z" fill="#080435"/>
<path d="M79.4369 20.6094C79.4798 20.6217 79.5227 20.6094 79.5595 20.5663C79.6209 20.4986 79.6393 20.3878 79.5963 20.314C79.5718 20.2709 79.0505 19.1755 77.8484 19.7417C77.7748 19.7786 77.7257 19.8771 77.7441 19.9694C77.7625 20.0617 77.8361 20.0924 77.9158 20.074C78.7009 19.9448 79.351 20.5109 79.3694 20.5478C79.3878 20.5786 79.4123 20.5971 79.443 20.6032L79.4369 20.6094Z" fill="#080435"/>
<path d="M77.1919 21.6246C76.9711 21.9939 77.0018 22.4246 77.2655 22.5908C77.5292 22.7569 77.9279 22.5908 78.1487 22.2216C78.3695 21.8523 78.3388 21.4216 78.0751 21.2554C77.8114 21.0893 77.4127 21.2554 77.1919 21.6246Z" fill="#080435"/>
<path d="M72.0641 26.1721C70.9847 26.1721 69.3594 25.8521 68.3903 24.1413C68.3535 24.0798 68.3781 24.0059 68.4394 23.969C68.5007 23.9321 68.5743 23.9567 68.6111 24.0182C70.0463 26.5659 72.9657 25.8521 73.0883 25.8152C73.1558 25.7967 73.2233 25.8398 73.2417 25.9075C73.2601 25.9752 73.2171 26.0429 73.1497 26.0613C73.1374 26.0613 72.6958 26.1721 72.0641 26.1721Z" fill="#020202"/>
<path d="M68.1329 24.5846C68.1329 24.5846 68.1084 24.5846 68.0961 24.5784C68.0287 24.5538 67.9919 24.4861 68.0164 24.4184C68.1207 24.1046 68.3967 23.8154 68.8444 23.5569C68.9057 23.52 68.9916 23.5323 69.0284 23.5938C69.0652 23.6492 69.0652 23.7169 69.0039 23.7538L68.9671 23.7784C68.4825 24.0554 68.3108 24.3261 68.2556 24.4984C68.2372 24.5538 68.1881 24.5846 68.1391 24.5846H68.1329Z" fill="#020202"/>
<path d="M82.3476 51.3631L81.8232 51.5361L83.8529 57.7267L84.3773 57.5536L82.3476 51.3631Z" fill="#131F2D"/>
<path d="M78.1982 27.7414C77.5481 27.7414 76.9654 27.5014 76.4932 27.0275C74.9844 25.526 75.0519 22.0429 76.6526 19.2614C77.6401 17.5506 79.02 16.4244 80.3448 16.246C81.136 16.1414 81.8535 16.3752 82.4117 16.9352C83.9204 18.4367 83.853 21.9198 82.2522 24.7014C81.2648 26.4121 79.8848 27.5383 78.56 27.7167C78.4374 27.7352 78.3147 27.7414 78.1982 27.7414ZM80.7066 16.6029C80.6024 16.6029 80.5043 16.6091 80.3939 16.6214C79.1795 16.7814 77.8977 17.846 76.9715 19.4521C75.4505 22.0921 75.3524 25.3721 76.7508 26.7629C77.223 27.2367 77.8302 27.4337 78.5048 27.3475C79.7192 27.1814 81.001 26.1229 81.9271 24.5167C83.4482 21.8767 83.5463 18.5967 82.1479 17.206C81.7493 16.806 81.2525 16.6029 80.7066 16.6029Z" fill="white"/>
<path opacity="0.3" d="M67.6485 15.1879C66.3544 17.951 66.7102 21.311 68.4458 22.6956C70.1815 24.0802 72.6409 22.9602 73.935 20.1971C75.2291 17.434 74.8734 14.074 73.1377 12.6894C71.402 11.3048 68.9426 12.4248 67.6485 15.1879Z" fill="white"/>
<path opacity="0.3" d="M76.5235 19.4892C75.2233 22.2646 75.4012 25.6369 76.9161 27.0154C78.431 28.3939 80.7186 27.2615 82.0127 24.4862C83.313 21.7108 83.1351 18.3385 81.6202 16.96C80.1053 15.5815 77.8176 16.7139 76.5235 19.4892Z" fill="white"/>
<path d="M70.3963 23.4336C69.7155 23.4336 69.0777 23.2059 68.5073 22.7628C66.5876 21.2613 66.1644 17.6367 67.5628 14.689C68.3785 12.9659 69.6419 11.7905 71.0342 11.4644C71.9909 11.2367 72.9048 11.4398 73.6776 12.0428C75.5972 13.5444 76.0204 17.169 74.6221 20.1167C73.8064 21.8398 72.5429 23.0151 71.1507 23.3413C70.8931 23.4028 70.6416 23.4336 70.3963 23.4336ZM71.7885 11.7536C71.5678 11.7536 71.347 11.7782 71.1262 11.8336C69.8627 12.1351 68.6606 13.2613 67.9063 14.8551C66.5815 17.6551 66.9556 21.0705 68.7404 22.4736C69.4211 23.009 70.2246 23.1813 71.0648 22.9844C72.3283 22.6828 73.5304 21.5567 74.2847 19.9628C75.6095 17.1628 75.2354 13.7475 73.4506 12.3444C72.9538 11.9567 72.3896 11.7536 71.7885 11.7536Z" fill="white"/>
<path d="M76.7508 20.6705C76.6466 20.6705 76.5423 20.6213 76.4748 20.5352C76.4442 20.4982 75.7205 19.5936 74.1442 19.5505C73.9541 19.5505 73.8008 19.3844 73.8008 19.1936C73.8008 19.0029 73.9602 18.8429 74.1565 18.8552C76.0823 18.9044 76.99 20.0613 77.0268 20.1105C77.1434 20.2644 77.1127 20.4859 76.9594 20.6029C76.898 20.6521 76.8244 20.6767 76.7447 20.6767L76.7508 20.6705Z" fill="white"/>
<path d="M69.4767 9.35398C76.0269 11.6001 80.2159 18.074 79.7743 25.0094C79.7497 25.4094 79.7191 25.8278 79.6761 26.2463C79.6761 26.2463 75.0517 26.8247 74.3894 31.2617C74.1808 32.6524 77.9834 35.4155 78.2717 35.3171C80.4735 34.5724 86.4656 29.9447 86.1834 19.594C85.9013 9.24321 82.6569 1.35397 73.3222 0.147821C63.9875 -1.05218 64.6438 5.32936 64.6438 5.32936C64.6438 5.32936 66.036 8.17244 69.4706 9.34782L69.4767 9.35398Z" fill="#131F2D"/>
<path d="M70.7829 9.4952C70.7829 9.4952 70.6173 9.58136 70.3413 9.75982C69.2803 10.4367 66.6185 12.4121 65.8764 15.6675C64.938 19.766 68.6731 22.726 67.2808 25.8337C65.8825 28.9414 63.3372 25.0644 60.9453 25.3906C58.5534 25.7167 56.9403 24.4552 57.2286 19.7475C57.5169 15.0337 59.6451 4.17828 65.1833 4.70136L70.7952 9.50136L70.7829 9.4952Z" fill="#131F2D"/>
<path d="M81.5279 30.4369C81.5279 30.4369 81.5157 30.4369 81.5095 30.4369C81.4543 30.4246 81.4114 30.3692 81.4237 30.3138C82.6994 23.6492 80.9024 16.8985 78.5595 13.1631C74.9348 7.39077 70.4515 7.66769 70.4085 7.66769C70.3533 7.66769 70.2981 7.63077 70.292 7.56923C70.292 7.50769 70.3288 7.45846 70.3901 7.4523C70.4331 7.4523 75.0329 7.15077 78.7374 13.0462C81.1048 16.8123 82.9202 23.6246 81.6322 30.3446C81.6199 30.3938 81.577 30.4308 81.5279 30.4308V30.4369Z" fill="white"/>
<path d="M61.2151 21.7536C61.1721 21.7536 61.1292 21.729 61.1169 21.6859C59.4303 17.0521 61.2335 9.47055 63.2145 7.34132C65.2323 5.17517 67.9922 6.69517 68.0229 6.71363C68.0719 6.7444 68.0903 6.80594 68.0658 6.86132C68.0413 6.91671 67.9738 6.92901 67.9186 6.9044C67.8082 6.84286 65.2752 5.45209 63.3739 7.49517C61.4236 9.58748 59.6572 17.0521 61.3193 21.6182C61.3377 21.6736 61.3132 21.7352 61.258 21.7536C61.2457 21.7536 61.2335 21.7598 61.2212 21.7598L61.2151 21.7536Z" fill="white"/>
<path d="M82.9084 22.1292C82.8471 22.1292 82.8041 22.08 82.8041 22.0185C82.8041 21.8892 83.2212 9.24925 78.4435 6.63386C73.6596 4.01848 69.6853 6.39386 69.6485 6.41848C69.5994 6.44925 69.532 6.43079 69.5013 6.38156C69.4707 6.33232 69.4891 6.26463 69.5381 6.23386C69.5811 6.20925 73.6535 3.77232 78.5477 6.44309C83.442 9.12002 83.0372 21.4954 83.0188 22.0185C83.0188 22.0739 82.9697 22.1231 82.9145 22.1231L82.9084 22.1292Z" fill="white"/>
</g>
<defs>
<clipPath id="clip0_153_43">
<rect width="125" height="132" fill="white"/>
</clipPath>
</defs>
</svg>
