<svg width="59" height="59" viewBox="0 0 59 59" fill="none" xmlns="http://www.w3.org/2000/svg">
<path d="M28.5402 1.28196C28.8207 0.322876 30.1793 0.322872 30.4598 1.28195L36.474 21.8469C36.5697 22.1743 36.8257 22.4303 37.1531 22.526L57.718 28.5402C58.6771 28.8207 58.6771 30.1793 57.718 30.4598L37.1531 36.474C36.8257 36.5697 36.5697 36.8257 36.474 37.1531L30.4598 57.718C30.1793 58.6771 28.8207 58.6771 28.5402 57.718L22.526 37.1531C22.4303 36.8257 22.1743 36.5697 21.8469 36.474L1.28196 30.4598C0.322876 30.1793 0.322872 28.8207 1.28195 28.5402L21.8469 22.526C22.1743 22.4303 22.4303 22.1743 22.526 21.8469L28.5402 1.28196Z" fill="#454949"/>
</svg>
