<svg width="80" height="80" viewBox="0 0 80 80" fill="none" xmlns="http://www.w3.org/2000/svg">
<rect x="0.5" y="0.5" width="79" height="79" rx="39.5" fill="#D9D9D9" fill-opacity="0.55"/>
<rect x="0.5" y="0.5" width="79" height="79" rx="39.5" stroke="#454949"/>
<path d="M27.9441 51.7433C27.2501 52.6026 27.384 53.8618 28.2433 54.5559C29.1026 55.2499 30.3618 55.116 31.0559 54.2567L27.9441 51.7433ZM52.4888 26.7884C52.3719 25.6901 51.3868 24.8944 50.2884 25.0112L32.3894 26.9154C31.2911 27.0322 30.4954 28.0173 30.6122 29.1157C30.7291 30.2141 31.7142 31.0098 32.8126 30.8929L48.7228 29.2004L50.4154 45.1106C50.5322 46.2089 51.5173 47.0046 52.6157 46.8878C53.7141 46.7709 54.5098 45.7858 54.3929 44.6874L52.4888 26.7884ZM29.5 53L31.0559 54.2567L52.0559 28.2567L50.5 27L48.9441 25.7433L27.9441 51.7433L29.5 53Z" fill="#454949"/>
</svg>
