<svg width="280" height="244" viewBox="0 0 280 244" fill="none" xmlns="http://www.w3.org/2000/svg">
<path d="M241.731 199.58H164.023C153.414 199.58 144.389 192.799 141.052 183.33C140.285 181.173 139.974 180.095 139.662 180.095C139.35 180.095 139.039 181.173 138.273 183.33C134.922 192.799 125.897 199.58 115.288 199.58H37.5805C16.998 199.58 0.324219 216.259 0.324219 236.849V243.876H279.013V236.849C279.013 216.259 262.326 199.58 241.744 199.58H241.731Z" fill="#00A0FF"/>
<path d="M139.648 143.346C140.311 143.346 140.869 144.229 140.869 145.307V164.286C140.869 165.364 140.311 166.248 139.648 166.248C138.986 166.248 138.428 165.364 138.428 164.286V145.307C138.428 144.229 138.973 143.346 139.648 143.346Z" fill="#00A0FF"/>
<path style="mix-blend-mode:multiply" d="M204.383 64.7557C204.383 100.517 175.398 129.511 139.648 129.511C103.898 129.511 74.9141 100.517 74.9141 64.7557C74.9141 28.9939 103.898 0 139.648 0C175.398 0 204.383 28.9939 204.383 64.7557Z" fill="url(#paint0_radial_394_5840)"/>
<path d="M201.189 64.7557C201.189 98.7508 173.633 126.316 139.649 126.316C105.665 126.316 78.1094 98.7508 78.1094 64.7557C78.1094 30.7606 105.665 3.19556 139.649 3.19556C173.633 3.19556 201.189 30.7606 201.189 64.7557Z" fill="#F8F8F8"/>
<path d="M193.579 64.7558C193.579 94.5551 169.438 118.704 139.649 118.704C109.859 118.704 85.7188 94.5421 85.7188 64.7558C85.7188 34.9695 109.859 10.8079 139.649 10.8079C169.438 10.8079 193.579 34.9695 193.579 64.7558Z" fill="#00A0FF"/>
<path style="mix-blend-mode:multiply" d="M190.41 64.7558C190.41 92.7885 167.685 115.534 139.648 115.534C111.612 115.534 88.8867 92.8015 88.8867 64.7558C88.8867 36.7102 111.612 13.9905 139.648 13.9905C167.685 13.9905 190.41 36.7232 190.41 64.7558Z" fill="url(#paint1_radial_394_5840)"/>
<path d="M186.151 64.7559C186.151 90.4503 165.335 111.273 139.649 111.273C113.963 111.273 93.1465 90.4503 93.1465 64.7559C93.1465 39.0614 113.963 18.2383 139.649 18.2383C165.335 18.2383 186.151 39.0614 186.151 64.7559Z" fill="#F8F8F8"/>
<path d="M119.597 92.13C118.675 91.4026 118.337 91.1428 117.649 90.5712C116.961 89.9997 116.662 89.7139 115.779 88.9345C114.857 88.1161 114.234 87.0379 114.052 85.8948C114.013 85.674 114 85.4531 114 85.2583C114 84.349 114.312 83.5306 114.896 82.9071C121.181 76.2561 124.246 73.4243 130.505 66.7863C131.271 65.955 132.323 65.5393 133.349 65.5393C134.076 65.5393 134.803 65.7471 135.401 66.1758L136.894 64.3961C134.037 61.3045 132.57 57.3165 132.57 53.3156C132.57 49.6134 133.829 45.8852 136.388 42.8326C139.608 38.9875 144.244 37 148.893 37C152.594 37 156.321 38.26 159.372 40.8191C163.216 44.0406 165.203 48.6781 165.203 53.3286C165.203 57.0308 163.943 60.7589 161.385 63.8116C158.165 67.6567 153.529 69.6442 148.88 69.6442C145.828 69.6442 142.764 68.7868 140.076 67.0591L138.582 68.8388C139.27 69.5272 139.621 70.4755 139.621 71.4238C139.621 72.2292 139.361 73.0735 138.829 73.775C133.388 81.0884 131.141 84.6088 125.674 91.9612C125.051 92.7925 124.038 93.2862 122.882 93.2991H122.804C121.675 93.2991 120.545 92.8705 119.597 92.117V92.13ZM131.297 67.5268C125.012 74.1907 121.947 77.0225 115.688 83.6475C115.299 84.0632 115.091 84.5958 115.091 85.2453C115.091 85.4012 115.091 85.544 115.13 85.7129C115.26 86.5703 115.753 87.4406 116.493 88.1031C117.389 88.8955 117.675 89.1553 118.35 89.7269C119.026 90.2984 119.337 90.5322 120.272 91.2727C121.038 91.8702 121.947 92.208 122.791 92.208H122.856C123.726 92.182 124.389 91.8443 124.804 91.2987C130.245 83.9723 132.505 80.4649 137.959 73.1125C138.348 72.5929 138.53 71.9954 138.53 71.4108C138.53 70.6184 138.206 69.878 137.569 69.3843L137.478 69.2934C137.245 69.0986 137.219 68.7478 137.413 68.527L139.556 65.9679C139.738 65.7471 140.05 65.7081 140.283 65.864C142.893 67.6567 145.893 68.54 148.893 68.54C153.243 68.54 157.541 66.6954 160.567 63.0971C162.957 60.2393 164.125 56.771 164.125 53.3026C164.125 48.9639 162.281 44.6512 158.684 41.6375C155.827 39.2343 152.36 38.0652 148.906 38.0652C144.556 38.0652 140.244 39.9228 137.232 43.508C134.842 46.3659 133.674 49.8342 133.674 53.2896C133.674 57.1736 135.154 61.0317 138.024 63.9545C138.232 64.1623 138.245 64.4741 138.063 64.6949L135.907 67.254C135.816 67.3709 135.673 67.4358 135.53 67.4488C135.388 67.4748 135.232 67.4228 135.128 67.3319L135.011 67.241C134.544 66.8253 133.946 66.6175 133.336 66.6175C132.596 66.6175 131.843 66.9162 131.284 67.5138L131.297 67.5268Z" fill="#4D4D4D"/>
<path d="M122.844 90.3634C122.597 90.1815 122.533 89.8438 122.727 89.597L135.869 71.4238C136.051 71.177 136.388 71.125 136.635 71.2939C136.882 71.4758 136.934 71.8135 136.752 72.0603L123.597 90.2465C123.494 90.3894 123.325 90.4673 123.156 90.4673C123.052 90.4673 122.935 90.4284 122.831 90.3634H122.844Z" fill="#4D4D4D"/>
<path d="M159.178 61.9672C156.529 65.1238 152.711 66.7605 148.88 66.7605C145.829 66.7605 142.764 65.7343 140.258 63.6169C137.089 60.9539 135.453 57.1478 135.453 53.3158C135.453 50.2761 136.492 47.1974 138.596 44.6903C141.258 41.5207 145.063 39.897 148.893 39.897C151.932 39.897 155.01 40.9232 157.516 43.0406C160.685 45.7036 162.321 49.5097 162.321 53.3417C162.321 56.3944 161.282 59.4601 159.178 61.9802V61.9672ZM139.44 45.3918C137.505 47.704 136.557 50.5099 136.557 53.3158C136.557 56.8361 138.063 60.3304 140.972 62.7855C143.284 64.7211 146.089 65.6694 148.893 65.6694C152.426 65.6694 155.906 64.1755 158.347 61.2657C160.282 58.9535 161.23 56.1346 161.23 53.3287C161.23 49.8084 159.737 46.3141 156.828 43.8719C154.516 41.9364 151.698 40.9881 148.906 40.9881C145.387 40.9881 141.894 42.482 139.44 45.4048V45.3918Z" fill="#4D4D4D"/>
<path d="M157.956 56.9139C157.671 56.8229 157.515 56.5112 157.606 56.2254C157.917 55.2901 158.073 54.3159 158.073 53.3286C158.073 51.6789 157.632 50.0291 156.762 48.5742C156.606 48.3144 156.684 47.9767 156.943 47.8208C157.203 47.6519 157.541 47.7558 157.697 48.0027C158.671 49.6264 159.177 51.471 159.177 53.3286C159.177 54.4198 159.008 55.5109 158.658 56.5631C158.58 56.784 158.372 56.9399 158.138 56.9399C158.073 56.9399 158.021 56.9399 157.969 56.9009L157.956 56.9139Z" fill="#4D4D4D"/>
<defs>
<radialGradient id="paint0_radial_394_5840" cx="0" cy="0" r="1" gradientUnits="userSpaceOnUse" gradientTransform="translate(139.648 64.7557) scale(64.7343 64.7557)">
<stop offset="0.92" stop-color="#D1D1D1"/>
<stop offset="1" stop-color="white"/>
</radialGradient>
<radialGradient id="paint1_radial_394_5840" cx="0" cy="0" r="1" gradientUnits="userSpaceOnUse" gradientTransform="translate(139.648 64.7558) scale(50.7616 50.7783)">
<stop offset="0.92" stop-color="#D1D1D1"/>
<stop offset="1" stop-color="white"/>
</radialGradient>
</defs>
</svg>
