<svg width="280" height="244" viewBox="0 0 280 244" fill="none" xmlns="http://www.w3.org/2000/svg">
<path d="M242.353 199.58H164.646C154.036 199.58 145.011 192.799 141.661 183.33C140.895 181.173 140.583 180.095 140.271 180.095C139.96 180.095 139.648 181.173 138.882 183.33C135.532 192.799 126.506 199.58 115.897 199.58H38.1899C17.6074 199.58 0.933594 216.259 0.933594 236.849V243.876H279.622V236.849C279.622 216.259 262.935 199.58 242.353 199.58Z" fill="#00A0FF"/>
<path d="M140.271 143.346C140.934 143.346 141.492 144.229 141.492 145.307V164.286C141.492 165.364 140.947 166.248 140.271 166.248C139.596 166.248 139.051 165.364 139.051 164.286V145.307C139.051 144.229 139.596 143.346 140.271 143.346Z" fill="#00A0FF"/>
<path style="mix-blend-mode:multiply" d="M205.006 64.7557C205.006 100.517 176.021 129.511 140.271 129.511C104.521 129.511 75.5371 100.517 75.5371 64.7557C75.5371 28.9939 104.521 0 140.271 0C176.021 0 205.006 28.9939 205.006 64.7557Z" fill="url(#paint0_radial_2151_267)"/>
<path d="M201.81 64.7557C201.81 98.7508 174.254 126.316 140.27 126.316C106.286 126.316 78.7305 98.7508 78.7305 64.7557C78.7305 30.7606 106.286 3.19556 140.27 3.19556C174.254 3.19556 201.81 30.7606 201.81 64.7557Z" fill="#F8F8F8"/>
<path d="M140.472 118.701C170.256 118.592 194.313 94.3504 194.204 64.556C194.094 34.7616 169.861 10.697 140.076 10.8062C110.292 10.9154 86.235 35.1571 86.3441 64.9515C86.4533 94.7459 110.687 118.811 140.472 118.701Z" fill="#00A0FF"/>
<path style="mix-blend-mode:multiply" d="M191.033 64.7558C191.033 92.7885 168.308 115.534 140.271 115.534C112.235 115.534 89.5098 92.8015 89.5098 64.7558C89.5098 36.7102 112.235 13.9905 140.271 13.9905C168.308 13.9905 191.033 36.7232 191.033 64.7558Z" fill="url(#paint1_radial_2151_267)"/>
<path d="M186.774 64.7559C186.774 90.4503 165.958 111.273 140.272 111.273C114.586 111.273 93.7695 90.4503 93.7695 64.7559C93.7695 39.0614 114.586 18.2383 140.272 18.2383C165.958 18.2383 186.774 39.0614 186.774 64.7559Z" fill="#F8F8F8"/>
<path d="M163.126 51.2761C163.268 51.2761 163.398 51.3411 163.489 51.445C163.593 51.5359 163.645 51.6788 163.645 51.8087V90.3244C163.645 91.0648 163.048 91.6754 162.295 91.6754H118.35C117.61 91.6754 117 91.0648 117 90.3244V51.8087C117 51.6788 117.065 51.5359 117.156 51.445C117.247 51.3411 117.39 51.2761 117.532 51.2761H163.113H163.126ZM118.065 90.3244C118.065 90.4803 118.195 90.6102 118.35 90.6102H162.295C162.45 90.6102 162.58 90.4803 162.58 90.3244V52.3413H118.065V90.3244Z" fill="#4D4D4D"/>
<path d="M151.322 44.937V39.8708C151.322 38.325 152.452 37.013 153.958 37C155.465 37 156.595 38.325 156.595 39.8708V44.937C156.595 46.4698 155.452 47.7948 153.958 47.8078C152.465 47.8078 151.335 46.4828 151.322 44.937ZM152.868 38.5718C152.582 38.8966 152.387 39.3512 152.387 39.8708V44.937C152.387 45.4566 152.582 45.9112 152.868 46.236C153.166 46.5607 153.543 46.7426 153.958 46.7426C154.374 46.7426 154.764 46.5607 155.062 46.236C155.348 45.9112 155.543 45.4566 155.543 44.937V39.8708C155.543 39.3642 155.361 38.8966 155.062 38.5718C154.764 38.2341 154.387 38.0522 153.958 38.0522C153.53 38.0522 153.166 38.2341 152.868 38.5718Z" fill="#4D4D4D"/>
<path d="M124.051 44.937V39.8708C124.051 38.325 125.193 37.013 126.687 37C128.18 37 129.323 38.325 129.323 39.8708V44.937C129.323 46.4698 128.18 47.7948 126.687 47.8078C125.181 47.8078 124.051 46.4828 124.051 44.937ZM125.596 38.5718C125.297 38.8966 125.116 39.3512 125.116 39.8708V44.937C125.116 45.4566 125.31 45.9112 125.596 46.236C125.895 46.5607 126.271 46.7426 126.687 46.7426C127.102 46.7426 127.492 46.5607 127.778 46.236C128.076 45.9112 128.258 45.4566 128.258 44.937V39.8708C128.258 39.3642 128.063 38.8966 127.778 38.5718C127.492 38.2341 127.102 38.0522 126.687 38.0522C126.271 38.0522 125.895 38.2341 125.596 38.5718Z" fill="#4D4D4D"/>
<path d="M128.79 41.8972C128.505 41.8972 128.258 41.6634 128.258 41.3646C128.258 41.0659 128.492 40.832 128.79 40.832H151.84C152.139 40.832 152.372 41.0529 152.372 41.3646C152.372 41.6764 152.139 41.8972 151.84 41.8972H128.79Z" fill="#4D4D4D"/>
<path d="M117.532 52.3413C117.39 52.3413 117.247 52.2893 117.156 52.1854C117.052 52.0945 117 51.9516 117 51.8087V42.183C117 41.4426 117.597 40.832 118.35 40.832H124.584C124.869 40.832 125.116 41.0529 125.116 41.3646C125.116 41.6764 124.882 41.8842 124.584 41.8842H118.35C118.195 41.8842 118.065 42.0141 118.065 42.17V51.2631H162.58V42.17C162.58 42.0141 162.45 41.8842 162.295 41.8842H156.061C155.776 41.8842 155.529 41.6504 155.529 41.3646C155.529 41.0788 155.763 40.832 156.061 40.832H162.295C163.035 40.832 163.645 41.4296 163.645 42.183V51.8087C163.645 51.9516 163.593 52.0945 163.489 52.1854C163.398 52.2893 163.255 52.3413 163.126 52.3413H117.545H117.532Z" fill="#4D4D4D"/>
<path d="M132.934 65.6821C132.155 65.6821 131.545 65.0456 131.545 64.2792V59.3819C131.545 58.6155 132.168 57.9919 132.934 57.9919H137.83C138.596 57.9919 139.22 58.6155 139.22 59.3819V64.2792C139.22 65.0456 138.596 65.6691 137.83 65.6821H132.934ZM132.597 59.3819V64.2792C132.597 64.461 132.753 64.6169 132.934 64.6169H137.83C138.012 64.6169 138.168 64.461 138.168 64.2792V59.3819C138.168 59.2 138.012 59.0441 137.83 59.0441H132.934C132.753 59.0441 132.597 59.2 132.597 59.3819Z" fill="#4D4D4D"/>
<path d="M142.815 65.6821C142.049 65.6821 141.426 65.0456 141.426 64.2792V59.3819C141.426 58.6155 142.049 57.9919 142.815 57.9919H147.711C148.49 57.9919 149.113 58.6155 149.113 59.3819V64.2792C149.113 65.0456 148.49 65.6691 147.711 65.6821H142.815ZM142.478 59.3819V64.2792C142.478 64.461 142.633 64.6169 142.802 64.6169H147.698C147.88 64.6169 148.036 64.461 148.036 64.2792V59.3819C148.036 59.2 147.88 59.0441 147.698 59.0441H142.802C142.633 59.0441 142.478 59.2 142.478 59.3819Z" fill="#4D4D4D"/>
<path d="M152.697 65.6821C151.918 65.6821 151.295 65.0456 151.295 64.2792V59.3819C151.295 58.6155 151.918 57.9919 152.697 57.9919H157.58C158.346 57.9919 158.97 58.6155 158.97 59.3819V64.2792C158.97 65.0456 158.346 65.6691 157.58 65.6821H152.697ZM152.36 59.3819V64.2792C152.36 64.461 152.516 64.6169 152.71 64.6169H157.593C157.775 64.6169 157.931 64.461 157.931 64.2792V59.3819C157.931 59.2 157.775 59.0441 157.593 59.0441H152.71C152.529 59.0441 152.36 59.2 152.36 59.3819Z" fill="#4D4D4D"/>
<path d="M132.934 75.1777C132.155 75.1777 131.545 74.5542 131.545 73.7878V68.8905C131.545 68.1241 132.168 67.4875 132.934 67.4875H137.83C138.596 67.4875 139.22 68.1111 139.22 68.8905V73.7878C139.22 74.5542 138.596 75.1777 137.83 75.1777H132.934ZM132.597 68.8905V73.7878C132.597 73.9696 132.753 74.1255 132.934 74.1255H137.83C138.012 74.1255 138.168 73.9696 138.168 73.7878V68.8905C138.168 68.7086 138.012 68.5527 137.83 68.5527H132.934C132.753 68.5527 132.597 68.7086 132.597 68.8905Z" fill="#4D4D4D"/>
<path d="M152.697 75.1777C151.918 75.1777 151.295 74.5542 151.295 73.7878V68.8905C151.295 68.1241 151.918 67.4875 152.697 67.4875H157.58C158.346 67.4875 158.97 68.1111 158.97 68.8905V73.7878C158.97 74.5542 158.346 75.1777 157.58 75.1777H152.697ZM152.36 68.8905V73.7878C152.36 73.9696 152.516 74.1255 152.71 74.1255H157.593C157.775 74.1255 157.931 73.9696 157.931 73.7878V68.8905C157.931 68.7086 157.775 68.5527 157.593 68.5527H152.71C152.529 68.5527 152.36 68.7086 152.36 68.8905Z" fill="#4D4D4D"/>
<path d="M142.828 75.1777C142.049 75.1777 141.426 74.5542 141.426 73.7878V68.8905C141.426 68.1241 142.049 67.4875 142.828 67.4875H147.711C148.49 67.4875 149.113 68.1111 149.113 68.8905V73.7878C149.113 74.5542 148.49 75.1777 147.711 75.1777H142.828ZM142.478 68.8905V73.7878C142.478 73.9696 142.633 74.1255 142.815 74.1255H147.698C147.88 74.1255 148.036 73.9696 148.036 73.7878V68.8905C148.036 68.7086 147.88 68.5527 147.698 68.5527H142.815C142.633 68.5527 142.478 68.7086 142.478 68.8905Z" fill="#4D4D4D"/>
<path d="M132.934 84.6865C132.155 84.6865 131.545 84.063 131.545 83.2836V78.3993C131.545 77.6199 132.168 76.9963 132.934 76.9963H137.83C138.596 76.9963 139.22 77.6199 139.22 78.3993V83.2836C139.22 84.063 138.596 84.6865 137.83 84.6865H132.934ZM132.597 78.3993V83.2836C132.597 83.4654 132.753 83.6213 132.934 83.6213H137.83C138.012 83.6213 138.168 83.4654 138.168 83.2836V78.3993C138.168 78.2174 138.012 78.0615 137.83 78.0615H132.934C132.753 78.0615 132.597 78.2174 132.597 78.3993Z" fill="#4D4D4D"/>
<path d="M142.815 84.6865C142.049 84.6865 141.426 84.063 141.426 83.2836V78.3993C141.426 77.6199 142.049 76.9963 142.815 76.9963H147.711C148.49 76.9963 149.113 77.6199 149.113 78.3993V83.2836C149.113 84.063 148.477 84.6865 147.711 84.6865H142.815ZM142.478 78.3993V83.2836C142.478 83.4654 142.633 83.6213 142.802 83.6213H147.698C147.88 83.6213 148.036 83.4654 148.036 83.2836V78.3993C148.036 78.2174 147.88 78.0615 147.698 78.0615H142.802C142.633 78.0615 142.478 78.2174 142.478 78.3993Z" fill="#4D4D4D"/>
<path d="M123.065 75.1777C122.285 75.1777 121.662 74.5542 121.662 73.7878V68.8905C121.662 68.1241 122.285 67.4875 123.065 67.4875H127.947C128.726 67.4875 129.35 68.1111 129.35 68.8905V73.7878C129.35 74.5542 128.713 75.1777 127.947 75.1777H123.065ZM122.727 68.8905V73.7878C122.727 73.9696 122.883 74.1255 123.065 74.1255H127.947C128.142 74.1255 128.298 73.9696 128.298 73.7878V68.8905C128.298 68.7086 128.142 68.5527 127.947 68.5527H123.065C122.883 68.5527 122.727 68.7086 122.727 68.8905Z" fill="#4D4D4D"/>
<path d="M123.065 84.6865C122.285 84.6865 121.662 84.063 121.662 83.2836V78.3993C121.662 77.6199 122.285 76.9963 123.065 76.9963H127.947C128.726 76.9963 129.35 77.6199 129.35 78.3993V83.2836C129.35 84.063 128.713 84.6865 127.947 84.6865H123.065ZM122.727 78.3993V83.2836C122.727 83.4654 122.883 83.6213 123.065 83.6213H127.947C128.142 83.6213 128.298 83.4654 128.298 83.2836V78.3993C128.298 78.2174 128.142 78.0615 127.947 78.0615H123.065C122.883 78.0615 122.727 78.2174 122.727 78.3993Z" fill="#4D4D4D"/>
<defs>
<radialGradient id="paint0_radial_2151_267" cx="0" cy="0" r="1" gradientUnits="userSpaceOnUse" gradientTransform="translate(140.271 0.649506) scale(64.7343 64.7557)">
<stop offset="0.92" stop-color="#D1D1D1"/>
<stop offset="1" stop-color="white"/>
</radialGradient>
<radialGradient id="paint1_radial_2151_267" cx="0" cy="0" r="1" gradientUnits="userSpaceOnUse" gradientTransform="translate(140.271 64.7558) scale(50.7616 50.7783)">
<stop offset="0.92" stop-color="#D1D1D1"/>
<stop offset="1" stop-color="white"/>
</radialGradient>
</defs>
</svg>
