<svg width="85" height="48" viewBox="0 0 85 48" fill="none" xmlns="http://www.w3.org/2000/svg">
<g clip-path="url(#clip0_165_235)">
<path d="M7.66818 30.1951C7.66818 30.1951 7.66153 30.2019 7.6582 30.1951C7.6582 30.1951 7.6582 30.1918 7.6582 30.1884C7.6582 30.1884 7.66485 30.1951 7.66818 30.1884V30.1851V30.1951Z" fill="#454949"/>
<path d="M6.09146 35.4699C5.93902 35.8546 5.25305 35.5468 5.32927 35.1621C5.40549 34.8543 5.25305 34.6234 4.87195 34.3926L0 31.8564V31.4717L2.05488 26.627L2.5122 26.4731L6.625 28.8554C7.61585 29.3941 8.22561 30.1636 7.76829 31.2377L6.09146 35.4668V35.4699Z" fill="#454949"/>
<path d="M28.4633 14.5524C31.9664 15.0911 33.4145 17.1656 32.4999 21.4716L31.4328 27.2365C30.3657 32.9245 24.1218 37.6922 18.945 37.4613C12.0914 37.0766 11.9389 30.5422 12.9298 25.3128C13.2499 23.5061 13.6737 21.6963 14.2103 19.9357L13.4633 19.8557C13.3871 19.7018 13.3109 19.4709 13.2346 19.3171L14.5304 13.0904C14.6828 13.0135 14.8353 13.0135 14.9877 13.0135L28.4694 14.5494L28.4633 14.5524ZM17.3444 29.6219C24.9603 32.235 31.8139 22.0102 28.692 21.4716L15.5243 20.0773C15.1462 21.7855 14.6798 23.6046 14.6798 25.3159C14.6798 27.8521 15.7468 29.0833 17.3444 29.6219ZM20.009 9.4031L15.134 6.86691V6.48217L17.192 1.63754L17.6493 1.48364L21.7621 3.86594C22.4481 4.25068 22.9816 4.78932 23.0578 5.4049L24.6584 1.63754L25.1157 1.48364L29.2286 3.86594C30.2194 4.40458 30.8292 5.17406 30.3718 6.24825L28.695 10.4773C28.5426 10.862 27.8566 10.5542 27.9328 10.1695C28.009 9.86171 27.8566 9.63087 27.4755 9.40003L22.6767 6.86383L21.2286 10.4773C21.0761 10.862 20.3901 10.5542 20.4664 10.1695C20.5426 9.86171 20.3901 9.63087 20.009 9.40003V9.4031Z" fill="#454949"/>
<path d="M17.5734 47.2305C25.8752 43.0784 34.0978 37.929 37.7532 34.2386C41.2563 30.7021 43.9971 26.3191 45.5215 22.244L38.8965 15.4787C38.8203 15.2479 38.6679 15.0171 38.5917 14.8632L40.8752 9.02128L41.4849 8.94434C44.988 13.789 46.8904 17.0177 47.5002 22.244C48.0337 27.7781 44.988 34.3925 41.1039 39.4649C38.0581 43.4631 34.8599 44.5404 29.7563 44.3095C28.613 44.2326 27.0917 44.2326 25.1862 45.002C22.9788 45.9254 20.5398 47.0027 18.0276 47.9999L17.5703 47.2305H17.5734Z" fill="#454949"/>
<path d="M36.7648 47.2304C45.0666 43.0783 53.2892 37.929 56.9446 34.2385C60.3715 30.779 63.1123 26.396 64.6367 22.3978L63.2648 20.705L61.8928 23.3181C59.6093 27.7011 50.3166 25.1618 51.2312 20.3972C51.6123 18.0149 51.9934 15.7065 52.4507 13.4011C52.527 12.7855 52.7556 12.4008 53.1367 11.8621C53.8989 10.8618 54.5087 9.86458 55.2678 9.01815C56.1824 7.94089 57.2465 8.01783 58.3898 8.55647C63.4904 10.7849 66.1581 17.0146 66.6916 22.2409C67.2251 27.7749 64.1794 34.3894 60.2953 39.4618C57.2495 43.46 54.0514 44.5372 48.9477 44.3064C47.8044 44.2294 46.2831 44.2294 44.3776 44.9989C42.1703 45.9223 39.7312 46.9996 37.219 47.9968L36.7617 47.2273L36.7648 47.2304ZM60.6001 17.9379C59.152 16.4759 57.4782 14.7092 55.2709 14.7092C54.5087 14.7092 54.0514 15.1709 53.1398 16.3251C53.0635 16.4021 53.0635 16.556 53.0635 16.7098C54.966 19.0152 58.1642 19.246 60.6032 17.941L60.6001 17.9379Z" fill="#454949"/>
<path d="M82.2591 10.5664L84.753 16.4421C85.3932 17.9934 84.753 25.2264 83.1524 26.1283C77.3323 29.8095 72.2774 31.2961 68.8871 30.5851C64.9847 29.7448 63.2591 25.9344 65.1768 19.0891L65.753 18.8306C65.2408 21.9946 66.5213 23.6752 68.8871 24.1923C71.7012 24.774 75.9878 23.6752 80.3384 21.4806L82.8323 20.0586L80.2743 15.7957C79.8262 15.0847 79.9542 14.6323 80.2743 13.8597L82.5122 8.75656C82.5762 8.62728 82.6402 8.62728 82.7042 8.69192L82.8323 8.82119C82.8963 8.88583 82.8963 8.95046 82.8963 8.95046L82.256 10.5664H82.2591ZM78.5731 8.99356C78.4207 9.37829 77.7347 9.0705 77.8109 8.68576C77.8871 8.37797 77.7347 8.14713 77.3536 7.91629L72.4786 5.38009V4.99535L74.5335 0.150722L74.9908 -0.00317383L79.1036 2.37913C80.0945 2.91776 80.7042 3.68724 80.2469 4.76143L78.5701 8.99048L78.5731 8.99356Z" fill="#454949"/>
</g>
<defs>
<clipPath id="clip0_165_235">
<rect width="85" height="48" fill="white"/>
</clipPath>
</defs>
</svg>
