<svg width="22" height="22" viewBox="0 0 22 22" fill="none" xmlns="http://www.w3.org/2000/svg">
<g clip-path="url(#clip0_413_9073)">
<path d="M9.19483 8.03418C8.93646 8.71565 8.54275 8.94687 8.7273 9.2511C8.91185 9.55532 9.69928 9.88389 10.6959 9.71352" fill="white"/>
<path d="M13.3272 8.03418C13.5856 8.71565 13.9793 8.94687 13.7947 9.2511C13.6102 9.55532 12.8228 9.88389 11.8262 9.71352" fill="white"/>
<path d="M10.0671 9.21484C10.1409 10.2492 9.73488 10.7603 9.73488 10.7603L8.86133 11.1862L9.71027 12.6952L11.2359 13.4132L12.2325 12.6587L12.7985 12.4397L13.4505 11.0159L13.0199 10.736C13.0199 10.736 12.4663 10.164 12.5647 9.25135" fill="white"/>
<path d="M8.62747 12.0746L8.82432 11.4297L9.23034 10.9551L10.9282 12.172H11.9494L13.3766 11.0281L13.8565 11.3932L14.0533 11.8556L14.3609 13.5471C14.3609 13.5471 14.5701 13.7296 14.4593 14.1677C14.3609 14.6058 14.73 14.837 13.6473 15.1048C12.5646 15.3725 11.6172 15.555 10.9282 15.555C10.2392 15.555 9.87012 15.8349 9.20573 15.3116C8.54134 14.7884 7.87695 14.4233 7.87695 13.9365" fill="white"/>
<path d="M16.7116 12.4153C16.6009 12.1354 13.1682 10.7968 13.1682 10.7968L11.9132 14.6788H10.9782L9.58786 10.7725C9.58786 10.7725 6.14287 12.1963 6.03214 12.464C5.92141 12.7439 5.38005 13.401 5.10938 15.129C5.10938 15.129 7.44704 16.2851 11.0397 16.2486C15.0137 16.4555 17.6467 15.1534 17.6467 15.1534C17.5236 13.3645 16.8223 12.683 16.7116 12.4153Z" fill="white"/>
<path d="M13.4753 6.97574V6.67151C13.4753 6.67151 13.6476 4.35938 11.3099 4.35938C8.67693 4.35938 9.10755 6.68368 9.10755 6.68368V6.98791C8.89839 6.80538 8.73845 6.9149 8.82457 7.47468C8.923 8.03446 9.03373 8.31435 9.10755 8.30218C9.18138 8.29001 9.19368 8.217 9.19368 8.217C9.19368 8.217 9.23059 8.39953 9.29211 8.61858C9.31671 8.74027 9.36593 8.91064 9.41514 9.09318C9.55048 9.57994 10.5471 10.0545 11.2361 10.0667C11.2484 10.0667 11.2607 10.0667 11.273 10.0667C11.2853 10.0667 11.2976 10.0667 11.3099 10.0667C11.9989 10.0667 13.0078 9.57994 13.1308 9.09318C13.18 8.91064 13.2169 8.75244 13.2538 8.61858C13.3154 8.4117 13.3523 8.217 13.3523 8.217C13.3523 8.217 13.3523 8.29001 13.4384 8.30218C13.5122 8.31435 13.6353 8.03446 13.7214 7.47468C13.8198 6.9149 13.6476 6.80538 13.4507 6.98791L13.4753 6.97574Z" fill="white"/>
<path d="M9.13182 7.8763C9.13182 7.8763 9.25486 6.86626 9.78391 6.65939C10.313 6.45251 10.5713 6.20913 10.5959 5.77104C10.5959 5.77104 11.9124 5.78321 13.6226 7.97365C14.4346 7.76678 14.287 3.11816 10.153 4.55412C10.153 4.55412 7.12635 4.84618 9.13182 7.8763Z" fill="white"/>
</g>
<path d="M11.1055 1.00098C16.5811 1.00098 21.0194 5.43766 21.0195 10.9102C21.0195 16.3828 16.5812 20.8203 11.1055 20.8203C5.62984 20.8202 1.19141 16.3827 1.19141 10.9102C1.19154 5.43773 5.62993 1.00109 11.1055 1.00098Z" stroke="white"/>
<defs>
<clipPath id="clip0_413_9073">
<rect width="12.5373" height="11.9866" fill="white" transform="translate(5.10938 4.28613)"/>
</clipPath>
</defs>
</svg>
