<svg width="355" height="261" viewBox="0 0 355 261" fill="none" xmlns="http://www.w3.org/2000/svg">
<circle cx="300" cy="110.001" r="13" fill="#00A0FF"/>
<circle cx="300" cy="146.001" r="13" fill="#3876BF"/>
<path d="M334.12 113.673H334.96V116.001H334.192C333.568 116.001 333.024 115.913 332.56 115.737C332.096 115.561 331.704 115.337 331.384 115.065C330.648 115.849 329.616 116.241 328.288 116.241C327.552 116.241 326.848 116.145 326.176 115.953C325.52 115.761 324.856 115.489 324.184 115.137H323.824C322.8 115.185 322.288 115.841 322.288 117.105V120.969C322.288 121.625 322.12 122.113 321.784 122.433C321.464 122.753 321.008 122.913 320.416 122.913H320.2C320.024 122.913 319.936 122.833 319.936 122.673V117.057C319.936 115.857 320.2 114.905 320.728 114.201C321.256 113.481 322.008 113.041 322.984 112.881C323.112 112.721 323.224 112.529 323.32 112.305C323.432 112.065 323.56 111.793 323.704 111.489C324.12 110.641 324.52 109.865 324.904 109.161C325.304 108.441 325.768 107.865 326.296 107.433C326.824 107.001 327.48 106.785 328.264 106.785C329.032 106.785 329.68 106.937 330.208 107.241C330.752 107.545 331.184 107.953 331.504 108.465C331.824 108.961 332.056 109.505 332.2 110.097C332.344 110.673 332.424 111.241 332.44 111.801V111.849C332.472 112.553 332.664 113.033 333.016 113.289C333.384 113.545 333.752 113.673 334.12 113.673ZM328.408 113.985C328.872 113.953 329.256 113.793 329.56 113.505C329.864 113.217 330.016 112.665 330.016 111.849C330.016 110.873 329.864 110.153 329.56 109.689C329.256 109.209 328.864 108.969 328.384 108.969C327.952 108.969 327.552 109.289 327.184 109.929C326.816 110.553 326.432 111.289 326.032 112.137C325.824 112.601 325.648 112.953 325.504 113.193C326.144 113.529 326.712 113.753 327.208 113.865C327.704 113.961 328.104 114.001 328.408 113.985ZM340.054 116.001H334.702V113.673H339.118L337.366 111.369C337.158 111.129 337.022 110.889 336.958 110.649C336.91 110.393 336.886 110.153 336.886 109.929C336.87 109.305 337.102 108.761 337.582 108.297C338.078 107.817 338.702 107.449 339.454 107.193C340.222 106.921 341.014 106.785 341.83 106.785C342.646 106.769 343.43 106.897 344.182 107.169C344.95 107.441 345.582 107.817 346.078 108.297C346.574 108.761 346.814 109.305 346.798 109.929C346.782 110.153 346.742 110.385 346.678 110.625C346.614 110.865 346.486 111.113 346.294 111.369L344.542 113.673H349.126V116.001H343.606C343.206 116.001 342.862 115.969 342.574 115.905C342.302 115.825 342.054 115.713 341.83 115.569C341.382 115.857 340.79 116.001 340.054 116.001ZM339.934 111.009L341.71 113.313C341.79 113.425 341.87 113.425 341.95 113.313L343.726 111.009C343.806 110.913 343.878 110.801 343.942 110.673C344.006 110.545 344.038 110.417 344.038 110.289C344.038 110.001 343.854 109.713 343.486 109.425C343.134 109.121 342.582 108.969 341.83 108.969C341.094 108.969 340.542 109.121 340.174 109.425C339.806 109.713 339.622 110.001 339.622 110.289C339.622 110.417 339.654 110.545 339.718 110.673C339.798 110.801 339.87 110.913 339.934 111.009ZM352.554 103.209C352.906 103.209 353.202 103.337 353.442 103.593C353.682 103.833 353.802 104.137 353.802 104.505C353.802 104.857 353.682 105.161 353.442 105.417C353.202 105.657 352.906 105.777 352.554 105.777C352.202 105.777 351.898 105.657 351.642 105.417C351.402 105.161 351.282 104.857 351.282 104.505C351.282 104.137 351.402 103.833 351.642 103.593C351.898 103.337 352.202 103.209 352.554 103.209ZM349.554 116.001H348.858V113.673H349.602C350.178 113.673 350.602 113.497 350.874 113.145C351.162 112.777 351.306 112.289 351.306 111.681V109.185C351.306 107.873 351.93 107.217 353.178 107.217H353.394C353.57 107.217 353.658 107.297 353.658 107.457V111.729C353.658 113.041 353.298 114.081 352.578 114.849C351.858 115.617 350.85 116.001 349.554 116.001Z" fill="black"/>
<path d="M350.207 138.657H350.423C350.599 138.657 350.687 138.737 350.687 138.897V147.729C350.687 149.041 350.327 150.081 349.607 150.849C348.903 151.617 347.895 152.001 346.583 152.001H341.207C341.031 152.001 340.911 151.977 340.847 151.929C340.783 151.865 340.751 151.753 340.751 151.593V151.377C340.751 150.881 340.927 150.473 341.279 150.153C341.631 149.833 342.079 149.673 342.623 149.673H344.039L342.095 143.697C341.775 142.737 341.919 142.049 342.527 141.633C342.639 141.553 342.751 141.489 342.863 141.441C342.991 141.377 343.159 141.313 343.367 141.249L343.535 141.177C343.663 141.129 343.759 141.193 343.823 141.369L346.559 149.673H346.799C347.295 149.673 347.671 149.489 347.927 149.121C348.199 148.737 348.335 148.257 348.335 147.681V140.625C348.335 140.177 348.415 139.801 348.575 139.497C348.735 139.177 348.975 138.961 349.295 138.849C349.439 138.785 349.567 138.737 349.679 138.705C349.791 138.673 349.967 138.657 350.207 138.657Z" fill="black"/>
<path d="M70.1119 50.3139C56.154 59.6306 44.7093 72.2459 36.7915 87.0422C28.8736 101.839 24.7271 118.359 24.7191 135.141C24.7112 151.923 28.8421 168.447 36.7458 183.251C44.6496 198.055 56.0824 210.681 70.0314 220.011C83.9804 229.341 100.015 235.087 116.715 236.74C133.415 238.392 150.265 235.901 165.772 229.486C181.28 223.072 194.966 212.932 205.618 199.964C216.27 186.997 223.56 171.603 226.842 155.145L126.766 135.189L70.1119 50.3139Z" fill="#00A0FF"/>
<path d="M226.936 149.772C230.748 130.699 228.818 110.924 221.391 92.9473C213.963 74.9709 201.372 59.6007 185.21 48.7802C169.047 37.9597 150.038 32.1751 130.588 32.1577C111.138 32.1403 92.1192 37.891 75.9372 48.6826L130.5 130.5L226.936 149.772Z" fill="#3876BF"/>
<path d="M179.7 84.18C180.3 84.3533 180.786 84.6533 181.16 85.08C181.533 85.4933 181.72 86.0533 181.72 86.76C181.72 87.76 181.36 88.5867 180.64 89.24C179.92 89.88 178.946 90.2 177.72 90.2C176.853 90.2 176.14 90.0533 175.58 89.76C175.02 89.4533 174.606 89.0867 174.34 88.66C174.073 88.2333 173.94 87.84 173.94 87.48C173.94 87.16 174.046 87 174.26 87C174.326 87 174.38 87.0133 174.42 87.04C174.473 87.0533 174.533 87.1 174.6 87.18C174.946 87.5267 175.353 87.8267 175.82 88.08C176.286 88.3333 176.866 88.46 177.56 88.46C178.24 88.46 178.78 88.3067 179.18 88C179.58 87.68 179.78 87.2467 179.78 86.7C179.78 86.1533 179.586 85.76 179.2 85.52C178.826 85.28 178.366 85.16 177.82 85.16H176.62C176.246 85.16 175.966 85.0933 175.78 84.96C175.606 84.8133 175.52 84.5667 175.52 84.22V83.72C175.52 83.52 175.613 83.42 175.8 83.42H177.66C178.273 83.42 178.713 83.28 178.98 83C179.26 82.72 179.4 82.34 179.4 81.86C179.4 81.3667 179.233 81 178.9 80.76C178.58 80.5067 178.14 80.38 177.58 80.38C177.046 80.38 176.566 80.4533 176.14 80.6C175.726 80.7333 175.326 80.9133 174.94 81.14C174.846 81.22 174.753 81.26 174.66 81.26C174.58 81.26 174.52 81.2 174.48 81.08L174.32 80.66C174.08 79.9533 174.346 79.4533 175.12 79.16C175.466 79.0133 175.853 78.9 176.28 78.82C176.72 78.7267 177.193 78.68 177.7 78.68C178.393 78.68 179.013 78.7933 179.56 79.02C180.12 79.2333 180.56 79.56 180.88 80C181.213 80.44 181.38 80.9933 181.38 81.66C181.38 82.22 181.226 82.7267 180.92 83.18C180.613 83.62 180.206 83.9533 179.7 84.18ZM185.345 80.66V83.02C185.558 82.9667 185.805 82.9133 186.085 82.86C186.378 82.8067 186.718 82.78 187.105 82.78C188.278 82.78 189.192 83.1 189.845 83.74C190.512 84.3667 190.845 85.22 190.845 86.3C190.845 87.1 190.658 87.7933 190.285 88.38C189.925 88.9533 189.438 89.4 188.825 89.72C188.212 90.04 187.525 90.2 186.765 90.2C185.978 90.2 185.298 90.0667 184.725 89.8C184.165 89.5333 183.732 89.2 183.425 88.8C183.132 88.3867 182.985 87.9667 182.985 87.54C182.985 87.2067 183.092 87.04 183.305 87.04C183.412 87.04 183.525 87.1067 183.645 87.24C183.978 87.5733 184.378 87.86 184.845 88.1C185.325 88.34 185.898 88.46 186.565 88.46C187.312 88.46 187.885 88.28 188.285 87.92C188.698 87.5467 188.905 87.0333 188.905 86.38C188.905 85.7533 188.698 85.28 188.285 84.96C187.872 84.64 187.325 84.48 186.645 84.48C186.058 84.48 185.518 84.5333 185.025 84.64C184.545 84.7333 184.125 84.84 183.765 84.96C183.578 85.0267 183.485 84.9667 183.485 84.78V79.12C183.485 78.96 183.552 78.88 183.685 78.88H189.045C189.832 78.88 190.225 79.26 190.225 80.02V80.38C190.225 80.5667 190.125 80.66 189.925 80.66H185.345ZM194.126 90H192.646C192.593 90 192.539 89.9867 192.486 89.96C192.446 89.92 192.446 89.86 192.486 89.78L198.006 79.72C198.299 79.1733 198.659 78.8933 199.086 78.88H200.066C200.186 78.88 200.246 78.9133 200.246 78.98C200.246 79.0467 200.233 79.1133 200.206 79.18L194.346 89.86C194.293 89.9533 194.219 90 194.126 90ZM194.586 81.8C194.279 81.8 194.013 81.6933 193.786 81.48C193.573 81.2533 193.466 80.98 193.466 80.66C193.466 80.34 193.573 80.0733 193.786 79.86C194.013 79.6467 194.279 79.54 194.586 79.54C194.893 79.54 195.153 79.6467 195.366 79.86C195.579 80.0733 195.686 80.34 195.686 80.66C195.686 80.98 195.579 81.2533 195.366 81.48C195.153 81.6933 194.893 81.8 194.586 81.8ZM197.726 90.16C197.406 90.16 197.133 90.0533 196.906 89.84C196.693 89.6133 196.586 89.34 196.586 89.02C196.586 88.7 196.693 88.4333 196.906 88.22C197.133 88.0067 197.406 87.9 197.726 87.9C198.033 87.9 198.293 88.0067 198.506 88.22C198.719 88.4333 198.826 88.7 198.826 89.02C198.826 89.34 198.719 89.6133 198.506 89.84C198.293 90.0533 198.033 90.16 197.726 90.16Z" fill="white"/>
<path d="M83.2922 185.661C83.4389 185.621 83.5789 185.588 83.7122 185.561C83.8455 185.534 84.0055 185.521 84.1922 185.521C84.9522 185.521 85.6055 185.694 86.1522 186.041C86.6989 186.388 87.1189 186.841 87.4122 187.401C87.7189 187.948 87.8722 188.534 87.8722 189.161C87.8722 189.948 87.7055 190.648 87.3722 191.261C87.0389 191.874 86.5722 192.354 85.9722 192.701C85.3722 193.034 84.6722 193.201 83.8722 193.201C83.0722 193.201 82.3589 193.041 81.7322 192.721C81.1055 192.388 80.6122 191.934 80.2522 191.361C79.9055 190.788 79.7322 190.134 79.7322 189.401C79.7322 188.828 79.8455 188.268 80.0722 187.721C80.2989 187.174 80.6389 186.514 81.0922 185.741L83.4522 181.881C83.5455 181.748 83.6589 181.681 83.7922 181.681C84.2322 181.681 84.5322 181.894 84.6922 182.321C84.8655 182.734 84.7922 183.214 84.4722 183.761L83.2922 185.661ZM81.6722 189.341C81.6722 189.968 81.8655 190.481 82.2522 190.881C82.6522 191.268 83.1855 191.461 83.8522 191.461C84.4789 191.461 84.9855 191.261 85.3722 190.861C85.7589 190.461 85.9522 189.954 85.9522 189.341C85.9522 188.714 85.7522 188.194 85.3522 187.781C84.9655 187.368 84.4522 187.161 83.8122 187.161C83.1855 187.161 82.6722 187.368 82.2722 187.781C81.8722 188.194 81.6722 188.714 81.6722 189.341ZM91.3448 183.661V186.021C91.5582 185.968 91.8048 185.914 92.0848 185.861C92.3782 185.808 92.7182 185.781 93.1048 185.781C94.2782 185.781 95.1915 186.101 95.8448 186.741C96.5115 187.368 96.8448 188.221 96.8448 189.301C96.8448 190.101 96.6582 190.794 96.2848 191.381C95.9248 191.954 95.4382 192.401 94.8248 192.721C94.2115 193.041 93.5248 193.201 92.7648 193.201C91.9782 193.201 91.2982 193.068 90.7248 192.801C90.1648 192.534 89.7315 192.201 89.4248 191.801C89.1315 191.388 88.9848 190.968 88.9848 190.541C88.9848 190.208 89.0915 190.041 89.3048 190.041C89.4115 190.041 89.5248 190.108 89.6448 190.241C89.9782 190.574 90.3782 190.861 90.8448 191.101C91.3248 191.341 91.8982 191.461 92.5648 191.461C93.3115 191.461 93.8848 191.281 94.2848 190.921C94.6982 190.548 94.9048 190.034 94.9048 189.381C94.9048 188.754 94.6982 188.281 94.2848 187.961C93.8715 187.641 93.3248 187.481 92.6448 187.481C92.0582 187.481 91.5182 187.534 91.0248 187.641C90.5448 187.734 90.1248 187.841 89.7648 187.961C89.5782 188.028 89.4848 187.968 89.4848 187.781V182.121C89.4848 181.961 89.5515 181.881 89.6848 181.881H95.0448C95.8315 181.881 96.2248 182.261 96.2248 183.021V183.381C96.2248 183.568 96.1248 183.661 95.9248 183.661H91.3448ZM100.126 193.001H98.6459C98.5926 193.001 98.5393 192.988 98.4859 192.961C98.4459 192.921 98.4459 192.861 98.4859 192.781L104.006 182.721C104.299 182.174 104.659 181.894 105.086 181.881H106.066C106.186 181.881 106.246 181.914 106.246 181.981C106.246 182.048 106.233 182.114 106.206 182.181L100.346 192.861C100.293 192.954 100.219 193.001 100.126 193.001ZM100.586 184.801C100.279 184.801 100.013 184.694 99.7859 184.481C99.5726 184.254 99.4659 183.981 99.4659 183.661C99.4659 183.341 99.5726 183.074 99.7859 182.861C100.013 182.648 100.279 182.541 100.586 182.541C100.893 182.541 101.153 182.648 101.366 182.861C101.579 183.074 101.686 183.341 101.686 183.661C101.686 183.981 101.579 184.254 101.366 184.481C101.153 184.694 100.893 184.801 100.586 184.801ZM103.726 193.161C103.406 193.161 103.133 193.054 102.906 192.841C102.693 192.614 102.586 192.341 102.586 192.021C102.586 191.701 102.693 191.434 102.906 191.221C103.133 191.008 103.406 190.901 103.726 190.901C104.033 190.901 104.293 191.008 104.506 191.221C104.719 191.434 104.826 191.701 104.826 192.021C104.826 192.341 104.719 192.614 104.506 192.841C104.293 193.054 104.033 193.161 103.726 193.161Z" fill="white"/>
</svg>
