<svg width="374" height="281" viewBox="0 0 374 281" fill="none" xmlns="http://www.w3.org/2000/svg">
<circle cx="307.168" cy="123.001" r="13" fill="#00A0FF"/>
<circle cx="307.168" cy="159.001" r="13" fill="#3876BF"/>
<circle cx="307.168" cy="193" r="13" fill="#F3F0CA"/>
<path d="M341.288 126.673H342.128V129.001H341.36C340.736 129.001 340.192 128.913 339.728 128.737C339.264 128.561 338.872 128.337 338.552 128.065C337.816 128.849 336.784 129.241 335.456 129.241C334.72 129.241 334.016 129.145 333.344 128.953C332.688 128.761 332.024 128.489 331.352 128.137H330.992C329.968 128.185 329.456 128.841 329.456 130.105V133.969C329.456 134.625 329.288 135.113 328.952 135.433C328.632 135.753 328.176 135.913 327.584 135.913H327.368C327.192 135.913 327.104 135.833 327.104 135.673V130.057C327.104 128.857 327.368 127.905 327.896 127.201C328.424 126.481 329.176 126.041 330.152 125.881C330.28 125.721 330.392 125.529 330.488 125.305C330.6 125.065 330.728 124.793 330.872 124.489C331.288 123.641 331.688 122.865 332.072 122.161C332.472 121.441 332.936 120.865 333.464 120.433C333.992 120.001 334.648 119.785 335.432 119.785C336.2 119.785 336.848 119.937 337.376 120.241C337.92 120.545 338.352 120.953 338.672 121.465C338.992 121.961 339.224 122.505 339.368 123.097C339.512 123.673 339.592 124.241 339.608 124.801V124.849C339.64 125.553 339.832 126.033 340.184 126.289C340.552 126.545 340.92 126.673 341.288 126.673ZM335.576 126.985C336.04 126.953 336.424 126.793 336.728 126.505C337.032 126.217 337.184 125.665 337.184 124.849C337.184 123.873 337.032 123.153 336.728 122.689C336.424 122.209 336.032 121.969 335.552 121.969C335.12 121.969 334.72 122.289 334.352 122.929C333.984 123.553 333.6 124.289 333.2 125.137C332.992 125.601 332.816 125.953 332.672 126.193C333.312 126.529 333.88 126.753 334.376 126.865C334.872 126.961 335.272 127.001 335.576 126.985ZM347.222 129.001H341.87V126.673H346.286L344.534 124.369C344.326 124.129 344.19 123.889 344.126 123.649C344.078 123.393 344.054 123.153 344.054 122.929C344.038 122.305 344.27 121.761 344.75 121.297C345.246 120.817 345.87 120.449 346.622 120.193C347.39 119.921 348.182 119.785 348.998 119.785C349.814 119.769 350.598 119.897 351.35 120.169C352.118 120.441 352.75 120.817 353.246 121.297C353.742 121.761 353.982 122.305 353.966 122.929C353.95 123.153 353.91 123.385 353.846 123.625C353.782 123.865 353.654 124.113 353.462 124.369L351.71 126.673H356.294V129.001H350.774C350.374 129.001 350.03 128.969 349.742 128.905C349.47 128.825 349.222 128.713 348.998 128.569C348.55 128.857 347.958 129.001 347.222 129.001ZM347.102 124.009L348.878 126.313C348.958 126.425 349.038 126.425 349.118 126.313L350.894 124.009C350.974 123.913 351.046 123.801 351.11 123.673C351.174 123.545 351.206 123.417 351.206 123.289C351.206 123.001 351.022 122.713 350.654 122.425C350.302 122.121 349.75 121.969 348.998 121.969C348.262 121.969 347.71 122.121 347.342 122.425C346.974 122.713 346.79 123.001 346.79 123.289C346.79 123.417 346.822 123.545 346.886 123.673C346.966 123.801 347.038 123.913 347.102 124.009ZM359.722 116.209C360.074 116.209 360.37 116.337 360.61 116.593C360.85 116.833 360.97 117.137 360.97 117.505C360.97 117.857 360.85 118.161 360.61 118.417C360.37 118.657 360.074 118.777 359.722 118.777C359.37 118.777 359.066 118.657 358.81 118.417C358.57 118.161 358.45 117.857 358.45 117.505C358.45 117.137 358.57 116.833 358.81 116.593C359.066 116.337 359.37 116.209 359.722 116.209ZM356.722 129.001H356.026V126.673H356.77C357.346 126.673 357.77 126.497 358.042 126.145C358.33 125.777 358.474 125.289 358.474 124.681V122.185C358.474 120.873 359.098 120.217 360.346 120.217H360.562C360.738 120.217 360.826 120.297 360.826 120.457V124.729C360.826 126.041 360.466 127.081 359.746 127.849C359.026 128.617 358.018 129.001 356.722 129.001Z" fill="black"/>
<path d="M338.375 151.657H338.591C338.767 151.657 338.855 151.737 338.855 151.897V160.729C338.855 162.041 338.495 163.081 337.775 163.849C337.071 164.617 336.063 165.001 334.751 165.001H329.375C329.199 165.001 329.079 164.977 329.015 164.929C328.951 164.865 328.919 164.753 328.919 164.593V164.377C328.919 163.881 329.095 163.473 329.447 163.153C329.799 162.833 330.247 162.673 330.791 162.673H332.207L330.263 156.697C329.943 155.737 330.087 155.049 330.695 154.633C330.807 154.553 330.919 154.489 331.031 154.441C331.159 154.377 331.327 154.313 331.535 154.249L331.703 154.177C331.831 154.129 331.927 154.193 331.991 154.369L334.727 162.673H334.967C335.463 162.673 335.839 162.489 336.095 162.121C336.367 161.737 336.503 161.257 336.503 160.681V153.625C336.503 153.177 336.583 152.801 336.743 152.497C336.903 152.177 337.143 151.961 337.463 151.849C337.607 151.785 337.735 151.737 337.847 151.705C337.959 151.673 338.135 151.657 338.375 151.657Z" fill="black"/>
<path d="M330.309 182.072H332.445C332.733 182.072 332.949 182.152 333.093 182.312C333.253 182.456 333.333 182.64 333.333 182.864V182.984C333.333 183.096 333.269 183.152 333.141 183.152H330.381C330.093 183.152 329.869 183.184 329.709 183.248C329.565 183.296 329.437 183.336 329.325 183.368C329.229 183.416 329.173 183.44 329.157 183.44C329.109 183.44 329.077 183.408 329.061 183.344C329.013 183.248 328.989 183.136 328.989 183.008C329.021 182.704 329.157 182.472 329.397 182.312C329.637 182.152 329.941 182.072 330.309 182.072ZM330.309 184.136H332.445C332.733 184.136 332.949 184.216 333.093 184.376C333.253 184.52 333.333 184.704 333.333 184.928V185.048C333.333 185.16 333.269 185.216 333.141 185.216H330.381C330.093 185.216 329.869 185.24 329.709 185.288C329.565 185.336 329.437 185.384 329.325 185.432C329.229 185.48 329.173 185.504 329.157 185.504C329.125 185.504 329.093 185.472 329.061 185.408C329.013 185.312 328.989 185.2 328.989 185.072C329.021 184.768 329.157 184.536 329.397 184.376C329.637 184.216 329.941 184.136 330.309 184.136ZM334.923 201H334.155C332.843 201 331.827 200.616 331.107 199.848C330.403 199.08 330.051 198.04 330.051 196.728V189.624C330.051 188.312 330.675 187.656 331.923 187.656H332.115C332.291 187.656 332.379 187.736 332.379 187.896V196.68C332.379 197.288 332.523 197.776 332.811 198.144C333.099 198.496 333.523 198.672 334.083 198.672H334.923V201ZM338.332 188.208C338.684 188.208 338.98 188.336 339.22 188.592C339.46 188.832 339.58 189.136 339.58 189.504C339.58 189.856 339.46 190.16 339.22 190.416C338.98 190.656 338.684 190.776 338.332 190.776C337.98 190.776 337.676 190.656 337.42 190.416C337.18 190.16 337.06 189.856 337.06 189.504C337.06 189.136 337.18 188.832 337.42 188.592C337.676 188.336 337.98 188.208 338.332 188.208ZM335.332 201H334.636V198.672H335.38C335.956 198.672 336.38 198.496 336.652 198.144C336.94 197.776 337.084 197.288 337.084 196.68V194.184C337.084 192.872 337.708 192.216 338.956 192.216H339.172C339.348 192.216 339.436 192.296 339.436 192.456V196.728C339.436 198.04 339.076 199.08 338.356 199.848C337.636 200.616 336.628 201 335.332 201ZM347.556 201H346.788C345.476 201 344.46 200.616 343.74 199.848C343.036 199.08 342.684 198.04 342.684 196.728V189.624C342.684 188.312 343.308 187.656 344.556 187.656H344.748C344.924 187.656 345.012 187.736 345.012 187.896V196.68C345.012 197.288 345.156 197.776 345.444 198.144C345.732 198.496 346.156 198.672 346.716 198.672H347.556V201ZM353.748 198.672H354.588V201H353.82C353.084 201 352.476 200.896 351.996 200.688C351.532 200.464 351.164 200.216 350.892 199.944C350.156 200.648 349.172 201 347.94 201H347.244V198.672H348.012C348.572 198.672 348.996 198.496 349.284 198.144C349.572 197.776 349.716 197.288 349.716 196.68V194.184C349.716 192.872 350.332 192.216 351.564 192.216H351.78C351.956 192.216 352.044 192.296 352.044 192.456V196.728C352.044 197.448 352.22 197.952 352.572 198.24C352.924 198.528 353.316 198.672 353.748 198.672ZM348.348 202.584C348.684 202.584 348.964 202.696 349.188 202.92C349.428 203.16 349.548 203.456 349.548 203.808C349.548 204.16 349.428 204.448 349.188 204.672C348.964 204.912 348.684 205.032 348.348 205.032C348.012 205.032 347.724 204.912 347.484 204.672C347.26 204.448 347.148 204.16 347.148 203.808C347.148 203.456 347.26 203.16 347.484 202.92C347.724 202.696 348.012 202.584 348.348 202.584ZM351.252 202.584C351.572 202.584 351.844 202.696 352.068 202.92C352.308 203.16 352.428 203.456 352.428 203.808C352.428 204.16 352.308 204.448 352.068 204.672C351.844 204.912 351.572 205.032 351.252 205.032C350.916 205.032 350.628 204.912 350.388 204.672C350.148 204.448 350.028 204.16 350.028 203.808C350.028 203.456 350.148 203.16 350.388 202.92C350.628 202.696 350.916 202.584 351.252 202.584ZM364.931 201H354.347L354.323 198.672H363.611C363.403 198.464 363.227 198.192 363.083 197.856C362.955 197.504 362.779 197 362.555 196.344C362.267 195.592 361.907 195.008 361.475 194.592C361.043 194.176 360.475 193.968 359.771 193.968C359.227 193.968 358.707 194.088 358.211 194.328C357.731 194.568 357.299 194.856 356.915 195.192C356.771 195.336 356.619 195.4 356.459 195.384C356.267 195.384 356.171 195.28 356.171 195.072C356.171 194.64 356.315 194.184 356.603 193.704C356.891 193.224 357.211 192.856 357.563 192.6C357.915 192.328 358.291 192.128 358.691 192C359.107 191.856 359.587 191.784 360.131 191.784C361.347 191.784 362.347 192.144 363.131 192.864C363.931 193.584 364.547 194.608 364.979 195.936C365.187 196.624 365.355 197.128 365.483 197.448C365.627 197.768 365.811 198.056 366.035 198.312C366.227 198.52 366.483 198.64 366.803 198.672C366.915 198.688 366.987 198.704 367.019 198.72C367.067 198.736 367.091 198.808 367.091 198.936C367.091 199.528 366.907 200.024 366.539 200.424C366.171 200.808 365.635 201 364.931 201ZM369.976 201H369.784C369.608 201 369.52 200.92 369.52 200.76V189.624C369.52 188.312 370.144 187.656 371.392 187.656H371.584C371.76 187.656 371.848 187.736 371.848 187.896V199.032C371.848 200.344 371.224 201 369.976 201Z" fill="black"/>
<path d="M225.06 189.228C233.533 175.838 238.772 160.66 240.361 144.894C241.95 129.129 239.846 113.21 234.216 98.3993C228.585 83.5883 219.583 70.2918 207.923 59.5634C196.262 48.835 182.263 40.9693 167.035 36.5895C151.808 32.2098 135.769 31.4363 120.19 34.3303C104.612 37.2243 89.9212 43.7064 77.2824 53.2629C64.6435 62.8195 54.4037 75.1879 47.3742 89.3884C40.3446 103.589 36.7185 119.231 36.7831 135.076L138.829 134.66L225.06 189.228Z" fill="#00A0FF"/>
<path d="M104.041 233.721C125.184 241.75 148.449 242.245 169.915 235.124C191.38 228.004 209.736 213.702 221.889 194.628L138.951 141.783L104.041 233.721Z" fill="#F3F0CA"/>
<path d="M37.7462 137.49C37.2808 157.44 42.8952 177.059 53.8438 193.742C64.7925 210.425 80.5573 223.383 99.0445 230.894L136.062 139.784L37.7462 137.49Z" fill="#3876BF"/>
<path d="M131.301 90.64H126.261C126.115 90.64 126.041 90.5667 126.041 90.42V89.36C126.041 89.2267 126.055 89.1267 126.081 89.06C126.108 88.98 126.161 88.8733 126.241 88.74L130.381 82.34C130.461 82.2067 130.561 82.1 130.681 82.02C130.801 81.9267 130.968 81.88 131.181 81.88H132.041C132.828 81.88 133.221 82.2733 133.221 83.06V88.86H133.861C134.621 88.86 135.001 89.2333 135.001 89.98V90.36C135.001 90.5467 134.915 90.64 134.741 90.64H133.221V92.78C133.221 92.9267 133.155 93 133.021 93H131.501C131.368 93 131.301 92.9267 131.301 92.78V90.64ZM128.121 88.86H131.301V84.04L128.121 88.86ZM138.29 83.66V86.02C138.503 85.9667 138.75 85.9133 139.03 85.86C139.323 85.8067 139.663 85.78 140.05 85.78C141.223 85.78 142.137 86.1 142.79 86.74C143.457 87.3667 143.79 88.22 143.79 89.3C143.79 90.1 143.603 90.7933 143.23 91.38C142.87 91.9533 142.383 92.4 141.77 92.72C141.157 93.04 140.47 93.2 139.71 93.2C138.923 93.2 138.243 93.0667 137.67 92.8C137.11 92.5333 136.677 92.2 136.37 91.8C136.077 91.3867 135.93 90.9667 135.93 90.54C135.93 90.2067 136.037 90.04 136.25 90.04C136.357 90.04 136.47 90.1067 136.59 90.24C136.923 90.5733 137.323 90.86 137.79 91.1C138.27 91.34 138.843 91.46 139.51 91.46C140.257 91.46 140.83 91.28 141.23 90.92C141.643 90.5467 141.85 90.0333 141.85 89.38C141.85 88.7533 141.643 88.28 141.23 87.96C140.817 87.64 140.27 87.48 139.59 87.48C139.003 87.48 138.463 87.5333 137.97 87.64C137.49 87.7333 137.07 87.84 136.71 87.96C136.523 88.0267 136.43 87.9667 136.43 87.78V82.12C136.43 81.96 136.497 81.88 136.63 81.88H141.99C142.777 81.88 143.17 82.26 143.17 83.02V83.38C143.17 83.5667 143.07 83.66 142.87 83.66H138.29ZM146.529 90.76C146.863 90.76 147.149 90.8867 147.389 91.14C147.629 91.38 147.749 91.6733 147.749 92.02C147.749 92.3533 147.629 92.6467 147.389 92.9C147.149 93.14 146.863 93.26 146.529 93.26C146.196 93.26 145.909 93.14 145.669 92.9C145.429 92.6467 145.309 92.3533 145.309 92.02C145.309 91.6733 145.429 91.38 145.669 91.14C145.909 90.8867 146.196 90.76 146.529 90.76ZM152.757 85.66C152.904 85.62 153.044 85.5867 153.177 85.56C153.31 85.5333 153.47 85.52 153.657 85.52C154.417 85.52 155.07 85.6933 155.617 86.04C156.164 86.3867 156.584 86.84 156.877 87.4C157.184 87.9467 157.337 88.5333 157.337 89.16C157.337 89.9467 157.17 90.6467 156.837 91.26C156.504 91.8733 156.037 92.3533 155.437 92.7C154.837 93.0333 154.137 93.2 153.337 93.2C152.537 93.2 151.824 93.04 151.197 92.72C150.57 92.3867 150.077 91.9333 149.717 91.36C149.37 90.7867 149.197 90.1333 149.197 89.4C149.197 88.8267 149.31 88.2667 149.537 87.72C149.764 87.1733 150.104 86.5133 150.557 85.74L152.917 81.88C153.01 81.7467 153.124 81.68 153.257 81.68C153.697 81.68 153.997 81.8933 154.157 82.32C154.33 82.7333 154.257 83.2133 153.937 83.76L152.757 85.66ZM151.137 89.34C151.137 89.9667 151.33 90.48 151.717 90.88C152.117 91.2667 152.65 91.46 153.317 91.46C153.944 91.46 154.45 91.26 154.837 90.86C155.224 90.46 155.417 89.9533 155.417 89.34C155.417 88.7133 155.217 88.1933 154.817 87.78C154.43 87.3667 153.917 87.16 153.277 87.16C152.65 87.16 152.137 87.3667 151.737 87.78C151.337 88.1933 151.137 88.7133 151.137 89.34ZM160.294 93H158.814C158.761 93 158.707 92.9867 158.654 92.96C158.614 92.92 158.614 92.86 158.654 92.78L164.174 82.72C164.467 82.1733 164.827 81.8933 165.254 81.88H166.234C166.354 81.88 166.414 81.9133 166.414 81.98C166.414 82.0467 166.401 82.1133 166.374 82.18L160.514 92.86C160.461 92.9533 160.387 93 160.294 93ZM160.754 84.8C160.447 84.8 160.181 84.6933 159.954 84.48C159.741 84.2533 159.634 83.98 159.634 83.66C159.634 83.34 159.741 83.0733 159.954 82.86C160.181 82.6467 160.447 82.54 160.754 82.54C161.061 82.54 161.321 82.6467 161.534 82.86C161.747 83.0733 161.854 83.34 161.854 83.66C161.854 83.98 161.747 84.2533 161.534 84.48C161.321 84.6933 161.061 84.8 160.754 84.8ZM163.894 93.16C163.574 93.16 163.301 93.0533 163.074 92.84C162.861 92.6133 162.754 92.34 162.754 92.02C162.754 91.7 162.861 91.4333 163.074 91.22C163.301 91.0067 163.574 90.9 163.894 90.9C164.201 90.9 164.461 91.0067 164.674 91.22C164.887 91.4333 164.994 91.7 164.994 92.02C164.994 92.34 164.887 92.6133 164.674 92.84C164.461 93.0533 164.201 93.16 163.894 93.16Z" fill="white"/>
<path d="M61.5625 174.22H65.6625C66.4358 174.22 66.8225 174.58 66.8225 175.3V175.72C66.8225 175.907 66.7358 176 66.5625 176H59.4225C59.2758 176 59.2025 175.927 59.2025 175.78C59.2025 174.913 59.3358 174.187 59.6025 173.6C59.8692 173 60.2092 172.5 60.6225 172.1C61.0492 171.687 61.4958 171.333 61.9625 171.04C62.4425 170.733 62.8892 170.44 63.3025 170.16C63.7292 169.88 64.0758 169.567 64.3425 169.22C64.6092 168.873 64.7425 168.447 64.7425 167.94C64.7425 167.447 64.5758 167.073 64.2425 166.82C63.9092 166.553 63.4492 166.42 62.8625 166.42C62.3692 166.42 61.9025 166.493 61.4625 166.64C61.0358 166.773 60.6092 166.953 60.1825 167.18C60.0892 167.233 60.0092 167.26 59.9425 167.26C59.8358 167.26 59.7758 167.213 59.7625 167.12L59.5825 166.66C59.4892 166.3 59.4958 166 59.6025 165.76C59.7225 165.507 59.9825 165.307 60.3825 165.16C60.7692 165.013 61.1758 164.9 61.6025 164.82C62.0292 164.727 62.5092 164.68 63.0425 164.68C64.1092 164.68 64.9892 164.947 65.6825 165.48C66.3758 166 66.7225 166.787 66.7225 167.84C66.7225 168.453 66.6025 168.993 66.3625 169.46C66.1358 169.913 65.8292 170.32 65.4425 170.68C65.0692 171.027 64.6692 171.347 64.2425 171.64C63.8158 171.92 63.4092 172.193 63.0225 172.46C62.6358 172.727 62.3092 173 62.0425 173.28C61.7758 173.56 61.6158 173.873 61.5625 174.22ZM70.5636 166.66V169.02C70.7769 168.967 71.0236 168.913 71.3036 168.86C71.5969 168.807 71.9369 168.78 72.3236 168.78C73.4969 168.78 74.4103 169.1 75.0636 169.74C75.7303 170.367 76.0636 171.22 76.0636 172.3C76.0636 173.1 75.8769 173.793 75.5036 174.38C75.1436 174.953 74.6569 175.4 74.0436 175.72C73.4303 176.04 72.7436 176.2 71.9836 176.2C71.1969 176.2 70.5169 176.067 69.9436 175.8C69.3836 175.533 68.9503 175.2 68.6436 174.8C68.3503 174.387 68.2036 173.967 68.2036 173.54C68.2036 173.207 68.3103 173.04 68.5236 173.04C68.6303 173.04 68.7436 173.107 68.8636 173.24C69.1969 173.573 69.5969 173.86 70.0636 174.1C70.5436 174.34 71.1169 174.46 71.7836 174.46C72.5303 174.46 73.1036 174.28 73.5036 173.92C73.9169 173.547 74.1236 173.033 74.1236 172.38C74.1236 171.753 73.9169 171.28 73.5036 170.96C73.0903 170.64 72.5436 170.48 71.8636 170.48C71.2769 170.48 70.7369 170.533 70.2436 170.64C69.7636 170.733 69.3436 170.84 68.9836 170.96C68.7969 171.027 68.7036 170.967 68.7036 170.78V165.12C68.7036 164.96 68.7703 164.88 68.9036 164.88H74.2636C75.0503 164.88 75.4436 165.26 75.4436 166.02V166.38C75.4436 166.567 75.3436 166.66 75.1436 166.66H70.5636ZM78.5294 173.76C78.8627 173.76 79.1494 173.887 79.3894 174.14C79.6294 174.38 79.7494 174.673 79.7494 175.02C79.7494 175.353 79.6294 175.647 79.3894 175.9C79.1494 176.14 78.8627 176.26 78.5294 176.26C78.196 176.26 77.9094 176.14 77.6694 175.9C77.4294 175.647 77.3094 175.353 77.3094 175.02C77.3094 174.673 77.4294 174.38 77.6694 174.14C77.9094 173.887 78.196 173.76 78.5294 173.76ZM84.757 168.66C84.9037 168.62 85.0437 168.587 85.177 168.56C85.3104 168.533 85.4704 168.52 85.657 168.52C86.417 168.52 87.0704 168.693 87.617 169.04C88.1637 169.387 88.5837 169.84 88.877 170.4C89.1837 170.947 89.337 171.533 89.337 172.16C89.337 172.947 89.1704 173.647 88.837 174.26C88.5037 174.873 88.037 175.353 87.437 175.7C86.837 176.033 86.137 176.2 85.337 176.2C84.537 176.2 83.8237 176.04 83.197 175.72C82.5704 175.387 82.077 174.933 81.717 174.36C81.3704 173.787 81.197 173.133 81.197 172.4C81.197 171.827 81.3104 171.267 81.537 170.72C81.7637 170.173 82.1037 169.513 82.557 168.74L84.917 164.88C85.0104 164.747 85.1237 164.68 85.257 164.68C85.697 164.68 85.997 164.893 86.157 165.32C86.3304 165.733 86.257 166.213 85.937 166.76L84.757 168.66ZM83.137 172.34C83.137 172.967 83.3304 173.48 83.717 173.88C84.117 174.267 84.6504 174.46 85.317 174.46C85.9437 174.46 86.4504 174.26 86.837 173.86C87.2237 173.46 87.417 172.953 87.417 172.34C87.417 171.713 87.217 171.193 86.817 170.78C86.4304 170.367 85.917 170.16 85.277 170.16C84.6504 170.16 84.137 170.367 83.737 170.78C83.337 171.193 83.137 171.713 83.137 172.34ZM92.2939 176H90.8139C90.7606 176 90.7072 175.987 90.6539 175.96C90.6139 175.92 90.6139 175.86 90.6539 175.78L96.1739 165.72C96.4672 165.173 96.8272 164.893 97.2539 164.88H98.2339C98.3539 164.88 98.4139 164.913 98.4139 164.98C98.4139 165.047 98.4006 165.113 98.3739 165.18L92.5139 175.86C92.4606 175.953 92.3872 176 92.2939 176ZM92.7539 167.8C92.4472 167.8 92.1806 167.693 91.9539 167.48C91.7406 167.253 91.6339 166.98 91.6339 166.66C91.6339 166.34 91.7406 166.073 91.9539 165.86C92.1806 165.647 92.4472 165.54 92.7539 165.54C93.0606 165.54 93.3206 165.647 93.5339 165.86C93.7472 166.073 93.8539 166.34 93.8539 166.66C93.8539 166.98 93.7472 167.253 93.5339 167.48C93.3206 167.693 93.0606 167.8 92.7539 167.8ZM95.8939 176.16C95.5739 176.16 95.3006 176.053 95.0739 175.84C94.8606 175.613 94.7539 175.34 94.7539 175.02C94.7539 174.7 94.8606 174.433 95.0739 174.22C95.3006 174.007 95.5739 173.9 95.8939 173.9C96.2006 173.9 96.4606 174.007 96.6739 174.22C96.8872 174.433 96.9939 174.7 96.9939 175.02C96.9939 175.34 96.8872 175.613 96.6739 175.84C96.4606 176.053 96.2006 176.16 95.8939 176.16Z" fill="white"/>
<path d="M142.68 204.22H146.78C147.553 204.22 147.94 204.58 147.94 205.3V205.72C147.94 205.907 147.853 206 147.68 206H140.54C140.393 206 140.32 205.927 140.32 205.78C140.32 204.913 140.453 204.187 140.72 203.6C140.986 203 141.326 202.5 141.74 202.1C142.166 201.687 142.613 201.333 143.08 201.04C143.56 200.733 144.006 200.44 144.42 200.16C144.846 199.88 145.193 199.567 145.46 199.22C145.726 198.873 145.86 198.447 145.86 197.94C145.86 197.447 145.693 197.073 145.36 196.82C145.026 196.553 144.566 196.42 143.98 196.42C143.486 196.42 143.02 196.493 142.58 196.64C142.153 196.773 141.726 196.953 141.3 197.18C141.206 197.233 141.126 197.26 141.06 197.26C140.953 197.26 140.893 197.213 140.88 197.12L140.7 196.66C140.606 196.3 140.613 196 140.72 195.76C140.84 195.507 141.1 195.307 141.5 195.16C141.886 195.013 142.293 194.9 142.72 194.82C143.146 194.727 143.626 194.68 144.16 194.68C145.226 194.68 146.106 194.947 146.8 195.48C147.493 196 147.84 196.787 147.84 197.84C147.84 198.453 147.72 198.993 147.48 199.46C147.253 199.913 146.946 200.32 146.56 200.68C146.186 201.027 145.786 201.347 145.36 201.64C144.933 201.92 144.526 202.193 144.14 202.46C143.753 202.727 143.426 203 143.16 203.28C142.893 203.56 142.733 203.873 142.68 204.22ZM151.421 200.16C150.941 199.933 150.534 199.62 150.201 199.22C149.881 198.807 149.721 198.273 149.721 197.62C149.721 196.7 150.081 195.98 150.801 195.46C151.534 194.94 152.461 194.68 153.581 194.68C154.314 194.68 154.967 194.8 155.541 195.04C156.114 195.267 156.567 195.6 156.901 196.04C157.234 196.48 157.401 197.007 157.401 197.62C157.401 198.273 157.234 198.807 156.901 199.22C156.581 199.62 156.174 199.933 155.681 200.16C156.387 200.4 156.901 200.767 157.221 201.26C157.541 201.74 157.701 202.273 157.701 202.86C157.701 203.807 157.341 204.6 156.621 205.24C155.901 205.88 154.887 206.2 153.581 206.2C152.247 206.2 151.221 205.88 150.501 205.24C149.781 204.6 149.421 203.807 149.421 202.86C149.421 202.273 149.581 201.74 149.901 201.26C150.221 200.767 150.727 200.4 151.421 200.16ZM151.601 197.84C151.601 198.293 151.767 198.673 152.101 198.98C152.447 199.273 152.941 199.42 153.581 199.42C154.181 199.42 154.647 199.273 154.981 198.98C155.327 198.673 155.501 198.293 155.501 197.84C155.501 197.347 155.327 196.96 154.981 196.68C154.634 196.4 154.167 196.26 153.581 196.26C152.981 196.26 152.501 196.4 152.141 196.68C151.781 196.96 151.601 197.347 151.601 197.84ZM151.361 202.84C151.361 203.347 151.554 203.767 151.941 204.1C152.341 204.433 152.887 204.6 153.581 204.6C154.261 204.6 154.794 204.433 155.181 204.1C155.567 203.767 155.761 203.347 155.761 202.84C155.761 202.253 155.554 201.8 155.141 201.48C154.741 201.16 154.221 201 153.581 201C152.927 201 152.394 201.16 151.981 201.48C151.567 201.8 151.361 202.253 151.361 202.84ZM160.037 203.76C160.371 203.76 160.657 203.887 160.897 204.14C161.137 204.38 161.257 204.673 161.257 205.02C161.257 205.353 161.137 205.647 160.897 205.9C160.657 206.14 160.371 206.26 160.037 206.26C159.704 206.26 159.417 206.14 159.177 205.9C158.937 205.647 158.817 205.353 158.817 205.02C158.817 204.673 158.937 204.38 159.177 204.14C159.417 203.887 159.704 203.76 160.037 203.76ZM167.068 202.18C166.895 202.233 166.728 202.28 166.568 202.32C166.421 202.36 166.261 202.38 166.088 202.38C165.341 202.38 164.695 202.213 164.148 201.88C163.601 201.533 163.181 201.087 162.888 200.54C162.595 199.98 162.448 199.387 162.448 198.76C162.448 197.947 162.621 197.24 162.968 196.64C163.315 196.027 163.795 195.547 164.408 195.2C165.035 194.853 165.741 194.68 166.528 194.68C167.328 194.68 168.028 194.84 168.628 195.16C169.241 195.48 169.721 195.927 170.068 196.5C170.415 197.073 170.588 197.733 170.588 198.48C170.588 199.053 170.481 199.613 170.268 200.16C170.055 200.693 169.701 201.353 169.208 202.14L166.908 205.96C166.815 206.12 166.688 206.2 166.528 206.2C166.221 206.2 165.981 206.1 165.808 205.9C165.635 205.7 165.548 205.447 165.548 205.14C165.548 204.82 165.655 204.493 165.868 204.16L167.068 202.18ZM166.508 200.72C167.135 200.72 167.641 200.52 168.028 200.12C168.428 199.707 168.628 199.18 168.628 198.54C168.628 197.913 168.435 197.407 168.048 197.02C167.675 196.633 167.161 196.44 166.508 196.44C165.868 196.44 165.348 196.64 164.948 197.04C164.561 197.427 164.368 197.927 164.368 198.54C164.368 199.193 164.561 199.72 164.948 200.12C165.335 200.52 165.855 200.72 166.508 200.72ZM173.294 206H171.814C171.761 206 171.707 205.987 171.654 205.96C171.614 205.92 171.614 205.86 171.654 205.78L177.174 195.72C177.467 195.173 177.827 194.893 178.254 194.88H179.234C179.354 194.88 179.414 194.913 179.414 194.98C179.414 195.047 179.401 195.113 179.374 195.18L173.514 205.86C173.461 205.953 173.387 206 173.294 206ZM173.754 197.8C173.447 197.8 173.181 197.693 172.954 197.48C172.741 197.253 172.634 196.98 172.634 196.66C172.634 196.34 172.741 196.073 172.954 195.86C173.181 195.647 173.447 195.54 173.754 195.54C174.061 195.54 174.321 195.647 174.534 195.86C174.747 196.073 174.854 196.34 174.854 196.66C174.854 196.98 174.747 197.253 174.534 197.48C174.321 197.693 174.061 197.8 173.754 197.8ZM176.894 206.16C176.574 206.16 176.301 206.053 176.074 205.84C175.861 205.613 175.754 205.34 175.754 205.02C175.754 204.7 175.861 204.433 176.074 204.22C176.301 204.007 176.574 203.9 176.894 203.9C177.201 203.9 177.461 204.007 177.674 204.22C177.887 204.433 177.994 204.7 177.994 205.02C177.994 205.34 177.887 205.613 177.674 205.84C177.461 206.053 177.201 206.16 176.894 206.16Z" fill="#00A0FF"/>
</svg>
