<svg width="402" height="266" viewBox="0 0 402 266" fill="none" xmlns="http://www.w3.org/2000/svg">
<circle cx="308" cy="203.001" r="13" fill="#F3F0CA"/>
<path d="M338.684 198.673H342.836L342.812 200.857L342.212 200.953C342.068 201.881 341.708 202.737 341.132 203.521C340.556 204.305 339.78 204.937 338.804 205.417C337.828 205.897 336.668 206.137 335.324 206.137C333.836 206.137 332.564 205.841 331.508 205.249C330.468 204.657 329.676 203.881 329.132 202.921C328.604 201.977 328.348 200.969 328.364 199.897C328.38 198.825 328.644 197.873 329.156 197.041C329.684 196.209 330.316 195.609 331.052 195.241C331.18 195.177 331.292 195.145 331.388 195.145C331.612 195.145 331.716 195.249 331.7 195.457C331.7 195.569 331.66 195.681 331.58 195.793C331.244 196.369 330.996 196.977 330.836 197.617C330.676 198.241 330.604 198.857 330.62 199.465C330.636 200.873 331.076 201.969 331.94 202.753C332.82 203.537 333.948 203.929 335.324 203.929C336.444 203.929 337.396 203.673 338.18 203.161C338.964 202.649 339.508 201.929 339.812 201.001H337.124C336.964 201.001 336.852 200.977 336.788 200.929C336.724 200.881 336.692 200.769 336.692 200.593V200.401C336.692 199.889 336.868 199.473 337.22 199.153C337.588 198.833 338.076 198.673 338.684 198.673ZM333.86 207.505C334.196 207.505 334.476 207.617 334.7 207.841C334.94 208.081 335.06 208.377 335.06 208.729C335.06 209.081 334.94 209.369 334.7 209.593C334.476 209.833 334.196 209.953 333.86 209.953C333.524 209.953 333.236 209.833 332.996 209.593C332.772 209.369 332.66 209.081 332.66 208.729C332.66 208.377 332.772 208.081 332.996 207.841C333.236 207.617 333.524 207.505 333.86 207.505ZM336.764 207.505C337.084 207.505 337.356 207.617 337.58 207.841C337.82 208.081 337.94 208.377 337.94 208.729C337.94 209.081 337.82 209.369 337.58 209.593C337.356 209.833 337.084 209.953 336.764 209.953C336.428 209.953 336.14 209.833 335.9 209.593C335.66 209.369 335.54 209.081 335.54 208.729C335.54 208.377 335.66 208.081 335.9 207.841C336.14 207.617 336.428 207.505 336.764 207.505ZM345.179 190.777C344.827 190.777 344.523 190.657 344.267 190.417C344.027 190.161 343.907 189.857 343.907 189.505C343.907 189.137 344.027 188.833 344.267 188.593C344.523 188.337 344.827 188.209 345.179 188.209C345.531 188.209 345.827 188.337 346.067 188.593C346.307 188.833 346.427 189.137 346.427 189.505C346.427 189.857 346.307 190.161 346.067 190.417C345.827 190.657 345.531 190.777 345.179 190.777ZM347.987 198.673H348.827V201.001H348.035C347.315 201.001 346.715 200.897 346.235 200.689C345.755 200.465 345.379 200.217 345.107 199.945C344.755 200.281 344.331 200.545 343.835 200.737C343.355 200.913 342.803 201.001 342.179 201.001H341.483V198.673H342.227C342.803 198.673 343.227 198.497 343.499 198.145C343.787 197.777 343.931 197.289 343.931 196.681V194.185C343.931 192.873 344.555 192.217 345.803 192.217H346.019C346.195 192.217 346.283 192.297 346.283 192.457V196.729C346.283 197.449 346.459 197.953 346.811 198.241C347.163 198.529 347.555 198.673 347.987 198.673ZM361.57 198.673H362.41V201.001H361.642C361.018 201.001 360.474 200.913 360.01 200.737C359.546 200.561 359.154 200.337 358.834 200.065C358.098 200.849 357.074 201.241 355.762 201.241C355.026 201.241 354.33 201.153 353.674 200.977C353.034 200.801 352.362 200.529 351.658 200.161C351.274 200.513 350.85 200.745 350.386 200.857C349.922 200.969 349.418 201.025 348.874 201.025H348.538V198.673H348.802C349.218 198.673 349.546 198.617 349.786 198.505C350.042 198.393 350.266 198.177 350.458 197.857C350.65 197.537 350.882 197.081 351.154 196.489C351.57 195.641 351.978 194.865 352.378 194.161C352.778 193.441 353.242 192.865 353.77 192.433C354.298 192.001 354.946 191.785 355.714 191.785C356.482 191.785 357.13 191.937 357.658 192.241C358.186 192.545 358.61 192.953 358.93 193.465C359.266 193.961 359.506 194.505 359.65 195.097C359.81 195.673 359.89 196.241 359.89 196.801V196.849C359.922 197.553 360.114 198.033 360.466 198.289C360.834 198.545 361.202 198.673 361.57 198.673ZM355.858 198.985C356.322 198.953 356.706 198.793 357.01 198.505C357.314 198.217 357.466 197.665 357.466 196.849C357.466 195.873 357.306 195.153 356.986 194.689C356.682 194.209 356.29 193.969 355.81 193.969C355.378 193.969 354.978 194.289 354.61 194.929C354.242 195.553 353.874 196.289 353.506 197.137C353.394 197.377 353.29 197.585 353.194 197.761C353.114 197.921 353.034 198.065 352.954 198.193C353.594 198.529 354.154 198.753 354.634 198.865C355.13 198.961 355.538 199.001 355.858 198.985ZM379.243 198.673H380.083V201.001H379.315C378.595 201.001 377.987 200.889 377.491 200.665C376.995 200.441 376.595 200.177 376.291 199.873C375.507 200.625 374.523 201.001 373.339 201.001H370.123C369.771 201.001 369.427 200.969 369.091 200.905C368.755 200.841 368.491 200.737 368.299 200.593C368.091 200.737 367.819 200.841 367.483 200.905C367.163 200.969 366.819 201.001 366.451 201.001H362.155V198.673H365.491C365.187 198.353 364.939 197.969 364.747 197.521C364.555 197.073 364.459 196.617 364.459 196.153C364.459 195.113 364.755 194.233 365.347 193.513C364.803 193.385 364.387 193.137 364.099 192.769C363.811 192.401 363.651 191.961 363.619 191.449V191.329C363.619 191.249 363.635 191.185 363.667 191.137C363.715 191.073 363.811 191.065 363.955 191.113C364.195 191.177 364.467 191.249 364.771 191.329C365.075 191.409 365.387 191.465 365.707 191.497C365.931 191.545 366.299 191.593 366.811 191.641C367.339 191.673 367.859 191.689 368.371 191.689C368.659 191.689 369.035 191.697 369.499 191.713C369.979 191.729 370.467 191.745 370.963 191.761C371.459 191.777 371.899 191.785 372.283 191.785C373.947 191.801 375.243 192.225 376.171 193.057C377.099 193.889 377.563 195.033 377.563 196.489V196.777C377.579 197.465 377.755 197.953 378.091 198.241C378.427 198.529 378.811 198.673 379.243 198.673ZM371.083 198.673H373.339C373.899 198.673 374.347 198.473 374.683 198.073C375.019 197.673 375.187 197.129 375.187 196.441C375.187 194.825 374.179 193.985 372.163 193.921C372.051 193.921 371.939 193.921 371.827 193.921C371.731 193.905 371.619 193.897 371.491 193.897C371.891 194.537 372.091 195.289 372.091 196.153C372.091 196.617 372.003 197.073 371.827 197.521C371.651 197.969 371.403 198.353 371.083 198.673ZM368.299 193.945C367.819 193.945 367.411 194.145 367.075 194.545C366.739 194.929 366.571 195.425 366.571 196.033C366.571 196.577 366.715 197.081 367.003 197.545C367.307 197.993 367.739 198.289 368.299 198.433C368.859 198.289 369.283 197.993 369.571 197.545C369.859 197.081 370.003 196.577 370.003 196.033C370.003 195.409 369.835 194.905 369.499 194.521C369.179 194.137 368.779 193.945 368.299 193.945ZM380.523 201.001H379.827V198.673H380.571C381.147 198.673 381.571 198.497 381.843 198.145C382.131 197.777 382.275 197.289 382.275 196.681V194.185C382.275 192.873 382.899 192.217 384.147 192.217H384.363C384.539 192.217 384.627 192.297 384.627 192.457V196.729C384.627 198.041 384.267 199.081 383.547 199.849C382.827 200.617 381.819 201.001 380.523 201.001ZM380.691 202.585C381.027 202.585 381.307 202.697 381.531 202.921C381.771 203.161 381.891 203.457 381.891 203.809C381.891 204.161 381.771 204.449 381.531 204.673C381.307 204.913 381.027 205.033 380.691 205.033C380.355 205.033 380.075 204.913 379.851 204.673C379.611 204.449 379.491 204.161 379.491 203.809C379.491 203.457 379.611 203.161 379.851 202.921C380.075 202.697 380.355 202.585 380.691 202.585ZM383.595 202.585C383.915 202.585 384.187 202.697 384.411 202.921C384.651 203.161 384.771 203.457 384.771 203.809C384.771 204.161 384.651 204.449 384.411 204.673C384.187 204.913 383.915 205.033 383.595 205.033C383.259 205.033 382.971 204.913 382.731 204.673C382.491 204.449 382.371 204.161 382.371 203.809C382.371 203.457 382.491 203.161 382.731 202.921C382.971 202.697 383.259 202.585 383.595 202.585ZM400.207 187.657H400.423C400.599 187.657 400.687 187.737 400.687 187.897V196.729C400.687 198.041 400.327 199.081 399.607 199.849C398.903 200.617 397.895 201.001 396.583 201.001H391.207C391.031 201.001 390.911 200.977 390.847 200.929C390.783 200.865 390.751 200.753 390.751 200.593V200.377C390.751 199.881 390.927 199.473 391.279 199.153C391.631 198.833 392.079 198.673 392.623 198.673H394.039L392.095 192.697C391.775 191.737 391.919 191.049 392.527 190.633C392.639 190.553 392.751 190.489 392.863 190.441C392.991 190.377 393.159 190.313 393.367 190.249L393.535 190.177C393.663 190.129 393.759 190.193 393.823 190.369L396.559 198.673H396.799C397.295 198.673 397.671 198.489 397.927 198.121C398.199 197.737 398.335 197.257 398.335 196.681V189.625C398.335 189.177 398.415 188.801 398.575 188.497C398.735 188.177 398.975 187.961 399.295 187.849C399.439 187.785 399.567 187.737 399.679 187.705C399.791 187.673 399.967 187.657 400.207 187.657Z" fill="black"/>
<circle cx="308" cy="131.001" r="13" fill="#00A0FF"/>
<circle cx="308" cy="167.001" r="13" fill="#3876BF"/>
<path d="M342.12 134.673H342.96V137.001H342.192C341.568 137.001 341.024 136.913 340.56 136.737C340.096 136.561 339.704 136.337 339.384 136.065C338.648 136.849 337.616 137.241 336.288 137.241C335.552 137.241 334.848 137.145 334.176 136.953C333.52 136.761 332.856 136.489 332.184 136.137H331.824C330.8 136.185 330.288 136.841 330.288 138.105V141.969C330.288 142.625 330.12 143.113 329.784 143.433C329.464 143.753 329.008 143.913 328.416 143.913H328.2C328.024 143.913 327.936 143.833 327.936 143.673V138.057C327.936 136.857 328.2 135.905 328.728 135.201C329.256 134.481 330.008 134.041 330.984 133.881C331.112 133.721 331.224 133.529 331.32 133.305C331.432 133.065 331.56 132.793 331.704 132.489C332.12 131.641 332.52 130.865 332.904 130.161C333.304 129.441 333.768 128.865 334.296 128.433C334.824 128.001 335.48 127.785 336.264 127.785C337.032 127.785 337.68 127.937 338.208 128.241C338.752 128.545 339.184 128.953 339.504 129.465C339.824 129.961 340.056 130.505 340.2 131.097C340.344 131.673 340.424 132.241 340.44 132.801V132.849C340.472 133.553 340.664 134.033 341.016 134.289C341.384 134.545 341.752 134.673 342.12 134.673ZM336.408 134.985C336.872 134.953 337.256 134.793 337.56 134.505C337.864 134.217 338.016 133.665 338.016 132.849C338.016 131.873 337.864 131.153 337.56 130.689C337.256 130.209 336.864 129.969 336.384 129.969C335.952 129.969 335.552 130.289 335.184 130.929C334.816 131.553 334.432 132.289 334.032 133.137C333.824 133.601 333.648 133.953 333.504 134.193C334.144 134.529 334.712 134.753 335.208 134.865C335.704 134.961 336.104 135.001 336.408 134.985ZM348.054 137.001H342.702V134.673H347.118L345.366 132.369C345.158 132.129 345.022 131.889 344.958 131.649C344.91 131.393 344.886 131.153 344.886 130.929C344.87 130.305 345.102 129.761 345.582 129.297C346.078 128.817 346.702 128.449 347.454 128.193C348.222 127.921 349.014 127.785 349.83 127.785C350.646 127.769 351.43 127.897 352.182 128.169C352.95 128.441 353.582 128.817 354.078 129.297C354.574 129.761 354.814 130.305 354.798 130.929C354.782 131.153 354.742 131.385 354.678 131.625C354.614 131.865 354.486 132.113 354.294 132.369L352.542 134.673H357.126V137.001H351.606C351.206 137.001 350.862 136.969 350.574 136.905C350.302 136.825 350.054 136.713 349.83 136.569C349.382 136.857 348.79 137.001 348.054 137.001ZM347.934 132.009L349.71 134.313C349.79 134.425 349.87 134.425 349.95 134.313L351.726 132.009C351.806 131.913 351.878 131.801 351.942 131.673C352.006 131.545 352.038 131.417 352.038 131.289C352.038 131.001 351.854 130.713 351.486 130.425C351.134 130.121 350.582 129.969 349.83 129.969C349.094 129.969 348.542 130.121 348.174 130.425C347.806 130.713 347.622 131.001 347.622 131.289C347.622 131.417 347.654 131.545 347.718 131.673C347.798 131.801 347.87 131.913 347.934 132.009ZM360.554 124.209C360.906 124.209 361.202 124.337 361.442 124.593C361.682 124.833 361.802 125.137 361.802 125.505C361.802 125.857 361.682 126.161 361.442 126.417C361.202 126.657 360.906 126.777 360.554 126.777C360.202 126.777 359.898 126.657 359.642 126.417C359.402 126.161 359.282 125.857 359.282 125.505C359.282 125.137 359.402 124.833 359.642 124.593C359.898 124.337 360.202 124.209 360.554 124.209ZM357.554 137.001H356.858V134.673H357.602C358.178 134.673 358.602 134.497 358.874 134.145C359.162 133.777 359.306 133.289 359.306 132.681V130.185C359.306 128.873 359.93 128.217 361.178 128.217H361.394C361.57 128.217 361.658 128.297 361.658 128.457V132.729C361.658 134.041 361.298 135.081 360.578 135.849C359.858 136.617 358.85 137.001 357.554 137.001Z" fill="black"/>
<path d="M334.529 173.001H333.761C332.449 173.001 331.433 172.617 330.713 171.849C330.009 171.081 329.657 170.041 329.657 168.729V161.625C329.657 160.313 330.281 159.657 331.529 159.657H331.721C331.897 159.657 331.985 159.737 331.985 159.897V168.681C331.985 169.289 332.129 169.777 332.417 170.145C332.705 170.497 333.129 170.673 333.689 170.673H334.529V173.001ZM347.273 170.673H348.113V173.001H347.345C346.721 173.001 346.177 172.913 345.713 172.737C345.249 172.561 344.857 172.337 344.537 172.065C343.801 172.849 342.777 173.241 341.465 173.241C340.729 173.241 340.033 173.153 339.377 172.977C338.737 172.801 338.065 172.529 337.361 172.161C336.977 172.513 336.553 172.745 336.089 172.857C335.625 172.969 335.121 173.025 334.577 173.025H334.241V170.673H334.505C334.921 170.673 335.249 170.617 335.489 170.505C335.745 170.393 335.969 170.177 336.161 169.857C336.353 169.537 336.585 169.081 336.857 168.489C337.273 167.641 337.681 166.865 338.081 166.161C338.481 165.441 338.945 164.865 339.473 164.433C340.001 164.001 340.649 163.785 341.417 163.785C342.185 163.785 342.833 163.937 343.361 164.241C343.889 164.545 344.313 164.953 344.633 165.465C344.969 165.961 345.209 166.505 345.353 167.097C345.513 167.673 345.593 168.241 345.593 168.801V168.849C345.625 169.553 345.817 170.033 346.169 170.289C346.537 170.545 346.905 170.673 347.273 170.673ZM341.561 170.985C342.025 170.953 342.409 170.793 342.713 170.505C343.017 170.217 343.169 169.665 343.169 168.849C343.169 167.873 343.009 167.153 342.689 166.689C342.385 166.209 341.993 165.969 341.513 165.969C341.081 165.969 340.681 166.289 340.313 166.929C339.945 167.553 339.577 168.289 339.209 169.137C339.097 169.377 338.993 169.585 338.897 169.761C338.817 169.921 338.737 170.065 338.657 170.193C339.297 170.529 339.857 170.753 340.337 170.865C340.833 170.961 341.241 171.001 341.561 170.985ZM348.554 173.001H347.858V170.673H348.602C349.178 170.673 349.602 170.497 349.874 170.145C350.162 169.777 350.306 169.289 350.306 168.681V166.185C350.306 164.873 350.93 164.217 352.178 164.217H352.394C352.57 164.217 352.658 164.297 352.658 164.457V168.729C352.658 170.041 352.298 171.081 351.578 171.849C350.858 172.617 349.85 173.001 348.554 173.001ZM348.818 174.513C349.186 174.513 349.49 174.633 349.73 174.873C349.97 175.129 350.09 175.441 350.09 175.809C350.09 176.161 349.97 176.465 349.73 176.721C349.49 176.977 349.186 177.105 348.818 177.105C348.466 177.105 348.17 176.977 347.93 176.721C347.69 176.465 347.57 176.161 347.57 175.809C347.57 175.441 347.69 175.129 347.93 174.873C348.17 174.633 348.466 174.513 348.818 174.513ZM354.154 175.929C354.938 175.897 355.498 175.625 355.834 175.113C356.17 174.617 356.338 173.889 356.338 172.929V166.185C356.338 164.873 356.962 164.217 358.21 164.217H358.426C358.602 164.217 358.69 164.297 358.69 164.457V172.425C358.69 174.233 358.354 175.641 357.682 176.649C357.01 177.657 355.986 178.153 354.61 178.137C354.194 178.137 353.802 178.065 353.434 177.921C353.066 177.793 352.722 177.617 352.402 177.393C352.178 177.201 351.986 176.977 351.826 176.721C351.666 176.465 351.562 176.185 351.514 175.881C351.498 175.769 351.522 175.673 351.586 175.593C351.65 175.513 351.738 175.473 351.85 175.473C351.914 175.473 351.978 175.481 352.042 175.497C352.106 175.529 352.162 175.553 352.21 175.569C352.578 175.697 352.914 175.793 353.218 175.857C353.506 175.921 353.818 175.945 354.154 175.929Z" fill="black"/>
<path d="M201.018 61.1273C183.819 43.9113 161.035 33.4082 136.774 31.5125C112.513 29.6168 88.373 36.4534 68.7089 50.789C49.0448 65.1246 35.151 86.0155 29.5337 109.693C23.9164 133.371 26.9454 158.276 38.0744 179.917C49.2034 201.558 67.6996 218.51 90.2266 227.714C112.754 236.919 137.828 237.77 160.928 230.114C184.027 222.458 203.63 206.8 216.201 185.963C228.772 165.127 233.482 140.484 229.483 116.48L128.824 133.249L201.018 61.1273Z" fill="#00A0FF"/>
<path d="M210.391 72.4466C207.666 68.9186 204.704 65.58 201.526 62.4538L132.56 132.561L210.391 72.4466Z" fill="#3876BF"/>
<path d="M229.269 113.505C226.389 99.1494 220.34 85.6182 211.563 73.8989L132.849 132.85L229.269 113.505Z" fill="#F3F0CA"/>
<path d="M94.6033 180.18C94.4299 180.233 94.2633 180.28 94.1033 180.32C93.9566 180.36 93.7966 180.38 93.6233 180.38C92.8766 180.38 92.2299 180.213 91.6833 179.88C91.1366 179.533 90.7166 179.087 90.4233 178.54C90.1299 177.98 89.9833 177.387 89.9833 176.76C89.9833 175.947 90.1566 175.24 90.5033 174.64C90.8499 174.027 91.3299 173.547 91.9433 173.2C92.5699 172.853 93.2766 172.68 94.0633 172.68C94.8633 172.68 95.5633 172.84 96.1633 173.16C96.7766 173.48 97.2566 173.927 97.6033 174.5C97.9499 175.073 98.1233 175.733 98.1233 176.48C98.1233 177.053 98.0166 177.613 97.8033 178.16C97.5899 178.693 97.2366 179.353 96.7433 180.14L94.4433 183.96C94.3499 184.12 94.2233 184.2 94.0633 184.2C93.7566 184.2 93.5166 184.1 93.3433 183.9C93.1699 183.7 93.0833 183.447 93.0833 183.14C93.0833 182.82 93.1899 182.493 93.4033 182.16L94.6033 180.18ZM94.0433 178.72C94.6699 178.72 95.1766 178.52 95.5633 178.12C95.9633 177.707 96.1633 177.18 96.1633 176.54C96.1633 175.913 95.9699 175.407 95.5833 175.02C95.2099 174.633 94.6966 174.44 94.0433 174.44C93.4033 174.44 92.8833 174.64 92.4833 175.04C92.0966 175.427 91.9033 175.927 91.9033 176.54C91.9033 177.193 92.0966 177.72 92.4833 178.12C92.8699 178.52 93.3899 178.72 94.0433 178.72ZM101.716 174.66V177.02C101.929 176.967 102.176 176.913 102.456 176.86C102.749 176.807 103.089 176.78 103.476 176.78C104.649 176.78 105.563 177.1 106.216 177.74C106.883 178.367 107.216 179.22 107.216 180.3C107.216 181.1 107.029 181.793 106.656 182.38C106.296 182.953 105.809 183.4 105.196 183.72C104.583 184.04 103.896 184.2 103.136 184.2C102.349 184.2 101.669 184.067 101.096 183.8C100.536 183.533 100.103 183.2 99.7959 182.8C99.5026 182.387 99.3559 181.967 99.3559 181.54C99.3559 181.207 99.4626 181.04 99.6759 181.04C99.7826 181.04 99.8959 181.107 100.016 181.24C100.349 181.573 100.749 181.86 101.216 182.1C101.696 182.34 102.269 182.46 102.936 182.46C103.683 182.46 104.256 182.28 104.656 181.92C105.069 181.547 105.276 181.033 105.276 180.38C105.276 179.753 105.069 179.28 104.656 178.96C104.243 178.64 103.696 178.48 103.016 178.48C102.429 178.48 101.889 178.533 101.396 178.64C100.916 178.733 100.496 178.84 100.136 178.96C99.9493 179.027 99.8559 178.967 99.8559 178.78V173.12C99.8559 172.96 99.9226 172.88 100.056 172.88H105.416C106.203 172.88 106.596 173.26 106.596 174.02V174.38C106.596 174.567 106.496 174.66 106.296 174.66H101.716ZM110.185 184H108.705C108.651 184 108.598 183.987 108.545 183.96C108.505 183.92 108.505 183.86 108.545 183.78L114.065 173.72C114.358 173.173 114.718 172.893 115.145 172.88H116.125C116.245 172.88 116.305 172.913 116.305 172.98C116.305 173.047 116.291 173.113 116.265 173.18L110.405 183.86C110.351 183.953 110.278 184 110.185 184ZM110.645 175.8C110.338 175.8 110.071 175.693 109.845 175.48C109.631 175.253 109.525 174.98 109.525 174.66C109.525 174.34 109.631 174.073 109.845 173.86C110.071 173.647 110.338 173.54 110.645 173.54C110.951 173.54 111.211 173.647 111.425 173.86C111.638 174.073 111.745 174.34 111.745 174.66C111.745 174.98 111.638 175.253 111.425 175.48C111.211 175.693 110.951 175.8 110.645 175.8ZM113.785 184.16C113.465 184.16 113.191 184.053 112.965 183.84C112.751 183.613 112.645 183.34 112.645 183.02C112.645 182.7 112.751 182.433 112.965 182.22C113.191 182.007 113.465 181.9 113.785 181.9C114.091 181.9 114.351 182.007 114.565 182.22C114.778 182.433 114.885 182.7 114.885 183.02C114.885 183.34 114.778 183.613 114.565 183.84C114.351 184.053 114.091 184.16 113.785 184.16Z" fill="white"/>
</svg>
