<svg width="391" height="359" viewBox="0 0 391 359" fill="none" xmlns="http://www.w3.org/2000/svg">
<g clip-path="url(#clip0_401_6360)">
<path d="M281.29 54.1625C288.772 25.1942 301.416 0 335.639 0C365.655 0 392.88 26.3484 390.898 58.8223C389.077 88.6817 363.064 113.973 331.211 110.413C301.383 107.085 272.725 87.3288 281.285 54.1571L281.29 54.1625Z" fill="#43B7FC"/>
<g opacity="0.8">
<path d="M327.564 91.0172C327.564 89.965 327.742 88.9879 328.103 88.086C328.459 87.1841 328.97 86.3949 329.633 85.7185C330.29 85.0421 331.104 84.516 332.068 84.1402C333.032 83.7644 334.131 83.5765 335.381 83.5765C336.631 83.5765 337.73 83.7644 338.694 84.1402C339.658 84.516 340.466 85.0421 341.129 85.7185C341.786 86.3949 342.298 87.1841 342.659 88.086C343.014 88.9879 343.197 89.965 343.197 91.0172C343.197 93.084 342.519 94.818 341.161 96.2085C339.804 97.5989 337.88 98.2968 335.386 98.2968C332.892 98.2968 330.969 97.5989 329.611 96.2085C328.254 94.818 327.575 93.0894 327.575 91.0172H327.564ZM341.096 73.3066H329.267L327.963 15.3755H342.454L341.096 73.3066Z" fill="white"/>
</g>
<path d="M4.40049 197.017C25.8136 114.091 62.003 41.9814 159.97 41.9814C245.891 41.9814 323.819 117.408 318.152 210.363C312.943 295.829 238.474 368.223 147.305 358.05C61.9222 348.515 -20.1155 291.964 4.40049 197.017Z" fill="#43B7FC"/>
<path d="M226.008 187.477C226.105 203.411 220.486 218.04 211.092 229.448C202.995 239.272 198.432 251.518 198.432 264.23V282.558C198.432 287.739 196.531 292.511 193.395 296.194C189.495 300.779 183.683 303.705 177.213 303.705H143.254C131.58 303.705 122.035 294.186 122.035 282.558V264.263C122.035 251.571 117.542 239.321 109.44 229.523C100.083 218.201 94.459 203.69 94.459 187.869C94.459 156.576 116.465 130.4 145.899 123.883C146.734 123.695 147.58 123.528 148.425 123.378C148.878 123.297 149.33 123.217 149.783 123.147C153.187 122.599 156.678 122.32 160.233 122.32C196.514 122.32 225.798 151.321 226.008 187.477Z" fill="#94FEF7"/>
<path d="M177.089 303.705L177.013 304.268L176.081 311.398L175.833 313.277V313.293L175.586 315.182L174.654 322.306L174.406 324.185V324.201L174.158 326.096L174.023 327.138C173.549 330.751 169.401 333.516 164.445 333.516H153.268C152.088 333.516 150.957 333.36 149.906 333.075C148.963 332.818 148.085 332.453 147.304 331.996L147.245 331.959C146.609 331.588 146.044 331.154 145.553 330.676C144.551 329.693 143.889 328.507 143.7 327.208L143.307 324.443L143.054 322.704V322.661L142.806 320.953L141.858 314.345L141.61 312.611V312.573L141.357 310.861L140.328 303.705H177.094H177.089Z" fill="#F56A04"/>
<path d="M172.656 303.705H166.342C156.15 306.641 146.039 309.545 141.357 310.861L141.605 312.573V312.611L141.858 314.345C145.651 313.298 154.76 310.7 177.019 304.268L177.094 303.705H172.661H172.656Z" fill="#F99746"/>
<path d="M143.049 322.655V322.698L143.302 324.443C147.687 323.213 156.737 320.626 175.586 315.182L175.833 313.293V313.276L176.081 311.397C164.171 314.833 149.755 318.983 142.801 320.953L143.049 322.655Z" fill="#F99746"/>
<path d="M147.246 331.959L147.305 331.996C148.086 332.453 148.964 332.818 149.907 333.075C155.078 331.599 162.749 329.393 174.164 326.096L174.412 324.201V324.185L174.66 322.306C164.468 325.248 152.773 328.614 145.549 330.67C146.039 331.148 146.605 331.583 147.24 331.953L147.246 331.959Z" fill="#F99746"/>
<path d="M135.629 219.605L132.697 220.1L146.946 303.964L149.878 303.47L135.629 219.605Z" fill="#F56A04"/>
<path d="M184.399 220.911L169.242 303.455L172.167 303.989L187.324 221.445L184.399 220.911Z" fill="#F56A04"/>
<path d="M168.081 235.053C167.699 235.053 167.273 235.004 166.799 234.897C166.002 234.714 165.501 234.167 165.339 233.308C165 231.456 166.46 228.057 168.507 225.175C167.435 223.312 166.013 221.776 164.515 221.325C162.306 220.66 158.918 222.689 156.559 225.287C156.99 225.899 157.377 226.533 157.717 227.172C158.923 229.448 159.796 232.358 158.606 233.7C158.164 234.199 157.264 234.65 155.481 233.979C153.251 233.141 152.454 231.257 153.283 228.814C153.693 227.617 154.442 226.372 155.395 225.218C153.569 222.839 151.123 221.036 148.715 221.336C147.428 221.497 146.329 221.948 145.408 222.582C146.948 225.438 147.304 229.061 146.232 231.005C145.505 232.331 144.233 232.749 142.655 232.186C141.518 231.783 140.926 230.226 141.147 228.218C141.367 226.162 142.402 223.913 144.233 222.351C143.754 221.61 143.183 220.95 142.52 220.44C138.372 217.229 134.946 220.676 134.801 220.821L134.154 220.198C134.197 220.155 138.297 216.037 143.075 219.731C143.797 220.289 144.427 221.003 144.95 221.809C145.968 221.121 147.185 220.628 148.602 220.45C151.301 220.112 153.994 222.007 155.993 224.536C158.562 221.755 162.22 219.699 164.774 220.466C166.384 220.955 167.909 222.501 169.072 224.412C170.155 223.011 171.362 221.792 172.536 221.019C174.416 219.779 175.639 220.064 176.334 220.52C177.05 220.987 177.654 221.615 178.16 222.34C178.726 221.894 179.318 221.513 179.906 221.218C182.082 220.139 184.08 220.219 185.535 221.443L184.953 222.131C183.386 220.81 181.371 221.497 180.31 222.023C179.728 222.313 179.162 222.684 178.634 223.102C180.083 225.706 180.363 229.099 179.534 230.747C179.011 231.783 178.079 232.143 176.986 231.74C175.02 231.021 174.54 229.673 174.481 228.664C174.373 226.742 175.715 224.546 177.46 222.936C177.007 222.265 176.469 221.685 175.838 221.272C174.987 220.713 173.845 221.234 173.032 221.771C171.863 222.544 170.635 223.816 169.552 225.255C170.904 227.816 171.604 230.801 171.093 232.723C170.845 233.657 170.134 235.053 168.087 235.053H168.081ZM168.975 226.055C167.192 228.643 165.937 231.574 166.228 233.147C166.32 233.646 166.568 233.925 166.998 234.022C168.76 234.419 169.848 233.909 170.22 232.497C170.656 230.865 170.085 228.321 168.975 226.055ZM155.955 225.991C155.131 227.016 154.485 228.095 154.14 229.11C153.456 231.117 154.016 232.47 155.804 233.147C156.526 233.415 157.48 233.63 157.938 233.115C158.643 232.315 158.229 230.044 156.93 227.596C156.639 227.054 156.316 226.517 155.961 225.996L155.955 225.991ZM144.697 223.145C143.124 224.541 142.24 226.517 142.046 228.315C141.879 229.845 142.256 231.091 142.962 231.338C144.104 231.74 144.944 231.483 145.451 230.57C146.366 228.906 146.032 225.701 144.697 223.14V223.145ZM177.923 223.72C176.361 225.218 175.294 227.134 175.381 228.616C175.44 229.689 176.086 230.457 177.293 230.897C177.955 231.139 178.413 230.962 178.726 230.339C179.421 228.959 179.124 226.012 177.923 223.72Z" fill="#F56A04"/>
<path d="M194.186 147.531C199.595 152.609 198.916 161.951 191.962 164.028C186.72 165.596 178.898 163.502 175.031 156.834C171.168 150.167 172.946 144.68 177.692 141.953C182.432 139.226 188.563 142.254 194.186 147.531Z" fill="#FFF0E3"/>
<path d="M158.79 79.9902H158.155C157 79.9902 156.064 80.9228 156.064 82.0732V107.906C156.064 109.057 157 109.989 158.155 109.989H158.79C159.945 109.989 160.88 109.057 160.88 107.906V82.0732C160.88 80.9228 159.945 79.9902 158.79 79.9902Z" fill="#94FEF7"/>
<path d="M253.453 130.659L253.108 130.064C252.538 129.08 251.276 128.743 250.289 129.311L237.586 136.62C236.599 137.188 236.261 138.446 236.831 139.429L237.176 140.024C237.745 141.008 239.007 141.345 239.994 140.777L252.697 133.468C253.684 132.9 254.022 131.642 253.453 130.659Z" fill="#94FEF7"/>
<path d="M245.877 176.15C245.877 174.83 246.96 173.75 248.285 173.75H280.423C281.749 173.75 282.831 174.83 282.831 176.15C282.831 177.471 281.749 178.55 280.423 178.55H248.285C246.96 178.55 245.877 177.471 245.877 176.15Z" fill="#94FEF7"/>
<path d="M200.96 120.817C199.743 120.302 199.172 118.885 199.689 117.671L216.749 77.8159C217.266 76.6026 218.689 76.0336 219.911 76.549C221.129 77.0643 221.7 78.4816 221.183 79.6949L204.122 119.55C203.605 120.764 202.183 121.333 200.965 120.817H200.96Z" fill="#94FEF7"/>
<path d="M82.975 140.026L83.3198 139.43C83.8854 138.453 83.546 137.186 82.5656 136.622L69.8578 129.31C68.8774 128.747 67.6061 129.085 67.0404 130.062L66.6957 130.658C66.13 131.635 66.4694 132.902 67.4498 133.466L80.1576 140.778C81.1381 141.341 82.404 141.003 82.975 140.026Z" fill="#94FEF7"/>
<path d="M74.2962 176.15C74.2962 174.83 73.2134 173.75 71.8882 173.75H39.7498C38.4246 173.75 37.3418 174.83 37.3418 176.15C37.3418 177.471 38.4246 178.55 39.7498 178.55H71.8882C73.2134 178.55 74.2962 177.471 74.2962 176.15Z" fill="#94FEF7"/>
<path d="M119.213 120.817C120.43 120.302 121.001 118.885 120.484 117.671L103.423 77.8159C102.906 76.6026 101.484 76.0336 100.267 76.549C99.0493 77.0643 98.4783 78.4816 98.9954 79.6949L116.056 119.55C116.573 120.764 117.995 121.333 119.213 120.817Z" fill="#94FEF7"/>
<path d="M74.7655 80.8703L12.3848 98.7365L50.6159 64.1958L54.0473 73.0967L69.9119 73.7463L74.7655 80.8703Z" fill="#5AD6CE"/>
<path d="M12.3848 98.7366L61.5513 64.1851L113.094 54.3931L12.3848 98.7366Z" fill="#94FEF7"/>
<path d="M50.6159 64.1959L12.3848 98.7366L38.8238 49.3735L50.6159 64.1959Z" fill="#94FEF7"/>
<path d="M255.391 44L307.348 51.3709L272.866 27.9644L271.115 35.4695L258.477 37.7564L255.391 44Z" fill="#5AD6CE"/>
<path d="M307.347 51.3709L264.106 29.1723L221.732 27.0571L307.347 51.3709Z" fill="#94FEF7"/>
<path d="M272.865 27.9642L307.347 51.3708L280.649 14.7793L272.865 27.9642Z" fill="#94FEF7"/>
</g>
<defs>
<clipPath id="clip0_401_6360">
<rect width="391" height="359" fill="white"/>
</clipPath>
</defs>
</svg>
