<svg width="528" height="169" viewBox="0 0 528 169" fill="none" xmlns="http://www.w3.org/2000/svg">
<g filter="url(#filter0_d_2236_363)">
<rect x="43.4238" y="59" width="418" height="63" rx="31.5" fill="#41CFC5"/>
<rect x="44.4238" y="60" width="416" height="61" rx="30.5" stroke="#F3F0CA" stroke-width="2"/>
</g>
<path d="M180.223 75.9091H186.373V94.8011C186.373 96.9223 185.867 98.7784 184.853 100.369C183.85 101.96 182.443 103.201 180.635 104.091C178.826 104.972 176.719 105.412 174.314 105.412C171.899 105.412 169.787 104.972 167.978 104.091C166.17 103.201 164.763 101.96 163.76 100.369C162.756 98.7784 162.254 96.9223 162.254 94.8011V75.9091H168.405V94.2756C168.405 95.3835 168.646 96.3684 169.129 97.2301C169.621 98.0919 170.313 98.7689 171.203 99.2614C172.093 99.7538 173.13 100 174.314 100C175.507 100 176.544 99.7538 177.424 99.2614C178.315 98.7689 179.001 98.0919 179.484 97.2301C179.976 96.3684 180.223 95.3835 180.223 94.2756V75.9091ZM208.713 89.4034L203.174 89.7443C203.079 89.2708 202.875 88.8447 202.563 88.4659C202.25 88.0777 201.838 87.7699 201.327 87.5426C200.825 87.3059 200.224 87.1875 199.523 87.1875C198.586 87.1875 197.795 87.3864 197.151 87.7841C196.507 88.1723 196.185 88.6932 196.185 89.3466C196.185 89.8674 196.393 90.3078 196.81 90.6676C197.227 91.0275 197.942 91.3163 198.955 91.5341L202.904 92.3295C205.025 92.7652 206.606 93.4659 207.648 94.4318C208.69 95.3977 209.211 96.6667 209.211 98.2386C209.211 99.6686 208.789 100.923 207.946 102.003C207.113 103.082 205.967 103.925 204.509 104.531C203.06 105.128 201.389 105.426 199.495 105.426C196.606 105.426 194.305 104.825 192.591 103.622C190.887 102.41 189.888 100.762 189.594 98.679L195.546 98.3665C195.726 99.2472 196.161 99.9195 196.853 100.384C197.544 100.838 198.429 101.065 199.509 101.065C200.569 101.065 201.422 100.862 202.066 100.455C202.719 100.038 203.051 99.5028 203.06 98.8494C203.051 98.3002 202.819 97.8504 202.364 97.5C201.909 97.1402 201.209 96.8655 200.262 96.6761L196.483 95.9233C194.353 95.4972 192.766 94.7585 191.725 93.7074C190.693 92.6562 190.176 91.3163 190.176 89.6875C190.176 88.286 190.555 87.0786 191.313 86.0653C192.08 85.0521 193.155 84.2708 194.537 83.7216C195.929 83.1723 197.558 82.8977 199.424 82.8977C202.179 82.8977 204.348 83.4801 205.929 84.6449C207.52 85.8097 208.448 87.3958 208.713 89.4034ZM222.204 105.426C219.96 105.426 218.028 104.972 216.409 104.062C214.799 103.144 213.558 101.847 212.687 100.17C211.816 98.4848 211.38 96.4915 211.38 94.1903C211.38 91.946 211.816 89.9763 212.687 88.2812C213.558 86.5862 214.785 85.2652 216.366 84.3182C217.957 83.3712 219.823 82.8977 221.963 82.8977C223.402 82.8977 224.742 83.1297 225.983 83.5938C227.233 84.0483 228.322 84.7348 229.25 85.6534C230.187 86.572 230.916 87.7273 231.437 89.1193C231.958 90.5019 232.218 92.1212 232.218 93.9773V95.6392H213.795V91.8892H226.522C226.522 91.018 226.333 90.2462 225.954 89.5739C225.575 88.9015 225.05 88.3759 224.377 87.9972C223.715 87.6089 222.943 87.4148 222.062 87.4148C221.144 87.4148 220.329 87.6278 219.619 88.054C218.918 88.4706 218.369 89.0341 217.971 89.7443C217.573 90.4451 217.37 91.2263 217.36 92.0881V95.6534C217.36 96.733 217.559 97.6657 217.957 98.4517C218.364 99.2377 218.937 99.8438 219.676 100.27C220.414 100.696 221.29 100.909 222.304 100.909C222.976 100.909 223.591 100.814 224.15 100.625C224.709 100.436 225.187 100.152 225.585 99.7727C225.983 99.3939 226.286 98.9299 226.494 98.3807L232.09 98.75C231.806 100.095 231.224 101.269 230.343 102.273C229.472 103.267 228.345 104.044 226.963 104.602C225.59 105.152 224.003 105.426 222.204 105.426ZM235.407 105V83.1818H241.274V86.9886H241.501C241.899 85.6345 242.566 84.6117 243.504 83.9205C244.441 83.2197 245.521 82.8693 246.742 82.8693C247.045 82.8693 247.372 82.8883 247.723 82.9261C248.073 82.964 248.381 83.0161 248.646 83.0824V88.4517C248.362 88.3665 247.969 88.2907 247.467 88.2244C246.965 88.1581 246.506 88.125 246.089 88.125C245.199 88.125 244.403 88.3191 243.703 88.7074C243.011 89.0862 242.462 89.6165 242.055 90.2983C241.657 90.9801 241.458 91.7661 241.458 92.6562V105H235.407ZM259.626 105V75.9091H278.887V80.9801H265.776V87.9119H277.609V92.983H265.776V105H259.626ZM288.202 75.9091V105H282.151V75.9091H288.202ZM302.147 105.426C299.941 105.426 298.032 104.957 296.423 104.02C294.822 103.073 293.586 101.757 292.715 100.071C291.844 98.3759 291.408 96.411 291.408 94.1761C291.408 91.9223 291.844 89.9527 292.715 88.267C293.586 86.572 294.822 85.2557 296.423 84.3182C298.032 83.3712 299.941 82.8977 302.147 82.8977C304.353 82.8977 306.257 83.3712 307.857 84.3182C309.467 85.2557 310.708 86.572 311.579 88.267C312.45 89.9527 312.886 91.9223 312.886 94.1761C312.886 96.411 312.45 98.3759 311.579 100.071C310.708 101.757 309.467 103.073 307.857 104.02C306.257 104.957 304.353 105.426 302.147 105.426ZM302.175 100.739C303.179 100.739 304.017 100.455 304.69 99.8864C305.362 99.3087 305.869 98.5227 306.21 97.5284C306.56 96.5341 306.735 95.4025 306.735 94.1335C306.735 92.8646 306.56 91.733 306.21 90.7386C305.869 89.7443 305.362 88.9583 304.69 88.3807C304.017 87.803 303.179 87.5142 302.175 87.5142C301.162 87.5142 300.31 87.803 299.619 88.3807C298.937 88.9583 298.421 89.7443 298.07 90.7386C297.729 91.733 297.559 92.8646 297.559 94.1335C297.559 95.4025 297.729 96.5341 298.07 97.5284C298.421 98.5227 298.937 99.3087 299.619 99.8864C300.31 100.455 301.162 100.739 302.175 100.739ZM319.817 105L313.88 83.1818H320.002L323.383 97.8409H323.582L327.104 83.1818H333.113L336.692 97.7557H336.877L340.201 83.1818H346.309L340.386 105H333.979L330.229 91.2784H329.959L326.209 105H319.817Z" fill="white"/>
<path d="M492.383 50.0476C490.453 51.307 488.522 52.563 486.596 53.8274C485.962 54.2439 485.289 54.5662 484.522 54.6743C483.231 54.856 482.055 54.5968 481.032 53.7998C479.553 52.6477 479.115 50.7323 479.849 49.0678C480.205 48.2591 480.768 47.6138 481.524 47.1202C484.885 44.9255 488.247 42.7316 491.609 40.5375C492.247 40.1206 492.882 39.6974 493.526 39.2882C494.599 38.6068 495.779 38.358 497.036 38.6291C498.696 38.9871 499.783 39.9735 500.249 41.538C500.513 42.4237 500.417 43.3077 500.052 44.1622C499.691 45.0067 499.098 45.6654 498.312 46.1768C496.334 47.4646 494.358 48.7564 492.382 50.0465L492.383 50.0476ZM490.166 46.4887L490.165 46.4892C490.844 47.4384 491.525 48.3864 492.2 49.3386C492.275 49.4452 492.321 49.4615 492.438 49.3846C494.298 48.1651 496.159 46.9494 498.023 45.7363C498.746 45.2656 499.267 44.6491 499.589 43.8682C500.277 42.1958 499.562 40.284 497.886 39.4714C496.506 38.8022 495.144 38.9202 493.846 39.7093C493.331 40.0228 492.835 40.3654 492.33 40.6949C490.942 41.6012 489.554 42.5088 488.163 43.4118C488.056 43.4811 488.041 43.5261 488.117 43.6312C488.804 44.5813 489.484 45.5356 490.166 46.4887Z" fill="#2B3990"/>
<path d="M491.944 41.6733C491.909 41.6087 491.898 41.5311 491.963 41.4584C491.985 41.4345 492.011 41.4131 492.038 41.3956C492.752 40.938 493.437 40.4383 494.179 40.0227C495.069 39.524 496.026 39.3467 497.043 39.5915C497.42 39.6822 497.769 39.8406 498.093 40.048C498.146 40.082 498.207 40.1176 498.171 40.1876C498.132 40.2634 498.065 40.2381 497.998 40.2142C496.872 39.8123 495.778 39.9112 494.72 40.4292C494.089 40.7377 493.537 41.165 492.947 41.5355C492.706 41.6874 492.446 41.7754 492.154 41.7691C492.075 41.7673 492.001 41.757 491.944 41.6733Z" fill="#E1AA74"/>
<path d="M487.26 35.9099C487.26 39.4573 487.254 43.0047 487.264 46.5521C487.268 47.7204 487.107 48.8529 486.568 49.911C485.66 51.692 484.249 52.9332 482.237 53.5007C479.327 54.3212 476.303 53.1532 474.674 50.7408C473.883 49.5687 473.501 48.2842 473.501 46.8942C473.5 40.7134 473.501 34.5327 473.501 28.3519C473.501 27.1773 473.488 26.0026 473.504 24.8281C473.53 22.8722 474.246 21.1706 475.746 19.8378C477.727 18.0784 480.057 17.6006 482.624 18.4198C484.077 18.8836 485.206 19.7963 486.053 21.0199C486.889 22.2292 487.262 23.5642 487.26 25.0074C487.255 28.6416 487.258 32.2759 487.258 35.9101H487.261L487.26 35.9099ZM480.383 35.4969V35.4982C482.296 35.4982 484.209 35.4948 486.123 35.5029C486.337 35.5039 486.4 35.4613 486.4 35.245C486.392 31.8214 486.391 28.3979 486.396 24.9742C486.397 23.6456 486.018 22.4397 485.233 21.3366C483.553 18.9742 480.285 18.1558 477.666 19.5275C475.509 20.6568 474.449 22.4706 474.37 24.8041C474.338 25.7311 474.364 26.66 474.364 27.588C474.364 30.1412 474.366 32.6943 474.36 35.2475C474.359 35.4433 474.407 35.5024 474.62 35.5015C476.541 35.4935 478.462 35.4967 480.383 35.4967L480.383 35.4969Z" fill="#2B3990"/>
<path d="M475.363 28.9488C475.243 28.9349 475.127 28.8785 475.085 28.7319C475.072 28.6837 475.066 28.6319 475.066 28.5819C475.078 27.2768 475.006 25.9695 475.1 24.6672C475.213 23.1044 475.828 21.7463 477.076 20.6915C477.539 20.3003 478.069 20.0047 478.645 19.7852C478.739 19.7492 478.843 19.7036 478.907 19.8115C478.976 19.9283 478.881 19.9898 478.788 20.0524C477.226 21.104 476.381 22.5629 476.143 24.3546C476.002 25.4218 476.094 26.4965 476.074 27.5679C476.066 28.007 475.954 28.412 475.683 28.7721C475.61 28.8692 475.529 28.9532 475.364 28.9493L475.363 28.9488Z" fill="#E1AA74"/>
<path d="M487.824 49.7844C487.824 53.1579 484.809 55.8927 481.089 55.8927C477.37 55.8927 473.496 53.1579 473.496 49.7844C473.496 38.5245 477.37 43.6762 481.089 43.6762C484.809 43.6762 487.824 46.411 487.824 49.7844Z" fill="#2B3990"/>
<path d="M514.271 25.1408C512.623 21.4197 510.345 18.0322 507.487 15.0508L507.365 15.167C510.351 18.2052 512.72 21.682 514.418 25.5158C514.59 25.9021 514.753 26.2908 514.909 26.6813C514.709 26.1638 514.497 25.6506 514.271 25.1408Z" fill="#3876BF"/>
<path d="M517.369 24.3255C515.355 19.7774 512.472 15.6933 508.801 12.1861C505.128 8.6794 500.853 5.92554 496.091 4.00181C491.159 2.00976 485.923 1 480.525 1C475.128 1 467.319 2.44468 459.733 6.5597C453.848 9.75176 449.11 13.8576 446.138 19.6857C445.213 21.1711 444.393 22.7192 443.682 24.3255C441.596 29.0348 440.539 34.0369 440.539 39.1919C440.539 44.3469 441.596 49.3489 443.682 54.0589C444.523 55.9581 445.515 57.7764 446.653 59.5055C449.7 65.0976 454.245 69.3476 460.231 72.1104C461.747 72.9639 463.325 73.7222 464.96 74.3828C469.891 76.3749 475.128 77.3846 480.525 77.3846C485.922 77.3846 491.159 76.3749 496.091 74.3828C500.853 72.4591 505.129 69.7052 508.801 66.1985C512.472 62.6912 515.355 58.6072 517.369 54.0591C519.455 49.3491 520.512 44.3476 520.512 39.1921C520.512 34.0366 519.455 29.035 517.369 24.3257V24.3255ZM513.534 40.4927H517.145C517.049 42.5997 516.76 44.6744 516.281 46.7059C515.801 48.7375 515.132 50.7253 514.277 52.6592C512.629 56.3803 510.351 59.7683 507.492 62.7492L504.939 60.3109C504.288 59.6887 503.232 59.6887 502.581 60.3109C501.93 60.9327 501.93 61.9406 502.581 62.5629L505.134 65.0011C503.574 66.3654 501.907 67.592 500.143 68.6744C498.38 69.7565 496.519 70.6945 494.571 71.4809C490.521 73.1171 486.244 74.0358 481.832 74.2203V70.7718C481.832 69.8927 481.086 69.1792 480.165 69.1792C479.243 69.1792 478.497 69.8925 478.497 70.7718V74.2203C476.645 74.143 474.817 73.9358 473.02 73.6004C473.006 73.5979 472.993 73.595 472.98 73.5925C470.665 73.132 468.402 72.4565 466.206 71.5694C462.192 69.9476 458.552 67.6842 455.371 64.8328L457.748 62.5629C458.399 61.9406 458.399 60.9327 457.748 60.3103C457.097 59.6886 456.041 59.6886 455.39 60.3103L453.043 62.5527C450.356 59.6761 448.203 56.4264 446.627 52.8689C444.885 48.9351 443.923 44.7774 443.761 40.4927H446.795C447.717 40.4927 448.463 39.7795 448.463 38.9001C448.463 38.0208 447.717 37.3076 446.795 37.3076H443.789C444.012 33.229 444.964 29.2707 446.627 25.5154C448.258 21.8309 450.51 18.4769 453.333 15.5243L455.39 17.4893C455.716 17.8002 456.142 17.956 456.569 17.956C456.995 17.956 457.422 17.8002 457.748 17.4893C458.399 16.8676 458.399 15.8592 457.748 15.2374L455.689 13.27C458.793 10.551 462.325 8.38292 466.206 6.81484C470.121 5.23368 474.246 4.3251 478.497 4.10657V7.02879C478.497 7.90795 479.244 8.62138 480.165 8.62138C481.085 8.62138 481.832 7.90811 481.832 7.02879V4.07617C486.338 4.22474 490.709 5.14461 494.845 6.815C498.569 8.32015 501.971 10.3774 504.984 12.9432L502.581 15.2376C501.93 15.8593 501.93 16.8678 502.581 17.4895C502.907 17.8004 503.334 17.9561 503.76 17.9561C504.187 17.9561 504.614 17.8004 504.939 17.4895L507.492 15.0508C510.351 18.0321 512.629 21.4197 514.277 25.1408C514.502 25.6504 514.715 26.1638 514.914 26.6813C516.229 30.0873 516.977 33.6497 517.145 37.3079H513.534C512.613 37.3079 511.867 38.0207 511.867 38.9005C511.867 39.7803 512.613 40.4931 513.534 40.4931V40.4927Z" fill="#3876BF"/>
<path d="M480.501 77.3552C502.568 77.3552 520.457 60.2691 520.457 39.1922C520.457 18.1154 502.568 1.0293 480.501 1.0293C458.434 1.0293 440.545 18.1154 440.545 39.1922C440.545 60.2691 458.434 77.3552 480.501 77.3552Z" stroke="#3876BF" stroke-width="2" stroke-miterlimit="10"/>
<path d="M508.116 117.706C506.861 118.526 505.604 119.343 504.351 120.166C503.939 120.437 503.501 120.646 503.002 120.717C502.162 120.835 501.397 120.666 500.731 120.148C499.769 119.398 499.484 118.152 499.961 117.069C500.193 116.543 500.56 116.123 501.051 115.802C503.238 114.374 505.426 112.946 507.613 111.519C508.028 111.247 508.441 110.972 508.86 110.706C509.558 110.263 510.326 110.101 511.144 110.277C512.224 110.51 512.931 111.152 513.234 112.17C513.406 112.746 513.344 113.321 513.106 113.877C512.872 114.427 512.485 114.855 511.974 115.188C510.687 116.026 509.402 116.866 508.116 117.706L508.116 117.706ZM506.674 115.391L506.673 115.391C507.115 116.009 507.559 116.626 507.997 117.245C508.047 117.314 508.076 117.325 508.153 117.275C509.362 116.482 510.574 115.691 511.786 114.901C512.257 114.595 512.596 114.194 512.805 113.686C513.253 112.598 512.788 111.354 511.697 110.825C510.799 110.39 509.913 110.466 509.069 110.98C508.733 111.184 508.411 111.407 508.082 111.621C507.179 112.211 506.276 112.801 505.371 113.389C505.301 113.434 505.292 113.463 505.341 113.532C505.788 114.15 506.23 114.771 506.674 115.391Z" fill="#2B3990"/>
<path d="M507.831 112.258C507.808 112.216 507.801 112.165 507.843 112.118C507.857 112.102 507.874 112.088 507.892 112.077C508.356 111.779 508.802 111.454 509.285 111.184C509.864 110.859 510.487 110.744 511.148 110.903C511.393 110.962 511.621 111.065 511.831 111.2C511.866 111.222 511.906 111.245 511.883 111.291C511.857 111.34 511.814 111.324 511.77 111.308C511.037 111.047 510.325 111.111 509.637 111.448C509.226 111.649 508.867 111.927 508.484 112.168C508.326 112.267 508.157 112.324 507.967 112.32C507.916 112.319 507.868 112.312 507.831 112.258Z" fill="#E1AA74"/>
<path d="M504.786 108.514C504.786 110.822 504.782 113.13 504.788 115.438C504.79 116.198 504.686 116.935 504.335 117.623C503.744 118.782 502.826 119.59 501.517 119.959C499.624 120.493 497.656 119.733 496.597 118.163C496.082 117.401 495.833 116.565 495.833 115.66C495.833 111.639 495.833 107.617 495.833 103.596C495.833 102.832 495.825 102.067 495.835 101.303C495.852 100.031 496.318 98.9234 497.294 98.0563C498.583 96.9115 500.099 96.6007 501.769 97.1337C502.715 97.4355 503.449 98.0293 504 98.8254C504.544 99.6122 504.787 100.481 504.785 101.42C504.782 103.784 504.784 106.149 504.784 108.514H504.786L504.786 108.514ZM500.311 108.245V108.246C501.556 108.246 502.801 108.243 504.045 108.249C504.185 108.249 504.226 108.222 504.226 108.081C504.221 105.853 504.22 103.626 504.223 101.398C504.224 100.534 503.977 99.7492 503.467 99.0315C502.373 97.4944 500.247 96.9619 498.543 97.8544C497.14 98.5892 496.45 99.7693 496.399 101.288C496.378 101.891 496.395 102.495 496.395 103.099C496.395 104.76 496.396 106.421 496.392 108.082C496.392 108.21 496.423 108.248 496.561 108.248C497.811 108.243 499.061 108.245 500.311 108.245L500.311 108.245Z" fill="#2B3990"/>
<path d="M497.045 103.983C496.967 103.974 496.891 103.937 496.864 103.842C496.855 103.811 496.852 103.777 496.852 103.744C496.859 102.895 496.813 102.045 496.874 101.197C496.948 100.18 497.347 99.2968 498.159 98.6105C498.46 98.356 498.806 98.1636 499.18 98.0208C499.241 97.9974 499.309 97.9678 499.351 98.0379C499.396 98.114 499.334 98.154 499.274 98.1947C498.257 98.8789 497.707 99.8281 497.553 100.994C497.461 101.688 497.52 102.388 497.508 103.085C497.502 103.37 497.429 103.634 497.253 103.868C497.206 103.931 497.153 103.986 497.045 103.983L497.045 103.983Z" fill="#E1AA74"/>
<path d="M505.153 117.538C505.153 119.733 503.191 121.513 500.771 121.513C498.35 121.513 495.83 119.733 495.83 117.538C495.83 110.212 498.35 113.564 500.771 113.564C503.191 113.564 505.153 115.343 505.153 117.538Z" fill="#2B3990"/>
<path d="M522.36 101.504C521.288 99.0833 519.806 96.8793 517.946 94.9395L517.867 95.0151C519.81 96.9919 521.351 99.254 522.456 101.748C522.568 102 522.674 102.253 522.775 102.507C522.646 102.17 522.507 101.836 522.36 101.504Z" fill="#3876BF"/>
<path d="M524.38 100.975C523.069 98.0162 521.193 95.3589 518.805 93.077C516.415 90.7954 513.633 89.0036 510.535 87.7519C507.326 86.4558 503.919 85.7988 500.407 85.7988C496.895 85.7988 491.815 86.7388 486.879 89.4162C483.05 91.4931 479.967 94.1646 478.033 97.9566C477.431 98.923 476.898 99.9303 476.435 100.975C475.078 104.04 474.391 107.294 474.391 110.648C474.391 114.002 475.078 117.257 476.435 120.321C476.983 121.557 477.628 122.74 478.369 123.865C480.351 127.504 483.308 130.269 487.203 132.066C488.19 132.622 489.216 133.115 490.28 133.545C493.488 134.841 496.896 135.498 500.407 135.498C503.919 135.498 507.326 134.841 510.535 133.545C513.633 132.293 516.415 130.501 518.805 128.22C521.193 125.938 523.069 123.281 524.38 120.321C525.737 117.257 526.425 114.003 526.425 110.648C526.425 107.294 525.737 104.04 524.38 100.976V100.975ZM521.884 111.495H524.234C524.171 112.865 523.983 114.215 523.671 115.537C523.36 116.859 522.924 118.152 522.367 119.411C521.295 121.832 519.813 124.036 517.953 125.976L516.292 124.389C515.869 123.984 515.182 123.984 514.758 124.389C514.335 124.794 514.335 125.449 514.758 125.854L516.419 127.441C515.404 128.328 514.32 129.127 513.172 129.831C512.025 130.535 510.814 131.145 509.546 131.657C506.911 132.721 504.128 133.319 501.258 133.439V131.195C501.258 130.623 500.772 130.159 500.173 130.159C499.573 130.159 499.088 130.623 499.088 131.195V133.439C497.883 133.389 496.694 133.254 495.524 133.036C495.515 133.034 495.506 133.032 495.498 133.031C493.992 132.731 492.52 132.292 491.091 131.714C488.479 130.659 486.111 129.186 484.041 127.331L485.588 125.854C486.011 125.449 486.011 124.794 485.587 124.389C485.164 123.984 484.477 123.984 484.053 124.389L482.526 125.848C480.778 123.976 479.377 121.862 478.352 119.547C477.218 116.988 476.592 114.282 476.487 111.495H478.461C479.061 111.495 479.546 111.03 479.546 110.458C479.546 109.886 479.061 109.422 478.461 109.422H476.505C476.65 106.768 477.27 104.193 478.352 101.75C479.413 99.3523 480.878 97.17 482.715 95.2489L484.053 96.5275C484.265 96.7298 484.543 96.8311 484.82 96.8311C485.098 96.8311 485.376 96.7298 485.587 96.5275C486.011 96.123 486.011 95.4668 485.588 95.0623L484.248 93.7823C486.267 92.0131 488.565 90.6025 491.091 89.5822C493.638 88.5534 496.322 87.9623 499.088 87.8201V89.7214C499.088 90.2934 499.574 90.7576 500.173 90.7576C500.772 90.7576 501.258 90.2935 501.258 89.7214V87.8003C504.189 87.897 507.034 88.4955 509.724 89.5823C512.148 90.5616 514.361 91.9002 516.321 93.5696L514.758 95.0624C514.335 95.467 514.335 96.1231 514.758 96.5276C514.97 96.7299 515.248 96.8312 515.525 96.8312C515.803 96.8312 516.08 96.7299 516.292 96.5276L517.953 94.9409C519.813 96.8807 521.295 99.0848 522.367 101.506C522.514 101.837 522.653 102.171 522.782 102.508C523.638 104.724 524.125 107.042 524.234 109.422H521.884C521.285 109.422 520.8 109.886 520.8 110.459C520.8 111.031 521.285 111.495 521.884 111.495V111.495Z" fill="#3876BF"/>
<path d="M500.39 135.477C514.747 135.477 526.387 124.36 526.387 110.647C526.387 96.9334 514.747 85.8164 500.39 85.8164C486.032 85.8164 474.393 96.9334 474.393 110.647C474.393 124.36 486.032 135.477 500.39 135.477Z" stroke="#3876BF" stroke-width="2" stroke-miterlimit="10"/>
<path d="M448.657 149.509C447.402 150.329 446.145 151.146 444.892 151.968C444.48 152.239 444.042 152.449 443.543 152.519C442.703 152.638 441.938 152.469 441.272 151.951C440.31 151.201 440.025 149.955 440.502 148.872C440.734 148.345 441.101 147.926 441.592 147.604C443.779 146.176 445.967 144.749 448.154 143.321C448.569 143.05 448.982 142.775 449.401 142.509C450.099 142.065 450.867 141.903 451.685 142.08C452.765 142.313 453.472 142.954 453.775 143.972C453.947 144.549 453.885 145.124 453.647 145.68C453.413 146.229 453.026 146.658 452.515 146.991C451.228 147.829 449.943 148.669 448.657 149.508L448.657 149.509ZM447.215 147.194L447.214 147.194C447.656 147.812 448.1 148.428 448.539 149.048C448.588 149.117 448.617 149.128 448.694 149.078C449.903 148.284 451.115 147.493 452.327 146.704C452.798 146.398 453.137 145.997 453.346 145.489C453.794 144.4 453.329 143.157 452.238 142.628C451.34 142.192 450.454 142.269 449.61 142.783C449.274 142.987 448.952 143.21 448.623 143.424C447.72 144.014 446.817 144.604 445.912 145.192C445.842 145.237 445.833 145.266 445.882 145.334C446.329 145.953 446.771 146.573 447.215 147.194Z" fill="#2B3990"/>
<path d="M448.372 144.062C448.349 144.02 448.342 143.97 448.384 143.922C448.398 143.907 448.415 143.893 448.433 143.882C448.897 143.584 449.343 143.259 449.826 142.988C450.405 142.664 451.028 142.548 451.689 142.708C451.934 142.767 452.162 142.87 452.372 143.005C452.407 143.027 452.447 143.05 452.424 143.096C452.398 143.145 452.355 143.128 452.311 143.113C451.578 142.851 450.866 142.916 450.178 143.253C449.767 143.453 449.408 143.731 449.025 143.973C448.867 144.071 448.698 144.129 448.508 144.125C448.457 144.123 448.409 144.117 448.372 144.062Z" fill="#E1AA74"/>
<path d="M445.325 140.31C445.325 142.618 445.321 144.927 445.327 147.235C445.33 147.995 445.225 148.732 444.874 149.42C444.283 150.579 443.365 151.386 442.056 151.756C440.163 152.29 438.195 151.53 437.136 149.96C436.621 149.197 436.372 148.362 436.372 147.457C436.372 143.436 436.372 139.414 436.372 135.393C436.372 134.629 436.364 133.864 436.374 133.1C436.391 131.827 436.857 130.72 437.833 129.853C439.122 128.708 440.638 128.398 442.308 128.931C443.254 129.232 443.988 129.826 444.539 130.622C445.083 131.409 445.326 132.278 445.325 133.217C445.321 135.581 445.324 137.946 445.324 140.31H445.325L445.325 140.31ZM440.85 140.042V140.042C442.095 140.042 443.34 140.04 444.585 140.046C444.724 140.046 444.765 140.018 444.765 139.878C444.76 137.65 444.759 135.423 444.762 133.195C444.763 132.331 444.516 131.546 444.006 130.828C442.912 129.291 440.786 128.759 439.082 129.651C437.679 130.386 436.989 131.566 436.938 133.084C436.917 133.688 436.934 134.292 436.934 134.896C436.934 136.557 436.935 138.218 436.931 139.879C436.931 140.007 436.962 140.045 437.1 140.045C438.35 140.039 439.6 140.042 440.85 140.042L440.85 140.042Z" fill="#2B3990"/>
<path d="M437.584 135.782C437.506 135.773 437.43 135.736 437.403 135.641C437.394 135.609 437.391 135.576 437.391 135.543C437.398 134.694 437.352 133.843 437.413 132.996C437.487 131.979 437.886 131.096 438.698 130.409C439 130.155 439.345 129.962 439.719 129.82C439.78 129.796 439.848 129.767 439.89 129.837C439.935 129.913 439.873 129.953 439.813 129.994C438.796 130.678 438.246 131.627 438.092 132.793C438 133.487 438.059 134.186 438.047 134.883C438.041 135.169 437.968 135.433 437.792 135.667C437.745 135.73 437.692 135.785 437.584 135.782L437.584 135.782Z" fill="#E1AA74"/>
<path d="M445.692 149.335C445.692 151.53 443.73 153.31 441.31 153.31C438.89 153.31 436.369 151.53 436.369 149.335C436.369 142.009 438.889 145.361 441.31 145.361C443.73 145.361 445.692 147.14 445.692 149.335Z" fill="#2B3990"/>
<path d="M462.896 133.307C461.823 130.886 460.341 128.682 458.482 126.742L458.402 126.818C460.345 128.795 461.887 131.057 462.991 133.551C463.103 133.803 463.209 134.055 463.311 134.309C463.181 133.973 463.042 133.639 462.896 133.307Z" fill="#3876BF"/>
<path d="M464.913 132.774C463.602 129.815 461.727 127.158 459.338 124.876C456.948 122.594 454.166 120.802 451.068 119.551C447.86 118.255 444.453 117.598 440.941 117.598C437.429 117.598 432.348 118.538 427.412 121.215C423.583 123.292 420.501 125.963 418.566 129.755C417.965 130.722 417.431 131.729 416.969 132.774C415.612 135.838 414.924 139.093 414.924 142.447C414.924 145.801 415.612 149.056 416.969 152.12C417.516 153.356 418.162 154.539 418.902 155.664C420.884 159.302 423.842 162.068 427.736 163.865C428.723 164.421 429.749 164.914 430.813 165.344C434.021 166.64 437.429 167.297 440.941 167.297C444.452 167.297 447.86 166.64 451.068 165.344C454.166 164.092 456.949 162.3 459.338 160.019C461.727 157.737 463.602 155.079 464.913 152.12C466.27 149.056 466.958 145.801 466.958 142.447C466.958 139.093 466.27 135.838 464.913 132.774V132.774ZM462.417 143.293H464.767C464.704 144.664 464.516 146.014 464.205 147.336C463.893 148.658 463.458 149.951 462.901 151.209C461.828 153.63 460.346 155.835 458.487 157.774L456.825 156.188C456.402 155.783 455.715 155.783 455.291 156.188C454.868 156.592 454.868 157.248 455.291 157.653L456.952 159.24C455.937 160.127 454.853 160.925 453.705 161.63C452.558 162.334 451.347 162.944 450.08 163.456C447.444 164.52 444.661 165.118 441.791 165.238V162.994C441.791 162.422 441.305 161.958 440.706 161.958C440.107 161.958 439.621 162.422 439.621 162.994V165.238C438.416 165.188 437.227 165.053 436.058 164.835C436.049 164.833 436.04 164.831 436.031 164.83C434.525 164.53 433.053 164.09 431.624 163.513C429.012 162.458 426.644 160.985 424.574 159.13L426.121 157.653C426.544 157.248 426.544 156.592 426.12 156.188C425.697 155.783 425.01 155.783 424.586 156.188L423.059 157.647C421.311 155.775 419.91 153.66 418.885 151.346C417.751 148.786 417.125 146.081 417.02 143.293H418.995C419.594 143.293 420.079 142.829 420.079 142.257C420.079 141.685 419.594 141.221 418.995 141.221H417.038C417.183 138.567 417.803 135.992 418.885 133.548C419.946 131.151 421.411 128.969 423.248 127.048L424.586 128.326C424.799 128.529 425.076 128.63 425.353 128.63C425.631 128.63 425.909 128.529 426.12 128.326C426.544 127.922 426.544 127.266 426.121 126.861L424.781 125.581C426.801 123.812 429.098 122.401 431.624 121.381C434.171 120.352 436.855 119.761 439.621 119.619V121.52C439.621 122.092 440.107 122.556 440.706 122.556C441.305 122.556 441.791 122.092 441.791 121.52V119.599C444.723 119.696 447.567 120.294 450.258 121.381C452.681 122.36 454.894 123.699 456.854 125.368L455.291 126.861C454.868 127.266 454.868 127.922 455.291 128.326C455.503 128.529 455.781 128.63 456.058 128.63C456.336 128.63 456.614 128.529 456.825 128.326L458.487 126.74C460.346 128.68 461.828 130.884 462.901 133.305C463.048 133.636 463.186 133.97 463.316 134.307C464.171 136.523 464.658 138.841 464.767 141.221H462.417C461.818 141.221 461.333 141.685 461.333 142.257C461.333 142.83 461.818 143.294 462.417 143.294V143.293Z" fill="#3876BF"/>
<path d="M440.927 167.276C455.285 167.276 466.924 156.159 466.924 142.446C466.924 128.732 455.285 117.615 440.927 117.615C426.569 117.615 414.93 128.732 414.93 142.446C414.93 156.159 426.569 167.276 440.927 167.276Z" stroke="#3876BF" stroke-width="2" stroke-miterlimit="10"/>
<path d="M50.882 81.0951C49.6268 81.9145 48.37 82.7318 47.1171 83.5544C46.7045 83.8254 46.2666 84.0351 45.7676 84.1054C44.9277 84.2237 44.1626 84.055 43.4971 83.5365C42.5347 82.7868 42.2494 81.5406 42.7268 80.4576C42.9588 79.9314 43.3252 79.5116 43.8171 79.1904C46.0039 77.7624 48.1912 76.335 50.3783 74.9074C50.794 74.6361 51.2068 74.3608 51.626 74.0945C52.3241 73.6512 53.0917 73.4893 53.9098 73.6658C54.9898 73.8986 55.697 74.5404 56.0001 75.5584C56.1717 76.1346 56.1094 76.7098 55.8721 77.2658C55.6374 77.8153 55.251 78.2438 54.7398 78.5766C53.4528 79.4145 52.1675 80.255 50.8815 81.0944L50.882 81.0951ZM49.4395 78.7795L49.4391 78.7798C49.881 79.3975 50.3242 80.0143 50.7631 80.6338C50.8122 80.7031 50.8421 80.7138 50.9183 80.6637C52.1279 79.8703 53.3392 79.0793 54.5518 78.29C55.0223 77.9837 55.3615 77.5826 55.5705 77.0745C56.0184 75.9864 55.5532 74.7425 54.4628 74.2137C53.565 73.7784 52.6784 73.8552 51.8344 74.3686C51.4991 74.5725 51.1764 74.7954 50.848 75.0098C49.9444 75.5995 49.0416 76.19 48.1365 76.7776C48.067 76.8227 48.0573 76.8519 48.1068 76.9203C48.5534 77.5385 48.9958 78.1594 49.4395 78.7795Z" fill="#2B3990"/>
<path d="M50.5963 75.6462C50.5735 75.6042 50.5666 75.5537 50.6089 75.5063C50.6228 75.4908 50.6397 75.4769 50.6575 75.4655C51.1219 75.1677 51.568 74.8426 52.0506 74.5722C52.6297 74.2478 53.2522 74.1324 53.9138 74.2917C54.1591 74.3507 54.3862 74.4538 54.5969 74.5887C54.6314 74.6108 54.6716 74.634 54.6482 74.6795C54.6228 74.7289 54.5792 74.7124 54.5355 74.6969C53.8024 74.4354 53.0911 74.4997 52.4022 74.8367C51.9918 75.0375 51.6328 75.3155 51.2492 75.5565C51.092 75.6553 50.9226 75.7126 50.7328 75.7085C50.6816 75.7073 50.6332 75.7006 50.5963 75.6462Z" fill="#E1AA74"/>
<path d="M47.5495 71.8983C47.5495 74.2063 47.5452 76.5144 47.5519 78.8225C47.5541 79.5827 47.4496 80.3195 47.0986 81.008C46.5079 82.1668 45.59 82.9744 44.2809 83.3436C42.3879 83.8775 40.4198 83.1175 39.3602 81.5479C38.8454 80.7853 38.5971 79.9495 38.597 79.0451C38.5963 75.0236 38.5967 71.0022 38.5967 66.9807C38.5967 66.2164 38.5887 65.4521 38.599 64.688C38.6159 63.4153 39.082 62.3082 40.058 61.4411C41.3465 60.2963 42.8624 59.9854 44.5327 60.5184C45.4784 60.8202 46.2128 61.4141 46.7636 62.2101C47.308 62.997 47.5503 63.8656 47.5491 64.8046C47.546 67.1692 47.5481 69.5338 47.5481 71.8984H47.5497L47.5495 71.8983ZM43.0745 71.6295V71.6304C44.3194 71.6304 45.5643 71.6282 46.8092 71.6335C46.9484 71.6341 46.9898 71.6064 46.9894 71.4657C46.9842 69.2381 46.9836 67.0106 46.9867 64.783C46.988 63.9186 46.741 63.134 46.2304 62.4162C45.1369 60.8791 43.011 60.3467 41.3066 61.2391C39.9032 61.974 39.2137 63.1541 39.1622 64.6723C39.1419 65.2755 39.1586 65.8799 39.1586 66.4837C39.1586 68.1449 39.16 69.8061 39.1555 71.4673C39.1552 71.5947 39.1866 71.6332 39.3249 71.6325C40.5747 71.6273 41.8246 71.6294 43.0744 71.6294L43.0745 71.6295Z" fill="#2B3990"/>
<path d="M39.8088 67.3718C39.7306 67.3627 39.655 67.326 39.628 67.2306C39.6191 67.1993 39.6152 67.1656 39.6155 67.133C39.6229 66.2839 39.5763 65.4333 39.6377 64.586C39.7113 63.5691 40.111 62.6855 40.9231 61.9992C41.2241 61.7447 41.5694 61.5523 41.9437 61.4095C42.005 61.3861 42.073 61.3564 42.1145 61.4266C42.1595 61.5027 42.0977 61.5426 42.0373 61.5834C41.0206 62.2676 40.471 63.2168 40.3164 64.3825C40.2242 65.077 40.2841 65.7762 40.2713 66.4733C40.2661 66.759 40.1929 67.0225 40.017 67.2568C39.9696 67.32 39.9168 67.3746 39.809 67.3721L39.8088 67.3718Z" fill="#E1AA74"/>
<path d="M47.9162 80.9232C47.9162 83.1181 45.9543 84.8974 43.5342 84.8974C41.1141 84.8974 38.5938 83.1181 38.5938 80.9232C38.5938 73.5969 41.114 76.9489 43.5342 76.9489C45.9544 76.9489 47.9162 78.7282 47.9162 80.9232Z" fill="#2B3990"/>
<path d="M65.1241 64.8912C64.0519 62.4701 62.5696 60.266 60.71 58.3262L60.6309 58.4018C62.5733 60.3786 64.1151 62.6407 65.22 65.1351C65.3313 65.3865 65.4378 65.6394 65.5391 65.8935C65.4093 65.5568 65.2709 65.2229 65.1241 64.8912Z" fill="#3876BF"/>
<path d="M67.1414 64.3622C65.831 61.4029 63.955 58.7456 61.5662 56.4637C59.177 54.1821 56.3949 52.3903 53.2967 51.1387C50.0882 49.8425 46.6811 49.1855 43.1691 49.1855C39.6571 49.1855 34.5764 50.1255 29.6405 52.8029C25.8118 54.8798 22.7291 57.5513 20.7949 61.3433C20.1931 62.3097 19.6599 63.317 19.1972 64.3622C17.8402 67.4262 17.1523 70.6808 17.1523 74.0349C17.1523 77.3889 17.8402 80.6435 19.1972 83.708C19.7443 84.9437 20.3902 86.1268 21.1306 87.2518C23.1127 90.8902 26.0702 93.6555 29.9649 95.4531C30.9513 96.0084 31.9779 96.5018 33.042 96.9316C36.25 98.2277 39.6576 98.8847 43.1691 98.8847C46.6807 98.8847 50.0882 98.2277 53.2967 96.9316C56.3949 95.6799 59.1771 93.8882 61.5662 91.6066C63.955 89.3245 65.831 86.6673 67.1414 83.7081C68.4985 80.6436 69.1863 77.3894 69.1863 74.035C69.1863 70.6806 68.4985 67.4264 67.1414 64.3623V64.3622ZM64.6458 74.8813H66.9954C66.9329 76.2521 66.7449 77.6021 66.4331 78.9238C66.1214 80.2457 65.686 81.539 65.1292 82.7973C64.057 85.2184 62.5747 87.4228 60.7151 89.3623L59.0538 87.7758C58.6303 87.371 57.9433 87.371 57.5198 87.7758C57.0963 88.1804 57.0963 88.8362 57.5198 89.241L59.1808 90.8275C58.1657 91.7151 57.0812 92.5132 55.9335 93.2175C54.7863 93.9216 53.5754 94.5319 52.3081 95.0435C49.6729 96.1081 46.89 96.7058 44.0193 96.8259V94.5822C44.0193 94.0101 43.5337 93.5459 42.9344 93.5459C42.3351 93.5459 41.8495 94.01 41.8495 94.5822V96.8259C40.6447 96.7756 39.4554 96.6408 38.2861 96.4225C38.2771 96.4209 38.2682 96.419 38.2596 96.4174C36.7537 96.1178 35.2812 95.6782 33.8524 95.1011C31.2405 94.0459 28.8725 92.5732 26.8027 90.7179L28.3495 89.241C28.773 88.8362 28.773 88.1804 28.349 87.7754C27.9255 87.3709 27.2388 87.3709 26.815 87.7754L25.2878 89.2345C23.5396 87.3628 22.1386 85.2484 21.1133 82.9337C19.9798 80.3742 19.354 77.6691 19.2488 74.8813H21.223C21.8224 74.8813 22.3079 74.4172 22.3079 73.845C22.3079 73.2729 21.8224 72.8088 21.223 72.8088H19.2667C19.412 70.1551 20.0317 67.5797 21.1133 65.1363C22.1749 62.739 23.6399 60.5568 25.4763 58.6357L26.815 59.9142C27.0271 60.1165 27.3045 60.2178 27.582 60.2178C27.8594 60.2178 28.1372 60.1165 28.349 59.9142C28.7729 59.5097 28.7729 58.8536 28.3495 58.449L27.0093 57.169C29.0292 55.3998 31.327 53.9892 33.8525 52.9689C36.3997 51.9402 39.0838 51.349 41.8496 51.2068V53.1081C41.8496 53.6802 42.3355 54.1444 42.9345 54.1444C43.5335 54.1444 44.0194 53.6803 44.0194 53.1081V51.187C46.9512 51.2837 49.7954 51.8822 52.486 52.969C54.9094 53.9484 57.1229 55.2869 59.0828 56.9563L57.5198 58.4491C57.0963 58.8537 57.0963 59.5098 57.5198 59.9143C57.7316 60.1166 58.0094 60.218 58.2868 60.218C58.5643 60.218 58.8421 60.1166 59.0538 59.9143L60.7151 58.3276C62.5747 60.2674 64.057 62.4715 65.1292 64.8926C65.2761 65.2242 65.4143 65.5582 65.5442 65.8949C66.3997 68.111 66.8865 70.4289 66.9954 72.809H64.6458C64.0469 72.809 63.5613 73.2728 63.5613 73.8453C63.5613 74.4177 64.0469 74.8815 64.6458 74.8815V74.8813Z" fill="#3876BF"/>
<path d="M43.1533 98.8622C57.5111 98.8622 69.1504 87.7452 69.1504 74.0317C69.1504 60.3182 57.5111 49.2012 43.1533 49.2012C28.7955 49.2012 17.1562 60.3182 17.1562 74.0317C17.1562 87.7452 28.7955 98.8622 43.1533 98.8622Z" stroke="#3876BF" stroke-width="2" stroke-miterlimit="10"/>
<path d="M39.8607 139.984C38.4144 140.928 36.9664 141.87 35.5228 142.818C35.0474 143.13 34.5429 143.372 33.968 143.453C33.0003 143.589 32.1187 143.395 31.3519 142.797C30.2431 141.934 29.9144 140.498 30.4645 139.25C30.7317 138.644 31.1539 138.16 31.7206 137.79C34.2402 136.145 36.7604 134.5 39.2804 132.855C39.7592 132.543 40.2349 132.225 40.7179 131.918C41.5222 131.408 42.4066 131.221 43.3492 131.424C44.5936 131.693 45.4084 132.432 45.7576 133.605C45.9553 134.269 45.8836 134.932 45.6101 135.572C45.3397 136.205 44.8945 136.699 44.3056 137.083C42.8226 138.048 41.3417 139.016 39.8601 139.984L39.8607 139.984ZM38.1987 137.316L38.1982 137.317C38.7073 138.028 39.218 138.739 39.7237 139.453C39.7803 139.533 39.8147 139.545 39.9025 139.487C41.2962 138.573 42.6918 137.662 44.0889 136.752C44.631 136.4 45.0218 135.937 45.2627 135.352C45.7787 134.098 45.2427 132.665 43.9864 132.056C42.9519 131.554 41.9304 131.643 40.958 132.234C40.5717 132.469 40.1999 132.726 39.8215 132.973C38.7804 133.652 37.7402 134.333 36.6974 135.01C36.6173 135.062 36.6062 135.095 36.6631 135.174C37.1777 135.887 37.6875 136.602 38.1987 137.316Z" fill="#2B3990"/>
<path d="M39.5346 133.707C39.5083 133.658 39.5004 133.6 39.5491 133.546C39.5652 133.528 39.5846 133.512 39.6052 133.499C40.1402 133.156 40.6541 132.781 41.2103 132.469C41.8775 132.096 42.5947 131.963 43.3569 132.146C43.6396 132.214 43.9013 132.333 44.144 132.488C44.1837 132.514 44.23 132.541 44.2031 132.593C44.1739 132.65 44.1236 132.631 44.0733 132.613C43.2287 132.312 42.4091 132.386 41.6154 132.774C41.1425 133.006 40.7288 133.326 40.2869 133.604C40.1057 133.717 39.9106 133.783 39.6919 133.779C39.6329 133.777 39.5771 133.77 39.5346 133.707Z" fill="#E1AA74"/>
<path d="M36.0236 129.385C36.0236 132.045 36.0188 134.704 36.0265 137.363C36.029 138.239 35.9086 139.088 35.5042 139.881C34.8235 141.216 33.766 142.147 32.2576 142.572C30.0766 143.187 27.809 142.312 26.5882 140.503C25.995 139.625 25.7089 138.662 25.7088 137.62C25.708 132.986 25.7085 128.353 25.7085 123.719C25.7085 122.839 25.6993 121.958 25.7111 121.078C25.7306 119.611 26.2676 118.336 27.3921 117.337C28.8767 116.018 30.6233 115.66 32.5478 116.274C33.6374 116.621 34.4836 117.306 35.1182 118.223C35.7454 119.129 36.0247 120.13 36.0232 121.212C36.0197 123.937 36.0221 126.661 36.0221 129.385H36.0239L36.0236 129.385ZM30.8677 129.076V129.077C32.302 129.077 33.7363 129.074 35.1707 129.08C35.3312 129.081 35.3788 129.049 35.3784 128.887C35.3723 126.32 35.3717 123.754 35.3753 121.187C35.3767 120.191 35.0922 119.287 34.5039 118.46C33.244 116.689 30.7946 116.076 28.8308 117.104C27.2138 117.951 26.4193 119.31 26.3601 121.06C26.3366 121.755 26.3558 122.451 26.3558 123.147C26.3558 125.061 26.3575 126.975 26.3524 128.889C26.352 129.035 26.3882 129.08 26.5475 129.079C27.9875 129.073 29.4276 129.076 30.8676 129.076L30.8677 129.076Z" fill="#2B3990"/>
<path d="M27.1054 124.168C27.0153 124.157 26.9282 124.115 26.897 124.005C26.8868 123.969 26.8823 123.93 26.8827 123.893C26.8911 122.914 26.8375 121.934 26.9082 120.958C26.993 119.787 27.4535 118.769 28.3892 117.978C28.7361 117.685 29.1339 117.463 29.5652 117.298C29.6358 117.271 29.7141 117.237 29.762 117.318C29.8138 117.406 29.7426 117.452 29.673 117.499C28.5016 118.287 27.8684 119.381 27.6902 120.724C27.584 121.524 27.653 122.33 27.6383 123.133C27.6322 123.462 27.5479 123.766 27.3453 124.035C27.2906 124.108 27.2298 124.171 27.1056 124.168L27.1054 124.168Z" fill="#E1AA74"/>
<path d="M36.4462 139.787C36.4462 142.316 34.1857 144.366 31.3974 144.366C28.609 144.366 25.7051 142.316 25.7051 139.787C25.7051 131.346 28.6089 135.208 31.3974 135.208C34.1859 135.208 36.4462 137.258 36.4462 139.787Z" fill="#2B3990"/>
<path d="M56.2747 121.314C55.0393 118.524 53.3315 115.985 51.1889 113.75L51.0977 113.837C53.3357 116.115 55.1121 118.721 56.3851 121.595C56.5134 121.885 56.6362 122.176 56.7528 122.469C56.6033 122.081 56.4439 121.696 56.2747 121.314Z" fill="#3876BF"/>
<path d="M58.5963 120.703C57.0864 117.293 54.925 114.232 52.1726 111.603C49.4198 108.974 46.2144 106.909 42.6447 105.467C38.9479 103.974 35.0224 103.217 30.9759 103.217C26.9295 103.217 21.0755 104.3 15.3886 107.385C10.9772 109.778 7.42544 112.856 5.19691 117.225C4.50354 118.338 3.88919 119.499 3.35605 120.703C1.79253 124.233 1 127.983 1 131.848C1 135.712 1.79253 139.462 3.35605 142.993C3.98643 144.417 4.7306 145.78 5.58368 147.076C7.86738 151.268 11.275 154.454 15.7623 156.525C16.8989 157.165 18.0817 157.733 19.3077 158.229C23.0039 159.722 26.93 160.479 30.9759 160.479C35.0218 160.479 38.9479 159.722 42.6447 158.229C46.2144 156.787 49.42 154.722 52.1726 152.093C54.925 149.464 57.0864 146.402 58.5963 142.993C60.1598 139.462 60.9523 135.713 60.9523 131.848C60.9523 127.983 60.1598 124.233 58.5963 120.703V120.703ZM55.7208 132.823H58.428C58.356 134.402 58.1394 135.958 57.7802 137.481C57.421 139.004 56.9194 140.494 56.2778 141.943C55.0425 144.733 53.3346 147.273 51.1921 149.507L49.2779 147.68C48.79 147.213 47.9984 147.213 47.5105 147.68C47.0225 148.146 47.0225 148.901 47.5105 149.368L49.4242 151.196C48.2546 152.218 47.0051 153.138 45.6828 153.949C44.361 154.761 42.9658 155.464 41.5057 156.053C38.4694 157.28 35.263 157.969 31.9555 158.107V155.522C31.9555 154.863 31.396 154.328 30.7055 154.328C30.0149 154.328 29.4555 154.863 29.4555 155.522V158.107C28.0674 158.049 26.697 157.894 25.3498 157.642C25.3394 157.64 25.3292 157.638 25.3193 157.636C23.5842 157.291 21.8877 156.785 20.2414 156.12C17.232 154.904 14.5037 153.207 12.1189 151.069L13.901 149.368C14.389 148.901 14.389 148.146 13.9005 147.679C13.4125 147.213 12.6214 147.213 12.1331 147.679L10.3735 149.36C8.35922 147.204 6.74503 144.768 5.56367 142.101C4.25775 139.152 3.53667 136.035 3.41544 132.823H5.69016C6.38071 132.823 6.94015 132.288 6.94015 131.629C6.94015 130.97 6.38071 130.435 5.69016 130.435H3.4361C3.60351 127.377 4.31753 124.41 5.56367 121.595C6.78685 118.833 8.4748 116.318 10.5907 114.105L12.1331 115.578C12.3774 115.811 12.6971 115.928 13.0168 115.928C13.3365 115.928 13.6565 115.811 13.9005 115.578C14.3889 115.112 14.3889 114.356 13.901 113.89L12.3569 112.415C14.6842 110.377 17.3317 108.751 20.2416 107.576C23.1763 106.391 26.269 105.709 29.4556 105.546V107.736C29.4556 108.395 30.0155 108.93 30.7056 108.93C31.3958 108.93 31.9556 108.396 31.9556 107.736V105.523C35.3336 105.634 38.6106 106.324 41.7106 107.576C44.5029 108.704 47.0531 110.247 49.3113 112.17L47.5105 113.89C47.0225 114.356 47.0225 115.112 47.5105 115.578C47.7545 115.811 48.0745 115.928 48.3942 115.928C48.7139 115.928 49.0339 115.811 49.2779 115.578L51.1921 113.75C53.3346 115.985 55.0425 118.525 56.2778 121.314C56.447 121.696 56.6064 122.081 56.7559 122.469C57.7417 125.022 58.3025 127.693 58.428 130.435H55.7208C55.0308 130.435 54.4714 130.97 54.4714 131.629C54.4714 132.289 55.0308 132.823 55.7208 132.823V132.823Z" fill="#3876BF"/>
<path d="M30.9571 160.455C47.4998 160.455 60.9103 147.646 60.9103 131.845C60.9103 116.045 47.4998 103.236 30.9571 103.236C14.4144 103.236 1.00391 116.045 1.00391 131.845C1.00391 147.646 14.4144 160.455 30.9571 160.455Z" stroke="#3876BF" stroke-width="2" stroke-miterlimit="10"/>
<path d="M90.5952 138.163C89.8024 138.68 89.0085 139.197 88.2171 139.716C87.9565 139.887 87.6799 140.02 87.3648 140.064C86.8342 140.139 86.3509 140.032 85.9306 139.705C85.3227 139.231 85.1425 138.444 85.4441 137.76C85.5906 137.428 85.822 137.163 86.1327 136.96C87.514 136.058 88.8956 135.156 90.2771 134.254C90.5396 134.083 90.8004 133.909 91.0652 133.741C91.5061 133.461 91.991 133.359 92.5077 133.47C93.1899 133.617 93.6366 134.023 93.828 134.665C93.9364 135.029 93.8971 135.393 93.7472 135.744C93.5989 136.091 93.3549 136.362 93.032 136.572C92.219 137.101 91.4072 137.632 90.5949 138.162L90.5952 138.163ZM89.6841 136.7L89.6838 136.7C89.9629 137.09 90.2429 137.48 90.5201 137.871C90.5511 137.915 90.57 137.922 90.6182 137.89C91.3822 137.389 92.1473 136.889 92.9132 136.391C93.2104 136.197 93.4246 135.944 93.5567 135.623C93.8396 134.936 93.5457 134.15 92.857 133.816C92.2899 133.541 91.7299 133.59 91.1968 133.914C90.985 134.043 90.7812 134.184 90.5737 134.319C90.003 134.691 89.4327 135.064 88.861 135.436C88.8172 135.464 88.811 135.483 88.8423 135.526C89.1244 135.916 89.4038 136.308 89.6841 136.7Z" fill="#2B3990"/>
<path d="M90.4158 134.721C90.4014 134.694 90.397 134.662 90.4237 134.632C90.4325 134.623 90.4432 134.614 90.4545 134.607C90.7478 134.419 91.0295 134.213 91.3344 134.042C91.7002 133.837 92.0934 133.765 92.5112 133.865C92.6662 133.902 92.8096 133.968 92.9427 134.053C92.9645 134.067 92.9899 134.081 92.9751 134.11C92.9591 134.141 92.9315 134.131 92.904 134.121C92.4409 133.956 91.9916 133.997 91.5565 134.209C91.2973 134.336 91.0705 134.512 90.8282 134.664C90.7289 134.726 90.6219 134.763 90.502 134.76C90.4697 134.759 90.4391 134.755 90.4158 134.721Z" fill="#E1AA74"/>
<path d="M88.4947 132.35C88.4947 133.808 88.492 135.265 88.4963 136.723C88.4977 137.203 88.4316 137.669 88.21 138.104C87.8368 138.836 87.257 139.346 86.4301 139.579C85.2344 139.916 83.9913 139.436 83.322 138.445C82.9968 137.963 82.84 137.435 82.8399 136.864C82.8395 134.324 82.8398 131.784 82.8398 129.244C82.8398 128.761 82.8347 128.278 82.8412 127.795C82.8519 126.991 83.1463 126.292 83.7627 125.744C84.5766 125.021 85.5341 124.825 86.5892 125.162C87.1866 125.352 87.6504 125.727 87.9983 126.23C88.3422 126.727 88.4953 127.276 88.4945 127.869C88.4925 129.363 88.4939 130.856 88.4939 132.35H88.4948L88.4947 132.35ZM85.6681 132.18V132.18C86.4544 132.18 87.2408 132.179 88.0271 132.182C88.1151 132.183 88.1412 132.165 88.141 132.076C88.1377 130.669 88.1373 129.262 88.1393 127.855C88.14 127.309 87.9841 126.814 87.6615 126.36C86.9709 125.389 85.628 125.053 84.5515 125.617C83.665 126.081 83.2295 126.826 83.197 127.785C83.1841 128.166 83.1946 128.548 83.1946 128.93C83.1946 129.979 83.1956 131.028 83.1927 132.077C83.1925 132.158 83.2124 132.182 83.2997 132.182C84.0891 132.178 84.8786 132.18 85.6681 132.18L85.6681 132.18Z" fill="#2B3990"/>
<path d="M83.6069 129.49C83.5576 129.484 83.5098 129.461 83.4927 129.401C83.4871 129.381 83.4846 129.36 83.4849 129.339C83.4895 128.803 83.4601 128.266 83.4989 127.73C83.5453 127.088 83.7978 126.53 84.3108 126.096C84.5009 125.936 84.719 125.814 84.9555 125.724C84.9942 125.709 85.0371 125.69 85.0634 125.735C85.0918 125.783 85.0527 125.808 85.0145 125.834C84.3724 126.266 84.0253 126.865 83.9276 127.602C83.8693 128.04 83.9072 128.482 83.8991 128.922C83.8958 129.103 83.8496 129.269 83.7385 129.417C83.7085 129.457 83.6752 129.492 83.6071 129.49L83.6069 129.49Z" fill="#E1AA74"/>
<path d="M88.7244 138.054C88.7244 139.441 87.4852 140.565 85.9566 140.565C84.4279 140.565 82.8359 139.441 82.8359 138.054C82.8359 133.427 84.4279 135.544 85.9566 135.544C87.4853 135.544 88.7244 136.668 88.7244 138.054Z" fill="#2B3990"/>
<path d="M99.5901 127.924C98.9128 126.395 97.9766 125.003 96.802 123.777L96.752 123.825C97.9789 125.074 98.9528 126.503 99.6506 128.078C99.721 128.237 99.7883 128.397 99.8522 128.557C99.7703 128.345 99.6828 128.134 99.5901 127.924Z" fill="#3876BF"/>
<path d="M100.864 127.592C100.037 125.723 98.8517 124.044 97.3428 122.603C95.8337 121.162 94.0764 120.03 92.1194 119.24C90.0928 118.421 87.9407 118.006 85.7224 118.006C83.5041 118.006 80.2948 118.6 77.1772 120.291C74.7588 121.603 72.8116 123.29 71.5899 125.685C71.2098 126.296 70.873 126.932 70.5807 127.592C69.7235 129.527 69.2891 131.583 69.2891 133.702C69.2891 135.82 69.7235 137.876 70.5807 139.812C70.9263 140.592 71.3342 141.34 71.8019 142.05C73.0539 144.348 74.922 146.095 77.382 147.23C78.0051 147.581 78.6535 147.893 79.3257 148.164C81.352 148.983 83.5043 149.398 85.7224 149.398C87.9404 149.398 90.0928 148.983 92.1194 148.164C94.0764 147.374 95.8337 146.242 97.3428 144.801C98.8517 143.359 100.037 141.681 100.864 139.812C101.722 137.876 102.156 135.821 102.156 133.702C102.156 131.583 101.722 129.528 100.864 127.592V127.592ZM99.288 134.236H100.772C100.733 135.102 100.614 135.955 100.417 136.79C100.22 137.625 99.9451 138.442 99.5934 139.236C98.9161 140.766 97.9798 142.158 96.8052 143.383L95.7559 142.381C95.4884 142.125 95.0545 142.125 94.7869 142.381C94.5194 142.637 94.5194 143.051 94.7869 143.307L95.8361 144.309C95.1949 144.869 94.5099 145.374 93.785 145.818C93.0603 146.263 92.2954 146.649 91.495 146.972C89.8305 147.644 88.0727 148.022 86.2594 148.098V146.68C86.2594 146.319 85.9527 146.026 85.5741 146.026C85.1956 146.026 84.8889 146.319 84.8889 146.68V148.098C84.1279 148.066 83.3766 147.981 82.6381 147.843C82.6324 147.842 82.6267 147.841 82.6213 147.84C81.6701 147.65 80.7401 147.373 79.8376 147.008C78.1878 146.342 76.692 145.411 75.3847 144.24L76.3616 143.307C76.6292 143.051 76.6292 142.637 76.3614 142.381C76.0938 142.125 75.6601 142.125 75.3924 142.381L74.4278 143.303C73.3235 142.12 72.4386 140.785 71.7909 139.323C71.075 137.706 70.6797 135.997 70.6133 134.236H71.8603C72.2389 134.236 72.5456 133.943 72.5456 133.582C72.5456 133.22 72.2389 132.927 71.8603 132.927H70.6246C70.7164 131.251 71.1078 129.624 71.7909 128.081C72.4615 126.567 73.3869 125.188 74.5469 123.975L75.3924 124.783C75.5264 124.91 75.7016 124.974 75.8769 124.974C76.0521 124.974 76.2276 124.91 76.3614 124.783C76.6291 124.527 76.6291 124.113 76.3616 123.857L75.5151 123.049C76.791 121.931 78.2424 121.04 79.8376 120.396C81.4465 119.746 83.142 119.372 84.8889 119.283V120.484C84.8889 120.845 85.1959 121.138 85.5742 121.138C85.9526 121.138 86.2595 120.845 86.2595 120.484V119.27C88.1113 119.331 89.9078 119.709 91.6074 120.396C93.1381 121.014 94.5362 121.86 95.7742 122.914L94.7869 123.857C94.5194 124.113 94.5194 124.527 94.7869 124.783C94.9207 124.91 95.0962 124.974 95.2714 124.974C95.4467 124.974 95.6221 124.91 95.7559 124.783L96.8052 123.78C97.9798 125.006 98.9161 126.398 99.5934 127.927C99.6861 128.137 99.7735 128.348 99.8555 128.56C100.396 129.96 100.703 131.424 100.772 132.927H99.288C98.9097 132.927 98.603 133.22 98.603 133.582C98.603 133.944 98.9097 134.237 99.288 134.237V134.236Z" fill="#3876BF"/>
<path d="M85.7139 149.386C94.7829 149.386 102.135 142.364 102.135 133.702C102.135 125.04 94.7829 118.018 85.7139 118.018C76.6448 118.018 69.293 125.04 69.293 133.702C69.293 142.364 76.6448 149.386 85.7139 149.386Z" stroke="#3876BF" stroke-width="2" stroke-miterlimit="10"/>
<defs>
<filter id="filter0_d_2236_363" x="31.3238" y="46.9" width="444.2" height="89.2" filterUnits="userSpaceOnUse" color-interpolation-filters="sRGB">
<feFlood flood-opacity="0" result="BackgroundImageFix"/>
<feColorMatrix in="SourceAlpha" type="matrix" values="0 0 0 0 0 0 0 0 0 0 0 0 0 0 0 0 0 0 127 0" result="hardAlpha"/>
<feOffset dx="1" dy="1"/>
<feGaussianBlur stdDeviation="6.55"/>
<feComposite in2="hardAlpha" operator="out"/>
<feColorMatrix type="matrix" values="0 0 0 0 0.176471 0 0 0 0 0.380392 0 0 0 0 0.788235 0 0 0 1 0"/>
<feBlend mode="normal" in2="BackgroundImageFix" result="effect1_dropShadow_2236_363"/>
<feBlend mode="normal" in="SourceGraphic" in2="effect1_dropShadow_2236_363" result="shape"/>
</filter>
</defs>
</svg>
