<svg width="47" height="61" viewBox="0 0 47 61" fill="none" xmlns="http://www.w3.org/2000/svg">
<path d="M24.2374 5.76256C23.554 5.07915 22.446 5.07915 21.7626 5.76256L10.6256 16.8995C9.94221 17.5829 9.94221 18.691 10.6256 19.3744C11.309 20.0578 12.4171 20.0578 13.1005 19.3744L23 9.47487L32.8995 19.3744C33.5829 20.0578 34.691 20.0578 35.3744 19.3744C36.0578 18.691 36.0578 17.5829 35.3744 16.8995L24.2374 5.76256ZM23 35L24.75 35L24.75 7L23 7L21.25 7L21.25 35L23 35Z" fill="#6A1A7D"/>
<path d="M44.9048 25.2383V55.2356C44.9048 56.7889 44.0816 58.0478 43.066 58.0478H3.83878C2.82325 58.0478 2 56.7889 2 55.2356V25.2383" stroke="#6A1A7D" stroke-width="4" stroke-linecap="round" stroke-linejoin="round"/>
<path d="M2 25L16 25" stroke="#6A1A7D" stroke-width="4" stroke-linejoin="round"/>
<path d="M31 25H45" stroke="#6A1A7D" stroke-width="4" stroke-linejoin="round"/>
</svg>
