<svg xmlns="http://www.w3.org/2000/svg" fill="none" viewBox="168.65651539338654 49.8128 236.10490307867732 225.59199999999998" style="max-height: 500px" width="236.10490307867732" height="225.59199999999998">
<path fill="#D14D72" d="M286.531 61.7756V161.647H186.713C186.709 161.471 186.709 161.293 186.709 161.116C186.709 106.249 231.164 61.7715 286 61.7715C286.178 61.7715 286.355 61.7715 286.531 61.7756Z"/>
<path fill="#D14D72" d="M385.291 161.115C385.291 161.293 385.291 161.471 385.287 161.647H286.531V61.7754C341.125 62.0595 385.291 106.426 385.291 161.115Z"/>
<path fill="#D14D72" d="M286.531 161.646V260.457C286.355 260.461 286.178 260.461 286 260.461C231.341 260.461 186.997 216.27 186.713 161.646H286.531Z"/>
<path fill="#D14D72" d="M385.287 161.646C385.005 216.092 340.947 260.175 286.531 260.457V161.646H385.287Z"/>
<path fill="#231F20" d="M286.001 250.145C328.937 250.145 363.744 215.319 363.744 172.359C363.744 129.399 328.937 94.5732 286.001 94.5732C243.065 94.5732 208.258 129.399 208.258 172.359C208.258 215.319 243.065 250.145 286.001 250.145Z" opacity="0.01"/>
<path fill="#231F20" d="M286 249.499C328.89 249.499 363.659 214.711 363.659 171.797C363.659 128.883 328.89 94.0947 286 94.0947C243.11 94.0947 208.341 128.883 208.341 171.797C208.341 214.711 243.11 249.499 286 249.499Z" opacity="0.03"/>
<path fill="#231F20" d="M286 248.853C328.844 248.853 363.576 214.102 363.576 171.235C363.576 128.367 328.844 93.6162 286 93.6162C243.157 93.6162 208.425 128.367 208.425 171.235C208.425 214.102 243.157 248.853 286 248.853Z" opacity="0.04"/>
<path fill="#231F20" d="M286 234.999C328.526 234.999 363 203.211 363 163.999C363 124.787 328.526 92.999 286 92.999C243.474 92.999 209 124.787 209 163.999C209 203.211 243.474 234.999 286 234.999Z" opacity="0.06"/>
<path fill="#231F20" d="M286.001 247.564C328.753 247.564 363.411 212.887 363.411 170.111C363.411 127.335 328.753 92.6582 286.001 92.6582C243.248 92.6582 208.591 127.335 208.591 170.111C208.591 212.887 243.248 247.564 286.001 247.564Z" opacity="0.07"/>
<path fill="#231F20" d="M286 237.999C328.526 237.999 363 207.554 363 169.999C363 132.444 328.526 101.999 286 101.999C243.474 101.999 209 132.444 209 169.999C209 207.554 243.474 237.999 286 237.999Z" opacity="0.09"/>
<path fill="#231F20" d="M286 246.272C328.66 246.272 363.243 211.67 363.243 168.986C363.243 126.303 328.66 91.7012 286 91.7012C243.34 91.7012 208.758 126.303 208.758 168.986C208.758 211.67 243.34 246.272 286 246.272Z" opacity="0.1"/>
<path fill="#231F20" d="M286.001 245.628C328.615 245.628 363.161 211.063 363.161 168.424C363.161 125.786 328.615 91.2207 286.001 91.2207C243.386 91.2207 208.84 125.786 208.84 168.424C208.84 211.063 243.386 245.628 286.001 245.628Z" opacity="0.11"/>
<path fill="#231F20" d="M286 235.999C328.526 235.999 363 203.54 363 163.499C363 123.458 328.526 90.999 286 90.999C243.474 90.999 209 123.458 209 163.499C209 203.54 243.474 235.999 286 235.999Z" opacity="0.13"/>
<path fill="#231F20" d="M286 244.337C328.522 244.337 362.993 209.846 362.993 167.301C362.993 124.755 328.522 90.2646 286 90.2646C243.478 90.2646 209.007 124.755 209.007 167.301C209.007 209.846 243.478 244.337 286 244.337Z" opacity="0.14"/>
<path fill="#231F20" d="M286 243.69C328.476 243.69 362.91 209.238 362.91 166.738C362.91 124.239 328.476 89.7861 286 89.7861C243.524 89.7861 209.091 124.239 209.091 166.738C209.091 209.238 243.524 243.69 286 243.69Z" opacity="0.16"/>
<path fill="#231F20" d="M286.001 243.046C328.431 243.046 362.828 208.63 362.828 166.176C362.828 123.722 328.431 89.3057 286.001 89.3057C243.57 89.3057 209.173 123.722 209.173 166.176C209.173 208.63 243.57 243.046 286.001 243.046Z" opacity="0.17"/>
<path fill="#231F20" d="M286.001 242.398C328.385 242.398 362.745 208.02 362.745 165.612C362.745 123.204 328.385 88.8252 286.001 88.8252C243.616 88.8252 209.257 123.204 209.257 165.612C209.257 208.02 243.616 242.398 286.001 242.398Z" opacity="0.19"/>
<path fill="#231F20" d="M286 241.753C328.338 241.753 362.66 207.412 362.66 165.05C362.66 122.689 328.338 88.3477 286 88.3477C243.662 88.3477 209.34 122.689 209.34 165.05C209.34 207.412 243.662 241.753 286 241.753Z" opacity="0.2"/>
<path fill="#231F20" d="M286 241.109C328.294 241.109 362.579 206.805 362.579 164.488C362.579 122.172 328.294 87.8672 286 87.8672C243.707 87.8672 209.422 122.172 209.422 164.488C209.422 206.805 243.707 241.109 286 241.109Z" opacity="0.21"/>
<path fill="#231F20" d="M286.001 240.463C328.248 240.463 362.495 206.196 362.495 163.926C362.495 121.656 328.248 87.3887 286.001 87.3887C243.754 87.3887 209.506 121.656 209.506 163.926C209.506 206.196 243.754 240.463 286.001 240.463Z" opacity="0.23"/>
<path fill="#231F20" d="M286.001 239.817C328.202 239.817 362.412 205.588 362.412 163.364C362.412 121.14 328.202 86.9102 286.001 86.9102C243.8 86.9102 209.59 121.14 209.59 163.364C209.59 205.588 243.8 239.817 286.001 239.817Z" opacity="0.24"/>
<path fill="#231F20" d="M286 239.171C328.155 239.171 362.327 204.979 362.327 162.801C362.327 120.623 328.155 86.4316 286 86.4316C243.846 86.4316 209.673 120.623 209.673 162.801C209.673 204.979 243.846 239.171 286 239.171Z" opacity="0.26"/>
<path fill="#231F20" d="M286 238.528C328.11 238.528 362.246 204.373 362.246 162.24C362.246 120.107 328.11 85.9521 286 85.9521C243.891 85.9521 209.755 120.107 209.755 162.24C209.755 204.373 243.891 238.528 286 238.528Z" opacity="0.27"/>
<path fill="#231F20" d="M286.001 237.882C328.064 237.882 362.162 203.764 362.162 161.678C362.162 119.591 328.064 85.4736 286.001 85.4736C243.938 85.4736 209.839 119.591 209.839 161.678C209.839 203.764 243.938 237.882 286.001 237.882Z" opacity="0.29"/>
<path fill="#231F20" d="M286.001 237.236C328.018 237.236 362.079 203.155 362.079 161.115C362.079 119.075 328.018 84.9951 286.001 84.9951C243.984 84.9951 209.923 119.075 209.923 161.115C209.923 203.155 243.984 237.236 286.001 237.236Z" opacity="0.3"/>
<path fill="#D14D72" d="M201.624 113.819C193.479 113.819 185.82 110.645 180.059 104.883C174.298 99.121 171.128 91.4581 171.128 83.3066C171.128 75.1552 174.3 67.4943 180.059 61.7303C185.82 55.9662 193.477 52.7939 201.624 52.7939C209.771 52.7939 217.427 55.9683 223.188 61.7303C228.947 67.4943 232.119 75.1552 232.119 83.3066C232.119 91.4581 228.947 99.1189 223.188 104.883C217.427 110.647 209.771 113.819 201.624 113.819Z"/>
<path stroke-miterlimit="10" stroke-width="1.94" stroke="white" fill="white" d="M190.827 89.3034H189.855C189.099 89.3034 188.486 88.6882 188.486 87.934V87.844H187.908C187.152 87.844 186.539 87.2288 186.539 86.4745V80.1443C186.539 79.388 187.154 78.7748 187.908 78.7748H188.486V78.6849C188.486 77.9286 189.101 77.3154 189.855 77.3154H190.827C191.046 77.3154 191.223 77.4933 191.223 77.712V88.911C191.223 89.1297 191.046 89.3075 190.827 89.3075V89.3034ZM187.906 79.5638C187.587 79.5638 187.328 79.8234 187.328 80.1423V86.4725C187.328 86.7914 187.587 87.051 187.906 87.051H188.878C189.097 87.051 189.274 87.2288 189.274 87.4475V87.934C189.274 88.2528 189.534 88.5124 189.853 88.5124H190.431V78.1044H189.853C189.534 78.1044 189.274 78.364 189.274 78.6829V79.1693C189.274 79.388 189.097 79.5659 188.878 79.5659H187.906V79.5638Z"/>
<path stroke-miterlimit="10" stroke-width="1.94" stroke="white" fill="white" d="M193.26 93.1997H191.313C190.827 93.1997 190.431 92.8032 190.431 92.3167V74.301C190.431 73.8145 190.827 73.418 191.313 73.418H193.26C193.746 73.418 194.143 73.8145 194.143 74.301V92.3167C194.143 92.8032 193.746 93.1997 193.26 93.1997ZM191.313 74.209C191.262 74.209 191.223 74.2499 191.223 74.2989V92.3147C191.223 92.3658 191.264 92.4046 191.313 92.4046H193.26C193.311 92.4046 193.35 92.3637 193.35 92.3147V74.2989C193.35 74.2499 193.309 74.209 193.26 74.209H191.313Z"/>
<path stroke-miterlimit="10" stroke-width="1.94" stroke="white" fill="white" d="M196.179 93.1997H194.232C193.746 93.1997 193.35 92.8032 193.35 92.3167V74.301C193.35 73.8145 193.746 73.418 194.232 73.418H196.179C196.665 73.418 197.061 73.8145 197.061 74.301V92.3167C197.061 92.8032 196.665 93.1997 196.179 93.1997ZM194.232 74.209C194.181 74.209 194.142 74.2499 194.142 74.2989V92.3147C194.142 92.3658 194.183 92.4046 194.232 92.4046H196.179C196.23 92.4046 196.269 92.3637 196.269 92.3147V74.2989C196.269 74.2499 196.228 74.209 196.179 74.209H194.232Z"/>
<path stroke-miterlimit="10" stroke-width="1.94" stroke="white" fill="white" d="M213.701 89.3036H212.728C212.51 89.3036 212.332 89.1258 212.332 88.9071V77.7081C212.332 77.4894 212.51 77.3115 212.728 77.3115H213.701C214.457 77.3115 215.069 77.9268 215.069 78.681V78.7709H215.648C216.403 78.7709 217.016 79.3862 217.016 80.1404V86.4706C217.016 87.2269 216.401 87.8401 215.648 87.8401H215.069V87.9301C215.069 88.6863 214.455 89.2995 213.701 89.2995V89.3036ZM213.123 88.5105H213.701C214.019 88.5105 214.279 88.251 214.279 87.9321V87.4456C214.279 87.2269 214.457 87.0491 214.675 87.0491H215.648C215.966 87.0491 216.226 86.7895 216.226 86.4706V80.1404C216.226 79.8215 215.966 79.562 215.648 79.562H214.675C214.457 79.562 214.279 79.3841 214.279 79.1654V78.679C214.279 78.3601 214.019 78.1005 213.701 78.1005H213.123V88.5085V88.5105Z"/>
<path stroke-miterlimit="10" stroke-width="1.94" stroke="white" fill="white" d="M212.24 93.1997H210.294C209.807 93.1997 209.411 92.8032 209.411 92.3167V74.301C209.411 73.8145 209.807 73.418 210.294 73.418H212.24C212.727 73.418 213.123 73.8145 213.123 74.301V92.3167C213.123 92.8032 212.727 93.1997 212.24 93.1997ZM210.294 74.209C210.243 74.209 210.204 74.2499 210.204 74.2989V92.3147C210.204 92.3658 210.245 92.4046 210.294 92.4046H212.24C212.292 92.4046 212.33 92.3637 212.33 92.3147V74.2989C212.33 74.2499 212.29 74.209 212.24 74.209H210.294Z"/>
<path stroke-miterlimit="10" stroke-width="1.94" stroke="white" fill="white" d="M209.321 93.1997H207.374C206.888 93.1997 206.491 92.8032 206.491 92.3167V74.301C206.491 73.8145 206.888 73.418 207.374 73.418H209.321C209.807 73.418 210.203 73.8145 210.203 74.301V92.3167C210.203 92.8032 209.807 93.1997 209.321 93.1997ZM207.374 74.209C207.323 74.209 207.284 74.2499 207.284 74.2989V92.3147C207.284 92.3658 207.325 92.4046 207.374 92.4046H209.321C209.372 92.4046 209.41 92.3637 209.41 92.3147V74.2989C209.41 74.2499 209.37 74.209 209.321 74.209H207.374Z"/>
<path stroke-miterlimit="10" stroke-width="1.94" stroke="white" fill="white" d="M206.886 85.4085H196.666C196.447 85.4085 196.27 85.2307 196.27 85.012V81.6026C196.27 81.3839 196.447 81.2061 196.666 81.2061H206.886C207.105 81.2061 207.283 81.3839 207.283 81.6026V85.012C207.283 85.2307 207.105 85.4085 206.886 85.4085ZM197.062 84.6154H206.49V81.9991H197.062V84.6154Z"/>
<path fill="#D14D72" d="M370.229 114.116C362.043 114.116 354.35 110.927 348.56 105.136C342.773 99.3457 339.586 91.646 339.586 83.4557C339.586 75.2655 342.773 67.5678 348.56 61.7751C354.348 55.9845 362.043 52.7959 370.229 52.7959C378.415 52.7959 386.108 55.9845 391.897 61.7751C397.685 67.5658 400.872 75.2655 400.872 83.4557C400.872 91.646 397.685 99.3437 391.897 105.136C386.11 110.927 378.415 114.116 370.229 114.116Z"/>
<path stroke-miterlimit="10" stroke-width="1.95" stroke="white" fill="white" d="M365.953 80.5148C367.142 80.5148 368.331 80.9686 369.236 81.8761C369.277 81.917 369.314 81.962 369.352 82.0049L367.963 83.3948C367.925 83.3519 367.896 83.3028 367.853 83.2599C367.344 82.751 366.67 82.4709 365.951 82.4709C365.232 82.4709 364.558 82.751 364.049 83.2599L358.172 89.1405C357.124 90.189 357.124 91.8958 358.172 92.9443C358.681 93.4533 359.355 93.7333 360.074 93.7333C360.793 93.7333 361.467 93.4533 361.976 92.9443L367.724 87.1926L369.107 88.5763L363.359 94.3281C362.452 95.2357 361.263 95.6894 360.076 95.6894C358.889 95.6894 357.698 95.2357 356.793 94.3281C354.979 92.5131 354.979 89.5718 356.793 87.7567L362.67 81.8761C363.577 80.9686 364.766 80.5148 365.953 80.5148ZM365.953 79.7197C364.501 79.7197 363.134 80.2859 362.106 81.314L356.229 87.1946C355.202 88.2227 354.636 89.5902 354.636 91.0434C354.636 92.4967 355.202 93.8641 356.229 94.8923C357.257 95.9204 358.623 96.4866 360.076 96.4866C361.528 96.4866 362.895 95.9204 363.923 94.8923L369.671 89.1405C369.82 88.9913 369.904 88.7889 369.904 88.5784C369.904 88.3678 369.82 88.1655 369.671 88.0163L368.288 86.6325C368.133 86.4772 367.929 86.3995 367.726 86.3995C367.522 86.3995 367.32 86.4772 367.165 86.6325L361.416 92.3843C361.058 92.742 360.583 92.9403 360.078 92.9403C359.573 92.9403 359.097 92.744 358.74 92.3863C358.382 92.0286 358.186 91.5544 358.186 91.0475C358.186 90.5406 358.382 90.0644 358.74 89.7087L364.617 83.8281C364.975 83.4704 365.451 83.2722 365.955 83.2722C366.46 83.2722 366.924 83.4643 367.279 83.8138L367.285 83.822C367.306 83.8486 367.332 83.8833 367.367 83.9242C367.512 84.0898 367.718 84.1879 367.939 84.194C367.947 84.194 367.955 84.194 367.965 84.194C368.176 84.194 368.378 84.1102 368.527 83.961L369.916 82.5711C370.219 82.2686 370.229 81.7801 369.937 81.4673C369.927 81.4571 369.916 81.4449 369.908 81.4346C369.88 81.4019 369.845 81.3631 369.802 81.3181C368.774 80.29 367.408 79.7238 365.955 79.7238L365.953 79.7197Z"/>
<path stroke-miterlimit="10" stroke-width="1.95" stroke="white" fill="white" d="M380.619 71.2229C381.808 71.2229 382.997 71.6767 383.902 72.5842C385.716 74.3993 385.716 77.3406 383.902 79.1557L378.024 85.0362C377.117 85.9438 375.928 86.3975 374.742 86.3975C373.555 86.3975 372.364 85.9438 371.459 85.0362C371.35 84.9279 371.25 84.8155 371.154 84.701L372.666 83.4399C372.723 83.5114 372.774 83.587 372.84 83.6524C373.348 84.1614 374.022 84.4414 374.742 84.4414C375.461 84.4414 376.135 84.1614 376.643 83.6524L382.521 77.7719C383.569 76.7233 383.569 75.0166 382.521 73.968C382.012 73.4591 381.338 73.179 380.619 73.179C379.9 73.179 379.226 73.4591 378.717 73.968L373.945 78.7428L372.562 77.359L377.334 72.5842C378.241 71.6767 379.43 71.2229 380.617 71.2229H380.619ZM380.619 70.4258C379.166 70.4258 377.8 70.992 376.772 72.0201L372 76.7949C371.69 77.1055 371.69 77.6104 372 77.9211L373.383 79.3049C373.538 79.4602 373.743 79.5379 373.945 79.5379C374.147 79.5379 374.351 79.4602 374.507 79.3049L379.279 74.5301C379.636 74.1724 380.112 73.9742 380.617 73.9742C381.121 73.9742 381.597 74.1704 381.955 74.5281C382.312 74.8858 382.509 75.36 382.509 75.8669C382.509 76.3738 382.312 76.85 381.955 77.2057L376.078 83.0863C375.72 83.444 375.244 83.6422 374.74 83.6422C374.235 83.6422 373.759 83.446 373.401 83.0883C373.393 83.0801 373.369 83.0495 373.352 83.027C373.33 82.9963 373.305 82.9657 373.281 82.937C373.146 82.7715 372.952 82.6672 372.74 82.6468C372.713 82.6448 372.688 82.6427 372.662 82.6427C372.476 82.6427 372.296 82.7081 372.153 82.8267L370.642 84.0878C370.304 84.3678 370.26 84.8666 370.537 85.2059C370.656 85.3489 370.772 85.4777 370.893 85.5983C371.92 86.6264 373.287 87.1926 374.74 87.1926C376.192 87.1926 377.559 86.6264 378.586 85.5983L384.464 79.7178C385.491 78.6896 386.057 77.3222 386.057 75.8689C386.057 74.4157 385.491 73.0482 384.464 72.0201C383.436 70.992 382.069 70.4258 380.617 70.4258H380.619Z"/>
<path fill="white" d="M370.348 73.4284C369.943 73.4284 369.614 73.0993 369.614 72.6946V69.2709C369.614 68.8662 369.943 68.5371 370.348 68.5371C370.752 68.5371 371.081 68.8662 371.081 69.2709V72.6946C371.081 73.0993 370.752 73.4284 370.348 73.4284Z"/>
<path fill="white" d="M370.348 73.6267C369.833 73.6267 369.416 73.2077 369.416 72.6946V69.2709C369.416 68.7558 369.835 68.3389 370.348 68.3389C370.86 68.3389 371.279 68.7579 371.279 69.2709V72.6946C371.279 73.2097 370.86 73.6267 370.348 73.6267ZM370.348 68.7354C370.053 68.7354 369.812 68.9745 369.812 69.2709V72.6946C369.812 72.9889 370.051 73.2301 370.348 73.2301C370.644 73.2301 370.883 72.991 370.883 72.6946V69.2709C370.883 68.9766 370.644 68.7354 370.348 68.7354Z"/>
<path fill="white" d="M365.336 74.7718C364.985 74.9742 364.538 74.8536 364.335 74.5041L362.624 71.5382C362.421 71.1867 362.542 70.739 362.891 70.5367C363.243 70.3343 363.69 70.4549 363.892 70.8044L365.604 73.7703C365.806 74.1218 365.686 74.5695 365.336 74.7718Z"/>
<path fill="white" d="M364.973 75.0681C364.65 75.0681 364.336 74.9005 364.164 74.6021L362.452 71.6362C362.195 71.1906 362.348 70.6183 362.793 70.3628C363.01 70.2381 363.261 70.2054 363.5 70.2688C363.741 70.3342 363.941 70.4875 364.066 70.7042L365.778 73.67C366.035 74.1156 365.882 74.6879 365.437 74.9434C365.29 75.0272 365.13 75.0681 364.973 75.0681ZM363.259 70.6367C363.167 70.6367 363.075 70.6612 362.993 70.7083C362.738 70.8554 362.65 71.1825 362.797 71.438L364.509 74.4038C364.656 74.6593 364.983 74.7472 365.239 74.6C365.494 74.4528 365.582 74.1258 365.435 73.8703L363.723 70.9045C363.651 70.7798 363.537 70.6919 363.398 70.6551C363.351 70.6429 363.306 70.6367 363.259 70.6367Z"/>
<path fill="white" d="M361.669 78.442C361.467 78.7935 361.018 78.9141 360.668 78.7097L357.704 76.9969C357.353 76.7945 357.232 76.3448 357.436 75.9953C357.639 75.6438 358.088 75.5252 358.437 75.7276L361.402 77.4404C361.753 77.6428 361.874 78.0925 361.669 78.442Z"/>
<path fill="white" d="M361.032 79.006C360.874 79.006 360.713 78.9651 360.568 78.8813L357.604 77.1685C357.158 76.9109 357.005 76.3407 357.263 75.8951C357.52 75.4495 358.09 75.2962 358.535 75.5537L361.5 77.2666C361.945 77.5241 362.098 78.0944 361.841 78.54C361.669 78.8384 361.354 79.006 361.032 79.006ZM358.072 75.8276C357.886 75.8276 357.706 75.9237 357.608 76.0954C357.536 76.2201 357.518 76.3631 357.555 76.5001C357.592 76.637 357.679 76.7535 357.804 76.8251L360.768 78.5379C361.024 78.6851 361.35 78.5972 361.497 78.3417C361.645 78.0862 361.557 77.7592 361.301 77.612L358.337 75.8991C358.253 75.8501 358.162 75.8276 358.072 75.8276Z"/>
<path fill="white" d="M370.348 93.4824C370.752 93.4824 371.081 93.8115 371.081 94.2162V97.6399C371.081 98.0446 370.752 98.3737 370.348 98.3737C369.943 98.3737 369.614 98.0446 369.614 97.6399V94.2162C369.614 93.8115 369.943 93.4824 370.348 93.4824Z"/>
<path fill="white" d="M370.348 98.572C369.833 98.572 369.416 98.153 369.416 97.6399V94.2162C369.416 93.7012 369.835 93.2842 370.348 93.2842C370.86 93.2842 371.279 93.7032 371.279 94.2162V97.6399C371.279 98.155 370.86 98.572 370.348 98.572ZM370.348 93.6807C370.053 93.6807 369.812 93.9199 369.812 94.2162V97.6399C369.812 97.9343 370.051 98.1754 370.348 98.1754C370.644 98.1754 370.883 97.9363 370.883 97.6399V94.2162C370.883 93.9219 370.644 93.6807 370.348 93.6807Z"/>
<path fill="white" d="M375.358 92.1392C375.709 91.9369 376.157 92.0575 376.359 92.407L378.071 95.3728C378.273 95.7244 378.153 96.172 377.803 96.3744C377.452 96.5767 377.004 96.4561 376.802 96.1066L375.09 93.1408C374.888 92.7892 375.009 92.3416 375.358 92.1392Z"/>
<path fill="white" d="M377.438 96.673C377.115 96.673 376.8 96.5054 376.629 96.207L374.917 93.2412C374.66 92.7956 374.813 92.2233 375.258 91.9678C375.703 91.7102 376.275 91.8635 376.531 92.3091L378.243 95.275C378.5 95.7205 378.347 96.2929 377.902 96.5484C377.754 96.6322 377.595 96.673 377.438 96.673ZM375.724 92.2396C375.634 92.2396 375.542 92.2621 375.458 92.3112C375.203 92.4583 375.115 92.7854 375.262 93.0409L376.974 96.0067C377.121 96.2622 377.448 96.3501 377.703 96.2029C377.826 96.1314 377.916 96.0169 377.953 95.8779C377.989 95.7389 377.971 95.5959 377.899 95.4732L376.188 92.5074C376.09 92.3357 375.908 92.2396 375.724 92.2396Z"/>
<path fill="white" d="M379.025 88.4679C379.228 88.1163 379.677 87.9957 380.026 88.2001L382.991 89.913C383.342 90.1154 383.462 90.565 383.258 90.9146C383.056 91.2661 382.606 91.3867 382.257 91.1823L379.293 89.4695C378.942 89.2671 378.823 88.8174 379.025 88.4679Z"/>
<path fill="white" d="M382.623 91.4806C382.461 91.4806 382.302 91.4377 382.159 91.3559L379.195 89.6431C378.749 89.3855 378.596 88.8153 378.853 88.3697C379.111 87.9241 379.681 87.7708 380.126 88.0283L383.09 89.7412C383.307 89.8659 383.46 90.0662 383.525 90.3074C383.591 90.5486 383.556 90.8 383.431 91.0146C383.307 91.2313 383.107 91.3846 382.866 91.45C382.786 91.4724 382.704 91.4827 382.623 91.4827V91.4806ZM379.662 88.3002C379.615 88.3002 379.568 88.3063 379.524 88.3186C379.387 88.3554 379.27 88.4433 379.199 88.5679C379.052 88.8234 379.139 89.1505 379.395 89.2976L382.359 91.0105C382.614 91.1577 382.941 91.0698 383.088 90.8143C383.235 90.5588 383.148 90.2317 382.892 90.0846L379.928 88.3717C379.846 88.3247 379.754 88.3002 379.662 88.3002Z"/>
<path fill="#D14D72" d="M201.777 270.726C193.591 270.726 185.895 267.537 180.108 261.747C174.321 255.956 171.134 248.256 171.134 240.066C171.134 231.876 174.321 224.178 180.108 218.386C185.895 212.595 193.591 209.406 201.777 209.406C209.962 209.406 217.656 212.595 223.445 218.386C229.233 224.176 232.42 231.876 232.42 240.066C232.42 248.256 229.233 255.954 223.445 261.747C217.658 267.537 209.962 270.726 201.777 270.726Z"/>
<path fill="white" d="M201.199 240.7C201.072 240.7 200.946 240.638 200.87 240.524C200.747 240.342 200.794 240.095 200.976 239.972L215.638 230.034C215.82 229.911 216.067 229.958 216.189 230.14C216.312 230.322 216.265 230.57 216.083 230.692L201.422 240.63C201.354 240.677 201.276 240.698 201.199 240.698V240.7Z"/>
<path fill="white" d="M201.199 240.9C201.001 240.9 200.815 240.802 200.705 240.639C200.615 240.506 200.582 240.348 200.613 240.191C200.643 240.033 200.731 239.899 200.864 239.809L215.526 229.871C215.658 229.781 215.816 229.748 215.973 229.779C216.13 229.809 216.265 229.897 216.355 230.03C216.445 230.161 216.478 230.32 216.447 230.478C216.416 230.635 216.328 230.77 216.196 230.86L201.534 240.798C201.434 240.865 201.32 240.9 201.199 240.9ZM215.859 230.167C215.82 230.167 215.781 230.179 215.748 230.202L201.087 240.14C201.042 240.17 201.013 240.215 201.003 240.266C200.993 240.318 201.003 240.371 201.034 240.416C201.093 240.504 201.222 240.528 201.309 240.469L215.971 230.531C216.016 230.5 216.045 230.455 216.055 230.404C216.065 230.353 216.055 230.3 216.024 230.255C215.993 230.21 215.948 230.181 215.897 230.171C215.885 230.169 215.873 230.167 215.859 230.167Z"/>
<path stroke-miterlimit="10" stroke-width="1.95" stroke="white" fill="white" d="M208.766 235.495C208.684 235.495 208.601 235.469 208.531 235.418C208.396 235.32 208.337 235.148 208.384 234.987L209.33 231.673C209.354 231.585 209.41 231.51 209.485 231.457L214.214 228.145C214.335 228.062 214.492 228.049 214.623 228.117C214.754 228.184 214.837 228.317 214.842 228.462L214.901 231.277C214.903 231.414 214.837 231.54 214.723 231.616L208.989 235.426C208.921 235.471 208.846 235.493 208.768 235.493L208.766 235.495ZM210.055 232.031L209.444 234.169L214.098 231.076L214.059 229.227L210.055 232.031Z"/>
<path stroke-miterlimit="10" stroke-width="1.95" stroke="white" fill="white" d="M212.075 235.968C212.056 235.968 212.038 235.968 212.018 235.964L208.706 235.491C208.543 235.469 208.412 235.346 208.375 235.185C208.338 235.023 208.406 234.858 208.543 234.766L214.218 230.98C214.312 230.917 214.43 230.896 214.54 230.927L217.413 231.692C217.564 231.732 217.678 231.857 217.703 232.01C217.727 232.166 217.662 232.319 217.531 232.407L212.293 235.9C212.228 235.943 212.15 235.968 212.073 235.968H212.075ZM209.852 234.852L211.981 235.156L216.359 232.235L214.51 231.743L209.85 234.852H209.852Z"/>
<path fill="white" d="M201.434 246.378C197.955 246.378 195.126 243.547 195.126 240.066C195.126 236.585 197.955 233.754 201.434 233.754C202.568 233.754 203.679 234.058 204.648 234.633C204.838 234.745 204.899 234.988 204.787 235.179C204.674 235.367 204.431 235.43 204.241 235.318C203.393 234.815 202.423 234.549 201.432 234.549C198.393 234.549 195.919 237.024 195.919 240.066C195.919 243.107 198.393 245.582 201.432 245.582C204.472 245.582 206.946 243.107 206.946 240.066C206.946 239.79 206.926 239.514 206.885 239.244C206.852 239.027 207.001 238.825 207.22 238.792C207.438 238.76 207.638 238.911 207.671 239.128C207.718 239.436 207.741 239.753 207.741 240.068C207.741 243.549 204.911 246.38 201.432 246.38L201.434 246.378Z"/>
<path fill="white" d="M201.434 246.578C197.845 246.578 194.926 243.657 194.926 240.066C194.926 236.475 197.845 233.554 201.434 233.554C202.603 233.554 203.749 233.868 204.75 234.461C205.032 234.629 205.126 234.997 204.958 235.279C204.877 235.416 204.748 235.514 204.593 235.553C204.437 235.592 204.278 235.569 204.141 235.487C203.326 235.003 202.388 234.747 201.434 234.747C198.503 234.747 196.119 237.133 196.119 240.066C196.119 242.999 198.503 245.384 201.434 245.384C204.366 245.384 206.75 242.999 206.75 240.066C206.75 239.8 206.729 239.534 206.691 239.273C206.642 238.948 206.866 238.643 207.193 238.594C207.35 238.572 207.508 238.611 207.636 238.705C207.765 238.799 207.849 238.938 207.871 239.097C207.918 239.416 207.943 239.741 207.943 240.066C207.943 243.657 205.024 246.578 201.434 246.578ZM201.434 233.952C198.066 233.952 195.324 236.695 195.324 240.066C195.324 243.436 198.066 246.179 201.434 246.179C204.803 246.179 207.545 243.436 207.545 240.066C207.545 239.761 207.522 239.455 207.477 239.154C207.469 239.101 207.442 239.056 207.399 239.023C207.357 238.993 207.306 238.978 207.252 238.987C207.144 239.003 207.069 239.105 207.085 239.214C207.126 239.494 207.148 239.78 207.148 240.066C207.148 243.218 204.586 245.781 201.436 245.781C198.286 245.781 195.725 243.218 195.725 240.066C195.725 236.914 198.286 234.351 201.436 234.351C202.462 234.351 203.469 234.627 204.345 235.146C204.39 235.173 204.443 235.181 204.497 235.168C204.548 235.156 204.591 235.123 204.619 235.076C204.674 234.982 204.644 234.86 204.55 234.805C203.61 234.249 202.535 233.952 201.436 233.952H201.434Z"/>
<path fill="white" d="M201.434 250.163C195.869 250.163 191.34 245.634 191.34 240.066C191.34 234.498 195.867 229.967 201.434 229.967C203.246 229.967 205.023 230.453 206.575 231.373C206.765 231.485 206.827 231.729 206.714 231.919C206.602 232.107 206.359 232.17 206.169 232.058C204.741 231.21 203.103 230.762 201.434 230.762C196.306 230.762 192.137 234.936 192.137 240.064C192.137 245.192 196.308 249.366 201.434 249.366C206.559 249.366 210.731 245.192 210.731 240.064C210.731 239.6 210.696 239.132 210.629 238.678C210.596 238.462 210.745 238.259 210.964 238.227C211.182 238.194 211.382 238.345 211.415 238.562C211.489 239.056 211.525 239.561 211.525 240.066C211.525 245.634 206.998 250.163 201.434 250.163Z"/>
<path fill="white" d="M201.434 250.364C195.758 250.364 191.142 245.744 191.142 240.066C191.142 234.388 195.758 229.769 201.434 229.769C203.282 229.769 205.094 230.265 206.675 231.203C206.812 231.285 206.91 231.414 206.949 231.569C206.988 231.725 206.966 231.884 206.884 232.021C206.802 232.158 206.673 232.256 206.518 232.295C206.365 232.334 206.204 232.311 206.067 232.23C204.669 231.4 203.068 230.962 201.434 230.962C196.416 230.962 192.335 235.046 192.335 240.066C192.335 245.086 196.416 249.17 201.434 249.17C206.451 249.17 210.532 245.086 210.532 240.066C210.532 239.612 210.5 239.155 210.432 238.709C210.408 238.552 210.449 238.394 210.543 238.265C210.637 238.137 210.778 238.053 210.935 238.03C211.26 237.983 211.564 238.208 211.613 238.533C211.689 239.036 211.727 239.553 211.727 240.066C211.727 245.744 207.111 250.364 201.436 250.364H201.434ZM201.434 230.167C195.977 230.167 191.54 234.609 191.54 240.066C191.54 245.524 195.979 249.965 201.434 249.965C206.888 249.965 211.327 245.524 211.327 240.066C211.327 239.572 211.29 239.075 211.219 238.592C211.202 238.484 211.102 238.406 210.992 238.425C210.939 238.433 210.894 238.46 210.861 238.503C210.831 238.545 210.816 238.599 210.825 238.65C210.894 239.116 210.929 239.592 210.929 240.066C210.929 245.305 206.669 249.567 201.434 249.567C196.198 249.567 191.938 245.305 191.938 240.066C191.938 234.827 196.198 230.566 201.434 230.566C203.139 230.566 204.812 231.024 206.271 231.888C206.316 231.915 206.369 231.923 206.422 231.911C206.473 231.898 206.516 231.866 206.545 231.819C206.571 231.774 206.579 231.719 206.567 231.667C206.555 231.616 206.522 231.573 206.475 231.547C204.955 230.645 203.213 230.167 201.436 230.167H201.434Z"/>
<path fill="white" d="M201.434 254.423C193.522 254.423 187.085 247.982 187.085 240.066C187.085 232.15 193.522 225.709 201.434 225.709C204.298 225.709 207.062 226.551 209.428 228.141C209.61 228.264 209.659 228.511 209.536 228.693C209.413 228.875 209.166 228.924 208.984 228.802C206.75 227.299 204.139 226.504 201.434 226.504C193.961 226.504 187.88 232.587 187.88 240.066C187.88 247.545 193.959 253.628 201.434 253.628C208.909 253.628 214.988 247.545 214.988 240.066C214.988 238.932 214.847 237.803 214.572 236.714C214.518 236.501 214.647 236.285 214.86 236.229C215.074 236.176 215.289 236.305 215.344 236.518C215.638 237.67 215.785 238.864 215.785 240.066C215.785 247.982 209.348 254.423 201.436 254.423H201.434Z"/>
<path fill="white" d="M201.434 254.621C193.412 254.621 186.887 248.091 186.887 240.066C186.887 232.041 193.414 225.511 201.434 225.511C204.337 225.511 207.14 226.363 209.54 227.978C209.673 228.066 209.763 228.203 209.793 228.358C209.824 228.515 209.793 228.673 209.703 228.806C209.616 228.939 209.479 229.028 209.323 229.059C209.168 229.09 209.009 229.059 208.876 228.969C206.674 227.487 204.102 226.704 201.436 226.704C194.071 226.704 188.082 232.699 188.082 240.066C188.082 247.433 194.073 253.428 201.436 253.428C208.798 253.428 214.79 247.433 214.79 240.066C214.79 238.948 214.651 237.836 214.379 236.763C214.298 236.444 214.492 236.119 214.811 236.037C215.129 235.958 215.454 236.15 215.536 236.469C215.834 237.638 215.983 238.848 215.983 240.066C215.983 248.093 209.456 254.621 201.436 254.621H201.434ZM201.434 225.907C193.632 225.907 187.283 232.258 187.283 240.066C187.283 247.874 193.63 254.225 201.434 254.225C209.238 254.225 215.585 247.874 215.585 240.066C215.585 238.88 215.438 237.703 215.15 236.567C215.123 236.46 215.015 236.397 214.909 236.424C214.802 236.45 214.739 236.558 214.766 236.665C215.048 237.771 215.188 238.915 215.188 240.066C215.188 247.653 209.019 253.826 201.436 253.826C193.853 253.826 187.683 247.653 187.683 240.066C187.683 232.479 193.853 226.306 201.436 226.306C204.179 226.306 206.829 227.111 209.099 228.638C209.144 228.667 209.195 228.679 209.248 228.669C209.299 228.658 209.346 228.628 209.374 228.585C209.405 228.54 209.415 228.487 209.405 228.436C209.395 228.383 209.364 228.338 209.321 228.309C206.986 226.739 204.261 225.909 201.438 225.909L201.434 225.907Z"/>
<path fill="#D14D72" d="M370.229 270.726C362.043 270.726 354.35 267.537 348.56 261.747C342.773 255.956 339.586 248.256 339.586 240.066C339.586 231.876 342.773 224.178 348.56 218.386C354.348 212.595 362.043 209.406 370.229 209.406C378.415 209.406 386.108 212.595 391.897 218.386C397.685 224.176 400.872 231.876 400.872 240.066C400.872 248.256 397.685 255.954 391.897 261.747C386.11 267.537 378.415 270.726 370.229 270.726Z"/>
<path stroke-miterlimit="10" stroke-width="1.95" stroke="white" fill="white" d="M370.278 255.386C369.896 255.386 369.512 255.241 369.219 254.949L355.402 241.123C354.819 240.541 354.819 239.59 355.402 239.008L369.219 225.182C369.802 224.599 370.752 224.599 371.334 225.182L385.152 239.008C385.734 239.59 385.734 240.541 385.152 241.123L371.334 254.949C371.042 255.241 370.66 255.386 370.276 255.386H370.278ZM369.783 254.387C370.057 254.66 370.5 254.66 370.774 254.387L384.592 240.561C384.866 240.287 384.866 239.844 384.592 239.57L370.774 225.744C370.5 225.47 370.057 225.47 369.783 225.744L355.965 239.57C355.692 239.844 355.692 240.287 355.965 240.561L369.783 254.387Z"/>
<path fill="white" d="M364.609 245.682C364.506 245.682 364.404 245.643 364.327 245.565L359.463 240.699C359.293 240.529 359.201 240.306 359.201 240.067C359.201 239.828 359.293 239.605 359.463 239.435L364.525 234.37C364.68 234.215 364.931 234.215 365.087 234.37C365.242 234.526 365.242 234.777 365.087 234.933L360.024 239.998C359.988 240.036 359.988 240.098 360.024 240.134L364.889 245.001C365.044 245.157 365.044 245.408 364.889 245.563C364.811 245.641 364.709 245.68 364.607 245.68L364.609 245.682Z"/>
<path fill="white" d="M364.609 245.882C364.449 245.882 364.3 245.821 364.186 245.706L359.322 240.839C359.115 240.633 359.003 240.359 359.003 240.067C359.003 239.775 359.117 239.501 359.322 239.294L364.384 234.229C364.609 234.004 365.003 234.004 365.228 234.229C365.452 234.454 365.46 234.84 365.228 235.073L360.237 240.067L365.029 244.862C365.142 244.974 365.205 245.126 365.205 245.285C365.205 245.445 365.144 245.594 365.029 245.706C364.917 245.819 364.768 245.882 364.609 245.882ZM364.805 234.452C364.752 234.452 364.702 234.472 364.664 234.509L359.601 239.574C359.471 239.705 359.399 239.879 359.399 240.065C359.399 240.251 359.471 240.425 359.601 240.555L364.466 245.422C364.541 245.498 364.672 245.498 364.747 245.422C364.786 245.385 364.807 245.334 364.807 245.281C364.807 245.228 364.786 245.179 364.747 245.14L359.883 240.273C359.828 240.218 359.798 240.142 359.798 240.063C359.798 239.983 359.828 239.909 359.885 239.854L364.948 234.789C365.025 234.712 365.025 234.585 364.948 234.507C364.911 234.47 364.86 234.448 364.807 234.448L364.805 234.452Z"/>
<path fill="white" d="M375.949 245.681C375.847 245.681 375.745 245.642 375.667 245.564C375.512 245.409 375.512 245.158 375.667 245.002L380.531 240.136C380.553 240.113 380.56 240.084 380.56 240.066C380.56 240.048 380.555 240.021 380.531 239.997L374.985 234.447C374.829 234.292 374.829 234.04 374.985 233.885C375.14 233.73 375.391 233.73 375.546 233.885L381.093 239.434C381.44 239.782 381.44 240.35 381.093 240.698L376.229 245.564C376.151 245.642 376.049 245.681 375.947 245.681H375.949Z"/>
<path fill="white" d="M375.949 245.881C375.789 245.881 375.64 245.82 375.526 245.705C375.413 245.593 375.352 245.444 375.352 245.284C375.352 245.125 375.413 244.976 375.528 244.861L380.32 240.066L374.846 234.588C374.613 234.355 374.613 233.977 374.846 233.744C375.07 233.519 375.465 233.519 375.689 233.744L381.236 239.293C381.661 239.718 381.661 240.411 381.236 240.839L376.372 245.705C376.259 245.818 376.11 245.881 375.951 245.881H375.949ZM375.266 233.967C375.213 233.967 375.164 233.987 375.125 234.026C375.089 234.063 375.066 234.114 375.066 234.167C375.066 234.22 375.087 234.269 375.125 234.308L380.672 239.857C380.727 239.913 380.758 239.988 380.758 240.066C380.758 240.144 380.727 240.219 380.672 240.274L375.806 245.143C375.769 245.18 375.746 245.231 375.746 245.284C375.746 245.337 375.767 245.386 375.804 245.425C375.879 245.501 376.01 245.501 376.086 245.425L380.952 240.559C381.221 240.289 381.221 239.847 380.952 239.577L375.405 234.028C375.369 233.991 375.317 233.969 375.264 233.969L375.266 233.967Z"/>
<path stroke-miterlimit="10" stroke-width="1.95" stroke="white" fill="white" d="M371.65 243.484H368.907C368.703 243.484 368.531 243.328 368.511 243.126L367.655 234.558C367.581 233.83 367.822 233.1 368.312 232.559C368.803 232.017 369.503 231.704 370.235 231.704H370.323C371.054 231.704 371.755 232.015 372.245 232.559C372.735 233.1 372.976 233.83 372.903 234.558L372.047 243.126C372.026 243.328 371.855 243.484 371.65 243.484ZM369.266 242.689H371.291L372.112 234.478C372.163 233.973 371.996 233.468 371.657 233.092C371.315 232.716 370.831 232.499 370.323 232.499H370.235C369.728 232.499 369.242 232.716 368.901 233.092C368.562 233.468 368.394 233.973 368.445 234.478L369.266 242.689Z"/>
<path stroke-miterlimit="10" stroke-width="1.95" stroke="white" fill="white" d="M370.552 248.428H370.002C369.177 248.428 368.507 247.758 368.507 246.932V246.382C368.507 245.556 369.177 244.886 370.002 244.886H370.552C371.377 244.886 372.047 245.556 372.047 246.382V246.932C372.047 247.758 371.377 248.428 370.552 248.428ZM370.004 245.681C369.618 245.681 369.304 245.996 369.304 246.382V246.932C369.304 247.318 369.618 247.633 370.004 247.633H370.554C370.94 247.633 371.254 247.318 371.254 246.932V246.382C371.254 245.996 370.94 245.681 370.554 245.681H370.004Z"/>
<path fill="url(#paint0_linear_246_5716)" d="M285.5 241C331.063 241 368 205.407 368 161.5C368 117.593 331.063 82 285.5 82C239.937 82 203 117.593 203 161.5C203 205.407 239.937 241 285.5 241Z"/>
<path fill="#6A1A7D" d="M269.875 149.008H271.315V153.568H269.995C268.928 153.568 267.981 153.422 267.155 153.128C266.701 155.955 265.528 158.155 263.635 159.728C261.768 161.328 259.448 162.128 256.675 162.128C254.621 162.128 252.795 161.675 251.195 160.768C249.621 159.888 248.395 158.662 247.515 157.088C246.635 155.515 246.195 153.702 246.195 151.648C246.195 149.728 246.675 148.075 247.635 146.688C248.595 145.302 249.808 144.368 251.275 143.888C251.408 143.862 251.515 143.848 251.595 143.848C251.701 143.822 251.795 143.808 251.875 143.808C252.328 143.808 252.555 143.982 252.555 144.328C252.555 144.515 252.475 144.688 252.315 144.848C251.861 145.568 251.461 146.435 251.115 147.448C250.768 148.462 250.581 149.555 250.555 150.728C250.528 152.995 251.088 154.742 252.235 155.968C253.408 157.195 254.888 157.808 256.675 157.808C258.515 157.808 259.995 157.195 261.115 155.968C262.235 154.742 262.795 152.982 262.795 150.688V135.088C262.795 133.782 263.101 132.835 263.715 132.248C264.328 131.635 265.235 131.328 266.435 131.328H266.835C267.181 131.328 267.355 131.502 267.355 131.848V146.088C267.381 147.235 267.661 148.008 268.195 148.408C268.755 148.808 269.315 149.008 269.875 149.008ZM281.882 149.008H283.322V153.568H281.962C280.869 153.568 279.909 153.422 279.082 153.128C278.255 152.808 277.575 152.422 277.042 151.968C275.815 153.035 274.175 153.568 272.122 153.568H270.842V149.008H272.242C273.095 149.008 273.722 148.742 274.122 148.208C274.549 147.648 274.762 146.915 274.762 146.008V142.448C274.762 141.142 275.069 140.195 275.682 139.608C276.295 138.995 277.202 138.688 278.402 138.688H278.842C279.162 138.688 279.322 138.848 279.322 139.168V146.088C279.349 147.235 279.629 148.008 280.162 148.408C280.722 148.808 281.295 149.008 281.882 149.008ZM272.242 156.128C272.855 156.128 273.375 156.342 273.802 156.768C274.255 157.222 274.482 157.782 274.482 158.448C274.482 159.062 274.255 159.582 273.802 160.008C273.375 160.462 272.855 160.688 272.242 160.688C271.629 160.688 271.109 160.462 270.682 160.008C270.229 159.582 270.002 159.062 270.002 158.448C270.002 157.782 270.229 157.222 270.682 156.768C271.109 156.342 271.629 156.128 272.242 156.128ZM277.402 156.128C278.015 156.128 278.535 156.342 278.962 156.768C279.415 157.222 279.642 157.782 279.642 158.448C279.642 159.062 279.415 159.582 278.962 160.008C278.535 160.462 278.015 160.688 277.402 160.688C276.789 160.688 276.255 160.462 275.802 160.008C275.375 159.582 275.162 159.062 275.162 158.448C275.162 157.782 275.375 157.222 275.802 156.768C276.255 156.342 276.789 156.128 277.402 156.128ZM293.953 149.008H295.393V153.568H294.033C292.94 153.568 291.98 153.422 291.153 153.128C290.326 152.808 289.633 152.422 289.073 151.968C287.846 153.035 286.22 153.568 284.193 153.568H282.913V149.008H284.273C285.126 149.008 285.766 148.742 286.193 148.208C286.62 147.648 286.833 146.915 286.833 146.008V135.088C286.833 133.782 287.14 132.835 287.753 132.248C288.366 131.635 289.273 131.328 290.473 131.328H290.873C291.22 131.328 291.393 131.502 291.393 131.848V146.088C291.42 147.235 291.7 148.008 292.233 148.408C292.793 148.808 293.366 149.008 293.953 149.008ZM316.464 149.008H317.264V153.568H315.864C314.904 153.568 314.078 153.422 313.384 153.128C312.691 152.808 312.184 152.475 311.864 152.128C311.224 152.582 310.504 152.942 309.704 153.208C308.931 153.448 307.798 153.568 306.304 153.568L294.944 153.608V149.008H306.904C307.891 149.008 308.691 148.808 309.304 148.408C309.118 148.035 308.931 147.622 308.744 147.168C308.584 146.715 308.358 146.155 308.064 145.488C307.691 144.502 307.184 143.728 306.544 143.168C305.904 142.582 305.051 142.288 303.984 142.288C303.424 142.288 302.891 142.355 302.384 142.488C301.878 142.622 301.398 142.808 300.944 143.048C300.678 143.182 300.398 143.342 300.104 143.528C299.811 143.715 299.531 143.928 299.264 144.168C298.998 144.435 298.744 144.568 298.504 144.568C298.211 144.542 298.038 144.355 297.984 144.008C297.958 143.875 297.944 143.742 297.944 143.608C297.971 143.475 297.998 143.328 298.024 143.168C298.264 141.648 298.998 140.408 300.224 139.448C301.398 138.435 302.878 137.928 304.664 137.928C306.718 137.928 308.398 138.528 309.704 139.728C311.038 140.902 312.118 142.595 312.944 144.808C313.291 145.795 313.584 146.608 313.824 147.248C314.091 147.888 314.451 148.355 314.904 148.648C315.304 148.888 315.824 149.008 316.464 149.008ZM320.339 136.328C319.726 136.328 319.193 136.115 318.739 135.688C318.313 135.235 318.099 134.688 318.099 134.048C318.099 133.408 318.313 132.875 318.739 132.448C319.193 131.995 319.726 131.768 320.339 131.768C320.953 131.768 321.473 131.995 321.899 132.448C322.353 132.875 322.579 133.408 322.579 134.048C322.579 134.688 322.353 135.235 321.899 135.688C321.473 136.115 320.953 136.328 320.339 136.328ZM325.499 136.328C324.913 136.328 324.393 136.115 323.939 135.688C323.486 135.235 323.259 134.688 323.259 134.048C323.259 133.408 323.486 132.875 323.939 132.448C324.393 131.995 324.913 131.768 325.499 131.768C326.113 131.768 326.633 131.995 327.059 132.448C327.513 132.875 327.739 133.408 327.739 134.048C327.739 134.688 327.513 135.235 327.059 135.688C326.633 136.115 326.113 136.328 325.499 136.328ZM318.099 153.568H316.819V149.008H318.179C319.033 149.008 319.673 148.742 320.099 148.208C320.526 147.648 320.739 146.915 320.739 146.008V142.448C320.739 141.142 321.046 140.195 321.659 139.608C322.273 138.995 323.179 138.688 324.379 138.688H324.779C325.126 138.688 325.299 138.848 325.299 139.168V146.088C325.299 148.355 324.673 150.168 323.419 151.528C322.193 152.888 320.419 153.568 318.099 153.568ZM241.209 189.688C241.209 189.075 241.409 188.768 241.809 188.768C241.969 188.768 242.103 188.822 242.209 188.928C243.089 189.702 244.063 190.355 245.129 190.888C246.223 191.395 247.583 191.648 249.209 191.648C250.543 191.648 251.543 191.448 252.209 191.048C252.876 190.622 253.209 190.035 253.209 189.288C253.209 188.675 252.929 188.195 252.369 187.848C251.836 187.502 251.143 187.195 250.289 186.928C249.436 186.662 248.529 186.368 247.569 186.048C246.609 185.728 245.703 185.315 244.849 184.808C243.996 184.275 243.289 183.582 242.729 182.728C242.196 181.875 241.929 180.782 241.929 179.448C241.929 177.982 242.289 176.768 243.009 175.808C243.756 174.848 244.743 174.128 245.969 173.648C247.196 173.168 248.529 172.928 249.969 172.928C251.996 172.928 253.769 173.182 255.289 173.688C256.223 174.008 256.796 174.448 257.009 175.008C257.249 175.568 257.263 176.275 257.049 177.128L256.809 178.088C256.729 178.435 256.569 178.608 256.329 178.608C256.143 178.608 255.916 178.542 255.649 178.408C254.823 178.008 253.956 177.702 253.049 177.488C252.143 177.248 251.156 177.128 250.089 177.128C249.183 177.128 248.396 177.288 247.729 177.608C247.089 177.928 246.769 178.462 246.769 179.208C246.769 179.848 247.036 180.355 247.569 180.728C248.129 181.102 248.836 181.422 249.689 181.688C250.543 181.928 251.449 182.208 252.409 182.528C253.396 182.822 254.316 183.222 255.169 183.728C256.023 184.208 256.716 184.862 257.249 185.688C257.809 186.515 258.089 187.595 258.089 188.928C258.089 191.035 257.356 192.742 255.889 194.048C254.449 195.328 252.396 195.968 249.729 195.968C247.783 195.968 246.183 195.662 244.929 195.048C243.676 194.408 242.743 193.608 242.129 192.648C241.516 191.688 241.209 190.702 241.209 189.688ZM267.73 189.648L271.33 173.848C271.41 173.502 271.61 173.328 271.93 173.328H273.41C274.556 173.328 275.476 173.555 276.17 174.008C276.863 174.462 277.37 175.435 277.69 176.928L280.45 189.648L283.81 173.848C283.89 173.502 284.103 173.328 284.45 173.328H288.33C288.623 173.328 288.73 173.502 288.65 173.848L283.45 195.048C283.37 195.395 283.156 195.568 282.81 195.568H278.53C278.183 195.568 277.97 195.395 277.89 195.048L274.05 179.808L270.21 195.048C270.13 195.395 269.916 195.568 269.57 195.568H265.25C264.876 195.568 264.65 195.395 264.57 195.048L259.65 173.848C259.623 173.715 259.636 173.595 259.69 173.488C259.743 173.382 259.863 173.328 260.05 173.328H260.97C262.116 173.328 263.036 173.555 263.73 174.008C264.45 174.462 264.956 175.435 265.25 176.928L267.73 189.648ZM301.287 195.968C297.9 195.968 295.274 194.942 293.407 192.888C291.54 190.835 290.607 188.035 290.607 184.488C290.607 182.142 291.034 180.102 291.887 178.368C292.74 176.635 293.954 175.302 295.527 174.368C297.127 173.408 299.047 172.928 301.287 172.928C303.527 172.928 305.447 173.408 307.047 174.368C308.647 175.302 309.874 176.635 310.727 178.368C311.58 180.102 312.007 182.142 312.007 184.488C312.007 188.035 311.074 190.835 309.207 192.888C307.34 194.942 304.7 195.968 301.287 195.968ZM301.287 191.488C302.407 191.488 303.407 191.275 304.287 190.848C305.167 190.395 305.86 189.662 306.367 188.648C306.874 187.608 307.127 186.222 307.127 184.488C307.127 182.755 306.874 181.368 306.367 180.328C305.86 179.288 305.167 178.542 304.287 178.088C303.407 177.635 302.407 177.408 301.287 177.408C300.194 177.408 299.207 177.635 298.327 178.088C297.447 178.542 296.74 179.288 296.207 180.328C295.7 181.368 295.447 182.755 295.447 184.488C295.447 186.222 295.7 187.608 296.207 188.648C296.74 189.662 297.447 190.395 298.327 190.848C299.207 191.275 300.194 191.488 301.287 191.488ZM319.715 177.688H313.795C313.448 177.688 313.275 177.515 313.275 177.168V173.848C313.275 173.502 313.448 173.328 313.795 173.328H328.235C330.075 173.328 330.995 174.222 330.995 176.008V177.008C330.995 177.462 330.782 177.688 330.355 177.688H324.395V195.048C324.395 195.395 324.222 195.568 323.875 195.568H320.235C319.888 195.568 319.715 195.395 319.715 195.048V177.688Z"/>
<defs>
<linearGradient gradientUnits="userSpaceOnUse" y2="256.293" x2="285.5" y1="48.4504" x1="285.5" id="paint0_linear_246_5716">
<stop stop-color="white"/>
<stop stop-color="#F6F6F6" offset="0.74"/>
<stop stop-color="#B3B3B3" offset="1"/>
</linearGradient>
</defs>
</svg>