<svg xmlns="http://www.w3.org/2000/svg" fill="none" viewBox="0 186.06372622478384 1440 89.1585014409222" style="max-height: 500px" width="1440" height="89.1585014409222">
<rect fill="#666868" transform="rotate(-1.25107 -81.8555 220.037)" height="51.5048" width="1529.63" y="220.037" x="-81.8555" opacity="0.8"/>
<path fill="white" d="M-578.352 260.4L-585.745 260.528L-586.124 238.714L-578.582 238.582C-576.416 238.545 -574.548 238.949 -572.978 239.796C-571.401 240.635 -570.179 241.86 -569.313 243.472C-568.447 245.084 -567.994 247.022 -567.954 249.287C-567.915 251.56 -568.303 253.52 -569.12 255.168C-569.93 256.816 -571.119 258.09 -572.687 258.991C-574.248 259.892 -576.137 260.361 -578.352 260.4ZM-581.852 257.041L-578.604 256.984C-577.084 256.958 -575.821 256.659 -574.815 256.087C-573.81 255.509 -573.061 254.661 -572.569 253.544C-572.077 252.42 -571.845 251.024 -571.874 249.355C-571.903 247.687 -572.183 246.306 -572.713 245.214C-573.244 244.116 -574.015 243.301 -575.025 242.772C-576.029 242.235 -577.27 241.98 -578.747 242.006L-582.113 242.064L-581.852 257.041ZM-556.931 260.347C-558.572 260.376 -559.994 260.06 -561.199 259.399C-562.397 258.73 -563.326 257.773 -563.987 256.528C-564.648 255.275 -564.994 253.793 -565.024 252.081C-565.053 250.398 -564.759 248.916 -564.142 247.633C-563.518 246.344 -562.633 245.334 -561.488 244.604C-560.343 243.867 -558.99 243.484 -557.427 243.457C-556.419 243.44 -555.465 243.586 -554.564 243.898C-553.657 244.201 -552.853 244.685 -552.152 245.347C-551.445 246.01 -550.883 246.86 -550.467 247.897C-550.051 248.926 -549.831 250.159 -549.806 251.593L-549.786 252.775L-563.196 253.008L-563.241 250.409L-553.527 250.241C-553.547 249.502 -553.718 248.848 -554.04 248.278C-554.363 247.701 -554.808 247.251 -555.375 246.927C-555.934 246.603 -556.583 246.447 -557.322 246.46C-558.11 246.474 -558.799 246.677 -559.389 247.071C-559.979 247.458 -560.435 247.963 -560.758 248.587C-561.074 249.203 -561.23 249.877 -561.224 250.609L-561.185 252.878C-561.168 253.829 -560.98 254.643 -560.62 255.318C-560.26 255.987 -559.765 256.497 -559.134 256.848C-558.503 257.192 -557.768 257.357 -556.93 257.343C-556.369 257.333 -555.863 257.246 -555.411 257.082C-554.96 256.911 -554.57 256.666 -554.241 256.348C-553.913 256.029 -553.668 255.638 -553.505 255.173L-549.898 255.516C-550.108 256.471 -550.527 257.31 -551.154 258.031C-551.774 258.745 -552.574 259.306 -553.554 259.713C-554.534 260.114 -555.66 260.325 -556.931 260.347ZM-533.677 247.583L-537.186 248.028C-537.292 247.675 -537.471 247.344 -537.725 247.036C-537.972 246.728 -538.303 246.481 -538.718 246.297C-539.134 246.112 -539.639 246.025 -540.236 246.035C-541.038 246.049 -541.71 246.235 -542.251 246.592C-542.784 246.95 -543.043 247.405 -543.026 247.959C-543.025 248.435 -542.844 248.819 -542.484 249.111C-542.117 249.403 -541.516 249.638 -540.682 249.815L-537.881 250.363C-536.327 250.67 -535.167 251.179 -534.402 251.89C-533.629 252.601 -533.229 253.543 -533.202 254.714C-533.191 255.744 -533.477 256.658 -534.06 257.457C-534.636 258.248 -535.445 258.873 -536.489 259.332C-537.532 259.79 -538.735 260.031 -540.099 260.055C-542.101 260.09 -543.721 259.699 -544.957 258.882C-546.193 258.058 -546.941 256.896 -547.201 255.394L-543.448 254.967C-543.264 255.702 -542.893 256.253 -542.332 256.62C-541.772 256.987 -541.048 257.163 -540.16 257.147C-539.244 257.131 -538.512 256.93 -537.965 256.544C-537.41 256.158 -537.138 255.688 -537.148 255.134C-537.156 254.666 -537.344 254.282 -537.711 253.983C-538.071 253.683 -538.629 253.459 -539.385 253.309L-542.186 252.771C-543.761 252.472 -544.932 251.942 -545.698 251.181C-546.464 250.413 -546.854 249.432 -546.868 248.239C-546.892 247.231 -546.634 246.352 -546.093 245.604C-545.545 244.849 -544.777 244.26 -543.79 243.838C-542.796 243.409 -541.646 243.183 -540.339 243.16C-538.422 243.127 -536.906 243.509 -535.791 244.306C-534.669 245.104 -533.964 246.196 -533.677 247.583ZM-529.937 259.559L-530.222 243.197L-526.366 243.13L-526.081 259.492L-529.937 259.559ZM-528.323 240.842C-528.934 240.852 -529.463 240.659 -529.91 240.262C-530.358 239.858 -530.586 239.368 -530.596 238.793C-530.607 238.211 -530.395 237.713 -529.962 237.301C-529.529 236.881 -529.007 236.666 -528.396 236.656C-527.778 236.645 -527.249 236.842 -526.809 237.246C-526.362 237.643 -526.133 238.133 -526.123 238.715C-526.113 239.29 -526.324 239.788 -526.757 240.207C-527.184 240.619 -527.705 240.831 -528.323 240.842ZM-514.888 265.775C-516.273 265.799 -517.466 265.632 -518.466 265.273C-519.467 264.921 -520.274 264.438 -520.889 263.823C-521.503 263.209 -521.934 262.524 -522.182 261.768L-518.724 260.866C-518.562 261.183 -518.33 261.495 -518.026 261.802C-517.722 262.117 -517.316 262.372 -516.809 262.57C-516.294 262.774 -515.649 262.869 -514.875 262.856C-513.781 262.837 -512.881 262.555 -512.173 262.01C-511.465 261.472 -511.121 260.599 -511.142 259.392L-511.196 256.292L-511.388 256.296C-511.58 256.697 -511.864 257.11 -512.24 257.536C-512.609 257.961 -513.103 258.321 -513.723 258.616C-514.336 258.911 -515.111 259.067 -516.049 259.083C-517.306 259.105 -518.45 258.83 -519.483 258.258C-520.509 257.679 -521.334 256.806 -521.958 255.637C-522.575 254.462 -522.899 252.983 -522.93 251.201C-522.962 249.404 -522.69 247.883 -522.115 246.637C-521.533 245.384 -520.736 244.428 -519.724 243.772C-518.713 243.108 -517.579 242.765 -516.322 242.743C-515.363 242.726 -514.572 242.876 -513.949 243.192C-513.318 243.5 -512.815 243.879 -512.437 244.327C-512.06 244.768 -511.772 245.185 -511.574 245.58L-511.361 245.576L-511.408 242.871L-507.605 242.804L-507.316 259.432C-507.292 260.831 -507.606 261.994 -508.257 262.922C-508.909 263.849 -509.809 264.551 -510.959 265.025C-512.109 265.5 -513.418 265.75 -514.888 265.775ZM-515.025 256.039C-514.209 256.025 -513.516 255.814 -512.948 255.406C-512.38 254.999 -511.953 254.419 -511.668 253.669C-511.382 252.918 -511.249 252.02 -511.267 250.977C-511.285 249.947 -511.45 249.048 -511.761 248.279C-512.066 247.51 -512.51 246.917 -513.092 246.501C-513.668 246.078 -514.371 245.873 -515.202 245.888C-516.061 245.903 -516.774 246.139 -517.342 246.596C-517.909 247.054 -518.332 247.676 -518.609 248.462C-518.887 249.241 -519.017 250.124 -519 251.111C-518.983 252.112 -518.822 252.987 -518.518 253.734C-518.207 254.475 -517.76 255.05 -517.177 255.458C-516.588 255.86 -515.87 256.054 -515.025 256.039ZM-499.68 249.443L-499.513 259.03L-503.369 259.097L-503.653 242.736L-499.968 242.672L-499.919 245.452L-499.728 245.449C-499.367 244.526 -498.78 243.788 -497.966 243.234C-497.144 242.68 -496.123 242.392 -494.901 242.371C-493.772 242.351 -492.784 242.575 -491.938 243.044C-491.085 243.512 -490.419 244.2 -489.942 245.108C-489.457 246.016 -489.207 247.123 -489.191 248.43L-489.01 258.847L-492.866 258.914L-493.037 249.094C-493.056 248 -493.355 247.149 -493.934 246.541C-494.505 245.933 -495.288 245.638 -496.283 245.655C-496.957 245.667 -497.555 245.826 -498.075 246.134C-498.588 246.434 -498.989 246.863 -499.278 247.423C-499.559 247.982 -499.693 248.655 -499.68 249.443ZM-465.899 242.623C-466.015 241.695 -466.446 240.978 -467.194 240.472C-467.934 239.966 -468.89 239.724 -470.062 239.744C-470.886 239.758 -471.59 239.895 -472.175 240.154C-472.76 240.412 -473.205 240.758 -473.511 241.189C-473.816 241.621 -473.967 242.11 -473.964 242.657C-473.957 243.111 -473.847 243.504 -473.635 243.834C-473.416 244.164 -473.124 244.443 -472.757 244.671C-472.391 244.892 -471.987 245.077 -471.544 245.225C-471.101 245.374 -470.655 245.497 -470.205 245.596L-468.151 246.072C-467.324 246.249 -466.528 246.495 -465.763 246.808C-464.99 247.122 -464.298 247.521 -463.685 248.008C-463.066 248.495 -462.573 249.086 -462.205 249.783C-461.838 250.48 -461.646 251.301 -461.63 252.245C-461.608 253.523 -461.915 254.654 -462.551 255.639C-463.188 256.616 -464.119 257.388 -465.345 257.957C-466.564 258.518 -468.047 258.813 -469.794 258.844C-471.491 258.873 -472.969 258.636 -474.228 258.132C-475.48 257.629 -476.466 256.879 -477.187 255.882C-477.9 254.886 -478.298 253.664 -478.38 252.216L-474.492 252.149C-474.422 252.908 -474.177 253.536 -473.756 254.033C-473.336 254.53 -472.793 254.897 -472.128 255.134C-471.456 255.371 -470.708 255.482 -469.885 255.468C-469.025 255.453 -468.275 255.312 -467.633 255.045C-466.984 254.771 -466.479 254.4 -466.118 253.932C-465.757 253.457 -465.578 252.907 -465.582 252.282C-465.599 251.714 -465.774 251.248 -466.107 250.884C-466.44 250.514 -466.904 250.209 -467.498 249.971C-468.084 249.725 -468.77 249.51 -469.555 249.325L-472.048 248.729C-473.852 248.298 -475.285 247.624 -476.345 246.704C-477.398 245.778 -477.938 244.534 -477.965 242.971C-477.988 241.686 -477.659 240.554 -476.98 239.577C-476.294 238.599 -475.352 237.833 -474.154 237.279C-472.956 236.719 -471.594 236.425 -470.067 236.398C-468.519 236.372 -467.158 236.618 -465.984 237.137C-464.803 237.65 -463.87 238.376 -463.186 239.316C-462.502 240.248 -462.139 241.329 -462.097 242.557L-465.899 242.623ZM-455.667 264.405C-456.193 264.414 -456.68 264.38 -457.129 264.303C-457.571 264.232 -457.924 264.146 -458.188 264.044L-457.346 261.025C-456.782 261.178 -456.28 261.248 -455.84 261.233C-455.4 261.218 -455.015 261.073 -454.686 260.798C-454.35 260.529 -454.07 260.084 -453.846 259.462L-453.531 258.572L-459.755 241.973L-455.664 241.902L-451.679 254.192L-451.508 254.19L-447.942 241.768L-443.841 241.696L-450.073 260.153C-450.363 261.024 -450.755 261.773 -451.249 262.4C-451.742 263.034 -452.351 263.52 -453.077 263.86C-453.796 264.206 -454.659 264.388 -455.667 264.405ZM-428.166 245.75L-431.674 246.195C-431.78 245.841 -431.96 245.51 -432.214 245.202C-432.461 244.894 -432.792 244.648 -433.207 244.463C-433.622 244.279 -434.128 244.191 -434.724 244.202C-435.527 244.216 -436.199 244.401 -436.739 244.759C-437.273 245.116 -437.531 245.572 -437.515 246.126C-437.513 246.601 -437.333 246.985 -436.973 247.278C-436.605 247.569 -436.004 247.804 -435.17 247.981L-432.369 248.529C-430.815 248.836 -429.656 249.345 -428.89 250.057C-428.118 250.768 -427.718 251.709 -427.691 252.881C-427.68 253.91 -427.966 254.825 -428.549 255.623C-429.124 256.415 -429.934 257.04 -430.977 257.498C-432.021 257.957 -433.224 258.198 -434.587 258.221C-436.59 258.256 -438.209 257.865 -439.445 257.049C-440.681 256.225 -441.43 255.062 -441.69 253.561L-437.936 253.133C-437.753 253.869 -437.381 254.42 -436.821 254.787C-436.26 255.153 -435.536 255.329 -434.649 255.314C-433.733 255.298 -433.001 255.097 -432.453 254.711C-431.899 254.325 -431.627 253.855 -431.636 253.301C-431.644 252.832 -431.832 252.448 -432.2 252.149C-432.56 251.85 -433.118 251.625 -433.874 251.475L-436.675 250.938C-438.25 250.638 -439.42 250.108 -440.186 249.347C-440.953 248.579 -441.343 247.599 -441.356 246.405C-441.381 245.397 -441.123 244.519 -440.582 243.771C-440.034 243.015 -439.266 242.427 -438.279 242.005C-437.285 241.575 -436.134 241.349 -434.828 241.327C-432.91 241.293 -431.394 241.675 -430.279 242.473C-429.157 243.27 -428.453 244.363 -428.166 245.75ZM-416.54 241.222L-416.488 244.205L-425.894 244.368L-425.946 241.385L-416.54 241.222ZM-423.692 237.425L-419.836 237.358L-419.569 252.718C-419.56 253.237 -419.475 253.633 -419.314 253.907C-419.146 254.174 -418.93 254.355 -418.665 254.45C-418.401 254.545 -418.109 254.589 -417.789 254.584C-417.548 254.58 -417.328 254.558 -417.13 254.519C-416.924 254.48 -416.769 254.445 -416.663 254.415L-415.96 257.418C-416.165 257.493 -416.458 257.576 -416.84 257.668C-417.215 257.76 -417.676 257.817 -418.223 257.841C-419.188 257.886 -420.06 257.756 -420.84 257.45C-421.62 257.137 -422.243 256.643 -422.709 255.969C-423.168 255.295 -423.403 254.447 -423.414 253.424L-423.692 237.425ZM-405.958 257.724C-407.598 257.752 -409.021 257.436 -410.226 256.775C-411.424 256.107 -412.353 255.15 -413.014 253.904C-413.675 252.651 -414.021 251.169 -414.05 249.458C-414.08 247.775 -413.786 246.292 -413.169 245.01C-412.545 243.72 -411.66 242.711 -410.515 241.98C-409.37 241.243 -408.016 240.861 -406.454 240.834C-405.446 240.816 -404.491 240.963 -403.591 241.274C-402.683 241.578 -401.879 242.061 -401.179 242.724C-400.471 243.386 -399.91 244.236 -399.494 245.273C-399.078 246.303 -398.858 247.535 -398.833 248.97L-398.812 250.152L-412.223 250.385L-412.268 247.786L-402.554 247.617C-402.574 246.879 -402.745 246.225 -403.067 245.655C-403.39 245.078 -403.834 244.628 -404.401 244.303C-404.961 243.979 -405.61 243.824 -406.349 243.837C-407.137 243.85 -407.826 244.054 -408.416 244.448C-409.006 244.835 -409.462 245.34 -409.785 245.963C-410.101 246.58 -410.256 247.254 -410.251 247.985L-410.211 250.254C-410.195 251.206 -410.007 252.019 -409.647 252.695C-409.287 253.363 -408.792 253.873 -408.161 254.225C-407.529 254.569 -406.795 254.734 -405.957 254.719C-405.396 254.709 -404.89 254.622 -404.438 254.458C-403.986 254.287 -403.596 254.042 -403.268 253.724C-402.94 253.406 -402.694 253.014 -402.532 252.55L-398.924 252.892C-399.135 253.848 -399.554 254.686 -400.181 255.407C-400.8 256.121 -401.6 256.682 -402.581 257.09C-403.561 257.49 -404.687 257.702 -405.958 257.724ZM-395.426 257.221L-395.711 240.86L-392.025 240.796L-391.977 243.576L-391.785 243.573C-391.46 242.63 -390.909 241.888 -390.13 241.349C-389.351 240.803 -388.414 240.52 -387.321 240.501C-386.213 240.482 -385.274 240.736 -384.505 241.262C-383.729 241.781 -383.177 242.5 -382.848 243.418L-382.678 243.415C-382.331 242.499 -381.733 241.764 -380.883 241.21C-380.027 240.648 -379.005 240.357 -377.819 240.336C-376.314 240.31 -375.077 240.764 -374.109 241.699C-373.141 242.634 -372.641 244.014 -372.609 245.839L-372.418 256.821L-376.285 256.889L-376.465 246.503C-376.483 245.488 -376.766 244.75 -377.314 244.291C-377.862 243.825 -378.526 243.598 -379.307 243.612C-380.238 243.628 -380.96 243.932 -381.476 244.523C-381.984 245.107 -382.23 245.861 -382.214 246.784L-382.037 256.989L-385.818 257.054L-386.002 246.509C-386.016 245.664 -386.284 244.994 -386.804 244.498C-387.317 244.003 -387.981 243.762 -388.798 243.777C-389.352 243.786 -389.854 243.937 -390.303 244.229C-390.753 244.514 -391.108 244.914 -391.369 245.43C-391.63 245.939 -391.755 246.531 -391.743 247.205L-391.57 257.154L-395.426 257.221ZM-301.421 255.588L-308.814 255.716L-309.193 233.901L-301.651 233.77C-299.486 233.733 -297.617 234.137 -296.047 234.983C-294.47 235.823 -293.248 237.048 -292.382 238.66C-291.516 240.271 -291.063 242.21 -291.024 244.475C-290.984 246.747 -291.373 248.708 -292.189 250.355C-292.999 252.003 -294.188 253.278 -295.756 254.179C-297.317 255.08 -299.206 255.549 -301.421 255.588ZM-304.921 252.228L-301.673 252.172C-300.153 252.145 -298.89 251.846 -297.884 251.275C-296.879 250.696 -296.13 249.849 -295.638 248.732C-295.146 247.608 -294.914 246.212 -294.943 244.543C-294.972 242.874 -295.252 241.494 -295.782 240.402C-296.313 239.303 -297.084 238.489 -298.094 237.96C-299.098 237.423 -300.339 237.168 -301.816 237.193L-305.182 237.252L-304.921 252.228ZM-280 255.535C-281.641 255.564 -283.063 255.247 -284.268 254.586C-285.466 253.918 -286.396 252.961 -287.057 251.715C-287.718 250.462 -288.063 248.98 -288.093 247.269C-288.122 245.586 -287.828 244.103 -287.211 242.821C-286.587 241.532 -285.703 240.522 -284.557 239.792C-283.412 239.054 -282.059 238.672 -280.496 238.645C-279.488 238.627 -278.534 238.774 -277.633 239.085C-276.726 239.389 -275.922 239.872 -275.221 240.535C-274.514 241.198 -273.952 242.047 -273.536 243.084C-273.12 244.114 -272.9 245.346 -272.875 246.781L-272.855 247.963L-286.265 248.196L-286.31 245.597L-276.596 245.428C-276.616 244.69 -276.787 244.036 -277.11 243.466C-277.432 242.889 -277.877 242.439 -278.444 242.115C-279.003 241.791 -279.652 241.635 -280.391 241.648C-281.179 241.661 -281.868 241.865 -282.458 242.259C-283.048 242.646 -283.505 243.151 -283.828 243.775C-284.144 244.391 -284.299 245.065 -284.293 245.796L-284.254 248.065C-284.237 249.017 -284.049 249.83 -283.689 250.506C-283.33 251.175 -282.834 251.685 -282.203 252.036C-281.572 252.38 -280.837 252.545 -279.999 252.53C-279.438 252.521 -278.932 252.434 -278.48 252.27C-278.029 252.098 -277.639 251.854 -277.31 251.535C-276.982 251.217 -276.737 250.826 -276.574 250.361L-272.967 250.703C-273.178 251.659 -273.596 252.497 -274.223 253.218C-274.843 253.932 -275.643 254.493 -276.623 254.901C-277.604 255.302 -278.729 255.513 -280 255.535ZM-256.747 242.771L-260.255 243.216C-260.361 242.862 -260.54 242.532 -260.794 242.224C-261.041 241.915 -261.372 241.669 -261.788 241.484C-262.203 241.3 -262.709 241.213 -263.305 241.223C-264.107 241.237 -264.779 241.423 -265.32 241.78C-265.853 242.137 -266.112 242.593 -266.095 243.147C-266.094 243.623 -265.913 244.007 -265.553 244.299C-265.186 244.591 -264.585 244.825 -263.751 245.003L-260.95 245.551C-259.396 245.857 -258.236 246.367 -257.471 247.078C-256.699 247.789 -256.299 248.73 -256.271 249.902C-256.26 250.932 -256.546 251.846 -257.129 252.644C-257.705 253.436 -258.515 254.061 -259.558 254.519C-260.601 254.978 -261.805 255.219 -263.168 255.243C-265.171 255.277 -266.79 254.886 -268.026 254.07C-269.262 253.246 -270.01 252.083 -270.271 250.582L-266.517 250.154C-266.334 250.89 -265.962 251.441 -265.401 251.808C-264.841 252.175 -264.117 252.35 -263.229 252.335C-262.313 252.319 -261.581 252.118 -261.034 251.732C-260.48 251.346 -260.207 250.876 -260.217 250.322C-260.225 249.853 -260.413 249.469 -260.78 249.17C-261.141 248.871 -261.699 248.646 -262.454 248.496L-265.255 247.959C-266.83 247.66 -268.001 247.129 -268.767 246.368C-269.533 245.6 -269.923 244.62 -269.937 243.427C-269.961 242.418 -269.703 241.54 -269.162 240.792C-268.614 240.037 -267.847 239.448 -266.859 239.026C-265.865 238.597 -264.715 238.371 -263.408 238.348C-261.491 238.315 -259.975 238.697 -258.86 239.494C-257.738 240.292 -257.034 241.384 -256.747 242.771ZM-253.006 254.746L-253.291 238.385L-249.435 238.318L-249.15 254.679L-253.006 254.746ZM-251.392 236.029C-252.003 236.04 -252.532 235.847 -252.979 235.45C-253.427 235.045 -253.656 234.556 -253.666 233.981C-253.676 233.398 -253.464 232.901 -253.031 232.488C-252.598 232.069 -252.076 231.854 -251.465 231.843C-250.847 231.833 -250.318 232.029 -249.878 232.434C-249.431 232.831 -249.202 233.321 -249.192 233.903C-249.182 234.478 -249.393 234.975 -249.827 235.395C-250.253 235.807 -250.775 236.019 -251.392 236.029ZM-237.957 260.963C-239.342 260.987 -240.535 260.82 -241.536 260.461C-242.536 260.109 -243.344 259.625 -243.958 259.011C-244.573 258.397 -245.004 257.711 -245.251 256.956L-241.793 256.054C-241.631 256.371 -241.399 256.683 -241.095 256.99C-240.791 257.304 -240.385 257.56 -239.878 257.757C-239.363 257.962 -238.718 258.057 -237.944 258.043C-236.851 258.024 -235.95 257.742 -235.242 257.197C-234.534 256.659 -234.19 255.787 -234.211 254.58L-234.265 251.48L-234.457 251.483C-234.649 251.884 -234.933 252.298 -235.309 252.723C-235.678 253.149 -236.173 253.509 -236.793 253.804C-237.405 254.099 -238.181 254.254 -239.118 254.271C-240.375 254.292 -241.52 254.018 -242.552 253.446C-243.578 252.867 -244.403 251.994 -245.027 250.825C-245.644 249.65 -245.968 248.171 -245.999 246.388C-246.031 244.592 -245.759 243.07 -245.184 241.824C-244.602 240.571 -243.805 239.616 -242.794 238.959C-241.782 238.295 -240.648 237.952 -239.391 237.931C-238.432 237.914 -237.641 238.064 -237.018 238.379C-236.387 238.688 -235.884 239.067 -235.507 239.515C-235.129 239.956 -234.842 240.373 -234.643 240.768L-234.43 240.764L-234.477 238.058L-230.674 237.992L-230.385 254.62C-230.361 256.019 -230.675 257.182 -231.326 258.11C-231.978 259.037 -232.878 259.738 -234.028 260.213C-235.178 260.688 -236.487 260.938 -237.957 260.963ZM-238.095 251.227C-237.278 251.213 -236.585 251.002 -236.017 250.594C-235.449 250.186 -235.022 249.607 -234.737 248.856C-234.452 248.106 -234.318 247.208 -234.336 246.164C-234.354 245.135 -234.519 244.235 -234.83 243.467C-235.135 242.698 -235.579 242.105 -236.161 241.689C-236.737 241.266 -237.44 241.061 -238.271 241.076C-239.13 241.091 -239.844 241.327 -240.411 241.784C-240.978 242.241 -241.401 242.863 -241.678 243.649C-241.956 244.429 -242.086 245.312 -242.069 246.299C-242.052 247.3 -241.891 248.174 -241.587 248.922C-241.276 249.663 -240.829 250.237 -240.246 250.646C-239.657 251.048 -238.94 251.242 -238.095 251.227ZM-222.749 244.631L-222.582 254.218L-226.438 254.285L-226.722 237.924L-223.037 237.86L-222.989 240.64L-222.797 240.636C-222.436 239.714 -221.849 238.975 -221.035 238.421C-220.213 237.867 -219.192 237.58 -217.97 237.558C-216.841 237.539 -215.854 237.763 -215.007 238.231C-214.154 238.7 -213.488 239.388 -213.011 240.296C-212.526 241.204 -212.276 242.311 -212.261 243.618L-212.08 254.035L-215.935 254.102L-216.106 244.281C-216.125 243.188 -216.424 242.337 -217.003 241.729C-217.575 241.121 -218.358 240.826 -219.352 240.843C-220.026 240.855 -220.624 241.014 -221.144 241.321C-221.657 241.622 -222.058 242.051 -222.347 242.61C-222.629 243.169 -222.762 243.843 -222.749 244.631ZM-201.829 235.349L-201.887 232.037L-184.482 231.734L-184.424 235.047L-191.167 235.164L-190.845 253.666L-194.765 253.734L-195.087 235.232L-201.829 235.349ZM-177.228 243.84L-177.062 253.427L-180.918 253.494L-181.297 231.679L-177.526 231.613L-177.383 239.847L-177.191 239.844C-176.824 238.914 -176.243 238.176 -175.45 237.629C-174.65 237.076 -173.625 236.788 -172.375 236.766C-171.239 236.746 -170.244 236.967 -169.391 237.428C-168.538 237.889 -167.872 238.574 -167.395 239.482C-166.91 240.39 -166.657 241.504 -166.634 242.825L-166.453 253.242L-170.308 253.309L-170.479 243.488C-170.498 242.388 -170.797 241.537 -171.376 240.936C-171.948 240.328 -172.741 240.033 -173.757 240.05C-174.438 240.062 -175.047 240.222 -175.581 240.53C-176.109 240.83 -176.52 241.26 -176.816 241.819C-177.105 242.378 -177.242 243.052 -177.228 243.84ZM-162.522 253.174L-162.806 236.813L-158.95 236.746L-158.666 253.107L-162.522 253.174ZM-160.908 234.457C-161.519 234.468 -162.048 234.274 -162.495 233.877C-162.942 233.473 -163.171 232.983 -163.181 232.408C-163.191 231.826 -162.98 231.329 -162.547 230.916C-162.113 230.497 -161.591 230.282 -160.981 230.271C-160.363 230.26 -159.834 230.457 -159.394 230.861C-158.946 231.258 -158.718 231.748 -158.707 232.33C-158.697 232.906 -158.909 233.403 -159.342 233.823C-159.768 234.235 -160.29 234.446 -160.908 234.457ZM-151.012 243.384L-150.845 252.971L-154.701 253.038L-154.985 236.677L-151.3 236.613L-151.251 239.393L-151.06 239.39C-150.699 238.467 -150.112 237.729 -149.297 237.175C-148.476 236.621 -147.455 236.333 -146.233 236.312C-145.104 236.292 -144.116 236.517 -143.27 236.985C-142.417 237.453 -141.751 238.141 -141.274 239.049C-140.789 239.957 -140.539 241.064 -140.523 242.371L-140.342 252.789L-144.198 252.856L-144.369 243.035C-144.388 241.941 -144.687 241.09 -145.266 240.482C-145.837 239.874 -146.62 239.579 -147.615 239.596C-148.289 239.608 -148.887 239.767 -149.407 240.075C-149.92 240.375 -150.321 240.805 -150.61 241.364C-150.891 241.923 -151.025 242.596 -151.012 243.384ZM-132.997 247.525L-133.088 242.871L-132.47 242.86L-126.705 236.186L-122.199 236.107L-129.292 244.286L-130.091 244.3L-132.997 247.525ZM-136.422 252.72L-136.802 230.906L-132.946 230.839L-132.566 252.653L-136.422 252.72ZM-126.154 252.542L-131.609 245.189L-129.058 242.428L-121.542 252.462L-126.154 252.542ZM-119.345 252.424L-119.629 236.063L-115.773 235.996L-115.489 252.357L-119.345 252.424ZM-117.731 233.707C-118.342 233.717 -118.871 233.524 -119.318 233.127C-119.765 232.723 -119.994 232.233 -120.004 231.658C-120.014 231.076 -119.803 230.578 -119.369 230.166C-118.936 229.746 -118.414 229.531 -117.804 229.521C-117.186 229.51 -116.657 229.707 -116.217 230.111C-115.769 230.508 -115.54 230.998 -115.53 231.58C-115.52 232.155 -115.732 232.653 -116.165 233.072C-116.591 233.485 -117.113 233.696 -117.731 233.707ZM-107.834 242.634L-107.668 252.221L-111.524 252.288L-111.808 235.927L-108.123 235.863L-108.074 238.643L-107.883 238.639C-107.522 237.717 -106.935 236.979 -106.12 236.425C-105.299 235.87 -104.277 235.583 -103.056 235.561C-101.927 235.542 -100.939 235.766 -100.093 236.235C-99.2395 236.703 -98.574 237.391 -98.0965 238.299C-97.6119 239.207 -97.3618 240.314 -97.3462 241.621L-97.1652 252.038L-101.021 252.105L-101.192 242.284C-101.211 241.191 -101.51 240.34 -102.089 239.732C-102.66 239.124 -103.443 238.829 -104.437 238.846C-105.112 238.858 -105.71 239.017 -106.23 239.325C-106.743 239.625 -107.144 240.054 -107.433 240.613C-107.714 241.172 -107.848 241.846 -107.834 242.634ZM-86.0174 258.323C-87.4021 258.347 -88.5949 258.179 -89.5956 257.82C-90.5962 257.468 -91.4037 256.985 -92.0181 256.371C-92.6326 255.756 -93.0636 255.071 -93.3112 254.315L-89.8533 253.414C-89.6915 253.73 -89.4588 254.043 -89.1551 254.35C-88.8513 254.664 -88.4455 254.92 -87.9377 255.117C-87.4228 255.321 -86.7783 255.417 -86.0042 255.403C-84.9106 255.384 -84.0099 255.102 -83.3019 254.557C-82.5938 254.019 -82.2502 253.147 -82.2712 251.939L-82.3251 248.84L-82.5168 248.843C-82.7087 249.244 -82.9928 249.657 -83.369 250.083C-83.7381 250.509 -84.2326 250.869 -84.8526 251.164C-85.4654 251.459 -86.2405 251.614 -87.1779 251.63C-88.4348 251.652 -89.5797 251.377 -90.6125 250.806C-91.6383 250.227 -92.4633 249.353 -93.0874 248.185C-93.7045 247.009 -94.0285 245.53 -94.0595 243.748C-94.0907 241.951 -93.8188 240.43 -93.2438 239.184C-92.6618 237.931 -91.865 236.976 -90.8536 236.319C-89.8422 235.655 -88.7081 235.312 -87.4512 235.29C-86.4925 235.274 -85.7015 235.423 -85.078 235.739C-84.4475 236.048 -83.9437 236.426 -83.5665 236.874C-83.1895 237.315 -82.9017 237.733 -82.703 238.127L-82.49 238.124L-82.537 235.418L-78.7343 235.352L-78.4454 251.979C-78.4211 253.378 -78.7347 254.542 -79.3863 255.469C-80.0379 256.397 -80.9385 257.098 -82.0881 257.573C-83.2377 258.047 -84.5475 258.297 -86.0174 258.323ZM-86.1546 248.587C-85.338 248.572 -84.6455 248.361 -84.0773 247.954C-83.509 247.546 -83.0822 246.967 -82.7969 246.216C-82.5116 245.465 -82.378 244.568 -82.3961 243.524C-82.414 242.494 -82.5788 241.595 -82.8905 240.826C-83.1951 240.057 -83.6387 239.465 -84.2213 239.049C-84.797 238.625 -85.5002 238.421 -86.331 238.435C-87.1903 238.45 -87.9036 238.686 -88.471 239.144C-89.0385 239.601 -89.461 240.223 -89.7385 241.009C-90.0162 241.788 -90.1465 242.671 -90.1294 243.658C-90.112 244.66 -89.9511 245.534 -89.6469 246.282C-89.3357 247.022 -88.8889 247.597 -88.3064 248.006C-87.7169 248.408 -86.9997 248.601 -86.1546 248.587ZM0.0271413 250.349L-7.36521 250.478L-7.74429 228.663L-0.202814 228.532C1.96305 228.494 3.83116 228.899 5.4015 229.745C6.97882 230.584 8.20058 231.81 9.06678 233.421C9.93298 235.033 10.3858 236.971 10.4251 239.237C10.4646 241.509 10.076 243.469 9.25936 245.117C8.4498 246.765 7.26083 248.039 5.69244 248.94C4.13115 249.841 2.24272 250.311 0.0271413 250.349ZM-3.47281 246.99L-0.224007 246.934C1.29565 246.907 2.5584 246.608 3.56425 246.037C4.56997 245.458 5.31885 244.61 5.81089 243.494C6.3028 242.37 6.53426 240.974 6.50526 239.305C6.47626 237.636 6.19656 236.256 5.66614 235.164C5.1356 234.065 4.36495 233.251 3.35418 232.721C2.35039 232.185 1.10996 231.929 -0.367085 231.955L-3.73305 232.014L-3.47281 246.99ZM21.4481 250.297C19.8078 250.325 18.3852 250.009 17.1803 249.348C15.9824 248.68 15.053 247.723 14.3921 246.477C13.731 245.224 13.3856 243.742 13.3559 242.031C13.3266 240.348 13.6205 238.865 14.2375 237.583C14.8615 236.293 15.7461 235.284 16.8912 234.553C18.0363 233.816 19.3899 233.434 20.9522 233.407C21.9606 233.389 22.915 233.536 23.8154 233.847C24.7228 234.151 25.5268 234.634 26.2273 235.297C26.9349 235.959 27.4967 236.809 27.9125 237.846C28.3282 238.876 28.5485 240.108 28.5734 241.542L28.5939 242.725L15.1833 242.958L15.1382 240.359L24.8526 240.19C24.8327 239.452 24.6615 238.797 24.339 238.228C24.0165 237.651 23.5718 237.2 23.005 236.876C22.4453 236.552 21.7962 236.397 21.0576 236.409C20.2694 236.423 19.5804 236.627 18.9905 237.021C18.4006 237.407 17.9441 237.913 17.6211 238.536C17.305 239.153 17.1498 239.827 17.1554 240.558L17.1948 242.827C17.2114 243.779 17.3996 244.592 17.7594 245.268C18.119 245.936 18.6145 246.446 19.2457 246.798C19.8768 247.142 20.6113 247.307 21.4492 247.292C22.0102 247.282 22.5166 247.195 22.9683 247.031C23.42 246.86 23.81 246.615 24.1383 246.297C24.4666 245.979 24.712 245.587 24.8744 245.123L28.4817 245.465C28.271 246.421 27.8523 247.259 27.2255 247.98C26.6057 248.694 25.8057 249.255 24.8254 249.663C23.845 250.063 22.7193 250.275 21.4481 250.297ZM44.702 237.533L41.1936 237.977C41.088 237.624 40.9082 237.293 40.6542 236.985C40.4074 236.677 40.0763 236.431 39.6611 236.246C39.2459 236.061 38.7401 235.974 38.1436 235.985C37.3411 235.999 36.6696 236.184 36.1288 236.542C35.5952 236.899 35.3367 237.355 35.3534 237.908C35.3546 238.384 35.5353 238.768 35.8955 239.06C36.2629 239.352 36.8636 239.587 37.6978 239.764L40.499 240.312C42.0528 240.619 43.2124 241.128 43.9777 241.839C44.7501 242.551 45.1501 243.492 45.1775 244.664C45.1883 245.693 44.9023 246.607 44.3195 247.406C43.7437 248.197 42.9341 248.822 41.8908 249.281C40.8475 249.74 39.6441 249.981 38.2807 250.004C36.2781 250.039 34.6589 249.648 33.4229 248.831C32.1868 248.008 31.4385 246.845 31.178 245.344L34.9318 244.916C35.1151 245.652 35.4869 246.203 36.0473 246.57C36.6078 246.936 37.3318 247.112 38.2195 247.097C39.1355 247.081 39.8672 246.88 40.4146 246.494C40.969 246.108 41.2414 245.638 41.2318 245.084C41.2237 244.615 41.0359 244.231 40.6684 243.932C40.308 243.633 39.7501 243.408 38.9945 243.258L36.1936 242.721C34.6185 242.421 33.4479 241.891 32.6817 241.13C31.9154 240.362 31.5255 239.381 31.5118 238.188C31.4872 237.18 31.7454 236.302 32.2865 235.554C32.8345 234.798 33.6021 234.21 34.5892 233.788C35.5834 233.358 36.7337 233.132 38.0403 233.11C39.9577 233.076 41.4738 233.458 42.5886 234.256C43.7106 235.053 44.4151 236.146 44.702 237.533ZM48.4422 249.508L48.1579 233.147L52.0139 233.08L52.2982 249.441L48.4422 249.508ZM50.0562 230.791C49.4455 230.802 48.9165 230.608 48.4692 230.211C48.0218 229.807 47.793 229.317 47.7831 228.742C47.7729 228.16 47.9845 227.663 48.4177 227.25C48.8509 226.831 49.3728 226.616 49.9835 226.605C50.6013 226.594 51.1303 226.791 51.5707 227.195C52.018 227.593 52.2467 228.082 52.2568 228.665C52.2668 229.24 52.0552 229.737 51.6221 230.157C51.196 230.569 50.674 230.78 50.0562 230.791ZM63.4913 255.725C62.1065 255.749 60.9138 255.581 59.9131 255.222C58.9125 254.87 58.105 254.387 57.4905 253.773C56.8761 253.158 56.4451 252.473 56.1975 251.717L59.6554 250.816C59.8172 251.132 60.0499 251.444 60.3536 251.752C60.6574 252.066 61.0632 252.322 61.5709 252.519C62.0859 252.723 62.7304 252.819 63.5045 252.805C64.598 252.786 65.4988 252.504 66.2068 251.959C66.9149 251.421 67.2584 250.549 67.2375 249.341L67.1836 246.242L66.9919 246.245C66.7999 246.646 66.5159 247.059 66.1397 247.485C65.7706 247.911 65.2761 248.271 64.6561 248.566C64.0433 248.861 63.2681 249.016 62.3308 249.032C61.0739 249.054 59.929 248.779 58.8962 248.208C57.8704 247.629 57.0454 246.755 56.4213 245.587C55.8042 244.411 55.4802 242.932 55.4492 241.15C55.418 239.353 55.6899 237.832 56.2649 236.586C56.8469 235.333 57.6436 234.378 58.6551 233.721C59.6665 233.057 60.8006 232.714 62.0575 232.692C63.0162 232.676 63.8072 232.825 64.4307 233.141C65.0612 233.45 65.565 233.828 65.9421 234.276C66.3192 234.717 66.607 235.135 66.8057 235.529L67.0187 235.526L66.9717 232.82L70.7744 232.754L71.0633 249.381C71.0876 250.78 70.774 251.944 70.1224 252.871C69.4708 253.799 68.5702 254.5 67.4206 254.975C66.271 255.449 64.9612 255.699 63.4913 255.725ZM63.354 245.989C64.1707 245.974 64.8631 245.763 65.4314 245.356C65.9997 244.948 66.4265 244.369 66.7118 243.618C66.9971 242.867 67.1307 241.97 67.1125 240.926C67.0946 239.896 66.9298 238.997 66.6181 238.228C66.3135 237.459 65.8699 236.867 65.2873 236.451C64.7117 236.027 64.0085 235.823 63.1776 235.837C62.3184 235.852 61.6051 236.088 61.0376 236.546C60.4702 237.003 60.0477 237.625 59.7701 238.411C59.4924 239.19 59.3622 240.073 59.3793 241.06C59.3967 242.062 59.5575 242.936 59.8618 243.684C60.173 244.424 60.6198 244.999 61.2023 245.408C61.7918 245.81 62.509 246.003 63.354 245.989ZM78.6999 239.393L78.8664 248.979L75.0105 249.046L74.7262 232.685L78.4117 232.621L78.46 235.401L78.6518 235.398C79.0122 234.475 79.5996 233.737 80.414 233.183C81.2354 232.629 82.2569 232.341 83.4783 232.32C84.6074 232.3 85.5951 232.525 86.4414 232.993C87.2948 233.461 87.9603 234.149 88.4378 235.057C88.9224 235.965 89.1725 237.073 89.1881 238.379L89.3691 248.797L85.5132 248.864L85.3425 239.043C85.3235 237.949 85.0246 237.099 84.4458 236.491C83.874 235.883 83.0911 235.587 82.0969 235.604C81.4223 235.616 80.8248 235.776 80.3045 236.083C79.7912 236.383 79.3902 236.813 79.1016 237.372C78.8201 237.931 78.6862 238.605 78.6999 239.393ZM100.9 248.597L100.521 226.782L108.701 226.639C110.377 226.61 111.789 226.898 112.936 227.504C114.09 228.109 114.967 228.953 115.569 230.036C116.177 231.113 116.493 232.343 116.517 233.728C116.542 235.127 116.269 236.375 115.698 237.471C115.127 238.568 114.272 239.439 113.133 240.084C111.993 240.721 110.582 241.055 108.899 241.084L103.477 241.178L103.421 237.93L108.31 237.845C109.29 237.828 110.089 237.643 110.708 237.292C111.327 236.94 111.781 236.463 112.069 235.861C112.364 235.26 112.504 234.572 112.491 233.798C112.477 233.024 112.313 232.345 111.997 231.761C111.689 231.176 111.216 230.726 110.578 230.411C109.947 230.088 109.138 229.935 108.151 229.952L104.53 230.015L104.852 248.528L100.9 248.597ZM120.033 248.264L119.749 231.903L123.487 231.838L123.535 234.565L123.705 234.562C123.987 233.612 124.486 232.875 125.201 232.352C125.924 231.82 126.754 231.547 127.691 231.53C127.904 231.527 128.142 231.533 128.405 231.55C128.675 231.56 128.899 231.58 129.077 231.613L129.139 235.16C128.975 235.106 128.715 235.061 128.359 235.024C128.01 234.981 127.672 234.962 127.346 234.967C126.643 234.98 126.013 235.143 125.458 235.458C124.909 235.766 124.479 236.189 124.169 236.727C123.859 237.266 123.71 237.883 123.722 238.578L123.889 248.197L120.033 248.264ZM138.394 248.265C136.796 248.292 135.406 247.965 134.222 247.282C133.038 246.6 132.112 245.632 131.444 244.379C130.783 243.126 130.437 241.655 130.408 239.965C130.379 238.275 130.672 236.788 131.289 235.506C131.914 234.224 132.805 233.221 133.965 232.498C135.124 231.774 136.503 231.399 138.101 231.371C139.698 231.343 141.089 231.671 142.273 232.353C143.457 233.036 144.38 234.007 145.041 235.267C145.709 236.527 146.058 238.002 146.087 239.692C146.117 241.382 145.819 242.865 145.195 244.14C144.578 245.415 143.69 246.415 142.53 247.138C141.371 247.861 139.992 248.237 138.394 248.265ZM138.362 245.175C139.228 245.16 139.948 244.91 140.522 244.424C141.096 243.931 141.518 243.277 141.788 242.463C142.065 241.648 142.195 240.744 142.178 239.749C142.161 238.748 141.999 237.845 141.694 237.041C141.396 236.229 140.951 235.587 140.361 235.114C139.77 234.641 139.041 234.413 138.175 234.428C137.287 234.443 136.553 234.697 135.972 235.19C135.398 235.683 134.973 236.341 134.696 237.162C134.426 237.977 134.3 238.885 134.317 239.886C134.334 240.88 134.492 241.78 134.79 242.584C135.095 243.389 135.543 244.027 136.134 244.5C136.732 244.966 137.474 245.191 138.362 245.175ZM156.643 247.948C155.01 247.976 153.601 247.642 152.417 246.945C151.24 246.248 150.325 245.273 149.671 244.02C149.024 242.76 148.686 241.302 148.657 239.648C148.628 237.986 148.922 236.514 149.539 235.232C150.156 233.942 151.041 232.932 152.193 232.202C153.352 231.465 154.731 231.082 156.329 231.054C157.657 231.031 158.836 231.256 159.867 231.728C160.905 232.193 161.737 232.864 162.363 233.741C162.989 234.611 163.355 235.634 163.461 236.812L159.775 236.876C159.613 236.09 159.246 235.439 158.676 234.924C158.113 234.401 157.366 234.147 156.436 234.164C155.648 234.177 154.959 234.402 154.37 234.839C153.781 235.268 153.326 235.88 153.006 236.674C152.693 237.468 152.546 238.415 152.565 239.516C152.585 240.631 152.765 241.586 153.105 242.383C153.446 243.173 153.914 243.779 154.511 244.202C155.115 244.618 155.818 244.819 156.621 244.805C157.189 244.795 157.695 244.679 158.138 244.459C158.589 244.231 158.964 243.908 159.262 243.491C159.56 243.074 159.761 242.569 159.864 241.978L163.55 241.914C163.477 243.073 163.154 244.105 162.581 245.01C162.007 245.908 161.216 246.618 160.21 247.14C159.203 247.654 158.014 247.924 156.643 247.948ZM174.062 247.645C172.421 247.673 170.999 247.357 169.794 246.696C168.596 246.028 167.667 245.071 167.006 243.825C166.345 242.572 165.999 241.09 165.97 239.379C165.94 237.696 166.234 236.213 166.851 234.931C167.475 233.641 168.36 232.632 169.505 231.901C170.65 231.164 172.004 230.782 173.566 230.755C174.574 230.737 175.529 230.884 176.429 231.195C177.336 231.499 178.14 231.982 178.841 232.645C179.549 233.307 180.11 234.157 180.526 235.194C180.942 236.224 181.162 237.456 181.187 238.89L181.208 240.073L167.797 240.306L167.752 237.707L177.466 237.538C177.446 236.8 177.275 236.145 176.953 235.576C176.63 234.999 176.185 234.548 175.619 234.224C175.059 233.9 174.41 233.745 173.671 233.757C172.883 233.771 172.194 233.975 171.604 234.369C171.014 234.755 170.558 235.261 170.235 235.884C169.919 236.501 169.763 237.175 169.769 237.906L169.809 240.175C169.825 241.127 170.013 241.94 170.373 242.616C170.733 243.284 171.228 243.794 171.859 244.146C172.49 244.49 173.225 244.655 174.063 244.64C174.624 244.63 175.13 244.543 175.582 244.379C176.034 244.208 176.424 243.963 176.752 243.645C177.08 243.327 177.326 242.935 177.488 242.471L181.095 242.813C180.885 243.769 180.466 244.607 179.839 245.328C179.219 246.042 178.419 246.603 177.439 247.011C176.459 247.411 175.333 247.623 174.062 247.645ZM197.316 234.881L193.807 235.325C193.702 234.972 193.522 234.641 193.268 234.333C193.021 234.025 192.69 233.779 192.275 233.594C191.86 233.409 191.354 233.322 190.757 233.333C189.955 233.347 189.283 233.532 188.742 233.89C188.209 234.247 187.95 234.703 187.967 235.256C187.968 235.732 188.149 236.116 188.509 236.408C188.877 236.7 189.477 236.935 190.312 237.112L193.113 237.66C194.666 237.967 195.826 238.476 196.591 239.187C197.364 239.899 197.764 240.84 197.791 242.012C197.802 243.041 197.516 243.956 196.933 244.754C196.357 245.545 195.548 246.17 194.504 246.629C193.461 247.088 192.258 247.329 190.894 247.352C188.892 247.387 187.273 246.996 186.037 246.179C184.8 245.356 184.052 244.193 183.792 242.692L187.545 242.264C187.729 243 188.101 243.551 188.661 243.918C189.221 244.284 189.945 244.46 190.833 244.445C191.749 244.429 192.481 244.228 193.028 243.842C193.583 243.456 193.855 242.986 193.846 242.432C193.837 241.963 193.65 241.579 193.282 241.28C192.922 240.981 192.364 240.756 191.608 240.606L188.807 240.069C187.232 239.769 186.062 239.239 185.295 238.478C184.529 237.71 184.139 236.729 184.126 235.536C184.101 234.528 184.359 233.65 184.9 232.902C185.448 232.146 186.216 231.558 187.203 231.136C188.197 230.706 189.347 230.48 190.654 230.458C192.571 230.424 194.087 230.806 195.202 231.604C196.324 232.401 197.029 233.494 197.316 234.881ZM213.778 234.595L210.27 235.039C210.164 234.686 209.984 234.355 209.73 234.047C209.483 233.739 209.152 233.493 208.737 233.308C208.322 233.123 207.816 233.036 207.22 233.047C206.417 233.061 205.746 233.246 205.205 233.604C204.671 233.961 204.413 234.417 204.429 234.97C204.431 235.446 204.611 235.83 204.972 236.122C205.339 236.414 205.94 236.649 206.774 236.826L209.575 237.374C211.129 237.681 212.288 238.19 213.054 238.901C213.826 239.613 214.226 240.554 214.254 241.725C214.264 242.755 213.978 243.669 213.396 244.468C212.82 245.259 212.01 245.884 210.967 246.343C209.924 246.801 208.72 247.043 207.357 247.066C205.354 247.101 203.735 246.71 202.499 245.893C201.263 245.07 200.515 243.907 200.254 242.406L204.008 241.978C204.191 242.714 204.563 243.265 205.123 243.632C205.684 243.998 206.408 244.174 207.296 244.158C208.212 244.143 208.943 243.942 209.491 243.556C210.045 243.17 210.317 242.7 210.308 242.146C210.3 241.677 210.112 241.293 209.744 240.994C209.384 240.695 208.826 240.47 208.071 240.32L205.27 239.783C203.695 239.483 202.524 238.953 201.758 238.192C200.991 237.424 200.602 236.443 200.588 235.25C200.563 234.242 200.821 233.364 201.363 232.616C201.911 231.86 202.678 231.272 203.665 230.85C204.659 230.42 205.81 230.194 207.116 230.172C209.034 230.138 210.55 230.52 211.665 231.318C212.787 232.115 213.491 233.208 213.778 234.595ZM310.513 230.495L306.529 230.564C306.404 229.913 306.185 229.338 305.871 228.839C305.556 228.333 305.169 227.907 304.708 227.559C304.248 227.212 303.725 226.955 303.139 226.788C302.561 226.613 301.938 226.531 301.27 226.543C300.084 226.564 299.039 226.88 298.133 227.492C297.227 228.098 296.525 228.977 296.026 230.129C295.528 231.274 295.293 232.667 295.321 234.307C295.35 235.976 295.634 237.378 296.172 238.512C296.717 239.639 297.449 240.486 298.369 241.052C299.295 241.612 300.347 241.881 301.526 241.86C302.179 241.849 302.788 241.753 303.354 241.573C303.926 241.385 304.436 241.117 304.885 240.769C305.34 240.42 305.72 239.994 306.024 239.491C306.335 238.989 306.545 238.417 306.655 237.776L310.639 237.728C310.508 238.767 310.201 239.746 309.72 240.663C309.246 241.581 308.617 242.394 307.834 243.104C307.051 243.807 306.13 244.362 305.071 244.772C304.013 245.174 302.834 245.386 301.534 245.408C299.617 245.442 297.898 245.028 296.377 244.166C294.856 243.305 293.648 242.044 292.752 240.383C291.857 238.722 291.389 236.72 291.348 234.376C291.307 232.026 291.709 230.009 292.554 228.325C293.398 226.634 294.565 225.331 296.055 224.417C297.545 223.504 299.242 223.03 301.145 222.997C302.359 222.976 303.491 223.127 304.541 223.449C305.591 223.772 306.53 224.257 307.358 224.903C308.186 225.542 308.871 226.333 309.413 227.275C309.962 228.21 310.329 229.284 310.513 230.495ZM321.355 245.085C319.757 245.113 318.366 244.786 317.182 244.103C315.998 243.42 315.072 242.453 314.404 241.2C313.743 239.947 313.398 238.475 313.369 236.785C313.339 235.095 313.633 233.609 314.25 232.327C314.874 231.044 315.766 230.042 316.925 229.318C318.085 228.595 319.464 228.219 321.061 228.192C322.659 228.164 324.05 228.491 325.234 229.174C326.418 229.857 327.34 230.828 328.002 232.088C328.67 233.348 329.019 234.823 329.048 236.513C329.077 238.203 328.78 239.686 328.156 240.961C327.539 242.236 326.65 243.235 325.491 243.959C324.331 244.682 322.953 245.058 321.355 245.085ZM321.323 241.996C322.189 241.981 322.909 241.73 323.483 241.244C324.057 240.751 324.479 240.098 324.749 239.283C325.026 238.469 325.156 237.564 325.139 236.57C325.121 235.569 324.96 234.666 324.655 233.861C324.357 233.05 323.912 232.408 323.321 231.935C322.731 231.462 322.002 231.233 321.136 231.248C320.248 231.264 319.514 231.518 318.933 232.011C318.359 232.504 317.933 233.161 317.657 233.983C317.387 234.798 317.26 235.705 317.278 236.707C317.295 237.701 317.453 238.6 317.751 239.405C318.056 240.209 318.504 240.848 319.095 241.321C319.692 241.786 320.435 242.011 321.323 241.996ZM332.462 244.573L332.178 228.211L335.863 228.147L335.911 230.928L336.103 230.924C336.428 229.981 336.98 229.24 337.759 228.701C338.538 228.154 339.474 227.872 340.567 227.853C341.675 227.833 342.614 228.087 343.383 228.613C344.159 229.133 344.711 229.851 345.04 230.769L345.21 230.766C345.557 229.851 346.155 229.116 347.005 228.561C347.862 227.999 348.883 227.708 350.069 227.687C351.574 227.661 352.811 228.116 353.779 229.051C354.747 229.986 355.247 231.366 355.279 233.191L355.47 244.173L351.603 244.24L351.423 233.855C351.405 232.839 351.122 232.102 350.574 231.642C350.027 231.176 349.362 230.95 348.581 230.963C347.651 230.979 346.928 231.283 346.412 231.874C345.904 232.459 345.658 233.212 345.674 234.136L345.851 244.34L342.07 244.406L341.887 233.86C341.872 233.015 341.604 232.345 341.084 231.85C340.572 231.354 339.907 231.114 339.09 231.128C338.536 231.138 338.034 231.288 337.585 231.58C337.135 231.865 336.78 232.266 336.519 232.782C336.258 233.29 336.133 233.882 336.145 234.557L336.318 244.506L332.462 244.573ZM359.488 250.24L359.097 227.744L362.889 227.678L362.936 230.383L363.16 230.379C363.352 229.978 363.625 229.551 363.98 229.097C364.334 228.636 364.817 228.241 365.429 227.911C366.041 227.573 366.827 227.396 367.785 227.38C369.05 227.358 370.195 227.661 371.222 228.29C372.255 228.911 373.081 229.845 373.7 231.091C374.325 232.331 374.653 233.859 374.685 235.677C374.716 237.474 374.448 239.006 373.88 240.273C373.313 241.54 372.527 242.513 371.523 243.191C370.519 243.869 369.374 244.219 368.089 244.241C367.152 244.258 366.372 244.115 365.748 243.813C365.125 243.511 364.621 243.144 364.237 242.71C363.86 242.269 363.565 241.851 363.353 241.457L363.193 241.46L363.344 250.173L359.488 250.24ZM363.021 235.859C363.039 236.917 363.204 237.841 363.517 238.631C363.836 239.421 364.283 240.035 364.859 240.472C365.442 240.902 366.142 241.111 366.958 241.096C367.81 241.082 368.52 240.842 369.088 240.377C369.655 239.906 370.077 239.27 370.354 238.469C370.639 237.662 370.772 236.747 370.754 235.724C370.736 234.709 370.575 233.809 370.27 233.026C369.965 232.243 369.522 231.633 368.939 231.195C368.356 230.758 367.635 230.547 366.775 230.562C365.952 230.576 365.256 230.805 364.688 231.248C364.121 231.691 363.694 232.306 363.41 233.092C363.132 233.878 363.002 234.8 363.021 235.859ZM385.378 243.973C383.737 244.001 382.315 243.685 381.11 243.024C379.912 242.356 378.982 241.399 378.322 240.153C377.66 238.9 377.315 237.418 377.285 235.707C377.256 234.024 377.55 232.541 378.167 231.259C378.791 229.969 379.676 228.959 380.821 228.229C381.966 227.492 383.319 227.11 384.882 227.083C385.89 227.065 386.844 227.212 387.745 227.523C388.652 227.827 389.456 228.31 390.157 228.973C390.864 229.635 391.426 230.485 391.842 231.522C392.258 232.552 392.478 233.784 392.503 235.218L392.523 236.401L379.113 236.634L379.068 234.035L388.782 233.866C388.762 233.128 388.591 232.473 388.268 231.904C387.946 231.327 387.501 230.876 386.934 230.552C386.375 230.228 385.726 230.073 384.987 230.085C384.199 230.099 383.51 230.303 382.92 230.697C382.33 231.083 381.874 231.589 381.551 232.212C381.234 232.829 381.079 233.503 381.085 234.234L381.124 236.503C381.141 237.454 381.329 238.268 381.689 238.944C382.048 239.612 382.544 240.122 383.175 240.474C383.806 240.818 384.541 240.983 385.379 240.968C385.94 240.958 386.446 240.871 386.898 240.707C387.349 240.536 387.739 240.291 388.068 239.973C388.396 239.655 388.641 239.263 388.804 238.799L392.411 239.141C392.2 240.097 391.782 240.935 391.155 241.656C390.535 242.37 389.735 242.931 388.755 243.339C387.774 243.739 386.649 243.951 385.378 243.973ZM403.795 226.967L403.847 229.949L394.441 230.113L394.389 227.13L403.795 226.967ZM396.643 223.17L400.499 223.103L400.766 238.463C400.775 238.981 400.86 239.378 401.021 239.652C401.189 239.919 401.406 240.1 401.67 240.195C401.935 240.29 402.227 240.334 402.546 240.329C402.788 240.325 403.007 240.303 403.206 240.264C403.411 240.225 403.567 240.19 403.673 240.16L404.375 243.163C404.17 243.238 403.877 243.321 403.495 243.413C403.12 243.505 402.659 243.562 402.113 243.586C401.147 243.631 400.275 243.501 399.495 243.195C398.716 242.881 398.093 242.388 397.626 241.714C397.167 241.04 396.932 240.192 396.921 239.169L396.643 223.17ZM407.304 243.272L407.02 226.911L410.876 226.844L411.16 243.205L407.304 243.272ZM408.918 224.555C408.307 224.566 407.778 224.373 407.331 223.975C406.884 223.571 406.655 223.081 406.645 222.506C406.635 221.924 406.846 221.427 407.28 221.014C407.713 220.595 408.235 220.38 408.845 220.369C409.463 220.358 409.992 220.555 410.433 220.959C410.88 221.357 411.109 221.846 411.119 222.429C411.129 223.004 410.917 223.501 410.484 223.921C410.058 224.333 409.536 224.544 408.918 224.555ZM423.011 226.633L423.063 229.616L413.657 229.779L413.605 226.796L423.011 226.633ZM415.859 222.836L419.715 222.769L419.982 238.129C419.991 238.648 420.076 239.044 420.237 239.318C420.405 239.585 420.621 239.766 420.886 239.861C421.15 239.956 421.442 240 421.762 239.995C422.003 239.991 422.223 239.969 422.421 239.93C422.627 239.891 422.782 239.856 422.888 239.826L423.591 242.829C423.386 242.904 423.093 242.987 422.711 243.079C422.336 243.171 421.875 243.228 421.328 243.252C420.363 243.297 419.491 243.167 418.711 242.861C417.931 242.548 417.308 242.054 416.842 241.38C416.383 240.706 416.148 239.858 416.137 238.835L415.859 222.836ZM433.486 243.137C431.889 243.165 430.498 242.837 429.314 242.154C428.13 241.472 427.204 240.504 426.536 239.251C425.875 237.998 425.529 236.527 425.5 234.837C425.471 233.147 425.765 231.661 426.382 230.378C427.006 229.096 427.898 228.093 429.057 227.37C430.216 226.646 431.595 226.271 433.193 226.243C434.791 226.215 436.181 226.543 437.365 227.225C438.549 227.908 439.472 228.879 440.133 230.139C440.801 231.399 441.15 232.874 441.18 234.564C441.209 236.254 440.912 237.737 440.287 239.012C439.67 240.287 438.782 241.287 437.622 242.01C436.463 242.733 435.084 243.109 433.486 243.137ZM433.454 240.047C434.32 240.032 435.041 239.782 435.615 239.296C436.189 238.803 436.61 238.149 436.88 237.335C437.158 236.52 437.287 235.616 437.27 234.622C437.253 233.62 437.091 232.717 436.786 231.913C436.488 231.101 436.044 230.459 435.453 229.986C434.862 229.514 434.134 229.285 433.267 229.3C432.38 229.315 431.645 229.569 431.064 230.063C430.49 230.556 430.065 231.213 429.788 232.035C429.518 232.849 429.392 233.757 429.409 234.758C429.426 235.752 429.584 236.652 429.882 237.456C430.187 238.261 430.635 238.899 431.226 239.372C431.824 239.838 432.566 240.063 433.454 240.047ZM444.593 242.624L444.309 226.263L448.048 226.198L448.095 228.925L448.266 228.922C448.548 227.972 449.046 227.235 449.762 226.712C450.484 226.181 451.314 225.907 452.251 225.891C452.464 225.887 452.702 225.893 452.965 225.91C453.236 225.92 453.46 225.941 453.638 225.973L453.699 229.52C453.535 229.466 453.275 229.421 452.919 229.384C452.57 229.341 452.233 229.322 451.906 229.327C451.203 229.34 450.574 229.503 450.018 229.818C449.469 230.126 449.04 230.549 448.73 231.087C448.419 231.626 448.27 232.243 448.282 232.939L448.449 242.557L444.593 242.624ZM468.64 242.537C467.603 242.555 466.666 242.386 465.829 242.031C464.999 241.669 464.336 241.127 463.84 240.404C463.352 239.681 463.098 238.783 463.08 237.711C463.064 236.787 463.221 236.021 463.551 235.412C463.882 234.802 464.338 234.311 464.921 233.939C465.505 233.566 466.164 233.281 466.899 233.084C467.641 232.879 468.409 232.727 469.203 232.628C470.16 232.512 470.936 232.41 471.531 232.321C472.126 232.226 472.557 232.09 472.824 231.915C473.098 231.733 473.232 231.457 473.225 231.088L473.224 231.024C473.21 230.222 472.962 229.604 472.478 229.172C471.995 228.74 471.306 228.532 470.411 228.548C469.466 228.564 468.721 228.783 468.174 229.205C467.635 229.626 467.274 230.119 467.092 230.683L463.483 230.234C463.749 229.235 464.204 228.396 464.845 227.717C465.487 227.031 466.277 226.513 467.216 226.163C468.154 225.806 469.195 225.617 470.338 225.598C471.127 225.584 471.913 225.663 472.697 225.834C473.482 226.005 474.201 226.298 474.854 226.712C475.508 227.12 476.036 227.683 476.439 228.4C476.849 229.118 477.064 230.02 477.083 231.106L477.273 242.056L473.566 242.121L473.527 239.873L473.399 239.875C473.173 240.334 472.85 240.766 472.431 241.171C472.019 241.569 471.495 241.894 470.86 242.146C470.232 242.392 469.492 242.522 468.64 242.537ZM469.592 239.686C470.366 239.672 471.035 239.508 471.598 239.193C472.16 238.87 472.59 238.451 472.886 237.934C473.19 237.418 473.336 236.858 473.326 236.254L473.292 234.326C473.173 234.427 472.969 234.523 472.679 234.614C472.397 234.704 472.079 234.784 471.725 234.854C471.371 234.924 471.02 234.987 470.673 235.043C470.326 235.098 470.025 235.146 469.77 235.186C469.196 235.274 468.683 235.411 468.232 235.597C467.781 235.782 467.426 236.037 467.169 236.361C466.912 236.678 466.787 237.085 466.796 237.582C466.808 238.292 467.077 238.824 467.602 239.177C468.126 239.53 468.79 239.7 469.592 239.686ZM484.84 232.335L485.006 241.922L481.15 241.989L480.866 225.628L484.552 225.564L484.6 228.344L484.792 228.34C485.152 227.418 485.739 226.68 486.554 226.126C487.375 225.571 488.397 225.284 489.618 225.263C490.747 225.243 491.735 225.467 492.581 225.936C493.435 226.404 494.1 227.092 494.578 228C495.062 228.908 495.312 230.015 495.328 231.322L495.509 241.739L491.653 241.806L491.482 231.985C491.463 230.892 491.164 230.041 490.586 229.433C490.014 228.825 489.231 228.53 488.237 228.547C487.562 228.559 486.965 228.718 486.444 229.026C485.931 229.326 485.53 229.755 485.241 230.314C484.96 230.873 484.826 231.547 484.84 232.335ZM504.143 241.92C503.106 241.938 502.169 241.769 501.332 241.414C500.501 241.052 499.838 240.51 499.343 239.787C498.854 239.064 498.601 238.166 498.582 237.094C498.566 236.17 498.723 235.404 499.054 234.795C499.384 234.185 499.841 233.694 500.424 233.322C501.007 232.949 501.666 232.664 502.401 232.467C503.144 232.262 503.912 232.11 504.706 232.011C505.663 231.895 506.439 231.793 507.034 231.704C507.629 231.609 508.06 231.474 508.327 231.298C508.601 231.116 508.734 230.84 508.728 230.471L508.727 230.407C508.713 229.605 508.464 228.987 507.981 228.555C507.497 228.123 506.808 227.915 505.913 227.931C504.969 227.947 504.223 228.166 503.677 228.588C503.137 229.009 502.776 229.502 502.594 230.066L498.985 229.617C499.252 228.618 499.706 227.779 500.348 227.101C500.989 226.415 501.779 225.896 502.718 225.546C503.657 225.189 504.698 225 505.841 224.981C506.629 224.967 507.415 225.046 508.2 225.217C508.984 225.388 509.703 225.681 510.357 226.095C511.01 226.503 511.538 227.066 511.942 227.783C512.352 228.501 512.566 229.403 512.585 230.489L512.776 241.439L509.069 241.504L509.03 239.256L508.902 239.258C508.675 239.717 508.353 240.149 507.933 240.554C507.521 240.952 506.998 241.277 506.363 241.529C505.735 241.775 504.995 241.905 504.143 241.92ZM505.095 239.069C505.869 239.055 506.537 238.891 507.1 238.576C507.663 238.254 508.092 237.834 508.389 237.317C508.692 236.801 508.839 236.241 508.828 235.637L508.795 233.709C508.676 233.811 508.471 233.906 508.182 233.997C507.899 234.087 507.581 234.167 507.227 234.237C506.873 234.307 506.523 234.37 506.175 234.426C505.828 234.482 505.527 234.529 505.272 234.569C504.698 234.657 504.186 234.794 503.734 234.98C503.283 235.165 502.929 235.42 502.672 235.744C502.414 236.061 502.29 236.468 502.299 236.965C502.311 237.675 502.579 238.207 503.104 238.56C503.629 238.913 504.292 239.083 505.095 239.069ZM520.13 219.49L520.509 241.305L516.653 241.372L516.274 219.557L520.13 219.49ZM526.977 247.33C526.452 247.339 525.965 247.305 525.516 247.227C525.074 247.157 524.721 247.071 524.456 246.969L525.299 243.949C525.863 244.103 526.365 244.172 526.805 244.158C527.245 244.143 527.63 243.998 527.959 243.722C528.295 243.453 528.575 243.008 528.799 242.386L529.113 241.496L522.89 224.897L526.98 224.826L530.966 237.117L531.136 237.114L534.703 224.692L538.804 224.621L532.572 243.077C532.281 243.949 531.89 244.698 531.396 245.324C530.903 245.958 530.293 246.445 529.568 246.784C528.849 247.13 527.986 247.312 526.977 247.33ZM554.479 228.674L550.97 229.119C550.865 228.766 550.685 228.435 550.431 228.127C550.184 227.819 549.853 227.572 549.438 227.388C549.023 227.203 548.517 227.116 547.92 227.126C547.118 227.14 546.446 227.326 545.905 227.683C545.372 228.041 545.113 228.496 545.13 229.05C545.131 229.526 545.312 229.91 545.672 230.202C546.039 230.494 546.64 230.729 547.474 230.906L550.276 231.454C551.829 231.761 552.989 232.27 553.754 232.981C554.527 233.692 554.927 234.633 554.954 235.805C554.965 236.835 554.679 237.749 554.096 238.548C553.52 239.339 552.711 239.964 551.667 240.423C550.624 240.881 549.421 241.122 548.057 241.146C546.055 241.181 544.435 240.79 543.199 239.973C541.963 239.149 541.215 237.987 540.955 236.485L544.708 236.058C544.892 236.793 545.263 237.344 545.824 237.711C546.384 238.078 547.108 238.254 547.996 238.238C548.912 238.222 549.644 238.021 550.191 237.635C550.746 237.249 551.018 236.779 551.008 236.225C551 235.757 550.812 235.373 550.445 235.074C550.085 234.774 549.527 234.55 548.771 234.399L545.97 233.862C544.395 233.563 543.224 233.033 542.458 232.272C541.692 231.504 541.302 230.523 541.288 229.33C541.264 228.322 541.522 227.443 542.063 226.695C542.611 225.94 543.379 225.351 544.366 224.929C545.36 224.5 546.51 224.274 547.817 224.251C549.734 224.218 551.25 224.6 552.365 225.397C553.487 226.195 554.192 227.287 554.479 228.674ZM558.219 240.65L557.935 224.288L561.79 224.221L562.075 240.583L558.219 240.65ZM559.833 221.933C559.222 221.943 558.693 221.75 558.246 221.353C557.798 220.949 557.57 220.459 557.56 219.884C557.55 219.301 557.761 218.804 558.194 218.392C558.627 217.972 559.149 217.757 559.76 217.747C560.378 217.736 560.907 217.933 561.347 218.337C561.795 218.734 562.023 219.224 562.033 219.806C562.043 220.381 561.832 220.879 561.399 221.298C560.973 221.71 560.451 221.922 559.833 221.933ZM578.762 228.252L575.254 228.697C575.148 228.344 574.968 228.013 574.714 227.705C574.467 227.397 574.136 227.15 573.721 226.966C573.306 226.781 572.8 226.694 572.204 226.704C571.401 226.718 570.73 226.904 570.189 227.261C569.655 227.619 569.397 228.074 569.413 228.628C569.415 229.104 569.595 229.488 569.956 229.78C570.323 230.072 570.924 230.307 571.758 230.484L574.559 231.032C576.113 231.339 577.272 231.848 578.038 232.559C578.81 233.27 579.21 234.211 579.238 235.383C579.248 236.413 578.962 237.327 578.38 238.126C577.804 238.917 576.994 239.542 575.951 240.001C574.907 240.459 573.704 240.7 572.341 240.724C570.338 240.759 568.719 240.368 567.483 239.551C566.247 238.727 565.499 237.565 565.238 236.063L568.992 235.636C569.175 236.371 569.547 236.922 570.107 237.289C570.668 237.656 571.392 237.832 572.279 237.816C573.196 237.8 573.927 237.599 574.475 237.213C575.029 236.827 575.301 236.357 575.292 235.803C575.284 235.335 575.096 234.951 574.728 234.652C574.368 234.352 573.81 234.128 573.055 233.978L570.254 233.44C568.679 233.141 567.508 232.611 566.742 231.85C565.975 231.082 565.585 230.101 565.572 228.908C565.547 227.9 565.805 227.021 566.346 226.273C566.895 225.518 567.662 224.929 568.649 224.507C569.643 224.078 570.794 223.852 572.1 223.829C574.018 223.796 575.534 224.178 576.649 224.975C577.771 225.773 578.475 226.865 578.762 228.252ZM660.648 217.048L661.027 238.863L657.076 238.932L656.696 217.117L660.648 217.048ZM668.826 229.138L668.992 238.725L665.136 238.792L664.852 222.431L668.537 222.366L668.586 225.147L668.778 225.143C669.138 224.221 669.725 223.482 670.54 222.928C671.361 222.374 672.383 222.087 673.604 222.065C674.733 222.046 675.721 222.27 676.567 222.738C677.421 223.207 678.086 223.895 678.564 224.803C679.048 225.711 679.298 226.818 679.314 228.125L679.495 238.542L675.639 238.609L675.468 228.788C675.449 227.695 675.15 226.844 674.572 226.236C674 225.628 673.217 225.333 672.223 225.35C671.548 225.362 670.951 225.521 670.43 225.828C669.917 226.129 669.516 226.558 669.227 227.117C668.946 227.676 668.812 228.35 668.826 229.138ZM691.418 221.969L691.469 224.951L681.798 225.119L681.746 222.137L691.418 221.969ZM684.448 238.456L684.137 220.55C684.118 219.45 684.329 218.53 684.771 217.79C685.22 217.051 685.828 216.493 686.596 216.118C687.363 215.742 688.22 215.546 689.164 215.53C689.832 215.518 690.425 215.561 690.946 215.659C691.466 215.756 691.851 215.845 692.101 215.926L691.386 218.922C691.222 218.875 691.015 218.829 690.766 218.784C690.516 218.731 690.239 218.708 689.933 218.713C689.216 218.725 688.711 218.908 688.419 219.261C688.134 219.607 687.997 220.1 688.008 220.739L688.315 238.389L684.448 238.456ZM701.249 238.484C699.651 238.512 698.26 238.184 697.076 237.501C695.892 236.819 694.966 235.851 694.298 234.598C693.637 233.345 693.292 231.874 693.262 230.184C693.233 228.494 693.527 227.008 694.144 225.725C694.768 224.443 695.66 223.44 696.819 222.717C697.979 221.993 699.357 221.618 700.955 221.59C702.553 221.562 703.944 221.89 705.128 222.572C706.312 223.255 707.234 224.226 707.895 225.486C708.564 226.746 708.913 228.221 708.942 229.911C708.971 231.601 708.674 233.084 708.05 234.359C707.432 235.634 706.544 236.634 705.385 237.357C704.225 238.08 702.847 238.456 701.249 238.484ZM701.216 235.394C702.083 235.379 702.803 235.129 703.377 234.643C703.951 234.15 704.373 233.496 704.643 232.682C704.92 231.867 705.05 230.963 705.032 229.969C705.015 228.967 704.854 228.065 704.549 227.26C704.25 226.448 703.806 225.806 703.215 225.333C702.624 224.861 701.896 224.632 701.03 224.647C700.142 224.662 699.408 224.916 698.827 225.41C698.253 225.903 697.827 226.56 697.55 227.382C697.28 228.196 697.154 229.104 697.171 230.105C697.189 231.099 697.346 231.999 697.645 232.803C697.95 233.608 698.398 234.247 698.988 234.719C699.586 235.185 700.329 235.41 701.216 235.394ZM712.356 237.971L712.071 221.61L715.81 221.545L715.858 224.272L716.028 224.269C716.31 223.319 716.808 222.583 717.524 222.059C718.246 221.528 719.076 221.254 720.014 221.238C720.227 221.234 720.465 221.24 720.728 221.257C720.998 221.267 721.222 221.288 721.4 221.32L721.462 224.867C721.297 224.813 721.037 224.768 720.682 224.731C720.333 224.688 719.995 224.669 719.668 224.674C718.965 224.687 718.336 224.85 717.78 225.165C717.232 225.473 716.802 225.896 716.492 226.434C716.182 226.973 716.032 227.59 716.045 228.286L716.212 237.904L712.356 237.971ZM724.248 237.765L723.964 221.403L727.65 221.339L727.698 224.119L727.89 224.116C728.214 223.173 728.766 222.432 729.545 221.892C730.324 221.346 731.26 221.063 732.354 221.044C733.462 221.025 734.4 221.279 735.17 221.805C735.946 222.325 736.498 223.043 736.827 223.961L736.997 223.958C737.343 223.043 737.941 222.308 738.791 221.753C739.648 221.191 740.67 220.9 741.855 220.879C743.361 220.853 744.598 221.308 745.566 222.243C746.534 223.178 747.034 224.558 747.065 226.383L747.256 237.365L743.39 237.432L743.209 227.046C743.192 226.031 742.909 225.294 742.361 224.834C741.813 224.368 741.149 224.141 740.367 224.155C739.437 224.171 738.714 224.475 738.199 225.066C737.691 225.651 737.444 226.404 737.46 227.327L737.638 237.532L733.856 237.598L733.673 227.052C733.658 226.207 733.391 225.537 732.871 225.042C732.358 224.546 731.693 224.306 730.877 224.32C730.323 224.33 729.821 224.48 729.371 224.772C728.922 225.057 728.567 225.458 728.306 225.973C728.044 226.482 727.92 227.074 727.932 227.749L728.104 237.698L724.248 237.765ZM755.882 237.545C754.845 237.563 753.908 237.395 753.071 237.04C752.241 236.678 751.578 236.135 751.082 235.412C750.594 234.689 750.34 233.791 750.321 232.719C750.305 231.796 750.463 231.03 750.793 230.42C751.123 229.811 751.58 229.32 752.163 228.947C752.746 228.575 753.406 228.29 754.141 228.092C754.883 227.888 755.651 227.736 756.445 227.637C757.402 227.521 758.178 227.418 758.773 227.33C759.368 227.234 759.799 227.099 760.066 226.924C760.34 226.742 760.474 226.466 760.467 226.097L760.466 226.033C760.452 225.23 760.203 224.613 759.72 224.181C759.237 223.749 758.547 223.541 757.653 223.556C756.708 223.573 755.963 223.792 755.416 224.213C754.876 224.635 754.516 225.127 754.334 225.692L750.724 225.243C750.991 224.244 751.445 223.405 752.087 222.726C752.729 222.04 753.519 221.522 754.457 221.172C755.396 220.815 756.437 220.626 757.58 220.606C758.368 220.592 759.155 220.671 759.939 220.842C760.723 221.013 761.442 221.306 762.096 221.721C762.749 222.129 763.278 222.691 763.681 223.409C764.091 224.126 764.306 225.028 764.325 226.115L764.515 237.065L760.808 237.129L760.769 234.882L760.641 234.884C760.415 235.342 760.092 235.774 759.673 236.179C759.261 236.577 758.737 236.902 758.102 237.155C757.474 237.4 756.734 237.53 755.882 237.545ZM756.834 234.694C757.608 234.681 758.277 234.517 758.839 234.201C759.402 233.879 759.832 233.46 760.128 232.943C760.432 232.426 760.578 231.866 760.568 231.262L760.534 229.334C760.415 229.436 760.211 229.532 759.921 229.622C759.639 229.712 759.32 229.792 758.966 229.863C758.612 229.933 758.262 229.996 757.915 230.051C757.568 230.107 757.267 230.155 757.012 230.195C756.438 230.283 755.925 230.42 755.474 230.605C755.022 230.791 754.668 231.045 754.411 231.369C754.154 231.686 754.029 232.094 754.038 232.591C754.05 233.301 754.319 233.832 754.843 234.186C755.368 234.539 756.032 234.708 756.834 234.694ZM776.278 220.494L776.33 223.477L766.924 223.64L766.872 220.658L776.278 220.494ZM769.126 216.698L772.982 216.631L773.249 231.99C773.258 232.509 773.343 232.905 773.504 233.179C773.672 233.446 773.888 233.627 774.153 233.722C774.417 233.817 774.709 233.862 775.029 233.856C775.27 233.852 775.49 233.83 775.688 233.791C775.894 233.752 776.049 233.718 776.155 233.687L776.858 236.69C776.653 236.765 776.36 236.848 775.978 236.94C775.603 237.032 775.142 237.09 774.595 237.113C773.63 237.159 772.758 237.028 771.978 236.722C771.198 236.409 770.575 235.915 770.109 235.241C769.65 234.568 769.415 233.719 769.404 232.697L769.126 216.698ZM779.787 236.799L779.503 220.438L783.359 220.371L783.643 236.732L779.787 236.799ZM781.401 218.082C780.79 218.093 780.261 217.9 779.814 217.503C779.366 217.098 779.138 216.609 779.128 216.034C779.118 215.451 779.329 214.954 779.762 214.542C780.196 214.122 780.717 213.907 781.328 213.896C781.946 213.886 782.475 214.082 782.915 214.487C783.363 214.884 783.591 215.374 783.601 215.956C783.611 216.531 783.4 217.028 782.967 217.448C782.541 217.86 782.019 218.072 781.401 218.082ZM794.75 236.859C793.153 236.887 791.762 236.559 790.578 235.877C789.394 235.194 788.468 234.226 787.8 232.974C787.139 231.721 786.793 230.249 786.764 228.559C786.735 226.869 787.028 225.383 787.645 224.101C788.27 222.818 789.161 221.815 790.321 221.092C791.48 220.369 792.859 219.993 794.457 219.965C796.054 219.938 797.445 220.265 798.629 220.948C799.813 221.63 800.736 222.602 801.397 223.862C802.065 225.122 802.414 226.596 802.443 228.287C802.473 229.977 802.175 231.459 801.551 232.735C800.934 234.01 800.046 235.009 798.886 235.732C797.727 236.456 796.348 236.831 794.75 236.859ZM794.718 233.77C795.584 233.755 796.304 233.504 796.878 233.018C797.452 232.525 797.874 231.871 798.144 231.057C798.421 230.242 798.551 229.338 798.534 228.344C798.517 227.343 798.355 226.44 798.05 225.635C797.752 224.824 797.307 224.181 796.717 223.709C796.126 223.236 795.397 223.007 794.531 223.022C793.643 223.037 792.909 223.292 792.328 223.785C791.754 224.278 791.329 224.935 791.052 225.757C790.782 226.571 790.656 227.479 790.673 228.48C790.69 229.475 790.848 230.374 791.146 231.179C791.451 231.983 791.899 232.622 792.49 233.094C793.088 233.56 793.83 233.785 794.718 233.77ZM809.547 226.693L809.713 236.279L805.857 236.346L805.573 219.985L809.258 219.921L809.307 222.701L809.498 222.698C809.859 221.775 810.446 221.037 811.261 220.483C812.082 219.929 813.104 219.641 814.325 219.62C815.454 219.6 816.442 219.825 817.288 220.293C818.142 220.761 818.807 221.449 819.285 222.357C819.769 223.265 820.019 224.373 820.035 225.679L820.216 236.097L816.36 236.164L816.189 226.343C816.17 225.249 815.871 224.399 815.292 223.791C814.721 223.183 813.938 222.887 812.944 222.904C812.269 222.916 811.672 223.076 811.151 223.383C810.638 223.683 810.237 224.113 809.948 224.672C809.667 225.231 809.533 225.905 809.547 226.693ZM834.548 235.848L830.33 235.921L837.631 213.973L842.509 213.888L850.579 235.569L846.361 235.643L840.233 218.403L840.062 218.406L834.548 235.848ZM834.538 227.292L846.042 227.092L846.097 230.266L834.593 230.466L834.538 227.292ZM853.282 235.522L852.997 219.161L856.736 219.096L856.784 221.823L856.954 221.82C857.236 220.87 857.734 220.134 858.45 219.61C859.172 219.079 860.002 218.805 860.94 218.789C861.153 218.785 861.391 218.792 861.654 218.808C861.924 218.818 862.148 218.839 862.326 218.871L862.388 222.418C862.223 222.364 861.963 222.319 861.608 222.283C861.259 222.239 860.921 222.22 860.594 222.226C859.891 222.238 859.262 222.401 858.706 222.717C858.158 223.024 857.728 223.447 857.418 223.986C857.108 224.524 856.958 225.141 856.971 225.837L857.138 235.455L853.282 235.522ZM871.643 235.523C870.01 235.551 868.601 235.217 867.417 234.52C866.24 233.823 865.324 232.848 864.67 231.595C864.023 230.335 863.685 228.877 863.657 227.223C863.628 225.561 863.922 224.089 864.539 222.807C865.156 221.518 866.04 220.508 867.193 219.777C868.352 219.04 869.73 218.657 871.328 218.629C872.656 218.606 873.836 218.831 874.867 219.303C875.905 219.768 876.737 220.439 877.363 221.316C877.989 222.186 878.355 223.21 878.46 224.387L874.775 224.451C874.612 223.666 874.246 223.015 873.676 222.499C873.112 221.976 872.366 221.723 871.435 221.739C870.647 221.753 869.959 221.978 869.369 222.414C868.78 222.843 868.326 223.455 868.005 224.249C867.693 225.043 867.546 225.99 867.565 227.091C867.584 228.206 867.764 229.162 868.105 229.959C868.445 230.748 868.914 231.354 869.511 231.777C870.115 232.193 870.818 232.394 871.62 232.38C872.188 232.37 872.694 232.255 873.138 232.034C873.589 231.806 873.963 231.483 874.261 231.066C874.559 230.649 874.76 230.145 874.864 229.553L878.549 229.489C878.477 230.648 878.154 231.68 877.58 232.585C877.006 233.483 876.216 234.193 875.209 234.715C874.202 235.23 873.013 235.499 871.643 235.523ZM885.502 225.373L885.668 234.959L881.813 235.026L881.433 213.212L885.204 213.146L885.347 221.38L885.539 221.377C885.906 220.447 886.487 219.709 887.28 219.162C888.08 218.608 889.105 218.321 890.355 218.299C891.491 218.279 892.486 218.5 893.339 218.961C894.192 219.422 894.858 220.107 895.335 221.015C895.82 221.922 896.074 223.037 896.097 224.358L896.278 234.775L892.422 234.842L892.251 225.021C892.232 223.92 891.933 223.07 891.354 222.469C890.783 221.861 889.989 221.566 888.974 221.583C888.292 221.595 887.684 221.755 887.149 222.062C886.622 222.363 886.21 222.793 885.914 223.352C885.626 223.911 885.488 224.585 885.502 225.373ZM900.208 234.707L899.924 218.346L903.78 218.279L904.064 234.64L900.208 234.707ZM901.822 215.99C901.211 216 900.682 215.807 900.235 215.41C899.788 215.006 899.559 214.516 899.549 213.941C899.539 213.359 899.75 212.861 900.184 212.449C900.617 212.029 901.139 211.814 901.749 211.804C902.367 211.793 902.896 211.99 903.337 212.394C903.784 212.791 904.013 213.281 904.023 213.863C904.033 214.438 903.821 214.936 903.388 215.355C902.962 215.768 902.44 215.979 901.822 215.99ZM915.915 218.068L915.967 221.05L906.561 221.214L906.509 218.231L915.915 218.068ZM908.763 214.271L912.619 214.204L912.886 229.564C912.895 230.082 912.98 230.479 913.141 230.753C913.309 231.02 913.526 231.201 913.79 231.296C914.054 231.39 914.347 231.435 914.666 231.43C914.907 231.425 915.127 231.404 915.326 231.365C915.531 231.326 915.687 231.291 915.793 231.261L916.495 234.264C916.29 234.339 915.997 234.422 915.615 234.514C915.24 234.605 914.779 234.663 914.233 234.687C913.267 234.732 912.395 234.602 911.615 234.296C910.836 233.982 910.213 233.489 909.746 232.815C909.287 232.141 909.052 231.293 909.041 230.27L908.763 214.271ZM926.497 234.57C924.857 234.598 923.434 234.282 922.229 233.621C921.031 232.953 920.102 231.996 919.441 230.75C918.78 229.497 918.435 228.015 918.405 226.303C918.376 224.62 918.669 223.138 919.286 221.856C919.91 220.566 920.795 219.556 921.94 218.826C923.085 218.089 924.439 217.707 926.001 217.679C927.009 217.662 927.964 217.809 928.864 218.12C929.772 218.424 930.576 218.907 931.276 219.57C931.984 220.232 932.546 221.082 932.961 222.119C933.377 223.149 933.597 224.381 933.622 225.815L933.643 226.998L920.232 227.231L920.187 224.632L929.902 224.463C929.882 223.724 929.71 223.07 929.388 222.501C929.065 221.924 928.621 221.473 928.054 221.149C927.494 220.825 926.845 220.669 926.107 220.682C925.318 220.696 924.629 220.9 924.039 221.294C923.45 221.68 922.993 222.185 922.67 222.809C922.354 223.425 922.199 224.099 922.204 224.831L922.244 227.1C922.26 228.051 922.448 228.865 922.808 229.541C923.168 230.209 923.663 230.719 924.295 231.07C924.926 231.415 925.66 231.579 926.498 231.565C927.059 231.555 927.566 231.468 928.017 231.304C928.469 231.133 928.859 230.888 929.187 230.57C929.516 230.252 929.761 229.86 929.923 229.396L933.531 229.738C933.32 230.693 932.901 231.532 932.274 232.253C931.655 232.967 930.855 233.528 929.874 233.936C928.894 234.336 927.768 234.548 926.497 234.57ZM944.171 234.263C942.538 234.291 941.129 233.957 939.945 233.26C938.768 232.563 937.852 231.588 937.198 230.335C936.551 229.075 936.214 227.617 936.185 225.963C936.156 224.301 936.45 222.829 937.067 221.547C937.684 220.257 938.568 219.248 939.721 218.517C940.88 217.78 942.258 217.397 943.856 217.369C945.184 217.346 946.364 217.571 947.395 218.043C948.433 218.508 949.265 219.179 949.891 220.056C950.517 220.926 950.883 221.949 950.989 223.127L947.303 223.191C947.14 222.405 946.774 221.754 946.204 221.239C945.64 220.716 944.894 220.462 943.964 220.479C943.175 220.492 942.487 220.717 941.898 221.154C941.308 221.583 940.854 222.195 940.534 222.989C940.221 223.783 940.074 224.73 940.093 225.831C940.112 226.946 940.292 227.901 940.633 228.698C940.973 229.488 941.442 230.094 942.039 230.517C942.643 230.933 943.346 231.134 944.148 231.12C944.717 231.11 945.222 230.994 945.666 230.774C946.117 230.546 946.491 230.223 946.789 229.806C947.088 229.389 947.288 228.884 947.392 228.293L951.077 228.229C951.005 229.388 950.682 230.42 950.108 231.325C949.534 232.223 948.744 232.933 947.737 233.455C946.73 233.969 945.542 234.239 944.171 234.263ZM962.226 217.263L962.278 220.246L952.873 220.409L952.821 217.426L962.226 217.263ZM955.075 213.466L958.931 213.399L959.198 228.759C959.207 229.278 959.292 229.674 959.453 229.948C959.621 230.215 959.837 230.396 960.101 230.491C960.366 230.586 960.658 230.63 960.977 230.625C961.219 230.621 961.439 230.599 961.637 230.56C961.842 230.521 961.998 230.486 962.104 230.456L962.806 233.459C962.601 233.534 962.308 233.617 961.926 233.709C961.551 233.801 961.09 233.858 960.544 233.882C959.579 233.927 958.706 233.797 957.927 233.491C957.147 233.178 956.524 232.684 956.058 232.01C955.598 231.336 955.363 230.488 955.353 229.465L955.075 213.466ZM976.044 226.506L975.879 217.026L979.735 216.959L980.019 233.32L976.281 233.385L976.23 230.477L976.06 230.48C975.706 231.402 975.112 232.162 974.277 232.759C973.45 233.356 972.421 233.665 971.193 233.686C970.121 233.705 969.168 233.484 968.336 233.022C967.511 232.553 966.86 231.865 966.383 230.957C965.905 230.042 965.655 228.931 965.632 227.624L965.451 217.207L969.307 217.14L969.478 226.961C969.496 227.998 969.794 228.817 970.373 229.417C970.952 230.018 971.702 230.311 972.626 230.295C973.194 230.285 973.742 230.137 974.269 229.85C974.797 229.564 975.227 229.145 975.558 228.592C975.896 228.032 976.058 227.337 976.044 226.506ZM983.985 233.251L983.7 216.89L987.439 216.825L987.486 219.552L987.657 219.549C987.939 218.599 988.437 217.862 989.153 217.339C989.875 216.807 990.705 216.534 991.642 216.517C991.856 216.514 992.094 216.52 992.357 216.537C992.627 216.547 992.851 216.567 993.029 216.6L993.091 220.147C992.926 220.093 992.666 220.048 992.311 220.011C991.962 219.968 991.624 219.949 991.297 219.954C990.594 219.967 989.965 220.13 989.409 220.445C988.861 220.753 988.431 221.176 988.121 221.714C987.81 222.253 987.661 222.87 987.673 223.565L987.841 233.184L983.985 233.251ZM1002.45 233.25C1000.81 233.278 999.389 232.962 998.185 232.301C996.987 231.633 996.057 230.676 995.396 229.43C994.735 228.177 994.39 226.695 994.36 224.984C994.331 223.301 994.625 221.818 995.242 220.536C995.866 219.246 996.75 218.236 997.896 217.506C999.041 216.769 1000.39 216.387 1001.96 216.36C1002.96 216.342 1003.92 216.489 1004.82 216.8C1005.73 217.104 1006.53 217.587 1007.23 218.25C1007.94 218.912 1008.5 219.762 1008.92 220.799C1009.33 221.829 1009.55 223.061 1009.58 224.495L1009.6 225.678L996.188 225.911L996.142 223.312L1005.86 223.143C1005.84 222.405 1005.67 221.75 1005.34 221.181C1005.02 220.604 1004.58 220.153 1004.01 219.829C1003.45 219.505 1002.8 219.35 1002.06 219.362C1001.27 219.376 1000.58 219.58 999.995 219.974C999.405 220.36 998.948 220.866 998.625 221.489C998.309 222.106 998.154 222.78 998.16 223.511L998.199 225.78C998.216 226.731 998.404 227.545 998.764 228.221C999.123 228.889 999.619 229.399 1000.25 229.751C1000.88 230.095 1001.62 230.26 1002.45 230.245C1003.01 230.235 1003.52 230.148 1003.97 229.984C1004.42 229.813 1004.81 229.568 1005.14 229.25C1005.47 228.932 1005.72 228.54 1005.88 228.076L1009.49 228.418C1009.28 229.374 1008.86 230.212 1008.23 230.933C1007.61 231.647 1006.81 232.208 1005.83 232.616C1004.85 233.016 1003.72 233.228 1002.45 233.25ZM1087.51 231.452L1080.12 231.581L1079.74 209.766L1087.28 209.635C1089.45 209.597 1091.31 210.001 1092.88 210.848C1094.46 211.687 1095.68 212.912 1096.55 214.524C1097.42 216.136 1097.87 218.074 1097.91 220.339C1097.95 222.612 1097.56 224.572 1096.74 226.22C1095.93 227.868 1094.74 229.142 1093.17 230.043C1091.61 230.944 1089.73 231.414 1087.51 231.452ZM1084.01 228.093L1087.26 228.036C1088.78 228.01 1090.04 227.711 1091.05 227.139C1092.05 226.561 1092.8 225.713 1093.29 224.596C1093.79 223.473 1094.02 222.076 1093.99 220.407C1093.96 218.739 1093.68 217.358 1093.15 216.267C1092.62 215.168 1091.85 214.354 1090.84 213.824C1089.83 213.288 1088.59 213.032 1087.12 213.058L1083.75 213.116L1084.01 228.093ZM1108.93 231.399C1107.29 231.428 1105.87 231.112 1104.66 230.451C1103.46 229.783 1102.54 228.826 1101.87 227.58C1101.21 226.327 1100.87 224.845 1100.84 223.133C1100.81 221.45 1101.1 219.968 1101.72 218.685C1102.34 217.396 1103.23 216.386 1104.37 215.656C1105.52 214.919 1106.87 214.536 1108.43 214.509C1109.44 214.492 1110.4 214.639 1111.3 214.95C1112.21 215.254 1113.01 215.737 1113.71 216.399C1114.42 217.062 1114.98 217.912 1115.39 218.949C1115.81 219.979 1116.03 221.211 1116.06 222.645L1116.08 223.827L1102.67 224.06L1102.62 221.461L1112.33 221.293C1112.32 220.554 1112.14 219.9 1111.82 219.33C1111.5 218.754 1111.05 218.303 1110.49 217.979C1109.93 217.655 1109.28 217.499 1108.54 217.512C1107.75 217.526 1107.06 217.73 1106.47 218.123C1105.88 218.51 1105.43 219.015 1105.1 219.639C1104.79 220.255 1104.63 220.929 1104.64 221.661L1104.68 223.93C1104.69 224.881 1104.88 225.695 1105.24 226.37C1105.6 227.039 1106.1 227.549 1106.73 227.9C1107.36 228.244 1108.09 228.409 1108.93 228.395C1109.49 228.385 1110 228.298 1110.45 228.134C1110.9 227.963 1111.29 227.718 1111.62 227.4C1111.95 227.081 1112.19 226.69 1112.36 226.226L1115.96 226.568C1115.75 227.523 1115.33 228.362 1114.71 229.083C1114.09 229.797 1113.29 230.358 1112.31 230.765C1111.33 231.166 1110.2 231.377 1108.93 231.399ZM1132.18 218.636L1128.68 219.08C1128.57 218.727 1128.39 218.396 1128.14 218.088C1127.89 217.78 1127.56 217.533 1127.14 217.349C1126.73 217.164 1126.22 217.077 1125.63 217.087C1124.82 217.101 1124.15 217.287 1123.61 217.644C1123.08 218.002 1122.82 218.457 1122.84 219.011C1122.84 219.487 1123.02 219.871 1123.38 220.163C1123.75 220.455 1124.35 220.69 1125.18 220.867L1127.98 221.415C1129.54 221.722 1130.69 222.231 1131.46 222.942C1132.23 223.653 1132.63 224.595 1132.66 225.766C1132.67 226.796 1132.38 227.71 1131.8 228.509C1131.23 229.3 1130.42 229.925 1129.37 230.384C1128.33 230.842 1127.13 231.083 1125.76 231.107C1123.76 231.142 1122.14 230.751 1120.91 229.934C1119.67 229.11 1118.92 227.948 1118.66 226.446L1122.41 226.019C1122.6 226.754 1122.97 227.306 1123.53 227.672C1124.09 228.039 1124.81 228.215 1125.7 228.199C1126.62 228.183 1127.35 227.982 1127.9 227.596C1128.45 227.21 1128.72 226.74 1128.71 226.186C1128.71 225.718 1128.52 225.334 1128.15 225.035C1127.79 224.736 1127.23 224.511 1126.48 224.361L1123.68 223.823C1122.1 223.524 1120.93 222.994 1120.16 222.233C1119.4 221.465 1119.01 220.484 1118.99 219.291C1118.97 218.283 1119.23 217.405 1119.77 216.656C1120.32 215.901 1121.08 215.312 1122.07 214.89C1123.07 214.461 1124.22 214.235 1125.52 214.212C1127.44 214.179 1128.96 214.561 1130.07 215.359C1131.19 216.156 1131.9 217.248 1132.18 218.636ZM1135.92 230.611L1135.64 214.25L1139.5 214.183L1139.78 230.544L1135.92 230.611ZM1137.54 211.894C1136.93 211.904 1136.4 211.711 1135.95 211.314C1135.5 210.91 1135.28 210.42 1135.27 209.845C1135.26 209.263 1135.47 208.765 1135.9 208.353C1136.33 207.933 1136.86 207.718 1137.47 207.708C1138.08 207.697 1138.61 207.894 1139.05 208.298C1139.5 208.695 1139.73 209.185 1139.74 209.767C1139.75 210.342 1139.54 210.84 1139.1 211.259C1138.68 211.672 1138.16 211.883 1137.54 211.894ZM1150.97 236.828C1149.59 236.852 1148.4 236.684 1147.4 236.325C1146.39 235.973 1145.59 235.49 1144.97 234.875C1144.36 234.261 1143.93 233.576 1143.68 232.82L1147.14 231.918C1147.3 232.235 1147.53 232.547 1147.84 232.854C1148.14 233.169 1148.55 233.425 1149.05 233.622C1149.57 233.826 1150.21 233.921 1150.99 233.908C1152.08 233.889 1152.98 233.607 1153.69 233.062C1154.4 232.524 1154.74 231.651 1154.72 230.444L1154.67 227.344L1154.47 227.348C1154.28 227.749 1154 228.162 1153.62 228.588C1153.25 229.013 1152.76 229.373 1152.14 229.668C1151.53 229.963 1150.75 230.119 1149.81 230.135C1148.56 230.157 1147.41 229.882 1146.38 229.31C1145.35 228.731 1144.53 227.858 1143.9 226.69C1143.29 225.514 1142.96 224.035 1142.93 222.253C1142.9 220.456 1143.17 218.935 1143.75 217.689C1144.33 216.436 1145.13 215.481 1146.14 214.824C1147.15 214.16 1148.28 213.817 1149.54 213.795C1150.5 213.778 1151.29 213.928 1151.91 214.244C1152.54 214.553 1153.05 214.931 1153.42 215.379C1153.8 215.82 1154.09 216.238 1154.29 216.632L1154.5 216.628L1154.45 213.923L1158.26 213.857L1158.55 230.484C1158.57 231.883 1158.26 233.046 1157.6 233.974C1156.95 234.902 1156.05 235.603 1154.9 236.077C1153.75 236.552 1152.44 236.802 1150.97 236.828ZM1150.84 227.091C1151.65 227.077 1152.35 226.866 1152.91 226.458C1153.48 226.051 1153.91 225.472 1154.19 224.721C1154.48 223.97 1154.61 223.073 1154.59 222.029C1154.58 220.999 1154.41 220.1 1154.1 219.331C1153.8 218.562 1153.35 217.969 1152.77 217.553C1152.19 217.13 1151.49 216.926 1150.66 216.94C1149.8 216.955 1149.09 217.191 1148.52 217.648C1147.95 218.106 1147.53 218.728 1147.25 219.514C1146.97 220.293 1146.84 221.176 1146.86 222.163C1146.88 223.164 1147.04 224.039 1147.34 224.786C1147.66 225.527 1148.1 226.102 1148.68 226.511C1149.27 226.912 1149.99 227.106 1150.84 227.091ZM1166.18 220.495L1166.35 230.082L1162.49 230.149L1162.21 213.788L1165.89 213.724L1165.94 216.504L1166.13 216.501C1166.49 215.578 1167.08 214.84 1167.9 214.286C1168.72 213.732 1169.74 213.444 1170.96 213.423C1172.09 213.403 1173.08 213.627 1173.92 214.096C1174.78 214.564 1175.44 215.252 1175.92 216.16C1176.4 217.068 1176.65 218.175 1176.67 219.482L1176.85 229.9L1173 229.967L1172.82 220.146C1172.81 219.052 1172.51 218.201 1171.93 217.593C1171.36 216.985 1170.57 216.69 1169.58 216.707C1168.9 216.719 1168.31 216.878 1167.79 217.186C1167.27 217.486 1166.87 217.916 1166.58 218.475C1166.3 219.034 1166.17 219.707 1166.18 220.495ZM1199.96 213.675C1199.85 212.747 1199.42 212.03 1198.67 211.524C1197.93 211.018 1196.97 210.776 1195.8 210.796C1194.98 210.81 1194.27 210.947 1193.69 211.206C1193.1 211.465 1192.66 211.81 1192.35 212.241C1192.05 212.673 1191.89 213.162 1191.9 213.709C1191.91 214.163 1192.02 214.556 1192.23 214.886C1192.45 215.216 1192.74 215.495 1193.1 215.723C1193.47 215.944 1193.88 216.129 1194.32 216.277C1194.76 216.426 1195.21 216.55 1195.66 216.648L1197.71 217.124C1198.54 217.301 1199.33 217.547 1200.1 217.86C1200.87 218.174 1201.56 218.574 1202.18 219.06C1202.8 219.547 1203.29 220.138 1203.66 220.835C1204.02 221.532 1204.22 222.353 1204.23 223.297C1204.25 224.575 1203.95 225.707 1203.31 226.691C1202.67 227.668 1201.74 228.441 1200.52 229.009C1199.3 229.57 1197.81 229.866 1196.07 229.896C1194.37 229.925 1192.89 229.688 1191.63 229.185C1190.38 228.681 1189.4 227.931 1188.67 226.934C1187.96 225.938 1187.56 224.716 1187.48 223.269L1191.37 223.201C1191.44 223.96 1191.69 224.588 1192.11 225.085C1192.53 225.582 1193.07 225.949 1193.73 226.186C1194.41 226.423 1195.15 226.534 1195.98 226.52C1196.84 226.505 1197.59 226.364 1198.23 226.097C1198.88 225.823 1199.38 225.452 1199.74 224.984C1200.1 224.509 1200.28 223.959 1200.28 223.334C1200.26 222.766 1200.09 222.3 1199.75 221.937C1199.42 221.566 1198.96 221.261 1198.36 221.023C1197.78 220.778 1197.09 220.562 1196.31 220.377L1193.81 219.781C1192.01 219.351 1190.58 218.676 1189.52 217.757C1188.46 216.83 1187.92 215.586 1187.9 214.023C1187.87 212.738 1188.2 211.607 1188.88 210.629C1189.57 209.651 1190.51 208.885 1191.71 208.331C1192.91 207.771 1194.27 207.477 1195.79 207.451C1197.34 207.424 1198.7 207.67 1199.88 208.189C1201.06 208.702 1201.99 209.428 1202.68 210.368C1203.36 211.301 1203.72 212.381 1203.77 213.609L1199.96 213.675ZM1210.19 235.457C1209.67 235.467 1209.18 235.432 1208.73 235.355C1208.29 235.285 1207.94 235.198 1207.67 235.096L1208.52 232.077C1209.08 232.231 1209.58 232.3 1210.02 232.285C1210.46 232.271 1210.85 232.125 1211.18 231.85C1211.51 231.581 1211.79 231.136 1212.02 230.514L1212.33 229.624L1206.11 213.025L1210.2 212.954L1214.18 225.245L1214.35 225.242L1217.92 212.82L1222.02 212.749L1215.79 231.205C1215.5 232.076 1215.11 232.826 1214.61 233.452C1214.12 234.086 1213.51 234.572 1212.78 234.912C1212.07 235.258 1211.2 235.44 1210.19 235.457ZM1237.7 216.802L1234.19 217.247C1234.08 216.893 1233.9 216.563 1233.65 216.254C1233.4 215.946 1233.07 215.7 1232.65 215.515C1232.24 215.331 1231.73 215.244 1231.14 215.254C1230.33 215.268 1229.66 215.454 1229.12 215.811C1228.59 216.168 1228.33 216.624 1228.35 217.178C1228.35 217.654 1228.53 218.038 1228.89 218.33C1229.26 218.622 1229.86 218.856 1230.69 219.034L1233.49 219.582C1235.05 219.888 1236.21 220.397 1236.97 221.109C1237.74 221.82 1238.14 222.761 1238.17 223.933C1238.18 224.962 1237.9 225.877 1237.31 226.675C1236.74 227.467 1235.93 228.092 1234.88 228.55C1233.84 229.009 1232.64 229.25 1231.27 229.274C1229.27 229.308 1227.65 228.917 1226.42 228.101C1225.18 227.277 1224.43 226.114 1224.17 224.613L1227.93 224.185C1228.11 224.921 1228.48 225.472 1229.04 225.839C1229.6 226.206 1230.33 226.381 1231.21 226.366C1232.13 226.35 1232.86 226.149 1233.41 225.763C1233.96 225.377 1234.24 224.907 1234.23 224.353C1234.22 223.884 1234.03 223.5 1233.66 223.201C1233.3 222.902 1232.74 222.677 1231.99 222.527L1229.19 221.99C1227.61 221.69 1226.44 221.16 1225.68 220.399C1224.91 219.631 1224.52 218.651 1224.51 217.458C1224.48 216.449 1224.74 215.571 1225.28 214.823C1225.83 214.068 1226.6 213.479 1227.58 213.057C1228.58 212.628 1229.73 212.402 1231.03 212.379C1232.95 212.346 1234.47 212.728 1235.58 213.525C1236.7 214.322 1237.41 215.415 1237.7 216.802ZM1249.32 212.274L1249.37 215.257L1239.97 215.42L1239.92 212.438L1249.32 212.274ZM1242.17 208.477L1246.03 208.41L1246.29 223.77C1246.3 224.289 1246.39 224.685 1246.55 224.959C1246.72 225.226 1246.93 225.407 1247.2 225.502C1247.46 225.597 1247.75 225.641 1248.07 225.636C1248.31 225.632 1248.53 225.61 1248.73 225.571C1248.94 225.532 1249.09 225.497 1249.2 225.467L1249.9 228.47C1249.7 228.545 1249.4 228.628 1249.02 228.72C1248.65 228.812 1248.19 228.87 1247.64 228.893C1246.67 228.938 1245.8 228.808 1245.02 228.502C1244.24 228.189 1243.62 227.695 1243.15 227.021C1242.69 226.347 1242.46 225.499 1242.45 224.476L1242.17 208.477ZM1259.9 228.776C1258.26 228.805 1256.84 228.488 1255.64 227.827C1254.44 227.159 1253.51 226.202 1252.85 224.956C1252.19 223.703 1251.84 222.221 1251.81 220.51C1251.78 218.827 1252.08 217.344 1252.69 216.062C1253.32 214.773 1254.2 213.763 1255.35 213.032C1256.49 212.295 1257.85 211.913 1259.41 211.886C1260.42 211.868 1261.37 212.015 1262.27 212.326C1263.18 212.63 1263.98 213.113 1264.68 213.776C1265.39 214.438 1265.95 215.288 1266.37 216.325C1266.78 217.355 1267 218.587 1267.03 220.022L1267.05 221.204L1253.64 221.437L1253.59 218.838L1263.31 218.669C1263.29 217.931 1263.12 217.277 1262.79 216.707C1262.47 216.13 1262.03 215.68 1261.46 215.356C1260.9 215.031 1260.25 214.876 1259.51 214.889C1258.73 214.902 1258.04 215.106 1257.45 215.5C1256.86 215.887 1256.4 216.392 1256.08 217.015C1255.76 217.632 1255.61 218.306 1255.61 219.037L1255.65 221.306C1255.67 222.258 1255.86 223.071 1256.21 223.747C1256.57 224.416 1257.07 224.926 1257.7 225.277C1258.33 225.621 1259.07 225.786 1259.9 225.771C1260.47 225.762 1260.97 225.675 1261.42 225.51C1261.88 225.339 1262.27 225.095 1262.59 224.776C1262.92 224.458 1263.17 224.067 1263.33 223.602L1266.94 223.944C1266.73 224.9 1266.31 225.738 1265.68 226.459C1265.06 227.173 1264.26 227.734 1263.28 228.142C1262.3 228.543 1261.17 228.754 1259.9 228.776ZM1270.44 228.273L1270.15 211.912L1273.84 211.848L1273.89 214.628L1274.08 214.625C1274.4 213.682 1274.95 212.94 1275.73 212.401C1276.51 211.855 1277.45 211.572 1278.54 211.553C1279.65 211.534 1280.59 211.788 1281.36 212.314C1282.13 212.833 1282.69 213.552 1283.01 214.47L1283.18 214.467C1283.53 213.551 1284.13 212.816 1284.98 212.262C1285.84 211.7 1286.86 211.409 1288.04 211.388C1289.55 211.362 1290.78 211.816 1291.75 212.751C1292.72 213.686 1293.22 215.067 1293.25 216.892L1293.44 227.874L1289.58 227.941L1289.4 217.555C1289.38 216.54 1289.1 215.802 1288.55 215.343C1288 214.877 1287.34 214.65 1286.55 214.664C1285.62 214.68 1284.9 214.984 1284.39 215.575C1283.88 216.159 1283.63 216.913 1283.65 217.836L1283.82 228.041L1280.04 228.106L1279.86 217.561C1279.85 216.716 1279.58 216.046 1279.06 215.551C1278.55 215.055 1277.88 214.815 1277.06 214.829C1276.51 214.838 1276.01 214.989 1275.56 215.281C1275.11 215.566 1274.75 215.966 1274.49 216.482C1274.23 216.991 1274.11 217.583 1274.12 218.258L1274.29 228.206L1270.44 228.273ZM1379.32 226.381L1371.93 226.51L1371.55 204.695L1379.09 204.564C1381.26 204.526 1383.12 204.931 1384.7 205.777C1386.27 206.616 1387.49 207.842 1388.36 209.453C1389.23 211.065 1389.68 213.003 1389.72 215.268C1389.76 217.541 1389.37 219.501 1388.55 221.149C1387.74 222.797 1386.55 224.071 1384.99 224.972C1383.42 225.873 1381.54 226.343 1379.32 226.381ZM1375.82 223.022L1379.07 222.965C1380.59 222.939 1381.85 222.64 1382.86 222.068C1383.86 221.49 1384.61 220.642 1385.1 219.525C1385.6 218.402 1385.83 217.005 1385.8 215.337C1385.77 213.668 1385.49 212.288 1384.96 211.196C1384.43 210.097 1383.66 209.283 1382.65 208.753C1381.64 208.217 1380.4 207.961 1378.93 207.987L1375.56 208.045L1375.82 223.022ZM1400.74 226.329C1399.1 226.357 1397.68 226.041 1396.47 225.38C1395.28 224.712 1394.35 223.755 1393.69 222.509C1393.02 221.256 1392.68 219.774 1392.65 218.062C1392.62 216.379 1392.91 214.897 1393.53 213.615C1394.16 212.325 1395.04 211.315 1396.19 210.585C1397.33 209.848 1398.68 209.466 1400.25 209.438C1401.25 209.421 1402.21 209.568 1403.11 209.879C1404.02 210.183 1404.82 210.666 1405.52 211.329C1406.23 211.991 1406.79 212.841 1407.21 213.878C1407.62 214.908 1407.84 216.14 1407.87 217.574L1407.89 218.757L1394.48 218.99L1394.43 216.391L1404.15 216.222C1404.13 215.483 1403.96 214.829 1403.63 214.26C1403.31 213.683 1402.87 213.232 1402.3 212.908C1401.74 212.584 1401.09 212.428 1400.35 212.441C1399.56 212.455 1398.87 212.659 1398.28 213.053C1397.69 213.439 1397.24 213.944 1396.91 214.568C1396.6 215.184 1396.44 215.858 1396.45 216.59L1396.49 218.859C1396.51 219.81 1396.69 220.624 1397.05 221.3C1397.41 221.968 1397.91 222.478 1398.54 222.829C1399.17 223.174 1399.91 223.338 1400.74 223.324C1401.3 223.314 1401.81 223.227 1402.26 223.063C1402.71 222.892 1403.1 222.647 1403.43 222.329C1403.76 222.011 1404.01 221.619 1404.17 221.155L1407.78 221.497C1407.56 222.452 1407.15 223.291 1406.52 224.012C1405.9 224.726 1405.1 225.287 1404.12 225.695C1403.14 226.095 1402.01 226.307 1400.74 226.329ZM1424 213.565L1420.49 214.009C1420.38 213.656 1420.2 213.325 1419.95 213.017C1419.7 212.709 1419.37 212.462 1418.95 212.278C1418.54 212.093 1418.03 212.006 1417.44 212.017C1416.63 212.03 1415.96 212.216 1415.42 212.574C1414.89 212.931 1414.63 213.387 1414.65 213.94C1414.65 214.416 1414.83 214.8 1415.19 215.092C1415.56 215.384 1416.16 215.619 1416.99 215.796L1419.79 216.344C1421.35 216.651 1422.51 217.16 1423.27 217.871C1424.04 218.582 1424.44 219.524 1424.47 220.695C1424.48 221.725 1424.2 222.639 1423.61 223.438C1423.04 224.229 1422.23 224.854 1421.18 225.313C1420.14 225.771 1418.94 226.012 1417.57 226.036C1415.57 226.071 1413.95 225.68 1412.72 224.863C1411.48 224.039 1410.73 222.877 1410.47 221.375L1414.23 220.948C1414.41 221.684 1414.78 222.235 1415.34 222.601C1415.9 222.968 1416.63 223.144 1417.51 223.128C1418.43 223.112 1419.16 222.912 1419.71 222.526C1420.26 222.139 1420.54 221.669 1420.53 221.116C1420.52 220.647 1420.33 220.263 1419.96 219.964C1419.6 219.665 1419.04 219.44 1418.29 219.29L1415.49 218.752C1413.91 218.453 1412.74 217.923 1411.98 217.162C1411.21 216.394 1410.82 215.413 1410.81 214.22C1410.78 213.212 1411.04 212.334 1411.58 211.586C1412.13 210.83 1412.9 210.241 1413.88 209.819C1414.88 209.39 1416.03 209.164 1417.33 209.141C1419.25 209.108 1420.77 209.49 1421.88 210.288C1423 211.085 1423.71 212.177 1424 213.565ZM1427.74 225.54L1427.45 209.179L1431.31 209.112L1431.59 225.473L1427.74 225.54ZM1429.35 206.823C1428.74 206.834 1428.21 206.64 1427.76 206.243C1427.32 205.839 1427.09 205.349 1427.08 204.774C1427.07 204.192 1427.28 203.694 1427.71 203.282C1428.14 202.862 1428.67 202.647 1429.28 202.637C1429.9 202.626 1430.42 202.823 1430.86 203.227C1431.31 203.624 1431.54 204.114 1431.55 204.696C1431.56 205.272 1431.35 205.769 1430.92 206.188C1430.49 206.601 1429.97 206.812 1429.35 206.823ZM1442.79 231.757C1441.4 231.781 1440.21 231.613 1439.21 231.254C1438.21 230.902 1437.4 230.419 1436.78 229.805C1436.17 229.19 1435.74 228.505 1435.49 227.749L1438.95 226.847C1439.11 227.164 1439.34 227.476 1439.65 227.784C1439.95 228.098 1440.36 228.354 1440.86 228.551C1441.38 228.755 1442.02 228.85 1442.8 228.837C1443.89 228.818 1444.79 228.536 1445.5 227.991C1446.21 227.453 1446.55 226.58 1446.53 225.373L1446.48 222.273L1446.29 222.277C1446.09 222.678 1445.81 223.091 1445.43 223.517C1445.06 223.942 1444.57 224.303 1443.95 224.598C1443.34 224.892 1442.56 225.048 1441.62 225.064C1440.37 225.086 1439.22 224.811 1438.19 224.239C1437.16 223.661 1436.34 222.787 1435.72 221.619C1435.1 220.443 1434.77 218.964 1434.74 217.182C1434.71 215.385 1434.98 213.864 1435.56 212.618C1436.14 211.365 1436.94 210.41 1437.95 209.753C1438.96 209.089 1440.09 208.746 1441.35 208.724C1442.31 208.707 1443.1 208.857 1443.72 209.173C1444.35 209.482 1444.86 209.86 1445.24 210.308C1445.61 210.749 1445.9 211.167 1446.1 211.561L1446.31 211.557L1446.27 208.852L1450.07 208.786L1450.36 225.413C1450.38 226.812 1450.07 227.975 1449.42 228.903C1448.76 229.831 1447.86 230.532 1446.71 231.006C1445.56 231.481 1444.25 231.731 1442.79 231.757ZM1442.65 222.02C1443.46 222.006 1444.16 221.795 1444.73 221.388C1445.29 220.98 1445.72 220.401 1446.01 219.65C1446.29 218.899 1446.42 218.002 1446.41 216.958C1446.39 215.928 1446.22 215.029 1445.91 214.26C1445.61 213.491 1445.16 212.899 1444.58 212.482C1444.01 212.059 1443.3 211.855 1442.47 211.869C1441.61 211.884 1440.9 212.12 1440.33 212.578C1439.76 213.035 1439.34 213.657 1439.06 214.443C1438.79 215.222 1438.66 216.105 1438.67 217.092C1438.69 218.093 1438.85 218.968 1439.16 219.716C1439.47 220.456 1439.91 221.031 1440.5 221.44C1441.09 221.842 1441.8 222.035 1442.65 222.02ZM1457.99 215.425L1458.16 225.011L1454.3 225.078L1454.02 208.717L1457.71 208.653L1457.75 211.433L1457.95 211.43C1458.31 210.507 1458.89 209.769 1459.71 209.215C1460.53 208.661 1461.55 208.373 1462.77 208.352C1463.9 208.332 1464.89 208.557 1465.74 209.025C1466.59 209.493 1467.25 210.181 1467.73 211.089C1468.22 211.997 1468.47 213.105 1468.48 214.411L1468.66 224.829L1464.81 224.896L1464.64 215.075C1464.62 213.981 1464.32 213.13 1463.74 212.522C1463.17 211.914 1462.38 211.619 1461.39 211.636C1460.72 211.648 1460.12 211.808 1459.6 212.115C1459.08 212.415 1458.68 212.845 1458.4 213.404C1458.11 213.963 1457.98 214.636 1457.99 215.425ZM1478.91 206.143L1478.86 202.83L1496.26 202.528L1496.32 205.84L1489.58 205.958L1489.9 224.46L1485.98 224.528L1485.66 206.026L1478.91 206.143ZM1503.51 214.634L1503.68 224.22L1499.82 224.287L1499.45 202.472L1503.22 202.407L1503.36 210.641L1503.55 210.637C1503.92 209.707 1504.5 208.969 1505.29 208.423C1506.09 207.869 1507.12 207.581 1508.37 207.56C1509.5 207.54 1510.5 207.761 1511.35 208.222C1512.2 208.683 1512.87 209.367 1513.35 210.275C1513.83 211.183 1514.09 212.298 1514.11 213.618L1514.29 224.036L1510.43 224.103L1510.26 214.282C1510.24 213.181 1509.95 212.33 1509.37 211.73C1508.79 211.122 1508 210.826 1506.99 210.844C1506.3 210.856 1505.7 211.016 1505.16 211.323C1504.63 211.624 1504.22 212.053 1503.93 212.613C1503.64 213.172 1503.5 213.845 1503.51 214.634ZM1518.22 223.968L1517.94 207.606L1521.79 207.539L1522.08 223.901L1518.22 223.968ZM1519.83 205.251C1519.22 205.261 1518.69 205.068 1518.25 204.671C1517.8 204.267 1517.57 203.777 1517.56 203.202C1517.55 202.619 1517.76 202.122 1518.2 201.71C1518.63 201.29 1519.15 201.075 1519.76 201.064C1520.38 201.054 1520.91 201.251 1521.35 201.655C1521.8 202.052 1522.02 202.542 1522.03 203.124C1522.04 203.699 1521.83 204.197 1521.4 204.616C1520.97 205.028 1520.45 205.24 1519.83 205.251ZM1529.73 214.178L1529.9 223.765L1526.04 223.832L1525.76 207.47L1529.44 207.406L1529.49 210.187L1529.68 210.183C1530.04 209.261 1530.63 208.522 1531.44 207.968C1532.27 207.414 1533.29 207.127 1534.51 207.105C1535.64 207.086 1536.63 207.31 1537.47 207.778C1538.33 208.247 1538.99 208.935 1539.47 209.843C1539.95 210.751 1540.2 211.858 1540.22 213.165L1540.4 223.582L1536.54 223.649L1536.37 213.828C1536.35 212.735 1536.06 211.884 1535.48 211.276C1534.91 210.668 1534.12 210.372 1533.13 210.39C1532.45 210.401 1531.86 210.561 1531.34 210.868C1530.82 211.169 1530.42 211.598 1530.13 212.157C1529.85 212.716 1529.72 213.39 1529.73 214.178ZM1547.75 218.319L1547.65 213.664L1548.27 213.653L1554.04 206.979L1558.54 206.901L1551.45 215.079L1550.65 215.093L1547.75 218.319ZM1544.32 223.514L1543.94 201.699L1547.8 201.632L1548.18 223.447L1544.32 223.514ZM1554.59 223.336L1549.13 215.983L1551.68 213.221L1559.2 223.255L1554.59 223.336ZM1561.4 223.217L1561.11 206.856L1564.97 206.789L1565.25 223.15L1561.4 223.217ZM1563.01 204.5C1562.4 204.511 1561.87 204.318 1561.42 203.921C1560.98 203.516 1560.75 203.027 1560.74 202.451C1560.73 201.869 1560.94 201.372 1561.37 200.959C1561.81 200.54 1562.33 200.325 1562.94 200.314C1563.56 200.303 1564.09 200.5 1564.53 200.905C1564.97 201.302 1565.2 201.791 1565.21 202.374C1565.22 202.949 1565.01 203.446 1564.58 203.866C1564.15 204.278 1563.63 204.49 1563.01 204.5ZM1572.91 213.428L1573.07 223.014L1569.22 223.081L1568.93 206.72L1572.62 206.656L1572.67 209.436L1572.86 209.433C1573.22 208.51 1573.81 207.772 1574.62 207.218C1575.44 206.664 1576.46 206.376 1577.69 206.355C1578.82 206.335 1579.8 206.56 1580.65 207.028C1581.5 207.496 1582.17 208.184 1582.65 209.092C1583.13 210 1583.38 211.108 1583.4 212.414L1583.58 222.832L1579.72 222.899L1579.55 213.078C1579.53 211.984 1579.23 211.134 1578.65 210.526C1578.08 209.918 1577.3 209.622 1576.3 209.639C1575.63 209.651 1575.03 209.811 1574.51 210.118C1574 210.418 1573.6 210.848 1573.31 211.407C1573.03 211.966 1572.89 212.639 1572.91 213.428ZM1594.72 229.116C1593.34 229.14 1592.15 228.973 1591.15 228.614C1590.15 228.262 1589.34 227.779 1588.72 227.164C1588.11 226.55 1587.68 225.865 1587.43 225.109L1590.89 224.207C1591.05 224.524 1591.28 224.836 1591.59 225.143C1591.89 225.458 1592.3 225.713 1592.8 225.911C1593.32 226.115 1593.96 226.21 1594.74 226.197C1595.83 226.178 1596.73 225.896 1597.44 225.351C1598.15 224.813 1598.49 223.94 1598.47 222.733L1598.42 219.633L1598.23 219.637C1598.03 220.038 1597.75 220.451 1597.37 220.877C1597 221.302 1596.51 221.662 1595.89 221.957C1595.28 222.252 1594.5 222.408 1593.56 222.424C1592.31 222.446 1591.16 222.171 1590.13 221.599C1589.1 221.02 1588.28 220.147 1587.66 218.978C1587.04 217.803 1586.71 216.324 1586.68 214.542C1586.65 212.745 1586.92 211.224 1587.5 209.978C1588.08 208.724 1588.88 207.769 1589.89 207.113C1590.9 206.449 1592.03 206.106 1593.29 206.084C1594.25 206.067 1595.04 206.217 1595.66 206.533C1596.29 206.841 1596.8 207.22 1597.18 207.668C1597.55 208.109 1597.84 208.526 1598.04 208.921L1598.25 208.917L1598.21 206.212L1602.01 206.145L1602.3 222.773C1602.32 224.172 1602.01 225.335 1601.36 226.263C1600.7 227.19 1599.8 227.892 1598.65 228.366C1597.5 228.841 1596.19 229.091 1594.72 229.116ZM1594.59 219.38C1595.4 219.366 1596.1 219.155 1596.67 218.747C1597.23 218.34 1597.66 217.76 1597.95 217.01C1598.23 216.259 1598.36 215.361 1598.35 214.318C1598.33 213.288 1598.16 212.389 1597.85 211.62C1597.55 210.851 1597.1 210.258 1596.52 209.842C1595.95 209.419 1595.24 209.214 1594.41 209.229C1593.55 209.244 1592.84 209.48 1592.27 209.937C1591.7 210.395 1591.28 211.017 1591 211.803C1590.73 212.582 1590.6 213.465 1590.61 214.452C1590.63 215.453 1590.79 216.328 1591.1 217.075C1591.41 217.816 1591.85 218.39 1592.44 218.799C1593.03 219.201 1593.74 219.395 1594.59 219.38Z"/>
</svg>