<svg width="420" height="445" viewBox="0 0 420 445" fill="none" xmlns="http://www.w3.org/2000/svg">
<g clip-path="url(#clip0_173_447)">
<path d="M289.576 167.191C293.347 173.955 331.264 233.08 323.331 290.899L282.075 275.879L263.219 197.937L289.576 167.191Z" fill="#B1ABAB"/>
<path d="M124.819 142.96C124.819 142.96 150.167 97.1946 211.886 109.85C273.584 122.505 307.278 211.422 290.524 387.534C290.524 387.534 192.494 348.303 65.0166 379.92C65.0166 379.92 85.995 209.368 124.819 142.96Z" fill="#454949"/>
<path d="M77.752 124.476L121.131 168.063C121.131 168.063 232.328 198.31 263.219 197.937C294.109 197.584 306.268 174.847 306.268 174.847C306.268 174.847 280.199 133.293 227.465 114.497C222.519 112.733 217.326 111.157 211.906 109.85C202.798 107.651 193.545 106.385 184.354 105.825C129.744 102.547 77.7726 124.455 77.7726 124.455L77.752 124.476Z" fill="#454949"/>
<path d="M77.7514 124.475C70.8273 132.068 81.502 140.346 93.4955 152.379C105.468 164.411 117.853 171.444 121.13 168.063C124.407 164.681 117.38 152.192 105.386 140.159C93.4131 128.127 80.925 120.99 77.7514 124.475Z" fill="#131F2D"/>
<path d="M115.36 168.229C115.36 168.229 115.999 159.515 105.139 148.416C98.5855 141.715 90.3013 137.338 84.7373 134.932C81.4401 133.5 77.6071 135.118 76.3088 138.521L72.8262 147.545L89.0236 158.042L115.36 168.249V168.229Z" fill="#B1ABAB"/>
<path d="M191.999 329.694C191.999 329.694 58.195 256.689 10.2209 336.333C-25.2857 395.293 28.0875 450.187 226.042 444.606C226.042 444.606 245.599 435.374 240.839 387.534C238.943 368.572 191.978 329.694 191.978 329.694H191.999Z" fill="#454949"/>
<path d="M191.999 329.694C191.999 329.694 370.212 256.192 405.471 302.144C446.006 354.942 407.141 444.606 219.283 412.553L196.388 387.534L191.999 329.694Z" fill="#454949"/>
<path d="M226.27 444.917L225.837 444.295C246.63 429.358 241.025 391.019 240.53 387.804L105.448 338.304L105.696 337.598L241.189 387.243L241.231 387.451C241.313 387.866 248.258 429.109 226.29 444.896L226.27 444.917Z" fill="#020202"/>
<path d="M241.993 400.687C241.993 400.687 274.841 402.035 290.256 409.649C305.691 417.263 297.448 435.851 266.124 435.353C234.801 434.855 237.171 430.167 237.171 430.167C237.171 430.167 243.126 413.84 241.993 400.687Z" fill="#F3F3F3"/>
<path d="M199.954 333.2C210.835 333.2 219.758 330.441 227.012 324.923C240.695 314.529 243.23 297.974 241.251 286.937L228.166 279.282C227.506 275.672 202.262 289.094 202.303 289.094C202.18 289.136 190.248 292.621 148.848 271.315C120.018 256.482 105.49 235.446 104.439 206.982C103.635 185.531 113.135 173.477 115.381 168.249C115.67 167.544 101.45 153.188 101.863 151.736L91.188 146.28C91.5383 145.056 80.9255 140.844 81.0903 140.491L72.868 147.545C68.8083 157.005 60.1738 178.726 61.2866 208.642C62.4406 239.719 75.1966 282.622 129.353 310.504C158.883 325.69 182.067 333.221 199.995 333.221L199.954 333.2Z" fill="#B1ABAB"/>
<path d="M208.733 334.943H324.217C326.628 334.943 328.771 333.387 329.554 331.105L353.562 258.951C354.778 255.32 352.057 251.565 348.225 251.565H237.171C232.102 251.565 227.609 254.802 226.022 259.615L203.416 327.557C202.2 331.188 204.92 334.943 208.753 334.943H208.733Z" fill="#131F2D"/>
<path d="M215.987 334.943H331.471C333.882 334.943 336.025 333.387 336.808 331.105L360.816 258.951C362.032 255.32 359.311 251.565 355.478 251.565H244.425C239.356 251.565 234.863 254.802 233.276 259.615L210.67 327.557C209.454 331.188 212.174 334.943 215.987 334.943Z" fill="#131F2D"/>
<path d="M296.891 290.899C296.891 288.161 293.759 287.041 291.018 287.041C288.277 287.041 283.806 290.049 283.826 293.887C283.847 298.036 287.082 298.575 289.802 298.575C292.523 298.575 296.871 294.385 296.871 290.899H296.891Z" fill="#DAEBE8"/>
<path d="M173.535 324.757H331.533V334.943H170.238C168.363 334.943 166.817 333.408 166.817 331.499C166.817 327.765 169.826 324.736 173.535 324.736V324.757Z" fill="#131F2D"/>
<path d="M224.188 288.036L223.467 287.85C223.693 286.958 229.216 266.149 232.926 259.428C236.697 252.602 241.313 251.254 241.498 251.212L241.704 251.939C241.704 251.939 237.191 253.266 233.585 259.801C229.917 266.44 224.25 287.829 224.188 288.057V288.036Z" fill="#131F2D"/>
<path d="M207.126 325.13V324.383C210.918 324.383 211.845 322.807 211.866 322.786L220.83 295.795L221.551 296.044L212.546 323.097C212.484 323.242 211.412 325.151 207.126 325.151V325.13Z" fill="#131F2D"/>
<path d="M96.1334 270.651C95.7212 270.651 95.2885 270.589 94.8557 270.465C92.3622 269.801 89.642 267.291 87.7255 263.93C84.7993 258.785 84.7169 253.453 87.5401 251.793C88.4262 251.275 89.5184 251.171 90.693 251.482C93.1865 252.146 95.9067 254.656 97.8232 258.017C100.749 263.162 100.832 268.494 98.0087 270.153C97.4523 270.485 96.834 270.631 96.154 270.631L96.1334 270.651ZM89.0238 263.183C90.7136 266.17 93.1659 268.452 95.2473 269.012C96.0509 269.22 96.7104 269.178 97.2462 268.867C99.2863 267.664 98.9566 263.058 96.5249 258.785C94.8351 255.797 92.3828 253.515 90.3015 252.955C89.5184 252.748 88.8383 252.789 88.3025 253.1C86.2624 254.304 86.5921 258.909 89.0238 263.183Z" fill="#B1ABAB"/>
<path d="M183.365 105.721C190.949 105.493 196.698 104.705 201.067 99.539L214.565 83.5439L218.501 78.8968L241.622 51.5122L229.485 83.5232L222.19 102.734L219.882 108.812C218.315 112.941 220.376 114.87 221.839 119.704C222.437 121.654 226.414 133.708 216.028 133.77C203.107 133.874 186.745 118.729 183.159 105.659C183.221 105.659 183.283 105.701 183.365 105.701V105.721Z" fill="#B1ABAB"/>
<path d="M214.709 83.0045C214.668 83.1912 214.627 83.3779 214.585 83.5646C212.216 94.3732 222.107 102.796 222.107 102.796L222.19 102.755L229.485 83.5439C226.394 81.1996 221.819 78.3781 218.501 78.8968C216.77 79.1665 215.369 80.349 214.689 83.0045H214.709Z" fill="#131F2D"/>
<path d="M268.598 69.6234C274.347 50.3711 266.269 30.8492 250.566 26.0154C234.863 21.1816 217.471 32.8616 211.742 52.093C205.992 71.3453 214.07 90.8672 229.773 95.701C245.476 100.535 262.869 88.8548 268.598 69.6234Z" fill="#B1ABAB"/>
<path d="M210.752 54.4581C212.71 57.487 216.46 58.5243 219.119 56.7401C221.798 54.956 222.375 51.0557 220.417 48.0268C218.459 44.9979 214.709 43.9606 212.05 45.7448C209.371 47.5289 208.794 51.4292 210.752 54.4581Z" fill="#FF7955"/>
<path d="M245.867 61.8022C246.052 61.7815 246.217 61.6777 246.32 61.491C246.485 61.2006 246.382 60.8271 246.094 60.6612C245.929 60.5574 242.158 57.9435 238.139 61.408C237.892 61.6362 237.851 62.0097 238.057 62.2794C238.263 62.5491 238.613 62.5283 238.902 62.3623C241.89 60.8479 245.372 61.657 245.517 61.74C245.64 61.8022 245.764 61.823 245.888 61.8022H245.867Z" fill="#080435"/>
<path d="M240.303 67.8598C240.077 69.312 240.736 70.5983 241.767 70.785C242.797 70.951 243.807 69.9137 244.033 68.4822C244.26 67.03 243.601 65.7437 242.57 65.557C241.54 65.3703 240.53 66.4284 240.303 67.8598Z" fill="#080435"/>
<path d="M266.908 69.4782C267.052 69.5197 267.196 69.4782 267.32 69.333C267.526 69.1048 267.588 68.7313 267.444 68.4824C267.361 68.3372 265.609 64.6444 261.57 66.553C261.323 66.6775 261.158 67.0094 261.22 67.3206C261.282 67.6318 261.529 67.7355 261.797 67.6733C264.435 67.2376 266.619 69.1463 266.681 69.2707C266.743 69.3745 266.825 69.4367 266.928 69.4574L266.908 69.4782Z" fill="#080435"/>
<path d="M259.365 72.9011C258.623 74.1459 258.726 75.5981 259.612 76.1582C260.498 76.7184 261.838 76.1582 262.58 74.9135C263.322 73.6687 263.219 72.2165 262.332 71.6564C261.446 71.0962 260.107 71.6564 259.365 72.9011Z" fill="#080435"/>
<path d="M242.137 88.2326C238.51 88.2326 233.049 87.1538 229.793 81.3864C229.67 81.179 229.752 80.93 229.958 80.8056C230.164 80.6811 230.412 80.7641 230.535 80.9715C235.357 89.5603 245.167 87.1538 245.579 87.0293C245.805 86.9671 246.032 87.1123 246.094 87.3405C246.156 87.5687 246.011 87.7969 245.785 87.8592C245.744 87.8592 244.26 88.2326 242.137 88.2326Z" fill="#020202"/>
<path d="M228.928 82.88C228.928 82.88 228.845 82.88 228.804 82.8593C228.578 82.7763 228.454 82.5481 228.536 82.3199C228.887 81.2619 229.814 80.2868 231.318 79.4155C231.524 79.291 231.813 79.3325 231.937 79.54C232.06 79.7267 232.06 79.9549 231.854 80.0793L231.731 80.1623C230.103 81.0959 229.526 82.0087 229.34 82.5896C229.278 82.7763 229.113 82.88 228.949 82.88H228.928Z" fill="#020202"/>
<path d="M276.687 173.155L274.925 173.739L281.745 194.608L283.506 194.025L276.687 173.155Z" fill="#131F2D"/>
<path d="M262.745 93.5226C260.56 93.5226 258.602 92.7135 257.016 91.116C251.946 86.054 252.173 74.3118 257.551 64.9347C260.869 59.1673 265.506 55.3708 269.957 54.7692C272.615 54.4165 275.027 55.2048 276.902 57.0927C281.971 62.1547 281.745 73.8969 276.366 83.2741C273.048 89.0414 268.412 92.8379 263.96 93.4396C263.548 93.5018 263.136 93.5226 262.745 93.5226ZM271.173 55.9724C270.823 55.9724 270.493 55.9932 270.122 56.0347C266.042 56.5741 261.735 60.1631 258.623 65.5778C253.512 74.4778 253.183 85.5354 257.881 90.224C259.468 91.8214 261.508 92.4853 263.775 92.1948C267.855 91.6347 272.162 88.0664 275.274 82.6517C280.384 73.7517 280.714 62.6941 276.016 58.0055C274.676 56.657 273.007 55.9724 271.173 55.9724Z" fill="white"/>
<path opacity="0.3" d="M227.3 51.201C222.952 60.5159 224.147 71.8432 229.979 76.511C235.811 81.1789 244.075 77.4031 248.423 68.0882C252.771 58.7733 251.576 47.446 245.744 42.7782C239.912 38.1103 231.648 41.8861 227.3 51.201Z" fill="white"/>
<path opacity="0.3" d="M257.119 65.7024C252.75 75.0588 253.348 86.4276 258.438 91.0746C263.528 95.7217 271.215 91.9045 275.563 82.5481C279.932 73.1917 279.334 61.8229 274.244 57.1758C269.154 52.5287 261.467 56.346 257.119 65.7024Z" fill="white"/>
<path d="M236.532 79.0006C234.245 79.0006 232.102 78.233 230.185 76.7393C223.735 71.6773 222.313 59.4579 227.012 49.5206C229.752 43.7118 233.997 39.7493 238.675 38.6497C241.89 37.8821 244.961 38.5668 247.557 40.5999C254.007 45.6619 255.429 57.8812 250.731 67.8185C247.99 73.6274 243.745 77.5898 239.067 78.6894C238.201 78.8968 237.357 79.0006 236.532 79.0006ZM241.21 39.6248C240.468 39.6248 239.726 39.7078 238.984 39.8945C234.739 40.9111 230.7 44.7076 228.166 50.0808C223.714 59.5201 224.971 71.0341 230.968 75.7642C233.256 77.5691 235.955 78.15 238.778 77.4861C243.024 76.4696 247.063 72.6731 249.597 67.2999C254.049 57.8605 252.791 46.3465 246.795 41.6164C245.126 40.3094 243.23 39.6248 241.21 39.6248Z" fill="white"/>
<path d="M257.881 69.6855C257.531 69.6855 257.18 69.5196 256.954 69.2291C256.851 69.1046 254.419 66.055 249.123 65.9098C248.484 65.9098 247.969 65.3496 247.969 64.7065C247.969 64.0634 248.505 63.524 249.164 63.5655C255.635 63.7314 258.685 67.6317 258.808 67.7976C259.2 68.3163 259.097 69.0631 258.582 69.4573C258.376 69.6233 258.128 69.7063 257.86 69.7063L257.881 69.6855Z" fill="white"/>
<path d="M233.441 31.5339C255.45 39.1062 269.525 60.9309 268.041 84.3116C267.959 85.66 267.856 87.0708 267.711 88.4815C267.711 88.4815 252.173 90.4316 249.948 105.389C249.247 110.078 262.024 119.393 262.992 119.061C270.39 116.551 290.524 100.95 289.576 66.0551C288.628 31.1605 277.726 4.56422 246.362 0.498021C214.997 -3.54743 217.202 17.9661 217.202 17.9661C217.202 17.9661 221.88 27.5507 233.42 31.5132L233.441 31.5339Z" fill="#131F2D"/>
<path d="M237.83 32.0109C237.83 32.0109 237.274 32.3014 236.346 32.903C232.781 35.1851 223.838 41.8445 221.344 52.8191C218.191 66.6359 230.741 76.6147 226.063 87.0913C221.365 97.568 212.813 84.4981 204.776 85.5976C196.739 86.6972 191.319 82.4443 192.288 66.5736C193.256 50.6823 200.407 14.0865 219.015 15.8499L237.871 32.0317L237.83 32.0109Z" fill="#131F2D"/>
<path d="M273.934 102.609C273.934 102.609 273.893 102.609 273.873 102.609C273.687 102.568 273.543 102.381 273.584 102.194C277.87 79.7265 271.832 56.9682 263.96 44.3755C251.781 24.9158 236.717 25.8494 236.573 25.8494C236.388 25.8494 236.202 25.7249 236.182 25.5174C236.182 25.31 236.305 25.144 236.511 25.1233C236.656 25.1233 252.111 24.1067 264.558 43.9813C272.513 56.6778 278.612 79.6435 274.285 102.298C274.244 102.464 274.099 102.589 273.934 102.589V102.609Z" fill="white"/>
<path d="M205.683 73.3369C205.539 73.3369 205.394 73.2539 205.353 73.1087C199.686 57.487 205.745 31.928 212.401 24.7499C219.181 17.4474 228.454 22.5716 228.557 22.6338C228.722 22.7376 228.784 22.945 228.701 23.1317C228.619 23.3184 228.392 23.3599 228.207 23.277C227.836 23.0695 219.325 18.3809 212.937 25.2686C206.384 32.3222 200.449 57.487 206.033 72.8804C206.095 73.0672 206.013 73.2746 205.827 73.3369C205.786 73.3369 205.745 73.3576 205.704 73.3576L205.683 73.3369Z" fill="white"/>
<path d="M278.571 74.6023C278.365 74.6023 278.221 74.4363 278.221 74.2289C278.221 73.7932 279.622 31.1811 263.569 22.3641C247.495 13.547 234.141 21.555 234.018 21.6379C233.853 21.7417 233.626 21.6794 233.523 21.5135C233.42 21.3475 233.482 21.1193 233.647 21.0156C233.791 20.9326 247.474 12.7172 263.919 21.7209C280.364 30.7454 279.004 72.4655 278.942 74.2289C278.942 74.4156 278.777 74.5815 278.591 74.5815L278.571 74.6023Z" fill="white"/>
</g>
<defs>
<clipPath id="clip0_173_447">
<rect width="420" height="445" fill="white"/>
</clipPath>
</defs>
</svg>
