<svg width="160" height="13" viewBox="0 0 160 13" fill="none" xmlns="http://www.w3.org/2000/svg">
<path d="M7.36844 7.5222C7.50233 7.5222 7.63621 7.5222 30.9341 7.38832C54.232 7.25444 100.69 6.98667 125.56 6.71484C150.43 6.44302 152.304 6.17525 153.604 5.97037C156.818 5.46408 158.288 4.95406 158.495 4.55038C159.873 1.86293 151.018 2.52386 140.064 1.57856C131.941 0.877597 118.533 0.901022 96.7078 2.50358C74.8826 4.10613 45.0264 7.58712 27.9055 9.38036C10.7845 11.1736 7.30353 11.1736 5.30947 11.1067C2.9067 11.026 2.09827 10.634 1.42277 10.2303C1.14891 9.96052 1.01503 9.55887 1.14688 9.21807C1.27874 8.87728 1.68039 8.60951 2.90564 7.92791" stroke="#454949" stroke-opacity="0.33" stroke-width="2" stroke-linecap="round"/>
</svg>
